<?xml version="1.0" encoding="UTF-8"?>
<svg width="64px" height="64px" viewBox="0 0 64 64" version="1.1" xmlns="http://www.w3.org/2000/svg" xmlns:xlink="http://www.w3.org/1999/xlink">
    <title>img / logo / projects / BSC / Alpaca Finance - ALPACA</title>
    <defs>
        <path d="M58.5537534,29.2769057 C58.5537534,45.4460873 45.4459713,58.5536761 29.2767898,58.5536761 C13.1076082,58.5536761 -1.5947635e-15,45.4460873 -1.5947635e-15,29.2769057 C-1.5947635e-15,13.1077241 13.1076082,-1.5947635e-15 29.2767898,-1.5947635e-15 C45.4459713,-1.5947635e-15 58.5537534,13.1077241 58.5537534,29.2769057 Z" id="path-1"></path>
    </defs>
    <g id="img-/-logo-/-projects-/-BSC-/-Alpaca-Finance---ALPACA" stroke="none" stroke-width="1" fill="none" fill-rule="evenodd">
        <g id="alpaca_finance-ALPACA-logo">
            <path d="M64.0000773,32.0000966 C64.0000773,49.6732219 49.673106,64 31.9999807,64 C14.3269134,64 0,49.6732219 0,32.0000966 C0,14.3269134 14.3269134,0 31.9999807,0 C49.673106,0 64.0000773,14.3269134 64.0000773,32.0000966 Z" id="Path" stroke="#31C77F" stroke-width="1.20825"></path>
            <g id="Clipped" transform="translate(2.723191, 2.723191)">
                <mask id="mask-2" fill="white">
                    <use xlink:href="#path-1"></use>
                </mask>
                <g id="Path"></g>
                <g id="Group" mask="url(#mask-2)" fill-rule="nonzero">
                    <g transform="translate(14.394412, 5.485517)" id="Path">
                        <path d="M0.656441959,54.4001682 C0.90429806,51.9836195 3.93556079,47.5001866 3.80438831,45.083638 C3.78970627,44.676018 3.80438831,44.2683981 3.86253694,43.8609713 C4.11039304,42.1576609 4.03756237,40.4545437 3.90638989,38.7659154 C3.84804808,38.0671659 3.90638989,37.3830985 4.02288033,36.6843491 C4.27073643,35.1850419 4.41639777,33.7002235 4.24156552,32.1717453 C4.08122214,30.7305867 4.25605438,29.2894281 4.54757025,27.8774403 C4.79523317,26.6837515 4.76625544,25.4900626 4.57674115,24.2963737 C4.53308139,24.0344151 4.48922844,23.7577744 4.53308139,23.5103047 C4.69323159,22.6224274 4.7807443,21.719868 4.80991521,20.715307 C5.66978077,21.4723982 6.58779495,21.516058 7.56434412,21.297566 C8.36586787,21.1229269 8.84670484,20.5990097 9.16739161,19.8855783 C9.26939319,19.6527906 9.31305295,19.3616611 9.7065704,19.4489806 C9.89608469,19.4926404 10.1145767,19.4634695 10.1437476,19.2015109 C10.1729185,18.9540411 9.98340422,18.8812105 9.77940107,18.8375507 C8.56987102,18.5609101 7.34565893,18.2697806 6.13612888,18.007822 C5.74261144,17.9205024 5.33460513,17.8185009 4.94108769,17.7748411 C4.59123001,17.7311813 4.51839934,17.5710311 4.54757025,17.2507307 C4.72240249,15.7661055 4.9994295,14.3102649 5.59695009,12.927448 C6.17978864,11.5880978 6.92297058,10.3217714 7.98683929,9.28823274 C8.11801177,9.15725344 8.27835515,9.0115921 8.19084244,8.79329327 C8.10352291,8.57480126 7.92869066,8.51665264 7.72449432,8.58948331 C7.50600231,8.66231398 7.4184896,8.54582354 7.31648802,8.4001622 C7.11248487,8.08005498 6.89379967,7.75975458 6.70447857,7.42488804 C6.06329821,6.37680254 5.29075218,5.43060269 4.51839934,4.46983671 C4.35805596,4.26604607 4.15405281,4.09136837 3.93556079,3.93123748 C3.27969839,3.46541097 2.69666666,3.72744684 2.62383599,4.54262875 C2.56568736,5.06668116 2.60934713,5.60528039 2.79886142,6.10021985 C3.48370154,7.83258525 4.00839146,9.63751086 4.9994295,11.2388197 C5.24709242,11.6464396 4.89742793,11.8355675 4.76625544,12.126697 C4.51839934,11.952058 4.38722686,11.7045882 4.27073643,11.4862894 C2.91535185,9.09891163 1.77865248,6.62427227 1.29762232,3.8875584 C1.16664302,3.17428147 1.16664302,2.44641909 1.19562074,1.73314217 C1.23947369,0.947053887 1.58913818,0.743263239 2.34700216,0.932507071 C2.90086299,1.07807182 3.32335816,1.42744653 3.73155764,1.80591488 C5.11591994,3.08692331 6.29647226,4.52806261 7.54966208,5.92554216 C7.88483771,6.3040105 8.22001334,6.68249817 8.54070011,7.06096651 C8.74470327,7.29388943 8.93421756,7.51224621 8.96338846,7.86156297 C8.99236618,8.25469404 9.26939319,8.37118448 9.63373973,8.22552314 C9.72105926,8.19635223 9.80857197,8.15269247 9.89608469,8.09454384 C10.5080941,7.67243505 11.1931275,7.52679303 11.9216273,7.41034123 C13.9181923,7.0464197 15.8855863,7.19198445 17.8529803,7.59960438 C18.1591782,7.67243505 18.4215232,7.83258525 18.698357,7.99254227 C19.2958776,8.35650243 19.5143696,8.2691829 19.6893951,7.59960438 C19.7330548,7.41034123 19.8495453,7.25021035 19.9807177,7.1046456 C21.5984473,5.29958476 23.0994932,3.39261894 24.8773729,1.73314217 C25.2708904,1.36922064 25.6644078,1.01984592 26.1890977,0.859715037 C27.0487701,0.583132356 27.4131166,0.845168222 27.4714585,1.73314217 C27.57346,3.42173189 27.1654537,5.02300208 26.6262749,6.59515932 C26.0870962,8.16737451 25.343721,9.6521929 24.5568793,11.1078404 C24.3818539,11.4281408 24.1633619,11.7045882 23.9446767,12.0685484 C23.2306657,11.0058388 23.2306657,11.0205209 23.7698445,10.001471 C24.4401957,8.74963351 25.125229,7.52679303 25.5915771,6.17299257 C25.7808982,5.60528039 25.9412416,5.02300208 25.9267528,4.41161081 C25.9120707,4.03312315 25.8392401,3.69831457 25.4604047,3.50909005 C25.0960581,3.33439304 24.8045423,3.49452392 24.5421973,3.7128807 C24.2217037,3.98946338 23.8865281,4.28059288 23.5950122,4.60085465 C22.5894853,5.69261924 21.4817637,6.71161112 20.8405833,8.08005498 C20.7240929,8.34201357 20.2722336,8.45850401 20.4470659,8.8514419 C20.5637495,9.11359368 20.8405833,9.27355069 21.0154155,9.4920427 C22.0501133,10.7438802 22.880808,12.1122082 23.3910091,13.6551752 C23.7115026,14.6305653 23.9301878,15.6496151 24.0613603,16.6684717 C24.1197021,17.1925821 24.1197021,17.1925821 23.5803302,17.3382435 C22.2543097,17.6875216 20.9425849,18.0369929 19.6163712,18.386271 C19.4998808,18.4154419 19.3831971,18.4299308 19.2667067,18.4880794 C18.9898729,18.6192519 18.960702,18.8667216 19.2230469,19.0266786 C19.3978792,19.1286802 19.4998808,19.1868288 19.5582226,19.4198097 C19.7767146,20.35154 20.3742352,20.9482879 21.3216135,21.0792672 C22.2687985,21.2249285 23.157835,21.0647783 23.7115026,20.1622189 C23.7406736,20.1040703 23.7553556,20.0748994 23.8573572,20.133048 C23.8281863,21.2102464 23.9155058,22.3021269 24.1197021,23.3793254 C24.1633619,23.5831354 24.134191,23.8159231 24.1050201,24.019733 C23.8281863,25.388061 23.8865281,26.7419001 24.1633619,28.0957392 C24.4548778,29.5950464 24.5421973,31.0945469 24.367365,32.608343 C24.2361926,33.7147123 24.3381941,34.8210817 24.5421973,35.8982802 C24.7753714,37.1209468 24.8337132,38.3293177 24.7025407,39.5519843 C24.5713682,40.804015 24.615028,42.0413637 24.7462004,43.2932012 C24.8337132,44.0792702 28.2584933,47.3545253 28.2148336,48.1552763 C28.8705028,49.2906234 29.7158795,51.4597024 30.5318921,52.5077299 L28.8314795,55.0830765 L16.1740112,57.3099177 L4.80991521,56.2551287 L0.656441959,54.4001682 Z" fill="#FFFFFF"></path>
                        <path d="M79.4824096,26.829606 C78.7975695,26.3056888 78.0105346,25.9270466 77.2381818,25.5341087 C74.7897576,24.29676 72.2831848,23.2195616 69.776612,22.1423631 C67.4740423,21.1524842 65.4336244,19.7986451 63.7285754,17.9498665 C63.4662304,17.6734191 63.1749077,17.4112673 62.8833918,17.1637976 C62.5190453,16.8436904 62.111039,16.8145195 61.6736686,17.0328183 C61.0616592,17.3384366 60.4496497,17.658737 59.866618,18.0226972 C59.0359233,18.5321255 57.636879,19.2892168 56.7480357,19.6968367 C52.1282143,21.8512336 47.3480496,23.5980106 42.568078,25.3447876 C38.3272852,26.9024366 34.2174718,28.7512152 30.2390239,30.8764412 C28.7671489,31.6625102 27.4262532,32.6379002 26.1730634,33.7150987 C25.9690602,33.8897378 25.7650571,34.0935477 25.5608608,34.2536979 C25.5463719,34.2392091 25.531883,34.2392091 25.517201,34.224527 C25.4588592,34.3991661 25.3276867,34.5593163 25.1528545,34.632147 C25.0800238,34.9232765 24.8613386,35.1707462 24.4680143,35.1707462 C24.4388434,35.1707462 24.4096725,35.1707462 24.3805016,35.1707462 C24.3513307,36.8885455 24.4096725,38.6061515 24.5991868,40.3239508 C24.6720175,40.9498696 24.5116741,41.3719783 24.0744969,41.8379401 C21.9175886,44.1378052 19.4838464,46.0739033 16.9917625,47.9663416 C16.9189318,48.0244902 16.8169302,48.06815 16.7585884,48.1409806 C16.5254144,48.4904519 16.2630694,48.461281 15.9134049,48.286642 C15.2722246,47.9663416 14.630851,48.1409806 14.0625013,48.4757699 C13.7420077,48.665091 13.5088337,48.650409 13.2173178,48.5049408 C11.7599317,47.7625316 10.3172276,47.0201224 8.97652503,46.0594144 C7.1692812,44.778406 5.36223056,43.5118864 3.77367193,41.9689194 C3.58435082,41.7940871 3.45317834,41.6049592 3.38034767,41.4156381 C3.35117677,41.4011493 3.30732382,41.3866604 3.2783461,41.3719783 C3.26366405,41.3719783 3.26366405,41.3719783 3.24917519,41.3574895 C2.92848842,41.2265102 3.45317834,40.7752305 3.10332067,40.7168887 C3.03049,40.7460596 2.97214818,40.7605484 2.89931751,40.7897194 C2.81199798,40.8770389 2.15613558,40.9790405 1.70427633,41.3719783 C1.67510542,41.4011493 1.63144566,41.4303202 1.58778589,41.4592979 C0.247083362,42.5220075 -0.0882854547,44.0504856 0.69874943,45.5644749 C0.844410771,45.8409224 0.800751006,46.0302435 0.68426057,46.2777132 C0.0720579313,47.5295507 0.130399742,48.7379217 1.0194362,49.8440979 C1.25261026,50.1499094 1.47110227,50.4700166 1.79178904,50.7029975 L2.52048212,51.2124258 C2.94297728,51.4454067 3.55517992,51.6783876 3.87567351,51.7657071 C5.23105808,52.1296673 6.60093151,52.3624549 7.99997585,52.4207968 C8.6413494,52.4497745 9.29701862,52.3479661 9.93819897,52.2898175 C11.1770931,52.173327 12.4302829,52.0713254 13.654495,51.8966864 C14.1208431,51.8238557 14.5580203,51.954835 14.9951975,51.9695171 C15.388715,51.9840059 15.7967213,52.0276657 16.1174081,51.8238557 C16.7440996,51.4454067 17.4436217,51.4309178 18.113973,51.372576 C19.6003369,51.2415967 21.057723,50.9068075 22.4714494,50.4555278 C23.9141535,50.0042481 25.3568576,49.5676504 26.7414131,48.9270496 C28.1257754,48.286642 29.3354986,47.4714021 30.0350208,46.0594144 C30.1078515,45.9284351 30.1806821,45.8409224 30.2973657,45.7682849 C31.3612345,45.1276841 33.0954544,44.8073837 34.0426395,44.4144458 C35.5145145,43.5992059 36.9719007,42.7839661 38.4584577,41.9978971 C40.5570242,40.8917209 42.6700796,39.7998404 44.9434784,39.0574312 C48.7909469,37.7764228 52.7693947,37.1360152 56.7770134,36.6410757 C58.2490816,36.4517546 59.7354455,36.3352642 61.1928316,35.9714972 C63.7140865,35.3308964 66.1478286,34.4575079 68.6107417,33.6714389 C69.4267543,33.4094803 70.2574489,33.1473286 71.0444838,32.7980504 C73.5073969,31.720852 75.8683083,30.4251615 78.2290266,29.1588351 C78.666397,28.9258543 79.0888922,28.6347248 79.4968985,28.3291064 C80.1966138,27.7758251 80.1819318,27.3682052 79.4824096,26.829606 Z" fill="#231F20"></path>
                        <path d="M28.2897893,1.52944811 C28.2314475,0.423117384 27.4735835,-0.173727063 26.3805439,0.0446297192 C25.8850249,0.146534702 25.4186767,0.321212401 24.9961816,0.626908032 C23.9614838,1.38386404 23.0869362,2.31551707 22.2562415,3.27626373 C21.2798855,4.39716059 20.2888475,5.51803813 19.3416624,6.66802862 C19.0501465,7.01740334 18.7878016,7.03196947 18.423455,6.87183859 C17.8551054,6.60980273 17.2575848,6.40601208 16.6310865,6.36233299 C14.4450072,6.20222143 12.258928,6.1294294 10.1603615,6.94461131 C9.72318429,7.11930832 9.47552137,7.03195016 9.18400551,6.68259476 C8.25130928,5.56171722 7.28944215,4.45538649 6.31308616,3.34905576 C5.4532206,2.37374297 4.57886619,1.42754313 3.51499748,0.670587116 C3.0049896,0.306665585 2.45112877,0.131968568 1.83911932,0.102855619 C1.06657329,0.0737426689 0.556565416,0.452230334 0.367051125,1.20918635 C0.308902499,1.44208994 0.294220454,1.68955967 0.294220454,1.92248259 C0.294220454,3.24715078 0.542076556,4.54272534 0.804421517,5.8382999 C1.18325691,7.71609481 2.04312247,9.41921203 2.7863044,11.1515002 C3.07782027,11.8357607 3.47133771,12.4761683 3.98134559,13.0147676 C4.17085988,13.2185775 4.21451965,13.3934098 4.14168898,13.6553684 C4.02500536,14.0629883 3.92300378,14.4850971 3.82100221,14.9072059 C3.4129959,16.4356841 3.26714138,17.9933331 3.50031543,19.5509822 C3.63148792,20.3807109 3.6025102,21.1667799 3.51499748,21.9818265 C3.4129959,22.8698971 3.383825,23.7432856 3.58782815,24.6313561 C3.83568425,25.6793837 3.77734244,26.7274112 3.51499748,27.775632 C3.23816366,28.8818081 3.09230913,29.9881775 3.15065094,31.1237178 C3.22348161,32.3318955 3.07782027,33.5255844 3.03396732,34.7192733 C3.01947846,35.4180227 3.03396732,36.1167722 2.87381712,36.8008396 C2.66981397,37.674228 2.68430283,38.5622986 2.81547531,39.4501759 C3.06313823,41.1824641 2.90298803,40.3382465 2.9758187,41.386274 C3.29631228,41.386274 3.67534087,42.3906418 4.0105165,42.3763082 C3.99583445,41.5609131 3.90851492,39.5958373 3.83568425,38.7805974 C3.77734244,38.081848 3.83568425,37.3977806 3.95217469,36.6990312 C4.1998376,35.1995307 4.34569213,33.7147123 4.17085988,32.1862342 C4.0105165,30.7452687 4.18534874,29.3041101 4.47686461,27.8921224 C4.72452753,26.6984335 4.69535662,25.5047446 4.50603552,24.3110557 C4.46218257,24.0490971 4.4185228,23.7724565 4.46218257,23.5249867 C4.62252595,22.6369162 4.71003867,21.73455 4.73920957,20.729989 C5.59888194,21.4870803 6.51708931,21.53074 7.4934453,21.312248 C8.29496905,21.137609 8.7759992,20.6134986 9.09649279,19.9002603 C9.19868755,19.6672794 9.24234732,19.3761499 9.63586476,19.4636626 C9.82518586,19.5073224 10.0438711,19.4781515 10.073042,19.2161929 C10.1022129,18.9687232 9.91269858,18.8958925 9.70869543,18.8522327 C8.49916538,18.5755921 7.27495329,18.2844626 6.06523006,18.022504 C5.6719058,17.9351845 5.26370631,17.8331829 4.87038205,17.7895232 C4.52052438,17.7458634 4.44769371,17.5857132 4.47686461,17.2654128 C4.65169686,15.7805944 4.92853068,14.3249469 5.52605127,12.9421301 C6.10908301,11.6027799 6.85226494,10.3364535 7.91613365,9.30291478 C8.04730613,9.1717423 8.20764951,9.02627414 8.1201368,8.80797532 C8.03281727,8.58948331 7.85779184,8.53133468 7.65378869,8.60416535 C7.43529667,8.67680284 7.34778396,8.56050559 7.24578238,8.41484424 C7.04177923,8.09454384 6.82309404,7.77443662 6.63377293,7.43955077 C5.99239939,6.39144594 5.22004655,5.4452461 4.44769371,4.48449944 C4.28735032,4.28068947 4.08334717,4.10601178 3.86466197,3.94590021 C3.20899275,3.4800737 2.62596102,3.74209024 2.55313035,4.55727216 C2.49478854,5.08132457 2.53864149,5.61994312 2.72796259,6.11486326 C3.4129959,7.84707411 3.93768583,9.6521929 4.92853068,11.2535017 C5.17638678,11.6611217 4.8265291,11.8502496 4.69535662,12.1413791 C4.44769371,11.96674 4.31652122,11.7192703 4.1998376,11.5009715 C2.84464622,9.11359368 1.70794684,6.63891567 1.22691668,3.90222113 C1.0957442,3.18892488 1.0957442,2.46108182 1.1249151,1.74778557 C1.16857487,0.961716613 1.51843255,0.757925965 2.27629653,0.947169798 C2.82996417,1.09273455 3.25265252,1.44208994 3.66065882,1.82057761 C5.0452143,3.10158603 6.22557344,4.54272534 7.47895644,5.94018556 C7.81413207,6.31867323 8.1493077,6.69714157 8.46999448,7.07562924 C8.67399763,7.30853284 8.86331873,7.52688962 8.89248964,7.87624502 C8.92166054,8.26937609 9.19868755,8.38567334 9.5628409,8.24020518 C9.65035362,8.21103428 9.73786633,8.16737451 9.82518586,8.10922589 C10.4373885,7.68711709 11.1222286,7.54145575 11.8509217,7.42500395 C13.8474866,7.06106311 15.8148807,7.20664717 17.7822747,7.61428642 C18.0882794,7.68692391 18.3506244,7.84707411 18.6276514,8.00722431 C19.225172,8.37118448 19.443664,8.28386495 19.6184962,7.61428642 C19.6623492,7.42498464 19.7788396,7.26487307 19.9100121,7.11930832 C21.5277416,5.31424748 23.0287876,3.40728166 24.8066673,1.74778557 C25.2001847,1.38386404 25.5937022,1.03450865 26.1181989,0.874377764 C26.9780645,0.597795082 27.342411,0.859830948 27.4007528,1.74778557 C27.5027544,3.43639461 27.0947481,5.0376648 26.5555693,6.60980273 C26.0161973,8.18186337 25.2730154,9.66668176 24.4859805,11.1225224 C24.3111483,11.4426297 24.0926563,11.7192703 23.8739711,12.0832305 C23.15996,11.0205209 23.15996,11.0352029 23.6991388,10.0161531 C24.3694901,8.76431555 25.0543302,7.54145575 25.5206783,6.1876553 C25.7101926,5.61994312 25.870536,5.0376648 25.8560471,4.42627354 C25.8413651,4.04778588 25.7685344,3.71297729 25.389699,3.52373346 C25.0253525,3.34905576 24.7338366,3.50918665 24.4714917,3.72754343 C24.1508049,4.00412611 23.8156293,4.29525561 23.5243066,4.61551737 C22.5185865,5.70728197 21.411058,6.72625452 20.7698777,8.09454384 C20.653194,8.35669562 20.201528,8.47318606 20.3763602,8.86612394 C20.4930438,9.12808254 20.7698777,9.28823274 20.9447099,9.50672475 C21.9794077,10.7585623 22.8101024,12.1268902 23.3201102,13.6698572 C23.640797,14.6452473 23.8594822,15.6642971 23.9906547,16.6831538 C24.0488033,17.2072642 24.0488033,17.2072642 23.5096245,17.3527323 C22.1834109,17.7022036 20.8718792,18.0514817 19.5456656,18.4009531 C19.4291751,18.430124 19.3124915,18.4446128 19.1960011,18.5027614 C18.9189741,18.6337407 18.8898032,18.8812105 19.1521481,19.0413607 C19.3271736,19.1433622 19.4291751,19.2015109 19.4873238,19.4344917 C19.706009,20.3660289 20.3035295,20.9629699 21.2507146,21.0939492 C22.1980929,21.2396105 23.0869362,21.0794603 23.640797,20.1769009 C23.6699679,20.1185591 23.6844568,20.0895814 23.7864583,20.14773 C23.7574806,21.2249285 23.8448002,22.316809 24.0488033,23.3940075 C24.0926563,23.5978174 24.0634854,23.8306051 24.0343145,24.0344151 C23.7574806,25.402743 23.8156293,26.7565821 24.0926563,28.1104212 C24.3839789,29.6097285 24.4714917,31.1090357 24.2966594,32.623025 C24.1654869,33.7293944 24.2674885,34.8357637 24.4714917,35.9129622 C24.7046657,37.1356288 24.7630075,38.3439998 24.631835,39.5666664 C24.5881753,39.9742863 24.5590044,40.3819062 24.5590044,40.7895262 C24.89418,40.804015 25.2293556,40.8185039 25.5645313,40.8331859 C25.5790201,40.629376 25.5937022,40.4110771 25.6228731,40.2072672 C25.7538524,39.042556 25.9141958,37.8927201 25.6957038,36.6990312 C25.375017,34.952061 25.4186767,33.1616242 25.389699,31.3856764 C25.375017,30.1046679 25.3458461,28.8528304 25.0253525,27.6009929 C24.7774964,26.6400917 24.7046657,25.6502128 24.9233509,24.6750159 C25.1710138,23.5978174 25.1418429,22.5351078 24.9961816,21.4579094 C24.9233509,20.9629699 24.8211562,20.4535416 24.9523286,19.9586021 C25.2001847,18.983212 25.1710138,18.007822 25.1273541,17.017943 C25.0690123,15.8534251 24.7483255,14.7470557 24.4570028,13.6408795 C24.3694901,13.3060903 24.3839789,13.0731094 24.6463239,12.8111508 C24.9814995,12.4761683 25.2585265,12.0687416 25.4625297,11.6319508 C26.6865486,9.14276458 27.7795882,6.62436886 28.100275,3.84399523 C28.2167654,3.11615217 28.333449,2.33006389 28.2897893,1.52944811 Z" fill="#231F20"></path>
                        <path d="M78.6082484,27.7319722 C77.5735506,28.2850603 76.6553432,28.7946818 75.722647,29.2749392 C74.1487704,30.0901791 72.5457229,30.8617592 70.9279934,31.5894863 C70.0974919,31.9679354 69.2376264,32.2590648 68.3630788,32.5212166 C66.2936832,33.1616242 64.2389696,33.8167139 62.1840629,34.4426327 C60.2750106,35.0248917 58.2784457,35.2287016 56.3110517,35.4761714 C53.8042857,35.7819829 51.3123949,36.131261 48.8639707,36.7282021 C46.7217445,37.2521193 44.579325,37.7907185 42.5246114,38.6204472 C40.9360528,39.261048 39.4350069,40.0616058 37.933961,40.8476748 C36.2289119,41.7357453 34.5675226,42.6964534 32.9206222,43.6863323 C32.2794418,44.0794634 31.5507487,44.2541024 30.8512266,44.5015721 C30.6180525,44.5744028 30.4432203,44.5452319 30.3559007,44.2685913 C30.1080446,43.5261821 29.5688659,43.0167538 28.8693437,42.6819645 C28.6069987,42.5509852 28.563339,42.376153 28.5778278,42.0997055 C28.6069987,41.6920856 28.5925099,41.2844656 28.4466553,40.8913346 C28.2718231,40.3963951 27.9511363,40.0762879 27.4556173,39.9306265 C26.9892692,39.7851584 26.5229211,39.6686679 26.0420841,39.7268166 C25.7213973,39.7704763 25.6049069,39.6539859 25.5902248,39.3628564 C25.575736,39.1300687 25.5465651,38.882599 25.5320762,38.6496181 C25.5029053,38.0236994 25.575736,37.3832917 25.4590524,36.7863507 C25.3280731,36.0584304 25.5612471,35.5926618 26.1004259,35.1124044 C27.9219654,33.4674358 29.9915542,32.244576 32.1774402,31.1673775 C36.8556034,28.8528304 41.7230877,27.0040519 46.6197429,25.242786 C50.9188775,23.6996258 55.1160105,21.9236779 59.2111419,19.9149423 C60.158327,19.4489806 61.0618523,18.8958925 61.9653777,18.3572933 C62.2424047,18.1971431 62.4172369,18.1971431 62.6212401,18.4737837 C64.2971182,20.6573515 66.5707102,22.0256795 69.0336232,23.102878 C71.7441992,24.2818848 74.4111154,25.5484044 77.0488607,26.8439017 C77.5443797,27.0768825 78.0254098,27.3971829 78.6082484,27.7319722 Z" fill="#31C77F"></path>
                        <path d="M1.58875181,46.6557759 C1.82192587,46.7575843 1.98226926,46.8159261 2.1279306,46.8740747 C2.39027556,46.9758831 2.66730257,46.9905651 2.84213481,46.7284134 C3.0316491,46.4519659 2.85662367,46.2336671 2.65262052,46.044346 C2.41944647,45.840536 2.18627241,45.636726 1.95309835,45.4184272 C1.00591327,44.5450387 1.41391957,42.9582188 2.30295603,42.4051307 C2.52144804,42.2741514 2.68179143,42.2158096 2.85662367,42.4343016 C2.90047662,42.4924502 2.95862525,42.53611 3.0024782,42.5942586 C4.83869975,44.661336 7.14126941,46.1608364 9.44383906,47.6309728 C10.4932189,48.3007445 11.5715765,48.9411521 12.7374468,49.4069206 C13.0289626,49.5234111 13.1601351,49.6690724 13.1017933,49.9891796 C13.0434515,50.2513314 13.0581335,50.51329 13.1601351,50.7752486 C13.2621367,51.0518892 13.1162822,51.1247199 12.8831081,51.1392088 C12.5042727,51.1828685 12.1254373,51.2412103 11.7319199,51.2412103 C10.2745337,51.2701881 8.81714757,51.5759996 7.3599546,51.4450203 C5.87339755,51.299359 4.43069344,50.9790586 3.07530887,50.30948 C2.59427871,50.0764992 2.17178355,49.7708808 1.85109678,49.3342832 C1.22440528,48.5190433 1.20991642,47.6456548 1.58875181,46.6557759 Z" fill="#31C77F"></path>
                        <path d="M18.3438629,50.3245485 C18.1253709,50.2953776 17.833855,50.5281652 17.6298519,50.3390373 C17.4841905,50.193376 17.4695085,49.9022465 17.3819958,49.6839477 C17.3530181,49.5966281 17.3091651,49.4946265 17.2510165,49.4219891 C17.0468201,49.1745193 17.1926747,49.04354 17.3966778,48.9123676 C18.6645497,48.1262986 19.7867602,47.1511017 20.9962902,46.2777132 C22.4681653,45.1858327 23.765208,43.9048243 24.9894201,42.5509852 C25.3829376,42.1288764 25.6742602,41.6194481 25.6452825,41.0080182 C25.6306005,40.7605484 25.7472841,40.6587401 25.994947,40.6877178 C26.2281211,40.7168887 26.475784,40.7460596 26.708958,40.8042082 C27.4376511,40.9788473 27.7436558,41.5902772 27.4231623,42.2745377 C27.2919898,42.5509852 27.1171575,42.813137 26.971303,43.0895844 C26.8693014,43.2933944 26.8256417,43.4972044 27.0296448,43.6720366 C27.2191591,43.8319936 27.4231623,43.8030159 27.6271654,43.7010143 C27.6416543,43.6865255 27.6708252,43.6865255 27.6855072,43.6720366 C27.8603395,43.5845239 27.962341,43.3080764 28.1371733,43.3662251 C28.3995182,43.4535446 28.6473743,43.6283768 28.8658664,43.8030159 C29.3905563,44.2251247 29.5800706,44.7200642 29.3905563,45.2441745 C29.1718711,45.8264335 28.8222066,46.3503507 28.3558585,46.7871415 C27.4376511,47.6460412 26.3448047,48.1846404 25.1934233,48.5922603 C23.269689,49.2618389 21.3459547,49.9169285 19.3204121,50.2517178 C19.0142142,50.2953776 18.6937206,50.3245485 18.3438629,50.3245485 Z" fill="#31C77F"></path>
                        <path d="M5.51909662,10.8458818 C4.80508559,10.1471324 4.39707929,9.3318925 4.09088138,8.48767492 C3.71204598,7.45407827 3.34769944,6.42053957 3.10003652,5.3433218 C3.04169471,5.1104182 3.02720585,4.87749528 3.01252381,4.63002555 C3.01252381,4.46991399 2.9833529,4.28067016 3.17286719,4.19333131 C3.36238149,4.12053927 3.50804283,4.23699107 3.62453326,4.35344287 C4.2367359,4.89206142 4.76142582,5.5179995 5.18392099,6.21674893 C5.69412205,7.04647765 6.20412993,7.87624502 6.74330871,8.70597374 C6.94731186,9.02627414 6.94731186,9.25906183 6.64130714,9.47755384 C6.17495902,9.81234311 5.92729611,10.3362603 5.51909662,10.8458818 Z" fill="#FEFEFE"></path>
                        <path d="M22.8491257,10.4672396 C22.5139501,9.87049173 22.0039422,9.44818975 21.5084232,8.99710324 C21.2607602,8.76412237 21.2752491,8.60397217 21.4355925,8.32733153 C22.1351147,7.17739899 23.0094691,6.15840712 23.8985055,5.13941524 C24.1608505,4.83371961 24.3940246,4.48436421 24.7292002,4.25146061 C25.0935467,4.00399088 25.3120387,4.10587655 25.3703805,4.54259011 C25.3850626,4.65904191 25.3850626,4.79005984 25.3558917,4.90651164 C25.1372065,5.80905172 24.9476922,6.74068543 24.4813441,7.55586734 C24.014996,8.34201357 23.6069897,9.1425714 23.1989834,9.95781126 C23.1114706,10.1324503 23.0678109,10.3362603 22.8491257,10.4672396 Z" fill="#FEFEFE"></path>
                        <path d="M15.215235,51.080867 C15.1424044,51.0663781 15.0112319,51.0663781 14.8947414,51.0516961 C14.3845404,50.9790586 14.0785357,50.7315888 14.0201938,50.3384578 C13.9620452,49.9453267 14.2825388,49.4214095 14.7052272,49.2612593 C15.492262,48.9409589 16.2207619,49.1739398 16.5559376,49.8435183 C16.7746228,50.2656271 16.716281,50.4841191 16.3519344,50.7752486 C16.0751006,50.9788654 15.6815831,51.0953558 15.215235,51.080867 Z" fill="#31C77F"></path>
                        <path d="M6.26652862,19.6091308 C5.93135299,19.6238128 5.69817893,19.4344917 5.69817893,19.1288734 C5.68369007,18.808573 5.85852232,18.604763 6.13554932,18.604763 C6.47072496,18.590081 6.68921697,18.7794021 6.70389901,19.0997025 C6.70389901,19.4200029 6.57272653,19.5946419 6.26652862,19.6091308 Z" fill="#E7EBEB"></path>
                        <path d="M21.6708916,19.1286802 C21.5980609,19.3616611 21.554208,19.6091308 21.2773741,19.6672794 C21.0150292,19.7256212 20.7673663,19.4781515 20.7673663,19.2015109 C20.7818551,18.9103814 20.9566874,18.76472 21.2190323,18.7502312 C21.4522064,18.7357423 21.6272318,18.8812105 21.6708916,19.1286802 Z" fill="#EFF2F2"></path>
                        <path d="M14.7904217,20.1618325 C15.1547682,19.7250417 15.6211163,19.5357206 16.1749771,19.5504026 C17.0493316,19.5648915 17.6905119,20.1326616 17.7633426,21.0060501 C17.7925135,21.4281589 17.8216844,21.8794386 17.661341,22.2870585 C17.5156797,22.6510187 17.5593394,22.8548287 17.9091971,23.1167873 C18.6232081,23.6845574 18.9875547,24.4414555 18.9292129,25.3876746 C18.900042,25.7661236 18.8127224,26.1300838 18.5503775,26.3775535 C18.200713,26.6978539 18.0111987,27.1199627 17.8363664,27.5130938 C17.4281669,28.4009712 16.684985,28.7941022 15.8106306,28.9395704 C14.8340814,29.0852317 13.9013852,28.837762 13.0706905,28.2991628 C12.6335133,28.0225221 12.3275086,27.6149022 12.1818473,27.1199627 C12.1090166,26.872493 12.007015,26.7123428 11.7883298,26.5668746 C10.9576352,25.9991045 10.7391432,25.0528854 11.234469,24.1794969 C11.3948124,23.8883674 11.5843267,23.5825558 11.8319896,23.3787459 C12.2110182,23.0876164 12.2401891,22.7964869 12.1090166,22.3890601 C11.9339912,21.8357788 12.0506748,21.2971796 12.2401891,20.7730692 C12.6190245,19.7105528 13.4933789,19.4047413 14.4699281,19.9725114 C14.5572476,20.0161712 14.6592492,20.0890019 14.7904217,20.1618325 Z" fill="#030202"></path>
                        <path d="M17.0037399,26.3636442 C16.4500723,26.3199845 15.9253824,25.9851952 15.5318649,25.4174251 C14.9780041,24.6021852 14.9780041,24.6021852 14.4679962,25.446596 C14.0744788,26.0870036 13.4769582,26.407304 12.7192874,26.3636442 C11.7135673,26.2908136 11.2327303,25.3301055 11.7865912,24.4712059 C11.9905943,24.1509055 12.281917,23.8889469 12.5881149,23.655966 C13.0689519,23.2921991 13.0981228,23.2193684 12.8941196,22.6224274 C12.7629472,22.2294895 12.6462635,21.8510404 12.6754344,21.4287385 C12.7482651,20.5116902 13.4624693,20.1332412 14.2495042,20.570032 C14.3804835,20.6426695 14.4824851,20.7446711 14.5991687,20.8175017 C14.8906846,20.9921408 15.1383475,21.0066297 15.3131797,20.6573515 C15.5318649,20.2352427 15.9107003,20.2205607 16.3042178,20.2642205 C16.741395,20.3078802 16.9892511,20.570032 17.1495945,20.9629699 C17.236914,21.1812687 17.2224251,21.3850787 17.1349124,21.5888887 C17.018422,21.8800182 16.8872495,22.1566588 16.7705659,22.4477883 C16.4937321,23.0447293 16.522903,23.1757086 17.1349124,23.4376672 C17.6449203,23.655966 18.0384377,23.9762664 18.2571229,24.5003768 C18.6506404,25.4029362 18.0967795,26.3344733 17.0037399,26.3636442 Z" fill="#FFFFFF"></path>
                        <path d="M12.8815626,27.004245 C13.9307493,26.8879478 13.9890911,26.8587769 15.0821307,25.8105561 C15.6649693,26.5676474 16.3936623,27.0334159 17.3847004,26.9605853 C17.0931845,27.8339738 16.4520041,28.2707646 15.475455,28.2999355 C14.3970974,28.3144244 13.1437144,28.0377837 12.8815626,27.004245 Z" fill="#FDFDFD"></path>
                        <path d="M13.7597807,21.4436137 C13.8034405,21.4727846 13.9199309,21.4874666 13.9637839,21.5456153 C14.153105,21.793085 14.3134484,22.0697256 14.3426193,22.3898329 C14.3571081,22.5354942 14.2842775,22.6664735 14.1239341,22.7248153 C13.9929548,22.7684751 13.89076,22.7101333 13.8034405,22.6228137 C13.5702664,22.375344 13.3954342,22.0842145 13.439094,21.7202543 C13.4535828,21.5747862 13.5410955,21.4727846 13.7597807,21.4436137 Z" fill="#0E0D0D"></path>
                        <path d="M15.493228,22.0689529 C15.5368877,21.9524625 15.5952295,21.7341636 15.6972311,21.5448425 C15.7700618,21.3848855 15.9012343,21.2683951 16.1052374,21.3557146 C16.2508988,21.4285453 16.3092406,21.5595246 16.2800697,21.7049927 C16.2364099,21.9088027 16.1635792,22.1126127 16.0905554,22.3164226 C16.0177247,22.5057437 15.8865522,22.6512119 15.6533782,22.5638924 C15.449375,22.5057437 15.449375,22.3164226 15.493228,22.0689529 Z" fill="#191717"></path>
                        <path d="M1.34070253,49.6399015 L1.00982376e-16,53.3082877 L0.903525321,53.7595674 C0.903525321,53.7595674 2.15690832,50.7171 2.30256966,50.4259705 C2.43374214,50.1203521 1.34070253,49.6399015 1.34070253,49.6399015 Z" fill="#231F20"></path>
                        <path d="M28.1279004,47.2525237 L27.5740396,47.8492716 C27.5740396,47.8492716 29.8766092,53.2352639 30.5616426,53.2499459 C31.2464827,53.2499459 30.8093055,52.1580654 30.8093055,52.1580654 C30.8093055,52.1580654 28.7982517,47.9512732 28.448394,47.208864 C28.1862422,46.6119229 28.1279004,47.2525237 28.1279004,47.2525237 Z" fill="#231F20"></path>
                    </g>
                </g>
            </g>
        </g>
    </g>
</svg>