<?xml version="1.0" encoding="UTF-8"?>
<svg width="64px" height="64px" viewBox="0 0 64 64" version="1.1" xmlns="http://www.w3.org/2000/svg" xmlns:xlink="http://www.w3.org/1999/xlink">
    <title>img / logo / projects / BSC / Baby Doge Coin - BabyDOGE</title>
    <g id="img-/-logo-/-projects-/-BSC-/-Baby-Doge-Coin---BabyDOGE" stroke="none" stroke-width="1" fill="none" fill-rule="evenodd">
        <g id="baby-doge-coin-babydoge-logo" transform="translate(7.000000, 0.000000)" fill-rule="nonzero">
            <path d="M17.7366369,63.9922603 C16.8852729,63.6749338 16.080347,63.2879501 15.3295988,62.7771318 C15.0819293,62.606859 14.7723424,62.6919954 14.4859745,62.6842557 C13.2708459,62.653297 12.0557173,62.7693921 10.8483284,62.606859 C8.78183588,62.3359704 7.45061222,61.1285815 6.71534334,59.2478411 C6.20452496,57.9320968 5.78658264,56.5699144 5.70918592,55.138075 C5.69370657,54.8284881 5.4615164,54.7665708 5.27576426,54.642736 C1.6690769,52.2589169 -0.172965144,48.9308577 0.0127869945,44.5734221 C0.0979233914,42.6462437 0.69387817,40.866119 1.7542133,39.2485275 C2.00962249,38.8615439 2.24181266,38.4513412 2.80680875,38.551957 C3.39502386,38.6525727 3.37954451,39.1556514 3.44920156,39.5735937 C3.99097863,42.4991899 5.5466528,44.7127363 8.09300503,46.2374517 C8.55738538,46.5160799 8.56512505,46.5083403 8.59608374,45.9588235 C8.68895981,44.1167815 9.31587328,42.4759709 10.4768241,41.0363918 C10.8870268,40.5255735 10.7090143,39.5890731 10.1517579,39.2949655 C4.61015243,36.330671 1.87804806,31.2224872 2.46626316,24.9301335 C2.63653596,23.1267898 2.94612285,21.3544048 3.53433796,19.6361975 C3.66591239,19.2492139 3.70461075,18.8699699 3.60399501,18.4520276 C2.44304414,13.7308274 2.3424284,9.00962723 3.66591239,4.29616671 C3.89036289,3.4835011 4.18447045,2.68631484 4.61015243,1.95878563 C5.72466526,0.0703055515 6.73082268,-0.270240036 8.69669948,0.178660966 C10.5774399,0.612082623 12.1485934,1.67241775 13.7042676,2.74823222 C14.4782348,3.29000929 15.2135037,3.8782244 15.9100742,4.52061721 C16.1113057,4.70636935 16.2738388,4.73732804 16.529248,4.62123295 C19.9579229,3.14295551 23.5336516,2.44638499 27.2719134,2.62439746 C30.1355922,2.76371156 32.8676966,3.46028209 35.4914455,4.57479492 C35.8397308,4.72184869 36.0487019,4.69089 36.3350698,4.44322049 C38.0919755,2.93398436 39.9417572,1.55632266 42.0933861,0.627561968 C42.9679691,0.248318018 43.8657711,-0.0148308455 44.8332302,0.000648499388 C45.6149371,0.00838817184 46.2650696,0.310235397 46.7913673,0.898450504 C47.9290991,2.16001711 48.4244382,3.72343095 48.7804631,5.32554315 C49.7324428,9.68297874 49.6705254,14.0326747 48.5792316,18.3591516 C48.4786159,18.7461352 48.4786159,19.1021601 48.6024506,19.4968834 C49.2758021,21.609814 49.7014841,23.7769223 49.7401825,26.0059479 C49.8020999,29.4578418 49.0358723,32.6620662 46.8068466,35.4019103 C45.4833626,37.0349812 43.8735108,38.3275065 42.0082497,39.2949655 C41.5129107,39.5581144 41.2497618,40.5255735 41.6212661,40.9589951 C43.4555685,43.0951447 43.7806347,45.6105383 43.4942668,48.2807253 C43.4478288,48.7218866 43.5484445,48.9540768 43.9354282,49.2094859 C45.2124741,50.0453706 45.9322636,51.2914578 46.2573299,52.7619956 C46.868764,55.5018396 46.1721935,58.0327125 44.8332302,60.385573 C44.0283042,61.801933 42.6583822,62.5062432 41.0175716,62.6223383 C39.8411414,62.7074747 38.6569715,62.6687763 37.4728017,62.6610367 C37.1245164,62.6610367 36.8304088,62.7306937 36.544041,62.9551442 C35.8474704,63.4891816 35.0270652,63.7368511 34.1757012,63.8761652 C34.1060441,63.8839049 34.0441268,63.8993843 34.0286474,63.976781 C33.2159818,63.976781 32.4110559,63.976781 31.5983903,63.976781 C31.3197621,63.8761652 31.0179148,63.9071239 30.731547,63.8374669 C30.2981253,63.6517147 29.880183,63.4427436 29.5473771,63.0867187 C29.3461456,62.8777475 29.1062157,62.8003508 28.8198479,62.8003508 C27.0010248,62.8003508 25.1899415,62.8003508 23.3711185,62.8003508 C23.1079696,62.8003508 22.8680397,62.8545285 22.6745479,63.0402806 C22.1405105,63.5588387 21.5213367,63.8993843 20.7705885,63.9690413 C20.6699728,63.9690413 20.569357,63.9690413 20.4687413,63.9690413 C20.3836049,63.8839049 20.2829891,63.9303429 20.1823734,63.9148636 C20.1049767,63.9226033 20.0198403,63.8993843 19.9579229,63.9690413 C19.7566914,63.9690413 19.5554599,63.9690413 19.3542285,63.9690413 C19.152997,63.8839049 18.9517655,63.8839049 18.750534,63.9690413 C18.6189596,63.9690413 18.4796455,63.9690413 18.348071,63.9690413 C18.278414,63.9071239 18.2164966,63.9071239 18.1468395,63.9690413 C18.0075254,63.9922603 17.8682113,63.9922603 17.7366369,63.9922603 Z" id="Path" fill="#31201B"></path>
            <path d="M20.7705885,63.9922603 C21.5445558,63.7213718 22.2643453,63.3498675 22.8293414,62.7384334 C22.9299571,62.630078 23.0847506,62.6842557 23.216325,62.6842557 C25.1202844,62.6842557 27.0242438,62.6919954 28.9282033,62.6919954 C29.2145712,62.6919954 29.4390217,62.7461731 29.6325135,62.9938426 C29.926621,63.3730865 30.3677823,63.5665783 30.7934643,63.7755495 C30.8321627,63.9303429 31.1340099,63.7368511 31.0875719,64 C27.658897,63.9922603 24.2147427,63.9922603 20.7705885,63.9922603 Z" id="Path" fill="#FEFEFE"></path>
            <path d="M31.0953116,63.9922603 C31.0333942,63.8684256 30.8399024,63.9226033 30.801204,63.7678098 C31.0720925,63.8297272 31.3739398,63.7910288 31.6061299,63.9922603 C31.4358571,63.9922603 31.2655844,63.9922603 31.0953116,63.9922603 Z" id="Path" fill="#EEEDED"></path>
            <path d="M18.750534,63.9922603 C18.9517655,63.8374669 19.152997,63.8374669 19.3542285,63.9922603 C19.152997,63.9922603 18.9517655,63.9922603 18.750534,63.9922603 Z" id="Path" fill="#4B3C37"></path>
            <path d="M20.1668941,63.9071239 C20.2752495,63.9148636 20.4068239,63.8219875 20.4687413,63.9922603 C20.3681255,63.9922603 20.2675098,63.9922603 20.1668941,63.9922603 C20.1359354,63.9690413 20.120456,63.953562 20.1359354,63.9303429 C20.143675,63.9148636 20.1591544,63.9071239 20.1668941,63.9071239 Z" id="Path" fill="#AAA3A1"></path>
            <path d="M18.1390999,63.9922603 C18.2087569,63.8452066 18.2706743,63.8684256 18.3403314,63.9922603 C18.278414,63.9922603 18.2087569,63.9922603 18.1390999,63.9922603 Z" id="Path" fill="#978F8C"></path>
            <path d="M20.1668941,63.9074403 C20.1668941,63.9391909 20.1668941,63.9630038 20.1591544,63.9947544 C20.0894973,63.9947544 20.02758,63.9947544 19.9579229,63.9947544 C19.9966213,63.8836274 20.0817577,63.8836274 20.1668941,63.9074403 Z" id="Path" fill="#8E8683"></path>
            <path d="M40.6383277,4.28068737 C39.9185382,5.14753068 39.0981329,5.93697727 38.5099178,6.90443633 C38.1538928,7.48491176 38.2080705,7.77901931 38.7498476,8.18922195 C44.0437836,12.1828929 47.1319129,17.4845686 48.122591,24.0168521 C48.3470415,25.4719105 48.2232067,26.9424483 48.2077273,28.4052464 C48.2077273,28.5136018 48.1767687,28.6064779 48.0916323,28.6761349 C47.1473922,29.620375 46.0406191,30.2627678 44.6939161,30.3943422 C41.9927704,30.6574911 39.7637447,29.6048956 37.7823886,27.871209 C35.9403465,26.2613571 34.2917963,24.4502738 32.3955765,22.9023393 C31.2191463,21.9426199 30.0117574,20.9983799 28.5025213,20.6036566 C25.9406897,19.9225654 23.5259119,20.239892 21.2968862,21.7413884 C20.1049767,22.5463144 19.0601209,23.5292528 17.9843064,24.4734928 C16.459591,25.8201958 15.1515863,27.422308 13.4798171,28.5987382 C12.3885232,29.3649658 11.2275724,30.0537966 9.8731297,30.2318091 C7.89177355,30.4872183 5.95685544,30.4562596 4.36248291,28.9779822 C4.24638783,28.8851061 4.14577208,28.7844903 4.07611503,28.6529159 C3.82070584,27.7628536 3.8594042,26.8573119 3.90584224,25.9517702 C4.06837536,22.484397 4.95843769,19.2105155 6.59150858,16.1456052 C8.19362078,13.127133 10.3065514,10.5420824 13.0386557,8.47558983 C14.1067305,7.66292423 14.1067305,7.47717209 13.3250236,6.3781386 C12.6748911,5.47259692 11.8003081,4.76828673 11.1733947,3.83952604 C11.4442832,3.68473259 11.660994,3.85500538 11.8854445,3.95562112 C12.8142052,4.38130311 13.6036518,5.01595625 14.3621397,5.68930775 C14.756863,6.03759301 15.1670657,6.36265925 15.5617889,6.69546517 C15.9410329,7.02053141 16.3125372,7.06696945 16.7691779,6.86573796 C18.0307445,6.30848155 19.3232698,5.82862186 20.6777124,5.49581594 C22.9222175,4.93855952 25.1899415,4.66767099 27.4886242,4.83794378 C30.0814145,5.02369592 32.573589,5.63513004 34.9574081,6.6877255 C35.1276809,6.76512222 35.3056934,6.8270396 35.4682265,6.89669665 C35.8939085,7.09018846 36.2034954,6.97409338 36.5595203,6.67224615 C37.6275951,5.74348546 38.7962856,4.9462992 39.9417572,4.1026749 C40.2203854,3.90144341 40.4757946,3.94014178 40.6383277,4.28068737 Z" id="Path" fill="#FDA524"></path>
            <path d="M4.34700357,28.8618871 C4.75720621,29.1250359 5.13645016,29.4501022 5.57761149,29.6513337 C7.47383124,30.541396 9.40874935,30.4020819 11.3127088,29.6822924 C13.3095443,28.9238045 14.7413837,27.399089 16.2351405,25.9672496 C17.7675956,24.4967118 19.3000507,23.026174 21.018258,21.7723471 C23.9438542,19.6361975 28.1464964,19.6052388 31.0566132,21.7259091 C32.7825602,22.9874757 34.3150153,24.4425341 35.8474704,25.9130719 C36.56726,26.6019027 37.2947892,27.2752542 38.0377977,27.940866 C39.663129,29.3959245 41.5670884,30.2318091 43.749676,30.3324248 C44.9338459,30.3866025 46.0560984,30.115714 47.0390368,29.3881848 C47.3718427,29.1327756 47.696909,28.8618871 48.0916323,28.6916143 C48.0606736,29.2024327 47.9523182,29.7055114 47.7820454,30.1853711 C46.0715778,32.8942564 43.7883744,34.9220506 40.8627782,36.2610139 C37.867525,37.6386756 34.7174783,38.3662048 31.4668158,38.7299694 C29.3229266,38.9698993 27.1712976,39.1014737 25.011929,39.024077 C21.1111341,38.8925026 17.2490375,38.4745603 13.5339948,37.1588159 C11.0340806,36.2764933 8.7199185,35.076844 6.82369875,33.2270623 C5.77884297,32.2131652 4.79590457,31.0986524 4.3083052,29.666813 C4.23090848,29.4423625 4.21542914,29.2024327 4.17673077,28.9779822 C4.14577208,28.8231887 4.23090848,28.79223 4.34700357,28.8618871 Z" id="Path" fill="#FDFEFD"></path>
            <path d="M4.34700357,28.8618871 C4.14577208,29.0863376 4.28508619,29.3107881 4.34700357,29.5274989 C4.6178921,30.4407803 5.25254524,31.1296111 5.80980166,31.86488 C7.55896763,34.1635627 9.93504708,35.5876624 12.558796,36.6247785 C14.9426152,37.5690186 17.4115707,38.1881924 19.9579229,38.4822999 C21.2736672,38.6370934 22.5971512,38.7067504 23.9206352,38.7996265 C25.011929,38.8692836 26.1109625,38.9002422 27.2022563,38.8615439 C30.7470263,38.7377091 34.2608376,38.3971635 37.6662935,37.3213491 C39.8798398,36.6170389 41.9695514,35.6960178 43.8502918,34.3183561 C45.1737757,33.3586368 46.2186315,32.1435082 47.1551319,30.8200242 C47.3331444,30.5723547 47.5343758,30.3556439 47.7743057,30.162152 C47.0699955,33.0722689 45.3363089,35.2703359 42.9215311,36.9575845 C40.3287408,38.7609281 37.4031446,39.7438665 34.3304946,40.324342 C28.3012898,41.4620738 22.295304,41.4233755 16.3202768,39.9837964 C13.4256394,39.2872259 10.7012746,38.195932 8.36389357,36.2997123 C6.02651249,34.4034925 4.6178921,31.9654957 4.09159438,29.0012012 C4.06837536,28.8851061 4.07611503,28.769011 4.07611503,28.6529159 C4.1689911,28.722573 4.2541275,28.79223 4.34700357,28.8618871 Z" id="Path" fill="#DEDEDE"></path>
            <path d="M21.9624981,55.0065006 C21.9857171,56.7788856 22.0089361,58.5435309 21.9470187,60.3159159 C21.6993492,60.4397507 21.4516797,60.3778333 21.2040102,60.3159159 C20.7473695,60.2153002 20.2907288,60.0837257 19.8263485,59.98311 C18.8975878,59.7896182 17.9843064,59.8747546 17.0865044,60.1688621 C16.8852729,60.2385192 16.6840415,60.3546143 16.4518513,60.2849572 C16.3976736,60.2539985 16.3744546,60.2075605 16.3744546,60.1456431 C16.6995208,59.7431802 16.6221241,59.3484569 16.3667149,58.9459939 C15.0974086,56.887241 14.2228256,54.6349963 13.2863252,52.42145 C12.4040026,50.3239988 12.017019,48.0949731 12.0247586,45.8195094 C12.0247586,45.0455422 12.2492091,44.2870543 12.3575646,43.5208267 C12.3807836,43.3505539 12.4581803,43.1880208 12.6826308,43.2112398 C13.0928334,43.3350746 13.4798171,43.5053473 13.8513213,43.7143185 C13.7584453,44.8752694 14.1376892,45.9201252 14.7181647,46.8798445 C15.3605575,47.93244 16.1887024,48.8457213 16.9858887,49.7822217 C18.2319759,51.2372801 19.7412121,52.4059707 21.0337374,53.8145911 C21.3820226,54.1860953 21.7612666,54.5266409 21.9624981,55.0065006 Z" id="Path" fill="#FDA524"></path>
            <path d="M38.4789591,43.6678805 C38.7808063,43.4976077 39.0749139,43.3195952 39.4154594,43.2344588 C39.7250463,43.1415827 39.756005,43.3969919 39.7869637,43.5672647 C40.0036746,44.6740379 40.1662077,45.7653317 40.0888109,46.9185429 C39.9649762,48.6677089 39.6089513,50.3549575 39.0052568,51.9880284 C38.1384135,54.3254094 37.1941735,56.6318318 35.8861688,58.7679814 C35.6384993,59.1704444 35.4837058,59.6193454 35.2128173,59.9985893 C34.5936435,60.052767 33.9899491,59.8592752 33.3630356,59.8747546 C32.5813287,59.8902339 31.8228408,59.98311 31.0798322,60.2230398 C30.9018197,60.2772176 30.731547,60.3546143 30.5380551,60.3081762 C30.3600427,60.2153002 30.3136046,60.052767 30.2981253,59.8747546 C30.1820302,59.4568123 30.3213443,59.0311303 30.2129889,58.613188 C30.2129889,58.5203119 30.2129889,58.4351755 30.2129889,58.3422994 C30.2903856,58.2262044 30.2362079,58.0791506 30.2903856,57.9553158 C30.329084,57.1813486 30.2981253,56.4073813 30.305865,55.6334141 C30.305865,55.5792364 30.305865,55.5250587 30.2981253,55.470881 C30.305865,55.3547859 30.3213443,55.2386908 30.329084,55.1303354 C30.6773692,54.1628763 31.3739398,53.4508264 32.124688,52.7929543 C33.9899491,51.1753627 35.692677,49.4029778 37.1167767,47.3829232 C37.8443059,46.3535468 38.2777276,45.215815 38.386083,43.961988 C38.3783433,43.8381533 38.4015624,43.7452772 38.4789591,43.6678805 Z" id="Path" fill="#FDA524"></path>
            <path d="M18.750534,45.1461579 C20.0198403,45.2932117 21.2968862,45.4402655 22.5661925,45.5950589 C22.9144778,45.6414969 22.6822876,45.8272491 22.6281099,45.9510838 C21.9470187,47.4680596 22.2179073,49.2017463 23.3169407,50.3239988 C24.5475487,51.5855654 26.5289048,51.8332349 28.1155377,50.9199536 C29.5938151,50.0685896 30.2516873,48.2575062 29.7640879,46.4696419 C29.6866912,46.183274 29.3848439,45.8427284 29.5551167,45.6414969 C29.7021705,45.4712242 30.1278525,45.5486209 30.4219601,45.5099225 C31.3894191,45.3938274 32.3568782,45.2699927 33.3320769,45.1538976 C33.5410481,45.4944432 33.2778992,45.734373 33.1308454,45.9743029 C32.7438618,46.6012163 32.2253037,47.1429934 31.8537995,47.7853862 C31.1417496,49.0237338 30.4993568,50.3007798 30.0659351,51.6707018 C30.0040177,51.8641936 29.9575797,52.0576854 29.8492243,52.2356979 C29.7950466,52.3285739 29.7486086,52.5220658 29.7873069,52.5607641 C28.9204636,52.4369294 28.7269718,52.5839831 28.7037528,53.5359628 C28.6727941,54.8981452 28.6882734,56.2680672 28.6805338,57.6302496 C28.6805338,57.8005224 28.6650544,57.9630555 28.6573147,58.1333283 C28.107798,58.589969 27.4267068,58.636407 26.7688347,58.7292831 C25.7936359,58.8685972 24.8261769,58.7215434 23.8974162,58.3964771 C23.7271434,58.3345598 23.5491309,58.2649027 23.4717342,58.0714109 C23.4562548,56.5621748 23.4485152,55.045199 23.4252962,53.5359628 C23.4098168,52.6381608 23.4020771,52.6381608 22.4965355,52.4524087 C22.2256469,52.1350821 22.1637296,51.7171398 22.0244154,51.3456355 C21.3278449,49.5035935 20.4223032,47.7853862 19.2149143,46.2219724 C18.9749845,45.9123855 18.6886166,45.6027986 18.750534,45.1461579 Z" id="Path" fill="#DEDEDE"></path>
            <path d="M18.750534,45.1461579 C19.2303937,46.2529311 20.1127164,47.0965554 20.6777124,48.1491508 C21.420721,49.5268125 22.1018122,50.9276932 22.4965355,52.444669 C22.0940725,52.7310369 21.9624981,53.1334999 21.9624981,53.6133596 C21.9547584,54.0777399 22.0553741,54.5421203 21.9702377,55.0065006 C19.7334724,52.467888 17.024587,50.3781765 15.0432309,47.5996341 C14.3234414,46.585737 13.8668007,45.4867035 13.7042676,44.2638352 C13.6810485,44.0858228 13.5262551,43.8149342 13.859061,43.7143185 C15.3605575,44.2793146 16.9162316,44.6430792 18.4641661,45.0455422 C18.5647819,45.0765009 18.6576579,45.1151992 18.750534,45.1461579 Z" id="Path" fill="#FDFEFD"></path>
            <path d="M29.7795672,52.5607641 C29.7718276,52.4524087 29.5318977,52.4911071 29.6866912,52.2279582 C30.0349764,51.6397431 30.1510715,50.9431726 30.4296997,50.3085194 C31.0720925,48.8612007 31.7841424,47.46032 32.7980395,46.2297121 C33.045709,45.9201252 33.3088579,45.5950589 33.3243372,45.1616373 C34.1679615,44.9449264 35.0115858,44.7436949 35.8474704,44.5037651 C36.7297931,44.2483559 37.6043761,43.9542484 38.4789591,43.6678805 C38.5176574,45.0378025 38.0223184,46.2451914 37.2715702,47.3519646 C36.1260987,49.0237338 34.7793956,50.5329699 33.2778992,51.8951523 C32.194345,52.8780907 31.0798322,53.8378101 30.3213443,55.114856 C30.0427161,54.4879426 30.2284682,53.8223307 30.1665509,53.1799379 C30.1355922,52.89357 30.0891541,52.6536402 29.7795672,52.5607641 Z" id="Path" fill="#FDFEFD"></path>
            <path d="M35.243776,59.9444116 C35.1354206,59.5419487 35.4217885,59.2710601 35.5920613,58.9846923 C37.3334876,56.0590961 38.6879302,52.9709668 39.5392942,49.681606 C40.0501126,47.7079895 40.1739473,45.6801953 39.686348,43.6601408 C39.6476496,43.4976077 39.663129,43.2654175 39.4077198,43.2267191 C39.5315545,43.1493224 39.6553893,43.0564463 39.7869637,42.9867893 C41.1181874,42.3056981 40.8782575,42.1354253 41.52839,43.5982234 C42.3023573,45.3396497 42.2094812,47.1662124 41.884415,49.0082545 C41.435514,51.523648 40.4138772,53.8300704 39.3767611,56.1364928 C38.6260129,57.8005224 37.7746489,59.4026346 36.613698,60.8189946 C36.3428095,60.8035153 36.2189747,60.5326267 35.9790449,60.45523 C35.7236357,60.3081762 35.4063091,60.2307795 35.243776,59.9444116 Z" id="Path" fill="#F08102"></path>
            <path d="M12.6903705,43.2112398 C12.5820151,43.2731572 12.4968787,43.3505539 12.4813993,43.4821283 C12.3420852,44.790133 12.0557173,46.0749186 12.2414695,47.4293613 C12.4736596,49.1475686 12.7600275,50.8502965 13.4488584,52.4524087 C14.4317968,54.7356121 15.3528178,57.0575138 16.6530828,59.1859237 C16.908492,59.603866 16.8543142,59.9134529 16.4208926,60.1456431 C15.9797313,60.5635854 15.5385699,60.3468746 15.0974086,60.1533828 C14.710425,59.7277008 14.4008381,59.2478411 14.1299495,58.7447624 C12.6361928,55.9507407 11.2585311,53.1025412 10.5000432,50.0066722 C10.0201835,48.0562748 9.7879933,46.0903979 10.4536051,44.1245211 C10.5929192,43.7065788 10.786411,43.3195952 10.9721632,42.9171322 C11.142436,42.5378883 11.3746262,42.4063139 11.7538701,42.6462437 C12.0557173,42.8397355 12.3730439,43.0254798 12.6903705,43.2112398 Z" id="Path" fill="#F08102"></path>
            <path d="M38.2777276,61.1672799 C39.9340175,58.7292831 41.079489,56.1442325 42.1088655,53.5050042 C42.4184524,52.7078179 42.6661219,51.8796729 42.9370104,51.0670073 C42.9911881,50.9122139 42.9602294,50.6955031 43.1614609,50.649065 C43.3859114,50.5948873 43.5407049,50.7419411 43.680019,50.9044742 C44.5004242,51.8409746 44.9028872,52.9554874 44.9802839,54.1783557 C45.1041187,56.0513564 44.5081639,57.7695637 43.7187173,59.4258536 C43.2001593,60.5094077 42.2327002,61.0047468 41.079489,61.1440609 C40.1739473,61.2524163 39.2684057,61.1827592 38.2777276,61.1672799 Z" id="Path" fill="#F08102"></path>
            <path d="M13.7507056,61.1672799 C12.5897547,61.1672799 11.4520229,61.3220733 10.33751,60.9660484 C9.49388575,60.6951599 8.82053424,60.1998208 8.44129029,59.4026346 C7.66732305,57.761824 7.10232696,56.0590961 7.19520303,54.2015747 C7.24938074,53.0483635 7.64410403,52.0344664 8.32519521,51.121185 C8.40259193,51.0128296 8.50320767,50.9122139 8.60382342,50.8270775 C8.99080704,50.5174906 9.1146418,50.5484493 9.24621623,51.0205693 C10.0434025,53.8765084 11.2740104,56.5466954 12.6516721,59.1627047 C12.9999574,59.8205769 13.5572138,60.3623539 13.7507056,61.1672799 Z" id="Path" fill="#F08102"></path>
            <path d="M46.1721935,14.0868524 C45.0189823,12.3376864 43.7806347,10.6659171 42.2636589,9.21085872 C41.6290058,8.60716427 40.9633939,8.0344285 40.2977821,7.46943241 C40.1197696,7.31463897 40.0733316,7.21402322 40.2358647,7.02053141 C41.5670884,5.41067954 43.0608452,4.00205916 44.8564492,2.91850501 C45.5065817,4.31938573 45.8703463,5.79766317 46.1102761,7.31463897 C46.4121233,9.26503642 46.4740407,11.2309132 46.4276027,13.19679 C46.419863,13.5063769 46.419863,13.8391828 46.1721935,14.0868524 Z" id="Path" fill="#C74F02"></path>
            <path d="M7.41965353,3.01912076 C9.13012114,4.04075752 10.6083986,5.31780347 11.8157875,6.90443633 C12.0247586,7.17532486 12.0557173,7.33011831 11.7461304,7.5855275 C9.91182806,9.12572232 8.29423652,10.8903676 6.80821941,12.7633684 C6.65342596,12.7943271 6.60698792,12.9568602 6.48315316,13.0265172 C6.40575644,13.1116536 6.34383906,13.220009 6.25096299,13.2896661 C6.06521085,13.4212405 5.94137609,13.3670628 5.87945871,13.150352 C5.8562397,13.0652156 5.84850002,12.9878189 5.84850002,12.9026825 C5.87171904,10.905847 5.72466526,8.90127182 6.11938856,6.91991567 C6.39027709,5.56547299 6.74630203,4.23424933 7.41965353,3.01912076 Z" id="Path" fill="#C74F02"></path>
            <path d="M40.6383277,4.28068737 C40.3674392,4.07171621 40.1662077,4.07171621 39.8566208,4.31938573 C38.6879302,5.24814642 37.4108843,6.04533268 36.3195905,7.07470912 C36.1338383,7.25272159 35.9171275,7.20628355 35.7081563,7.12114715 C34.864532,6.79608091 34.0209077,6.44779565 33.1695438,6.14594843 C30.2749063,5.10109264 27.2719134,4.72958837 24.2302221,5.00821658 C21.9083204,5.21718773 19.5941583,5.68930775 17.4812277,6.7419032 C16.4518513,7.25272159 15.7243221,7.16758519 14.8961771,6.36265925 C14.0138545,5.49581594 13.0618747,4.66767099 11.9241429,4.13363359 C11.6842131,4.0175385 11.4210642,3.94014178 11.1733947,3.84726571 C10.3220307,3.21261257 9.47066673,2.57021975 8.62704243,1.93556661 C8.65800112,1.68015742 8.82827392,1.79625251 8.95984835,1.81173185 C10.0511422,2.11357908 10.9799029,2.71727353 11.9164032,3.32096798 C13.1624905,4.13363359 14.3157017,5.06239428 15.4069955,6.0685517 C15.8249378,6.44779565 16.2119214,6.47101467 16.6917811,6.2388245 C21.5832541,3.90918309 26.6527396,3.52219946 31.8692788,4.86890247 C33.0921471,5.18622904 34.2763169,5.63513004 35.4140488,6.20012613 C35.9480862,6.463275 36.3737682,6.42457663 36.8381485,6.01437399 C38.3551243,4.66767099 39.9417572,3.41384405 41.7296215,2.44638499 C42.3100969,2.1367981 42.9060517,1.85816989 43.5561842,1.71111611 C43.6722793,1.66467808 43.772895,1.63371939 43.7651554,1.81947153 C42.6429029,2.54700074 41.6212661,3.39062503 40.6383277,4.28068737 Z" id="Path" fill="#E8C587"></path>
            <path d="M1.86256871,42.7236404 C1.91674642,42.4914503 1.95544478,42.2592601 2.02510183,42.0425493 C2.07153987,41.8954955 2.06380019,41.6555656 2.27277135,41.6555656 C2.44304414,41.6555656 2.53592021,41.8567971 2.59783759,42.0115906 C2.9616022,42.9016529 3.39502386,43.7530169 3.98323896,44.5269841 C5.14418983,46.0594393 6.6147276,47.2126505 8.31745553,48.0872334 C8.51868702,48.1955889 8.74313752,48.2497666 8.75087719,48.5670931 C8.75861686,48.87668 8.62704243,49.0082545 8.38711259,49.1475686 C7.69054207,49.5500315 7.14876499,50.1227673 6.72308301,50.8038585 C6.64568629,50.9276932 6.63020694,51.1057057 6.4444548,51.1366644 C5.78658264,50.9431726 5.3222023,50.4633129 4.85782195,50.0144119 C3.61947436,48.807023 2.69071366,47.3984026 2.23407299,45.7034143 C2.05606052,44.8520504 1.82387035,44.0084261 1.83934969,43.1261034 C1.83161002,42.9867893 1.88578773,42.8552149 1.86256871,42.7236404 Z" id="Path" fill="#F08102"></path>
            <path d="M7.41965353,3.01912076 C7.48157091,3.16617453 7.50478993,3.29774896 7.41191386,3.44480274 C6.67664498,4.66767099 6.4444548,6.03759301 6.19678528,7.41525471 C5.84850002,9.35791249 6.05747118,11.30831 5.98781413,13.2974058 C6.28966135,13.2354884 6.38253742,12.9491205 6.60698792,12.8562444 C6.66116563,12.9181618 6.6689053,12.9800792 6.60698792,13.0419966 C6.00329347,14.1410301 5.39959902,15.2400636 4.74946653,16.4319731 C4.52501603,15.8592374 4.478578,15.3638983 4.43213996,14.876299 C4.12255307,11.354748 4.16125143,7.85641604 5.20610721,4.42774114 C5.39185935,3.83178636 5.64726854,3.26679027 5.90267773,2.69405451 C6.0806902,2.29933122 6.28966135,2.25289318 6.63794661,2.47734368 C6.90109548,2.65535615 7.18746336,2.79467025 7.41965353,3.01912076 Z" id="Path" fill="#DF6D03"></path>
            <path d="M46.1721935,14.0868524 C46.4585614,10.6117394 46.2263712,7.19080421 45.096379,3.86274505 C44.9957633,3.55315815 44.7326144,3.27452995 44.8564492,2.91076534 C44.8951475,2.87980665 44.9338459,2.84110829 44.9725443,2.81788927 C46.0096604,2.15227744 46.0715778,2.16001711 46.5514374,3.32096798 C47.271227,5.06239428 47.6504709,6.88895698 47.8052644,8.76195771 C47.9368388,10.3408509 48.0142355,11.9197441 47.8981405,13.5063769 C47.8284834,14.4273979 47.696909,15.3406793 47.4182808,16.4010144 C46.9616401,15.5651298 46.5669168,14.8298609 46.1721935,14.0868524 Z" id="Path" fill="#DF6D03"></path>
            <path d="M23.618788,43.3737729 C23.618788,43.489868 23.6033086,43.6137028 23.618788,43.7297978 C23.665226,44.0703434 23.5181722,44.1554798 23.193106,44.1554798 C21.9857171,44.1709592 20.8170265,43.9000706 19.6405963,43.7143185 C17.5741038,43.3892523 15.5695286,42.8010372 13.6423502,41.9806319 C13.2708459,41.8258384 12.914821,41.6246069 12.5665357,41.4311151 C12.4272216,41.3537184 12.2492091,41.2840614 12.2569488,41.0673505 C12.2646885,40.8351604 12.1950314,40.5023544 12.3188662,40.3862594 C12.4813993,40.2392056 12.6748911,40.5333131 12.8606433,40.6261892 C13.2011889,40.8119413 13.5494741,40.9744745 13.9441974,41.0131728 C14.2460446,41.0441315 14.5478919,41.0905695 14.8265201,41.198925 C16.2660991,41.7561814 17.7830749,41.9883715 19.2923111,42.2050824 C20.5383983,42.3830948 21.7999649,42.4759709 23.0615316,42.5301486 C23.5568706,42.5533676 23.6574863,42.7391198 23.6110483,43.1570621 C23.6033086,43.2421985 23.6110483,43.3118555 23.618788,43.3737729 C23.6110483,43.3737729 23.6110483,43.3737729 23.618788,43.3737729 Z" id="Path" fill="#C74F02"></path>
            <path d="M23.4639945,58.0714109 C24.98871,58.7679814 26.5443842,58.7834608 28.1232773,58.2958614 C28.3012898,58.2416837 28.4715626,58.187506 28.6495751,58.1333283 C28.6186164,59.0698286 28.9049843,60.006329 28.579918,60.9428294 C28.5180006,61.1053625 28.5180006,61.1982386 28.3399882,61.1982386 C26.7920537,61.1982386 25.2441192,61.1982386 23.6961847,61.1982386 C23.4794739,61.1982386 23.3943375,61.1208418 23.4020771,60.8963913 C23.4252962,59.9521513 23.4485152,59.0079113 23.4639945,58.0714109 Z" id="Path" fill="#F08102"></path>
            <path d="M25.4066523,49.8983168 C24.539809,49.681606 23.7735814,48.7064072 23.711664,47.7466879 C23.6497467,46.7482701 24.3076188,45.7885507 25.2673382,45.4480051 C26.2657559,45.0997199 27.3415704,45.3783481 27.8988268,46.136836 C27.8369095,46.5315593 27.7827318,46.9262826 27.7827318,47.3364852 C27.7749921,48.5903121 26.6372602,49.7977011 25.4066523,49.8983168 Z" id="Path" fill="#F2E156"></path>
            <path d="M35.1508999,41.8180988 C36.4821236,41.5239912 37.7978679,41.1679663 39.0749139,40.6881066 C39.1832693,40.6494082 39.2993644,40.6029702 39.4154594,40.5874908 C39.6089513,40.5565321 39.8953191,40.3553007 39.9804555,40.6339289 C40.0655919,40.9048174 40.1429887,41.2608423 39.732786,41.4543341 C37.8984836,42.3134378 36.0022639,43.0022686 34.0209077,43.4279506 C32.9528329,43.6524011 31.8847581,43.8768516 30.7934643,43.9697277 C30.329084,44.0316451 29.880183,44.2019179 29.408063,44.1941782 C29.0829967,44.1864385 28.7037528,44.2328766 28.53348,43.8536326 C28.4251246,43.6059631 28.7501908,43.0022686 29.0597777,42.8242562 C29.2997076,42.6849421 29.5628564,42.6462437 29.8337449,42.5998057 C30.9482578,42.4063139 32.07825,42.3676155 33.1927628,42.189603 C33.8351556,42.0735079 34.4930278,41.9496732 35.1508999,41.8180988 Z" id="Path" fill="#C74F02"></path>
            <path d="M2.36564742,45.7421127 C3.06995761,48.0330557 4.50179702,49.7667424 6.4444548,51.121185 C6.26644234,51.7016605 6.06521085,52.2666566 5.9104174,52.8548717 C5.82528101,53.1721982 5.72466526,53.1799379 5.47699575,53.0019254 C3.25570975,51.3378959 1.92448609,49.1475686 1.53750247,46.3922452 C1.40592804,45.4712242 1.42914705,44.5502031 1.65359755,43.6369218 C1.91674642,43.6756201 1.91674642,43.9000706 1.93996543,44.0858228 C1.99414314,44.5115048 2.11023823,44.9294471 2.07153987,45.3628687 C2.04832085,45.5641002 2.14119692,45.7188937 2.36564742,45.7421127 Z" id="Path" fill="#DEDEDE"></path>
            <path d="M35.243776,59.9444116 C35.5146645,60.0837257 35.7855531,60.2230398 36.0487019,60.3623539 C35.9016482,60.7028995 35.6307596,60.5094077 35.4527471,60.4474903 C35.0580239,60.3159159 34.794875,60.408792 34.5394658,60.7415979 C34.1757012,61.2214576 33.7035812,61.6084412 33.2546802,62.0496025 C33.49461,62.227615 33.850635,62.0341232 34.0983045,62.4211068 C33.1076264,62.4056275 32.2020847,62.4752845 31.296543,62.3746688 C30.5690138,62.0728216 30.2439476,61.4768668 30.2981253,60.5326267 C30.398741,60.4629697 30.2439476,60.2075605 30.4993568,60.2385192 C31.3894191,59.9908497 32.2640021,59.7122215 33.2005025,59.7044818 C33.897073,59.6967421 34.5704245,59.7973579 35.243776,59.9444116 Z" id="Path" fill="#FDFEFD"></path>
            <path d="M21.6838699,61.5697429 C21.5058574,61.9799455 21.2504482,62.2972721 20.7783282,62.3824085 C20.2675098,62.4288465 19.7102534,62.5759003 19.2613524,62.274053 C18.5647819,61.8096727 17.922389,61.2524163 17.5199261,60.4861887 C17.3419136,60.1533828 17.4657484,60.0140687 17.829513,59.9444116 C19.0291622,59.7122215 20.1591544,59.9985893 21.2814069,60.3623539 C21.8851013,60.5558458 21.91606,60.6409822 21.7457872,61.283375 C21.7225682,61.376251 21.7535269,61.4846065 21.6838699,61.5697429 Z" id="Path" fill="#FDFEFD"></path>
            <path d="M21.6838699,61.5697429 C21.7303079,60.6487218 21.7303079,60.6487218 20.7705885,60.3313953 C19.8031295,60.006329 18.8201911,59.8979736 17.806294,60.0372877 C17.5276658,60.0759861 17.4967071,60.1920812 17.6128021,60.4010523 C18.0849222,61.2059782 18.7660133,61.801933 19.5399806,62.2895324 C19.9037452,62.5139829 20.3681255,62.3127514 20.7860679,62.3746688 C18.324852,62.699735 16.9162316,62.5759003 15.6237063,60.834474 C15.4921319,60.5713251 15.6933634,60.4707094 15.8636362,60.4010523 C16.0416486,60.3313953 16.2196611,60.2385192 16.4208926,60.2307795 C17.9378684,59.6193454 19.4625839,59.6116057 21.0105184,60.1146844 C21.3123656,60.2153002 21.6374318,60.2462589 21.9470187,60.3081762 C21.9547584,60.7493376 21.9083204,61.1750196 21.6838699,61.5697429 Z" id="Path" fill="#DEDEDD"></path>
            <path d="M31.3042827,62.3669291 C32.1788657,62.3669291 33.0534487,62.3669291 33.9280317,62.3669291 C33.6881018,62.2198753 33.4404323,62.2895324 33.2005025,62.2663134 C33.1231057,62.2585737 33.02249,62.2817927 32.9837916,62.181177 C32.9450933,62.0805612 33.02249,62.0186439 33.0844074,61.9722058 C33.7035812,61.5000858 34.2453582,60.9428294 34.7174783,60.3313953 C34.8567924,60.1456431 35.0193255,60.1843415 35.2128173,60.2385192 C35.4914455,60.3159159 35.7545944,60.5016681 36.0719209,60.3623539 C36.3195905,60.4474903 36.4743839,60.6409822 36.6291774,60.8267343 C35.715896,61.9799455 34.5549451,62.5991193 33.0534487,62.4907639 C32.4574939,62.4443258 31.8692788,62.5836399 31.3042827,62.3669291 Z" id="Path" fill="#DEDEDE"></path>
            <path d="M25.4066523,49.8983168 C26.1496609,49.6506473 26.807533,49.2636637 27.256434,48.5903121 C27.5505416,48.1414111 27.6975954,47.6615515 27.6743763,47.1197744 C27.658897,46.7869685 27.5969796,46.4077245 27.9065665,46.1445757 C28.5953974,47.0268983 28.6418354,48.1104525 28.0381409,49.0005148 C27.4731449,49.8363994 26.4515081,50.1846847 25.4066523,49.8983168 Z" id="Path" fill="#FCFCFB"></path>
            <path d="M35.1508999,41.8180988 C34.2763169,42.2515204 33.3165976,42.2979584 32.3723575,42.4217932 C31.3894191,42.545628 30.4064807,42.615285 29.431282,42.8087768 C28.8895049,42.9171322 28.7579305,43.2963762 28.626356,43.7220582 C28.5489593,43.9774674 28.7579305,43.961988 28.8817652,43.9929467 C29.3306662,44.0858228 29.7873069,44.0626038 30.2362079,44.0006864 C30.4219601,43.9774674 30.5999725,43.9310293 30.7857247,43.961988 C30.1201128,44.1554798 29.4854597,44.4882858 28.7424511,44.2638352 C28.3322485,44.1400005 28.2084137,43.9000706 28.2703311,43.513087 C28.2703311,43.4976077 28.2780708,43.4821283 28.2780708,43.466649 C28.4328642,42.4682312 28.510261,42.3521362 29.5551167,42.3366568 C31.1494893,42.3134378 32.7283824,42.1122063 34.2917963,41.8335781 C34.5704245,41.7871401 34.864532,41.8180988 35.1508999,41.8180988 Z" id="Path" fill="#613F36"></path>
            <path d="M26.0645245,43.7839756 C26.0335658,43.7839756 25.9948674,43.7839756 25.9639087,43.7839756 C25.1589828,43.8071946 25.1744621,43.8071946 25.1899415,43.0100083 C25.1976812,42.6849421 25.2673382,42.5069296 25.6388425,42.545628 C25.9019913,42.5765867 26.1728799,42.545628 26.4437684,42.5533676 C26.8849297,42.5611073 27.0861612,42.7159008 27.0474629,43.2267191 C27.0165042,43.6601408 26.9545868,43.892331 26.4592478,43.7917152 C26.3431527,43.7607565 26.2038386,43.7839756 26.0645245,43.7839756 Z" id="Path" fill="#DCDCDC"></path>
            <path d="M2.36564742,45.7421127 C2.3424284,45.8427284 2.32694906,45.9510838 2.17989528,45.8504681 C2.00962249,45.734373 1.87804806,45.6337573 1.91674642,45.3706084 C2.00188281,44.7746536 1.90126707,44.1864385 1.64585788,43.6369218 C1.59168017,43.420211 1.68455624,43.2189795 1.74647362,43.017748 C1.808391,42.9635703 1.87030838,42.9635703 1.91674642,43.0332273 C1.99414314,43.9542484 2.18763495,44.8443107 2.36564742,45.7421127 Z" id="Path" fill="#FBF5EE"></path>
            <path d="M16.4208926,60.2385192 C16.1809627,60.4707094 15.7088427,60.3933126 15.6237063,60.834474 C15.3992558,60.6409822 15.2367227,60.4010523 15.0974086,60.1533828 C15.5385699,60.1456431 15.9874709,60.3700936 16.4208926,60.1456431 C16.4208926,60.1688621 16.4208926,60.2075605 16.4208926,60.2385192 Z" id="Path" fill="#F4A025"></path>
            <path d="M30.2981253,58.0172332 C30.2903856,58.1333283 30.3136046,58.257163 30.1897699,58.3345598 C30.2439476,57.3748404 30.1046335,56.415121 30.2749063,55.4554016 C30.2903856,55.470881 30.305865,55.4941 30.3136046,55.517319 C30.3368237,56.3532036 30.375522,57.1890882 30.2981253,58.0172332 Z" id="Path" fill="#988F8D"></path>
            <path d="M30.1975096,58.6054483 C30.4142204,59.0001716 30.1975096,59.4490726 30.3600427,59.8437959 C30.2981253,59.936672 30.3832617,60.0605067 30.2749063,60.1379034 C30.0736748,59.6425644 30.1588112,59.1240064 30.1975096,58.6054483 Z" id="Path" fill="#DBBD93"></path>
            <path d="M30.282646,60.1456431 C30.3136046,60.0450274 30.2671666,59.9289323 30.3677823,59.8515356 C30.4142204,59.98311 30.4606584,60.1069448 30.4993568,60.2385192 C30.4296997,60.3391349 30.3677823,60.4397507 30.2981253,60.5326267 C30.2903856,60.4010523 30.2903856,60.2694779 30.282646,60.1456431 Z" id="Path" fill="#FAD8A5"></path>
            <path d="M8.944369,1.81173185 C8.82827392,1.84269054 8.68895981,1.79625251 8.61156309,1.93556661 C8.51868702,1.88912858 8.42581095,1.85043022 8.33293488,1.80399218 C8.41807128,1.57954168 8.57286473,1.68015742 8.7199185,1.71885578 C8.8050549,1.74981447 8.87471195,1.78077316 8.944369,1.81173185 Z" id="Path" fill="#C6A774"></path>
            <path d="M8.72765817,1.71885578 C8.59608374,1.74981447 8.44129029,1.6569384 8.34067455,1.80399218 C8.26327783,1.75755415 8.05430667,1.72659546 8.27875717,1.62597971 C8.40259193,1.56406233 8.59608374,1.59502102 8.72765817,1.71885578 Z" id="Path" fill="#937955"></path>
            <path d="M1.92448609,43.0332273 C1.87030838,43.0254877 1.808391,43.0254877 1.7542133,43.017748 C1.72325461,42.8939132 1.81613068,42.8165165 1.86256871,42.7159008 C1.94770511,42.8165165 1.95544478,42.9248719 1.92448609,43.0332273 Z" id="Path" fill="#D9B690"></path>
            <path d="M6.59924825,13.0419966 C6.59924825,12.9800792 6.59924825,12.9181618 6.59924825,12.8562444 C6.64568629,12.7788477 6.6689053,12.6317939 6.80821941,12.7633684 C6.7540417,12.8717238 6.73082268,13.0032982 6.59924825,13.0419966 Z" id="Path" fill="#CB6105"></path>
            <path d="M43.749676,1.8272112 C43.7109777,1.73433513 43.6181016,1.7420748 43.5407049,1.71885578 C43.6490603,1.61824004 43.7883744,1.57180201 43.8889901,1.67241775 C43.9431678,1.72659546 43.8425521,1.80399218 43.749676,1.8272112 Z" id="Path" fill="#9A7F59"></path>
            <path d="M38.3009466,23.5137734 C37.5037603,23.4828147 36.8613675,23.451856 36.2499334,23.2428849 C34.4620691,22.6546698 33.8583746,21.1454336 34.7406973,19.4736644 C35.5069249,18.018606 37.2638305,17.3529941 38.858203,17.9179902 C40.4138772,18.4752466 41.3194189,20.0309208 41.0175716,21.6485123 C40.8318195,22.6391904 40.1971664,23.2661039 39.1523106,23.4441164 C38.8195047,23.4982941 38.4866988,23.4982941 38.3009466,23.5137734 Z" id="Path" fill="#31201B"></path>
            <path d="M13.9132387,23.4982941 C13.6036518,23.4905544 13.2321475,23.5215131 12.8683829,23.428637 C11.5216799,23.0958311 10.9102458,21.9890579 11.188874,20.3714664 C11.4829816,18.6532591 13.2476269,17.4381305 14.9813135,17.7477174 C16.8310952,18.0727837 18.0307445,19.6981149 17.7443766,21.4782396 C17.6360212,22.1515911 17.2180789,22.5850127 16.6530828,22.9178186 C15.9487726,23.3280213 15.182545,23.4982941 13.9132387,23.4982941 Z" id="Path" fill="#31201B"></path>
            <path d="M17.357393,12.0435788 C18.8279307,11.8887854 19.9424436,13.7463068 19.3077904,15.1936255 C19.152997,15.5573901 18.8588894,15.7895803 18.5028645,15.9211547 C17.4812277,16.3003987 16.459591,16.315878 15.4766526,15.7818406 C14.4704951,15.2400636 14.2305653,14.1023317 14.9503548,13.2122694 C15.5617889,12.4615211 16.3434959,11.9971408 17.357393,12.0435788 Z" id="Path" fill="#FDFEFD"></path>
            <path d="M34.9651478,16.1997829 C34.7406973,16.1765639 34.5394658,16.1610846 34.3382343,16.1301259 C32.5581097,15.8360183 32.3646178,14.3113029 33.0070107,13.0961743 C33.7190605,11.7494713 35.313433,11.7959093 36.4743839,12.5311782 C36.6291774,12.6317939 36.7684915,12.7556287 36.9000659,12.8872031 C37.4031446,13.3902818 37.8210869,13.9552779 37.5656777,14.7215055 C37.3180082,15.4722537 36.7297931,15.8824564 35.9867845,16.0682085 C35.6539786,16.1533449 35.290214,16.1610846 34.9651478,16.1997829 Z" id="Path" fill="#FDFEFD"></path>
            <path d="M22.1946882,24.5895879 C22.1637296,23.5292528 22.5661925,22.8636409 23.5491309,22.4534383 C25.1744621,21.7723471 26.830752,21.7491281 28.4715626,22.3915209 C29.1681331,22.6624094 29.8027863,23.0648724 29.9653194,23.900757 C30.1046335,24.4270548 30.0117574,24.9301335 29.8105259,25.4099932 C29.3616249,26.4703283 28.556699,27.1746385 27.5350622,27.6622378 C27.4189671,27.7164155 27.2719134,27.7241552 27.1945166,27.8634693 C27.3493101,28.1343579 27.7362937,28.1420975 27.8601285,28.4439448 C29.1526538,29.2720897 30.0272368,29.1250359 30.9714768,27.9331264 C31.273324,27.5461428 31.5132539,27.1204608 31.745444,26.6870391 C31.9698945,26.2768365 32.3104401,26.2303984 32.6896841,26.4161506 C33.0379693,26.594163 33.2237215,26.8418326 33.0379693,27.2752542 C32.573589,28.3897671 31.9311962,29.3649658 30.8631214,29.9763999 C30.5148361,30.1776314 30.3600427,30.4407803 30.282646,30.8432432 C30.0040177,32.337 29.4003233,33.6759633 28.177455,34.6511621 C26.8462314,35.7192369 25.1280241,35.6882782 23.8200195,34.581505 C22.5971512,33.5443889 22.0244154,32.1667272 21.7303079,30.6420117 C21.6683905,30.3324248 21.5368161,30.1466727 21.2736672,29.9763999 C20.2829891,29.3340071 19.5864186,28.4439448 19.152997,27.3449113 C18.9749845,26.8805309 19.1065589,26.5632044 19.5090219,26.3929316 C19.9656626,26.1994397 20.2442908,26.3077952 20.476481,26.7721755 C20.6777124,27.1823781 20.9099026,27.5693618 21.1962705,27.9331264 C22.1327709,29.1172963 23.0228332,29.26435 24.3076188,28.4362051 C24.4314536,28.1343579 24.7952182,28.0956595 25.0041893,27.824771 C24.51659,27.5771014 24.0367303,27.3449113 23.618788,27.0121054 C23.1234489,26.6173821 22.720986,26.1530017 22.4423578,25.5880056 C22.2875643,25.2784187 22.1946882,24.9533525 22.1946882,24.5895879 Z" id="Path" fill="#31201B"></path>
            <path d="M27.8601285,28.4516844 C27.5118432,28.2891513 27.1945166,28.0879198 26.8694504,27.8170313 C28.6727941,27.0895021 29.9421004,25.9827289 29.9653194,23.900757 C30.5148361,25.177803 30.0349764,26.8650516 28.9204636,27.7241552 C28.579918,27.9873041 28.1464964,28.1111388 27.8601285,28.4516844 Z" id="Path" fill="#DEDEDD"></path>
            <path d="M22.1946882,24.5895879 C22.6048909,26.2381381 23.7271434,27.2133368 25.3060366,27.8015519 C24.9809703,28.0879198 24.6559041,28.2814116 24.3153585,28.4516844 C23.9670732,28.1962752 23.6342673,27.9331264 23.2782424,27.6931965 C22.5739322,27.2133368 22.2179073,26.5090266 22.0166758,25.7195801 C21.91606,25.3325964 22.1172915,24.9688318 22.1946882,24.5895879 Z" id="Path" fill="#DDDDDD"></path>
            <path d="M30.2981253,58.0172332 C30.305865,57.1813486 30.3136046,56.3454639 30.3213443,55.517319 C30.4296997,56.3532036 30.4529187,57.1890882 30.2981253,58.0172332 Z" id="Path" fill="#E5BA7E"></path>
            <path d="M38.316426,19.8529083 C38.3241656,20.4411234 37.890744,20.9442022 37.3567066,20.9596815 C36.7065741,20.9751608 36.2499334,20.5417392 36.2344541,19.8761274 C36.2189747,19.3111313 36.7065741,18.8080526 37.2870495,18.7848335 C37.7746489,18.7693542 38.3009466,19.3188709 38.316426,19.8529083 Z" id="Path" fill="#FCFDFC"></path>
            <path d="M15.9178139,19.8993464 C15.9178139,20.5572185 15.5230906,20.9287228 14.8497391,20.9287228 C14.2150859,20.9209831 13.8668007,20.5417392 13.8745404,19.8451687 C13.8745404,19.2801726 14.3002223,18.8312716 14.8419994,18.8235319 C15.4766526,18.8080526 15.9178139,19.2414742 15.9178139,19.8993464 Z" id="Path" fill="#FCFDFC"></path>
            <path d="M26.1109625,24.8217781 C25.484049,24.728902 24.8339165,24.752121 24.2534411,24.4193151 C23.9748129,24.2645216 23.7194037,24.0555505 23.7271434,23.7304842 C23.7348831,23.3899386 23.9980319,23.1577485 24.3076188,23.0339137 C25.484049,22.577273 26.6604792,22.5850127 27.8369095,23.0339137 C28.1387567,23.1500088 28.4173849,23.3435006 28.4560833,23.6995255 C28.4870419,24.0865092 28.177455,24.2490423 27.9065665,24.4115754 C27.3570498,24.752121 26.7301363,24.7598607 26.1109625,24.8217781 Z" id="Path" fill="#614037"></path>
            <path d="M27.9684839,32.6233679 C27.9143062,32.7085043 27.8601285,32.7936407 27.7982111,32.8710374 C26.5443842,34.3570545 25.3137762,34.2951371 24.1450857,32.7085043 C24.2302221,32.5227521 24.4082346,32.4530951 24.586247,32.3989174 C25.6775408,32.0815908 26.7533553,32.1744669 27.8214301,32.4995331 C27.8833475,32.5150125 27.9297855,32.5691902 27.9684839,32.6233679 Z" id="Path" fill="#F28B7E"></path>
            <path d="M27.9684839,32.6233679 C26.9081488,32.4066571 25.840074,32.1899462 24.7565198,32.4917935 C24.5475487,32.5537108 24.3463172,32.6311076 24.1450857,32.7007646 C23.7890608,32.2363843 23.7890608,32.2286446 24.3308378,32.0583718 C25.484049,31.6946072 26.6372602,31.6946072 27.8059508,32.0351528 C28.2238931,32.1667272 28.2935501,32.3215207 27.9684839,32.6233679 Z" id="Path" fill="#DDDBDB"></path>
        </g>
    </g>
</svg>