<?xml version="1.0" encoding="UTF-8"?>
<svg width="64px" height="64px" viewBox="0 0 64 64" version="1.1" xmlns="http://www.w3.org/2000/svg" xmlns:xlink="http://www.w3.org/1999/xlink">
    <title>img / logo / projects / BSC / Bitcoin BEP2 - BTCB</title>
    <g id="img-/-logo-/-projects-/-BSC-/-Bitcoin-BEP2---BTCB" stroke="none" stroke-width="1" fill="none" fill-rule="evenodd">
        <g id="bitcoin-btc-logo" fill-rule="nonzero">
            <path d="M63.0354216,39.7409558 C58.7615905,56.8839863 41.3984868,67.3168955 24.2534229,63.0419695 C7.11555407,58.7681383 -3.31735509,41.4039397 0.958352993,24.2623169 C5.23030716,7.1174095 22.5934109,-3.31628173 39.7331567,0.957549393 C56.8769693,5.23138052 67.3092528,22.5974561 63.0349524,39.7412686 L63.0352652,39.7409558 L63.0354216,39.7409558 Z" id="Path" fill="#F7931A"></path>
            <path d="M46.1069899,27.4407872 C46.743904,23.1822846 43.5017736,20.8931791 39.0684011,19.3661182 L40.5066194,13.5976036 L36.9951456,12.7226288 L35.5950921,18.3392663 C34.6719421,18.1090262 33.7239224,17.8920812 32.78169,17.6770133 L34.1919103,12.0233059 L30.6826264,11.1483311 L29.243626,16.9149687 C28.4797045,16.7410374 27.7293909,16.5691394 27.0014444,16.388013 L27.0055112,16.3698691 L22.1631185,15.1606395 L21.2290195,18.9111125 C21.2290195,18.9111125 23.8342359,19.5082977 23.7793349,19.5450547 C25.2012862,19.899956 25.4584293,20.84125 25.4157286,21.5873404 L23.7774579,28.1590361 C23.8753725,28.1839058 24.0023799,28.2198808 24.1425261,28.2761895 C24.0253727,28.2470967 23.9007114,28.2153448 23.7713578,28.184375 L21.4750573,37.39038 C21.3012824,37.8223929 20.8601975,38.4707251 19.8660359,38.224531 C19.9012289,38.2755216 17.3138436,37.5876169 17.3138436,37.5876169 L15.5704634,41.6071203 L20.1400716,42.7462768 C20.9901768,42.9594679 21.8232328,43.1825129 22.6436195,43.3922629 L21.1905419,49.2269402 L24.6979489,50.101915 L26.1369493,44.3291772 C27.0951359,44.5892922 28.0250116,44.8292299 28.9353358,45.0554032 L27.5011842,50.800925 L31.0128144,51.6758998 L32.4657355,45.8521714 C38.4535412,46.9853842 42.9558919,46.5285016 44.8509928,41.1125422 C46.3780538,36.7520582 44.7749761,34.2369358 41.6248165,32.5967882 C43.9192401,32.0676427 45.6474482,30.5585693 46.1082412,27.4412565 L46.1071463,27.4404744 L46.1069899,27.4407872 Z M38.0840935,38.6909548 C36.9988996,43.0514387 29.6571822,40.6942936 27.2768879,40.1032085 L29.2051484,32.3732739 C31.5852863,32.9674872 39.2182448,34.1434007 38.08425,38.6909548 L38.0840935,38.6909548 Z M39.1700696,27.3775964 C38.1801312,31.3439194 32.0695412,29.3288496 30.0873182,28.8347407 L31.8355472,21.8241498 C33.8177702,22.3182587 40.2013011,23.2404703 39.1703824,27.3775964 L39.1700696,27.3775964 Z" id="Shape" fill="#FFFFFF"></path>
        </g>
    </g>
</svg>