<?xml version="1.0" encoding="UTF-8"?>
<svg width="64px" height="64px" viewBox="0 0 64 64" version="1.1" xmlns="http://www.w3.org/2000/svg" xmlns:xlink="http://www.w3.org/1999/xlink">
    <title>img / logo / projects / BSC / NEAR Protocol - NEAR</title>
    <g id="img-/-logo-/-projects-/-BSC-/-NEAR-Protocol---NEAR" stroke="none" stroke-width="1" fill="none" fill-rule="evenodd">
        <g id="near-protocol-near-logo" fill="#000000" fill-rule="nonzero">
            <path d="M51.2852386,3.26748058 L37.9311876,23.0854606 C37.0077691,24.4350721 38.7835738,26.0688124 40.0621532,24.9322974 L53.2031077,13.4961154 C53.5582686,13.2119867 54.0554939,13.4250832 54.0554939,13.9223085 L54.0554939,49.6514983 C54.0554939,50.1487236 53.4162042,50.3618202 53.1320755,50.0066593 L13.3540511,2.41509434 C12.0754717,0.852386238 10.2286349,0 8.16870144,0 L6.74805771,0 C3.05438402,0 0,3.05438402 0,6.8190899 L0,57.1098779 C0,60.8745838 3.05438402,63.9289678 6.8190899,63.9289678 C9.16315205,63.9289678 11.3651498,62.7214206 12.6437292,60.6614872 L25.9977802,40.8435072 C26.9211987,39.4938957 25.145394,37.8601554 23.8668147,38.9966704 L10.7258602,50.3618202 C10.3706992,50.6459489 9.87347392,50.4328524 9.87347392,49.9356271 L9.87347392,14.2774695 C9.87347392,13.7802442 10.5127636,13.5671476 10.7968923,13.9223085 L50.5749168,61.5138735 C51.8534961,63.0765816 53.7713651,63.9289678 55.7602664,63.9289678 L57.1809101,63.9289678 C60.945616,63.9289678 64,60.8745838 64,57.1098779 L64,6.8190899 C64,3.05438402 60.945616,0 57.1809101,0 C54.7658158,0 52.563818,1.20754717 51.2852386,3.26748058 Z" id="Path"></path>
        </g>
    </g>
</svg>