<?xml version="1.0" encoding="UTF-8"?>
<svg width="64px" height="64px" viewBox="0 0 64 64" version="1.1" xmlns="http://www.w3.org/2000/svg" xmlns:xlink="http://www.w3.org/1999/xlink">
    <title>img / logo / projects / ethereum / ApeCoin - APE</title>
    <defs>
        <radialGradient cx="50%" cy="55.2398711%" fx="50%" fy="55.2398711%" r="56.1738109%" id="radialGradient-1">
            <stop stop-color="#073183" offset="16.6667%"></stop>
            <stop stop-color="#0054F9" offset="100%"></stop>
        </radialGradient>
        <rect id="path-2" x="0" y="0" width="64" height="64" rx="32"></rect>
        <linearGradient x1="8.04170746e-05%" y1="4.61024881%" x2="95.1669123%" y2="99.7769772%" id="linearGradient-4">
            <stop stop-color="#89D0FF" offset="20.5697%"></stop>
            <stop stop-color="#EBBF9A" offset="39.8413%"></stop>
            <stop stop-color="#EB8280" offset="60.1546%"></stop>
            <stop stop-color="#A281FF" offset="84.1139%"></stop>
        </linearGradient>
        <linearGradient x1="8.40258669e-05%" y1="4.97987358%" x2="94.7595866%" y2="99.7389278%" id="linearGradient-5">
            <stop stop-color="#89D0FF" offset="20.5697%"></stop>
            <stop stop-color="#EBBF9A" offset="39.8413%"></stop>
            <stop stop-color="#EB80DA" offset="60.1546%"></stop>
            <stop stop-color="#A281FF" offset="84.1139%"></stop>
        </linearGradient>
        <linearGradient x1="-0.000255845554%" y1="5.41053844%" x2="94.279838%" y2="99.689994%" id="linearGradient-6">
            <stop stop-color="#89D0FF" offset="20.5697%"></stop>
            <stop stop-color="#EBBF9A" offset="39.8413%"></stop>
            <stop stop-color="#EB8280" offset="60.1546%"></stop>
            <stop stop-color="#A281FF" offset="84.1139%"></stop>
        </linearGradient>
        <linearGradient x1="-0.000384848746%" y1="5.91597238%" x2="93.7120621%" y2="99.6282873%" id="linearGradient-7">
            <stop stop-color="#89D0FF" offset="20.5697%"></stop>
            <stop stop-color="#EBBF9A" offset="39.8413%"></stop>
            <stop stop-color="#EB80E7" offset="60.1546%"></stop>
            <stop stop-color="#A281FF" offset="84.1139%"></stop>
        </linearGradient>
        <linearGradient x1="-0.000106327348%" y1="6.50004268%" x2="93.0488809%" y2="99.5480353%" id="linearGradient-8">
            <stop stop-color="#89D0FF" offset="20.5697%"></stop>
            <stop stop-color="#EBBF9A" offset="39.8413%"></stop>
            <stop stop-color="#EB80D3" offset="60.1546%"></stop>
            <stop stop-color="#A281FF" offset="84.1139%"></stop>
        </linearGradient>
        <linearGradient x1="0.000159134429%" y1="7.26232833%" x2="92.168368%" y2="99.4310799%" id="linearGradient-9">
            <stop stop-color="#89D0FF" offset="20.5697%"></stop>
            <stop stop-color="#EBBF9A" offset="39.8413%"></stop>
            <stop stop-color="#A280EB" offset="60.1546%"></stop>
            <stop stop-color="#A281FF" offset="84.1139%"></stop>
        </linearGradient>
    </defs>
    <g id="img-/-logo-/-projects-/-ethereum-/-ApeCoin---APE" stroke="none" stroke-width="1" fill="none" fill-rule="evenodd">
        <g id="Group">
            <mask id="mask-3" fill="white">
                <use xlink:href="#path-2"></use>
            </mask>
            <use id="Mask" fill="url(#radialGradient-1)" fill-rule="nonzero" xlink:href="#path-2"></use>
            <g id="Group-2" mask="url(#mask-3)">
                <g transform="translate(-6.095234, -5.659901)">
                    <path d="M59.8556758,27.6714343 C59.7218525,28.454715 59.5649204,28.8344561 59.3814306,29.2742108 L59.3810857,29.2752455 C59.182765,29.7515602 58.9578865,30.2923722 58.7543922,31.3653736 C58.6733393,31.7947811 58.6329854,32.1100249 58.597805,32.3876739 L58.5953907,32.4049192 L58.5933212,32.4211298 C58.5367567,32.8657131 58.4988171,33.1654361 58.3180865,33.6986603 C58.1715016,34.1339312 57.9262737,34.8606473 57.3357953,35.6432382 C56.8587908,36.276485 56.0603342,37.33638 54.9949207,37.4633053 C54.902486,37.4695136 54.7089939,37.4791709 54.6300106,37.438817 C51.6076025,35.8953643 49.0108079,34.7551062 48.1119838,34.4991862 C47.0665749,34.2029123 47.2003983,31.9234309 47.3187009,29.9122862 C47.3718164,29.0134621 47.4218277,28.1636146 47.3797492,27.4358637 C47.2328194,24.8970133 46.7834073,22.1181086 44.5722173,20.7633193 C43.2522634,19.9548605 41.5494643,19.7175654 39.9225444,19.7141163 C40.223992,19.5706356 40.5602749,19.3757639 40.9265647,19.1626122 L40.9379466,19.156059 C41.8957496,18.6014508 43.0849842,17.9126742 44.2666309,17.7916123 C44.6529252,17.7533278 45.0326663,17.708835 45.4072339,17.6671014 C47.7891522,17.3973852 49.8472041,17.1656086 52.0176953,17.9088802 C53.0017111,18.2465429 55.0200988,19.3726598 55.5412512,20.4180687 C55.9082308,21.1561668 56.5273365,21.7314694 57.7624435,22.8796603 C58.4053476,23.4777266 58.8288918,23.8257364 59.1389619,24.0802768 L59.1531031,24.0920036 C59.588374,24.4500156 59.6742555,24.5248602 59.80394,24.7894028 C60.2040305,25.6051046 60.0581355,26.4715076 59.8556758,27.6714343 Z" id="Path" fill="#FFFFFF" fill-rule="nonzero"></path>
                    <path d="M48.860774,38.1082788 C49.0039098,38.1576003 49.0573702,38.3314328 48.9742479,38.4576682 C48.6514163,38.9474342 48.2816774,39.6193104 47.8384737,40.4408756 C47.6304956,40.8282047 47.4335545,41.1938046 47.2683447,41.4790416 C46.6826949,42.4847864 46.6350979,43.3311849 46.5978481,44.010649 C46.5574941,44.7211546 46.521624,45.0474353 46.0970451,45.3306028 C45.746621,45.5654836 45.3875742,45.6437771 42.8990801,46.0228284 C42.4648439,46.090085 42.2720416,46.174242 42.102693,46.2480518 C42.0564756,46.2680563 42.0106031,46.2880609 41.9581775,46.3077205 C41.8143518,46.3615258 41.6736303,46.2390843 41.682253,46.0862911 C41.7019126,45.7275892 41.7146741,45.2795568 41.7160537,44.715981 L41.7160537,44.6080255 C41.7291601,44.120329 41.7088107,43.7247222 41.6912205,43.4056845 C41.6584545,42.7703683 41.6543156,42.5027215 41.8236643,42.2261072 C42.0316424,41.8918936 42.193748,41.7898016 42.4603601,41.6207978 C42.8325133,41.3869518 43.3429736,41.0651548 44.098317,40.0269889 C44.4997871,39.4772093 44.5887728,39.1792108 44.6443026,38.9215663 C44.668446,38.8146456 44.6770686,38.7746365 44.9861041,38.5404456 C45.3127297,38.2924584 46.3084723,37.5381498 47.5828986,37.7523362 C47.9353922,37.8120049 48.3844593,37.9437588 48.860774,38.1082788 Z" id="Path" fill="#FFFFFF" fill-rule="nonzero"></path>
                    <path d="M38.959223,49.5815648 C38.9050728,49.6522704 38.8416102,49.6850365 38.7502102,49.6895203 C38.4901513,49.7005572 38.3073513,49.6360599 38.1862895,49.4905097 C37.9296797,49.1780252 37.9641702,48.5502969 38.0241838,48.1833173 L39.0764909,47.9029091 C39.1589234,48.4599317 39.1975528,49.2714946 38.959223,49.5815648 Z" id="Path" fill="#FFFFFF" fill-rule="nonzero"></path>
                    <path d="M39.0444147,45.7838088 C39.0268245,45.9372918 39.0075098,46.1100896 39.0081996,46.2908201 C39.0095792,46.3580767 39.010269,46.4260231 39.0123385,46.4919001 C39.0144079,46.664008 39.021306,46.9371733 38.9975075,47.0613393 C38.6688124,47.1810216 38.3880593,47.1810216 38.0190102,47.1744684 C38.0134917,47.0678925 38.0203898,46.908891 38.0245287,46.8016254 C38.0265981,46.718848 38.0310819,46.6364156 38.0321166,46.5577771 C38.0331514,46.470516 38.0321166,46.3846345 38.0321166,46.298753 C38.030737,46.0962933 38.0279778,45.7644941 38.0776442,45.6668858 C38.1766321,45.6523998 38.2780344,45.6306707 38.3866796,45.6058375 C38.6043151,45.5589304 38.8881724,45.4989168 39.068903,45.5261643 C39.0661437,45.5965251 39.0551068,45.7010315 39.0444147,45.7838088 Z" id="Path" fill="#FFFFFF" fill-rule="nonzero"></path>
                    <path d="M37.0974224,49.2576984 C37.0467212,49.7971308 36.8801318,50.4641783 36.3741552,50.5655806 C36.1465175,50.6124877 36.0364926,50.5438515 35.9671666,50.4786644 C35.6253651,50.162041 35.57087,49.2052727 35.618467,48.52098 C35.8461047,48.5251188 36.1444481,48.4740728 36.4976315,48.4057815 C36.7131975,48.3630132 36.9277288,48.3154162 37.0984571,48.276097 C37.1181167,48.5292577 37.1322578,48.8907188 37.0974224,49.2576984 Z" id="Path" fill="#FFFFFF" fill-rule="nonzero"></path>
                    <path d="M36.8584028,47.3210533 L35.7167651,47.7214887 C35.7747093,47.278285 35.8519681,46.6546956 35.8792157,46.2404639 C35.8988753,45.9486737 35.9782036,45.8593432 36.0009673,45.8400285 C36.0085553,45.8334752 36.0237311,45.819679 36.0661545,45.819679 C36.0727077,45.819679 36.0792609,45.8207137 36.0865039,45.8207137 L36.1106473,45.8241628 L36.831845,45.7848436 C36.8625416,46.1238858 36.8625416,46.8685371 36.8584028,47.3210533 Z" id="Path" fill="#FFFFFF" fill-rule="nonzero"></path>
                    <path d="M35.0138474,46.9661454 C34.9493501,47.1379084 34.8731259,47.6245702 34.8255289,47.9670615 L33.3955502,47.9236034 C33.4762581,47.4807446 33.5880075,47.0299529 33.7107939,46.6709061 C33.83496,46.3139288 33.9687833,46.046282 34.0919147,45.9710926 C34.2353954,45.8848662 34.551329,45.8655515 34.744821,46.0307613 C35.059375,46.2990979 35.1462912,46.6060639 35.0138474,46.9661454 Z" id="Path" fill="#FFFFFF" fill-rule="nonzero"></path>
                    <path d="M34.4799335,51.3429979 C34.3692188,51.4944115 34.2460875,51.5713254 34.0936392,51.587536 C33.9380867,51.6051262 33.8170249,51.5702907 33.7204513,51.4799254 C33.2713841,51.0653488 33.3079441,49.7071104 33.3244996,49.0542041 C33.9173924,48.9190011 34.5575373,48.8041475 34.8610542,48.7865573 C34.9065818,49.3332327 34.9196882,50.7445866 34.4799335,51.3429979 Z" id="Path" fill="#FFFFFF" fill-rule="nonzero"></path>
                    <path d="M32.6136491,47.884974 C32.5439782,48.071223 32.4763767,48.2471249 32.4253306,48.4030222 C32.2590861,48.455103 31.7506952,48.4095754 31.2316122,48.2950668 L31.5885895,46.0445575 C32.1749291,45.8890051 32.855083,45.8389937 33.019603,46.0131711 C33.2362038,46.2432231 32.8009329,47.3945182 32.6136491,47.884974 Z" id="Path" fill="#FFFFFF" fill-rule="nonzero"></path>
                    <path d="M31.9666061,51.6854892 C31.689302,52.0272907 31.2733458,52.186982 30.6932145,52.1807737 C30.2917444,52.1742205 30.1482636,52.0217722 30.0765232,51.9076084 C29.7543814,51.397493 30.0696251,50.194807 30.3855587,49.4267022 L32.3225487,49.5429354 C32.3422084,49.6777935 32.3584189,49.8419685 32.3660069,50.0206297 C32.387391,50.5673051 32.3187548,51.2481488 31.9666061,51.6854892 Z" id="Path" fill="#FFFFFF" fill-rule="nonzero"></path>
                    <path d="M47.9736767,35.3542073 C46.2298338,34.8603024 46.3798677,32.3104151 46.525073,29.8460643 C46.576464,28.9741429 46.6250957,28.1494735 46.5854315,27.4755279 C46.4516081,25.168799 46.0635893,22.6565063 44.2083419,21.5193524 C42.2127179,20.2990763 38.948186,20.5770702 36.9339371,20.8333351 C36.9322126,20.83368 36.930488,20.8347148 36.9287635,20.8350597 C36.9277288,20.8350597 36.927039,20.8350597 36.9263492,20.8354046 C36.188596,21.0589034 35.4984398,21.2037638 34.9634912,21.1754815 C33.7749464,21.1140883 32.8502544,20.6136302 32.0359322,20.1745654 C31.400616,19.8303495 30.8463526,19.5330409 30.3245104,19.5330409 C30.2969179,19.5330409 30.2679459,19.5330409 30.2393187,19.5340756 C28.6779309,19.6354779 27.9601823,20.0169435 27.3083106,20.5987993 C27.1444804,20.7436597 26.9444352,21.1640996 26.2898043,23.0503886 C25.9593847,24.0037077 25.8983364,24.5252051 25.8369432,25.0322163 C25.7817583,25.4954246 25.7255386,25.9717393 25.479276,26.6822449 C25.3078579,27.1727007 25.1812775,27.595555 25.058836,28.0032335 C24.7360044,29.0865821 24.4807742,29.9398786 23.714049,30.954591 C23.6240286,31.0746182 23.5126241,31.2512099 23.3836294,31.4522899 C23.2097969,31.7261449 22.9945758,32.0665668 22.7107185,32.4607939 C22.5103283,32.738443 22.0502242,33.7776436 22.0754023,34.094267 C22.112997,34.5985191 22.2768272,34.9113485 22.4644559,35.2766035 C22.6510498,35.636685 22.8635117,36.0443635 22.9021411,36.6072495 L22.9086943,36.6986495 C22.9769856,37.5916102 22.8497154,38.0396426 21.1510552,39.5568825 C20.0649473,40.5288266 19.2933934,41.4649005 18.7729308,42.1519525 C18.7270584,42.2126559 18.7867271,42.3026763 18.8626063,42.296468 C18.8801965,42.2940536 18.8977867,42.2930189 18.9139972,42.2930189 C18.9467633,42.2902596 18.9791844,42.2892249 19.0116055,42.2892249 C19.0440267,42.2892249 19.0767927,42.2902596 19.1088689,42.2916393 C19.141635,42.2930189 19.1730214,42.2954332 19.2050976,42.3002619 C19.6158802,42.3471691 20.0163156,42.5210015 20.3053466,42.8203796 C20.3557028,42.8724604 20.4339964,42.8866015 20.5009081,42.8596989 C20.7775224,42.7445004 21.0813843,42.7634702 21.3717948,42.7907177 C21.7304967,42.8238287 22.0926476,42.9310943 22.3306325,43.162526 C22.4023728,43.2325418 22.5048098,43.2680671 22.602763,43.2456483 C22.8838611,43.1818407 23.1787554,43.1877041 23.4522656,43.2870369 C23.6681765,43.3674 23.8495969,43.4943252 23.9937674,43.6540165 C24.0944799,43.765766 24.273141,43.7871501 24.3993765,43.7057524 C24.478015,43.6550513 24.5645863,43.612283 24.6608149,43.5798618 C25.0295191,43.4546611 25.4375424,43.5260565 25.7955545,43.6547063 C25.9718013,43.718169 26.1566707,43.7747335 26.3156722,43.8809644 C26.6078073,44.0754912 26.7861235,44.3596935 26.8999423,44.6773516 C26.9644397,44.8563576 27.2055287,44.9184406 27.3517687,44.7966889 C27.6145868,44.5780187 27.8225649,44.5411138 28.0322675,44.6342384 C28.1391883,44.6825251 28.2136879,44.748747 28.2636992,44.8318693 C28.3509603,44.9763847 28.5285867,45.0953772 28.6910373,45.0498496 C29.2618561,44.8908481 29.9765006,44.9736255 30.494204,45.2509296 C30.677004,45.3468134 30.8566998,45.4933983 30.9877639,45.7148277 C30.9881088,45.7148277 30.9881088,45.7148277 30.9881088,45.7151726 C30.9884537,45.7162073 30.9894885,45.7158624 30.9894885,45.7148277 L31.0046643,45.6165296 C31.0115624,45.5720368 31.0429488,45.5351319 31.086062,45.5216806 L31.2060892,45.4847756 C31.4889118,45.3947553 32.9299276,44.9794889 33.4903992,45.5696224 C33.5145426,45.5937658 33.5566211,45.5961802 33.5800747,45.5710021 C33.6562988,45.48719 33.7183818,45.4413175 33.758046,45.4185538 C34.1229562,45.1971243 34.7489599,45.1833281 35.165261,45.5399606 C35.2490731,45.6103213 35.3849659,45.5847983 35.4480836,45.4951228 C35.4870579,45.4402828 35.5312059,45.3916511 35.5808723,45.3499175 C35.7271123,45.2236821 35.9123266,45.1633236 36.1175455,45.1760851 L36.9091039,45.1333168 C37.1081144,45.1222798 37.7268751,45.0802013 37.9217468,45.0391576 C37.9365778,45.0360534 37.9517536,45.0332942 37.9672744,45.0308798 C38.0497068,45.0181183 38.14766,44.9970791 38.250097,44.9756949 C38.633977,44.8918829 39.0695928,44.7977236 39.4272599,44.9629334 C39.7707859,45.1219349 39.7273278,45.5134028 39.6859392,45.8586534 C39.6697286,45.998685 39.6521384,46.144925 39.653518,46.283922 C39.6559324,46.3487643 39.657312,46.4139514 39.6583467,46.4805182 C39.6635203,46.7781718 39.6697286,47.0530616 39.6107497,47.2641438 C39.6107497,47.2644887 39.6107497,47.2651785 39.6107497,47.2655234 C39.6107497,47.2658684 39.6107497,47.2662133 39.6107497,47.2665582 L39.6469648,47.4300434 C39.6486894,47.4362517 39.6504139,47.4441846 39.6524833,47.4538419 C39.6849044,47.603531 39.8456305,47.6869981 39.9763497,47.6073249 C40.2522742,47.439011 40.5423399,47.2203408 40.6299459,47.0944503 C40.6364991,47.0847929 40.6416727,47.0747906 40.6454666,47.0637537 C40.6575383,47.0320223 40.6799572,46.9633861 40.7044455,46.8199054 C40.7534221,46.5257009 40.8082621,45.9279794 40.8130908,44.7142565 C40.8130908,44.650104 40.8130908,44.6042316 40.8144704,44.5828474 C40.8244727,44.1324007 40.8068825,43.7709395 40.7892923,43.4519018 C40.7568712,42.7938219 40.7303134,42.2761185 41.0569391,41.7491027 C41.3749421,41.236228 41.6836326,41.0423911 41.9802515,40.8544175 C42.3251571,40.6381617 42.7145556,40.3925888 43.3702212,39.4934198 C43.6916732,39.050561 43.7313374,38.8718999 43.7627238,38.729109 C43.8341192,38.3948954 43.944489,38.1938154 44.4408083,37.8185581 C44.8450377,37.5133166 46.0746263,36.5813816 47.7336224,36.8604102 C48.2775386,36.9528449 49.1594623,37.2429106 50.0296592,37.5857468 C50.0300041,37.5860917 50.030349,37.5860917 50.0310388,37.5860917 C50.0313837,37.5860917 50.0317286,37.5860917 50.0320735,37.5860917 C50.0644947,37.595749 50.0979505,37.6071309 50.1286471,37.6233415 C50.1396841,37.6292049 50.151066,37.6347234 50.1627928,37.6395521 C50.9402101,37.9499671 51.6965881,38.2965973 52.1811805,38.5735565 C52.2939647,38.6380539 52.4384801,38.6008041 52.5178084,38.4976773 C52.676465,38.2917686 52.8496077,38.1724313 53.0362016,38.0603369 C53.1062175,38.0179135 53.1600227,37.9854924 53.2114137,37.9416894 C53.2290039,37.9268584 53.2462491,37.9123724 53.2631495,37.8985762 C53.4080099,37.7813083 53.407665,37.5305619 53.2417654,37.4450253 C50.9036501,36.236131 48.7014276,35.5611507 47.9736767,35.3542073 Z M31.356813,35.8908805 C30.8173805,38.2514147 27.160691,40.8461398 25.4985907,40.8461398 L25.4658247,40.8461398 C25.4396119,40.8447601 25.4106398,40.8423458 25.3795983,40.8371722 C25.3482119,40.8323435 25.3144111,40.8247556 25.2785409,40.8147533 C25.2609507,40.8095798 25.2419809,40.8033715 25.223356,40.7985428 C24.9215636,40.7033488 24.5038829,40.4715722 24.1876044,40.1604673 C23.969969,39.9469708 23.7985509,39.6948447 23.7447456,39.423404 C23.7347433,39.375807 23.724741,39.328555 23.7143939,39.280958 C23.6247184,38.8794878 23.512969,38.377995 23.8671871,37.5571196 C23.9161637,37.4470947 23.9596218,37.3443128 23.9996308,37.2504985 C24.0123923,37.219457 24.0261886,37.1880706 24.0386052,37.1580638 C24.0761999,37.069423 24.1096557,36.9880253 24.1400074,36.9142155 C24.1900187,36.7893597 24.2310625,36.6831287 24.2648633,36.5927634 C24.2786595,36.5575831 24.291421,36.5237823 24.302458,36.4927408 C24.4038602,36.2088835 24.4162768,36.1026525 24.4300731,35.9926276 C24.4428346,35.9064012 24.4552512,35.8008601 24.4904316,35.6508262 C24.5942482,35.2079673 24.6480534,34.83271 24.6956504,34.4984964 C24.7808421,33.8976708 24.8546519,33.3789327 25.1785183,32.9022731 C25.2337032,32.8212203 25.2947515,32.7470656 25.3637326,32.6822233 C25.3875311,32.6598045 25.4102949,32.6384203 25.4347832,32.6170362 C25.4599613,32.595652 25.4851394,32.5770271 25.5096277,32.5580573 C25.5882662,32.5028724 25.6724232,32.4542407 25.7634783,32.412852 C25.7948647,32.3990558 25.8262511,32.3852596 25.8572926,32.3742226 C25.921445,32.3504241 25.9887016,32.3300747 26.0590624,32.3124845 C26.356716,32.2403992 26.7081748,32.2290173 27.1120593,32.2800634 C27.5538834,32.3152438 27.9629415,32.3987109 28.3254373,32.5001132 C28.6282645,32.5835803 28.8986705,32.6815335 29.1273429,32.7725886 C29.1511414,32.7815562 29.1739052,32.7901788 29.1963241,32.8001811 C29.2401271,32.8177713 29.2825505,32.8353615 29.3239391,32.8543313 C29.386712,32.8805441 29.4439663,32.9057222 29.4977716,32.9291758 C29.569167,32.9615969 29.6343542,32.990569 29.6919535,33.0164369 L29.7457587,33.041615 C30.0009889,33.1578482 30.2203489,33.2854633 30.4076326,33.4192867 C30.5000674,33.4872331 30.5866387,33.5558693 30.6638975,33.6255403 C30.6904553,33.648304 30.7156334,33.6721025 30.7387421,33.6969357 C30.7639202,33.7210791 30.7877187,33.7448776 30.8101375,33.7686761 C31.5127103,34.5084987 31.4778748,35.3642096 31.356813,35.8908805 Z M33.0513343,26.9436834 L32.9802838,27.3717113 C32.8164536,28.3360674 32.4398167,29.6584356 31.0512266,29.9988575 C29.715407,30.3254831 29.3987837,30.3951541 28.4478788,30.4379224 C28.4268396,30.4403367 28.4040758,30.4403367 28.3816569,30.4403367 C27.6873619,30.4403367 26.3511975,30.0026515 26.1145922,28.9141293 C25.9631786,28.2136259 26.2722141,27.7059248 26.7812948,26.8640102 C26.8661416,26.7250132 26.9578865,26.576014 27.0551499,26.4097695 C27.7280608,25.2760646 27.9932932,24.4555341 28.2064449,23.7974542 C28.4137332,23.1545501 28.5865309,22.6230505 29.0307694,22.182606 C29.1332063,22.080169 29.2494395,21.9835954 29.3846425,21.8911607 C29.4708689,21.8321819 29.5608893,21.7797562 29.6560833,21.7307796 C29.7823187,21.6680068 29.9147625,21.6135117 30.0537595,21.5693638 C30.3627949,21.4707207 30.6966636,21.4207094 31.0308771,21.4207094 C31.6786099,21.4207094 32.3256529,21.6069585 32.7871366,21.9773871 C32.9947698,22.1436316 33.290009,22.4761207 33.4614271,23.4570323 C33.549723,23.9623191 33.3993441,24.890805 33.0513343,26.9436834 Z M42.9580589,29.6884424 C42.4800197,30.5089729 42.2185812,30.9607993 41.8057292,31.2994967 C40.9865783,31.9724075 40.0308448,32.1427909 39.2437701,32.1427909 C38.6784698,32.1427909 38.1983612,32.0555298 37.9155385,32.003794 C37.102251,31.8551396 35.5888051,31.5799049 35.0845531,30.3851518 C34.9859101,30.1488915 34.9848753,29.9988575 34.9848753,29.8084696 C34.9848753,29.620496 34.9848753,29.3045625 34.8972693,28.5523233 L34.8924406,28.5023119 C34.8520867,28.1618901 34.8072489,27.7766305 34.9048572,27.2823807 L34.9162391,27.2234018 C35.2014761,25.7727287 35.2787349,25.5509544 35.3428874,25.4257537 C35.490507,25.1405167 35.8405862,25.0280775 36.1258232,25.1746624 C36.4020926,25.318488 36.5172911,25.6533914 36.3872617,25.9348344 C36.3582896,26.0172668 36.2772368,26.3263023 36.0568421,27.4486252 L36.0454602,27.5076041 C35.9826873,27.8242275 36.0102798,28.0642818 36.0468398,28.3684886 L36.0516685,28.4198795 C36.1465175,29.236616 36.1465175,29.6066998 36.1465175,29.80709 C36.1465175,29.8426152 36.1465175,29.8812447 36.1478971,29.9043534 C36.1482421,29.9133209 36.1527258,29.9250477 36.1554851,29.9336703 C36.2499892,30.157859 36.4631409,30.3278975 36.7228548,30.4586167 C36.8842707,30.5396695 37.0529295,30.3854967 37.0170594,30.2085601 C36.758725,28.9299949 36.7728662,27.438623 37.2612525,26.5170351 C37.4212888,26.2111038 37.7172178,25.7103008 37.9983159,25.2429537 C37.9993506,25.2415741 38.0000404,25.2405393 38.0007302,25.2391597 C38.00142,25.2377801 38.0024548,25.2367454 38.0031446,25.2353658 C38.0317717,25.1881137 38.060054,25.1415514 38.0883363,25.0946443 C38.1121347,25.0542903 38.1359332,25.0160058 38.1580072,24.9784111 C38.2818283,24.7728473 38.3980615,24.5841839 38.491186,24.43415 C38.5036026,24.4127658 38.5160192,24.3913817 38.5287808,24.3713771 C38.5374034,24.3562013 38.5463709,24.3424051 38.5549936,24.3299885 C38.5749981,24.2972224 38.5925883,24.2672156 38.6091438,24.2413477 C38.6163868,24.2289311 38.6239747,24.2175492 38.630183,24.2061673 C38.633977,24.2013387 38.6367362,24.1961651 38.6391506,24.1923711 C38.6477732,24.1771953 38.6567407,24.163399 38.6643287,24.1523621 C38.6791596,24.1285636 38.6905415,24.1109734 38.6967498,24.0995915 C38.6974396,24.0985568 38.6977845,24.097867 38.6981294,24.0968323 C38.699509,24.0944179 38.7022683,24.090624 38.7036479,24.0882096 C38.7046826,24.0864851 38.7050275,24.0861402 38.7060623,24.0844157 C38.8029807,23.9433492 38.8988645,23.809181 38.991989,23.6829455 C39.1185694,23.5115274 38.9719845,23.2869938 38.7746985,23.3677017 C38.3001083,23.5611938 37.975897,23.8084911 37.91002,23.8605719 C37.6585838,24.0609621 37.2929839,24.0195734 37.0943182,23.7681372 C36.8953077,23.5170459 36.9366963,23.1504112 37.1881325,22.950021 C37.4871657,22.7151403 39.0720071,21.5590166 40.9700228,22.1018981 C42.3375737,22.4909516 43.0542876,23.5356708 43.3243487,23.9285183 C43.5419842,24.247556 44.2090317,25.216051 44.1876475,26.5680811 C44.1717819,27.599349 43.7416845,28.341241 42.9580589,29.6884424 Z" id="Shape" fill="#FFFFFF" fill-rule="nonzero"></path>
                    <path d="M30.6314764,22.6168422 C30.534213,22.8520678 30.4179798,23.1435131 30.293124,23.4601365 C30.0013338,24.1934058 29.6705693,25.0239386 29.5115678,25.3250412 C29.2373678,25.8455038 29.0238712,26.173854 28.8534879,26.4383966 C28.6582713,26.7422585 28.5027188,26.9826577 28.3854509,27.317906 C28.1795422,27.9042456 28.1426373,28.5595663 28.2764607,29.2721413 C27.9129302,29.2321323 27.317968,28.9817308 27.2507114,28.6661421 C27.2003551,28.4312614 27.3462502,28.1743067 27.7763476,27.4669052 C27.862574,27.3258388 27.9550087,27.1723558 28.056066,27.0016275 C28.7951988,25.7568631 29.094232,24.8307915 29.3142818,24.1537417 C29.5515769,23.4170232 29.6636712,23.1079878 30.0413429,22.8499984 C30.2103466,22.7323856 30.4159104,22.657541 30.6314764,22.6168422 Z" id="Path" fill="#FFFFFF" fill-rule="nonzero"></path>
                    <path d="M29.9095889,48.7206803 C29.5067391,49.5436252 29.0052463,50.3031074 28.6927618,50.6793994 C28.4340826,49.9799308 27.9843257,48.3771543 28.1029732,47.0875521 C28.1064222,47.0503023 28.1105611,47.0133974 28.1160796,46.9775272 C28.1636766,46.5791612 28.2695626,46.2139062 28.4578811,45.9210813 C28.5820471,45.7286239 28.925918,45.6110111 29.3163512,45.6110111 C29.6046923,45.6110111 29.9182116,45.6741288 30.1882727,45.8189892 L30.1903421,45.8189892 C30.3348576,45.8962481 30.5317987,46.0528352 30.552493,46.5077658 C30.5821549,47.1223876 30.28933,47.9484366 29.9095889,48.7206803 Z" id="Path" fill="#FFFFFF" fill-rule="nonzero"></path>
                    <path d="M51.9818251,39.4989383 C52.0128666,39.5241164 52.0325262,39.5620561 52.0145911,39.5979263 C51.8942191,39.8397051 51.7500485,40.0093987 51.5796651,40.209099 C51.3741014,40.453982 51.1388757,40.7316311 50.9202055,41.1644877 C50.6087557,41.7780748 50.509078,42.3378566 50.4566524,43.7709395 C50.3949143,45.454424 50.4601014,46.4001552 50.509078,47.0896216 C50.5556403,47.7556344 50.5842674,48.1571045 50.4656199,48.8065618 C50.2262554,50.1168583 49.6657837,50.984296 48.9559679,52.0821307 C48.0678359,53.4552 47.1493522,54.8744867 45.6283184,55.3270029 C45.4869071,55.370461 45.4820784,55.370461 45.0854369,55.3718406 C44.7401864,55.3718406 44.1659185,55.3732202 43.0787759,55.4132293 C41.0917745,55.4853146 40.0949972,55.5211848 39.2420456,55.6850149 C38.3473604,55.8581576 37.8807031,56.0485455 37.4281869,56.2313455 C37.0198186,56.3965553 36.6338692,56.5534873 35.8940466,56.7055907 C35.4529123,56.7945764 34.7937976,56.8918397 32.5477721,56.8952888 C30.2134508,56.8994277 28.8041663,56.9004624 26.9434004,56.6883454 C24.3904089,56.3969002 23.1087396,56.2510051 22.2575125,55.7964194 C20.2498168,54.7254874 19.4020387,52.7995344 17.9996524,49.6088123 C17.9972381,49.6032938 17.9948237,49.5977754 17.9924094,49.591912 C17.9751641,49.5522478 18.0234509,49.5139633 18.0607007,49.5360372 C18.1272675,49.5774259 18.1965935,49.6115716 18.2697135,49.6360599 C18.3311067,49.6577889 18.3949143,49.6743444 18.4594116,49.6850365 C18.5877165,49.7067655 18.7215399,49.7081452 18.8574327,49.6850365 C18.8812312,49.6808976 18.9029603,49.6753791 18.9239995,49.6667565 C18.9281384,49.665032 18.9319323,49.6629625 18.9360712,49.661238 C18.9598697,49.6495112 18.9891867,49.6591686 18.9991889,49.6836569 C19.0885195,49.9295746 19.2302757,50.1485897 19.4682606,50.2748251 C19.7065904,50.3989912 19.9776862,50.4086485 20.2429187,50.4065791 C20.5160839,50.4024402 20.7913186,50.3869195 21.0634492,50.3541534 C21.2076197,50.3389776 21.3552393,50.4096832 21.4104242,50.5438515 C21.659791,51.1481262 21.9684815,51.5854665 22.4323796,51.6499639 C22.4575577,51.6534129 22.4903238,51.6575518 22.5317125,51.6575518 C22.6362189,51.6575518 22.7976347,51.6272001 23.0252724,51.470613 C23.2015192,51.349896 23.4743396,51.4209466 23.6009199,51.5930545 C23.7168082,51.7499865 23.8547705,51.8627707 23.973418,51.9579646 C24.4511123,52.4484204 25.6120647,52.6836461 26.5871129,52.6836461 C27.1189574,52.6836461 27.5959619,52.6136302 27.8767151,52.4770476 C28.2781853,52.2821759 28.2781853,51.9831427 28.2585256,51.8620809 C28.22438,51.6451352 28.1933385,51.4299141 28.1671256,51.2167624 C28.1640215,51.1912394 28.2026509,51.1812371 28.2129981,51.2050356 C28.2712871,51.3323058 28.3426826,51.4909624 28.5327256,51.521659 C28.5534199,51.5237284 28.5765286,51.5282122 28.6027415,51.5282122 C28.8745271,51.5282122 29.2973814,51.616853 29.3701565,51.8786363 C29.4074063,52.0121148 29.459832,52.1369707 29.5312274,52.2497548 C29.6943678,52.5080891 30.0265119,52.8157449 30.6849368,52.8267819 L30.7359828,52.8267819 C31.492016,52.8267819 32.0755963,52.5794846 32.4691336,52.0907533 C32.4946567,52.0593669 32.519145,52.0269458 32.5425985,51.9941797 C32.6840098,51.7948243 33.1041049,51.7862016 33.2838007,51.9517563 C33.4862604,52.1390401 33.7411456,52.2356137 34.025003,52.2356137 C34.0705305,52.2356137 34.1167479,52.2335442 34.1643448,52.2280257 C34.5026973,52.1921556 34.7955221,52.0128046 35.0141923,51.7068733 C35.1573282,51.507173 35.2618346,51.2616001 35.3380587,50.9960228 C35.3604776,50.9177292 35.4680881,50.8946205 35.5281017,50.9494605 C35.6726172,51.0832839 35.9043938,51.2246952 36.2386073,51.2246952 C36.3200051,51.2246952 36.4083009,51.2160726 36.5021152,51.196413 C37.1588156,51.0643141 37.4857861,50.5207428 37.6406487,49.9071557 C37.6458223,49.8864614 37.6754842,49.8809429 37.6892804,49.8971535 C37.855525,50.0996131 38.162491,50.3334591 38.6967498,50.3334591 C38.7239973,50.3334591 38.7522796,50.3334591 38.780217,50.3320795 C39.0630396,50.318973 39.3013694,50.194807 39.4734773,49.9726878 C39.682835,49.6998674 39.7652675,49.2952931 39.7842373,48.8883045 C39.7897558,48.7696569 39.8663248,48.6654954 39.9760048,48.619623 C40.5395806,48.3840524 41.2221489,47.8766962 41.4221941,47.5311008 C41.4290922,47.5190291 41.4359904,47.5062676 41.4428885,47.4931612 C41.4887609,47.4041755 41.5673994,47.3338148 41.6656975,47.3151899 C42.102348,47.2324125 42.292736,47.1499801 42.4658786,47.0747906 C42.606945,47.0127076 42.7204189,46.963731 43.0377321,46.9144095 C45.5624414,46.5291499 46.0553115,46.4443031 46.6016421,46.0800828 C47.4187235,45.5351319 47.4601122,44.7849621 47.5004662,44.0592807 C47.5349567,43.4456935 47.574276,42.7493291 48.0509356,41.9322476 C48.2240782,41.6339042 48.4237785,41.261751 48.6362404,40.8678688 C49.0080487,40.1784024 49.5274766,39.2130116 49.8992849,38.707035 C49.9693007,38.6114961 50.0958811,38.5818343 50.2048712,38.6280516 C51.0774825,38.9988252 51.8207542,39.3699436 51.9818251,39.4989383 Z" id="Path" fill="#FFFFFF" fill-rule="nonzero"></path>
                    <path d="M27.4635181,47.011328 C27.3634955,47.8842842 27.3024472,49.0504101 27.4438585,50.5693745 C27.4838676,50.9980922 27.5397423,51.4430205 27.6090683,51.8938122 C27.4893861,51.9589993 27.1320638,52.0503993 26.4967476,52.0403971 C25.5837824,52.0221171 24.6949606,51.7924099 24.4280036,51.5037239 L24.386615,51.4664741 C24.1644957,51.2881579 24.0189456,51.1705451 23.9982512,50.8518523 C23.9913531,50.7442417 24.0375705,50.6376659 24.1362135,50.4869421 C24.1907086,50.4020953 24.2624489,50.3041421 24.3514346,50.1834251 C24.5049176,49.9775165 24.6953055,49.7209067 24.8901772,49.3897973 C25.4616858,48.4244064 25.6782866,48.1264079 25.9535213,47.749771 C25.9752503,47.7194193 25.998359,47.6887227 26.0221575,47.6573363 C26.1842631,47.435217 26.374651,47.1696397 26.6609227,46.7333341 C26.8740744,46.4094677 27.0513559,46.1556171 27.1975959,45.9562617 C27.4414442,45.6248073 27.6011355,45.4447666 27.7035725,45.3468134 C27.6883966,45.4971923 27.6545959,45.7082745 27.6218298,45.9031462 C27.573543,46.2028692 27.5124947,46.5695039 27.4635181,47.011328 Z" id="Path" fill="#FFFFFF" fill-rule="nonzero"></path>
                    <path d="M27.0451476,33.4403259 C27.0396291,33.4479139 27.0330759,33.4555018 27.0275574,33.4634346 C26.9089099,33.6279546 26.7730171,33.8138587 26.6109114,34.1760097 C26.1756405,35.14347 26.1673628,35.6911801 26.1604646,36.1316246 C26.1563258,36.3623665 26.1539114,36.5462012 26.0907937,36.7607325 C26.0473356,36.9021438 25.9766299,37.0642495 25.8948873,37.2511883 C25.6382775,37.8389075 25.3030292,38.6094267 25.4534081,39.646213 C25.24543,39.5461904 24.927427,39.317518 24.8832791,39.1957663 C24.8722421,39.1392018 24.8601704,39.083672 24.8474089,39.0281421 C24.7753236,38.7046207 24.7277266,38.4938833 24.9332904,38.0203279 C25.4741024,36.7731491 25.5406692,36.477565 25.5830926,36.1378329 C25.5917153,36.0636782 25.6006828,36.006079 25.6224119,35.9122646 C25.7365756,35.4204292 25.7962443,34.9992994 25.8452209,34.660947 C25.917996,34.1473825 25.9669726,33.8076504 26.1401152,33.5520754 C26.2032329,33.4575712 26.3818941,33.4085946 26.6374691,33.4085946 C26.7385265,33.4085946 26.8526903,33.4161825 26.9772012,33.4337727 L27.0061733,33.4358422 C27.0189348,33.4372218 27.0323861,33.4382565 27.0451476,33.4403259 Z" id="Path" fill="#FFFFFF" fill-rule="nonzero"></path>
                    <path d="M26.3318827,45.74311 C26.3025658,45.4440768 26.2501401,45.1443538 26.1414948,44.8625659 C26.1339069,44.8484248 26.1014858,44.7763395 26.0945877,44.7625432 C26.074928,44.7266731 26.0525092,44.6928723 26.0314699,44.657347 C26.0300903,44.6559674 26.0294005,44.6559674 26.0294005,44.6549327 C26.0280209,44.6528633 26.0273311,44.6528633 26.0273311,44.6518285 C26.0152594,44.6387221 26.0042224,44.6259606 25.9924956,44.613544 C25.9749054,44.5959538 25.9559356,44.5790534 25.9369658,44.5635327 C25.9335167,44.5593938 25.9304126,44.5559448 25.9273084,44.5545651 C25.9186858,44.5473221 25.9055794,44.536975 25.8914383,44.5286972 C25.8683296,44.5166255 25.8466005,44.5035191 25.8241817,44.4921372 C25.8172835,44.4876535 25.801073,44.4811002 25.7858971,44.4755818 C25.7858971,44.4755818 25.7848624,44.4755818 25.7848624,44.474547 C25.7814134,44.4731674 25.7779643,44.4724776 25.7752051,44.471098 C25.771756,44.4690286 25.7696866,44.4676489 25.7676171,44.4669591 C25.7641681,44.4655795 25.7620986,44.4648897 25.7600292,44.4648897 C25.7579598,44.4648897 25.7579598,44.4635101 25.7579598,44.4635101 C25.7510617,44.460061 25.7469228,44.4593712 25.7438186,44.4579916 C25.5696413,44.394184 25.3930496,44.3241682 25.2081802,44.2969206 C25.2071455,44.2969206 25.2040413,44.2958859 25.201627,44.2958859 L25.1974881,44.2958859 C25.1767938,44.2958859 25.1343704,44.2917471 25.1323009,44.2917471 C25.106433,44.2903674 25.0812549,44.2903674 25.0560768,44.2917471 C25.0440051,44.2917471 25.0322783,44.2917471 25.0212413,44.2927818 L25.011584,44.2927818 C25.0074451,44.2927818 25.0022715,44.2941614 24.996753,44.2941614 C24.9946836,44.2962308 24.9912345,44.2962308 24.9898549,44.2962308 C24.9888202,44.2962308 24.9877855,44.2962308 24.9877855,44.2962308 C24.9463968,44.3083025 24.9029387,44.3193395 24.86155,44.332101 C24.8439598,44.3410686 24.8246451,44.3496912 24.8070549,44.3607282 C24.792224,44.3693508 24.7767032,44.3803878 24.7615274,44.3879757 C24.7604927,44.3890104 24.7584232,44.3910799 24.7560089,44.3910799 L24.7529047,44.3945289 C24.7332451,44.4141886 24.7125508,44.4324686 24.6928912,44.4521282 C24.686338,44.4590263 24.668058,44.4814452 24.6549515,44.4980006 C24.6515025,44.5000701 24.6494331,44.5021395 24.6494331,44.5042089 C24.6483983,44.5052436 24.6483983,44.5052436 24.6473636,44.5062784 C24.6463289,44.5073131 24.6463289,44.5083478 24.6439146,44.5093825 C24.6428798,44.5107621 24.6428798,44.5117969 24.6418451,44.5117969 C24.6366715,44.5211093 24.6311531,44.5290421 24.6290836,44.5335259 C24.5590678,44.6421712 24.4883621,44.7501266 24.415587,44.8573923 C24.2479629,45.114347 24.0761999,45.3699221 23.9020225,45.6237726 C23.743021,45.8534798 23.5843645,46.0831869 23.4263977,46.3125492 C23.3381018,46.441199 23.2511856,46.5681243 23.1642694,46.6967741 C23.1490935,46.7185031 23.1349524,46.7402322 23.1208113,46.7619612 C23.2239381,46.7816208 23.3274098,46.8019703 23.4319162,46.8216299 C23.6657622,46.8643982 23.8985735,46.905442 24.1358686,46.9378631 C24.6242549,47.0044299 25.1209191,47.0351265 25.6158586,47.0175363 C25.6396571,47.0161567 25.6634556,47.0175363 25.6855296,47.0216752 C25.804522,46.8519816 25.9445537,46.649522 26.1232148,46.3784262 C26.2222028,46.2270126 26.3167069,46.0869809 26.4056926,45.9572964 C26.3656835,45.8952134 26.3405054,45.8210586 26.3318827,45.74311 Z" id="Path" fill="#FFFFFF" fill-rule="nonzero"></path>
                    <path d="M24.5921787,47.7614978 C24.5501002,48.1381347 24.1286255,49.112838 23.4712354,50.0409791 C22.920766,50.8170168 22.5865524,51.0053353 22.5199857,51.0118885 C22.2544083,50.9749836 21.99228,50.3175934 21.7843019,49.6657218 C21.7008348,49.4015241 21.6253004,49.1380161 21.5621827,48.9172765 C21.4197367,48.4213022 21.3938688,47.7559793 21.418702,47.3382985 C21.974,47.6459544 22.9487034,47.7287317 24.3179787,47.7342502 L24.3221176,47.7342502 C24.4124829,47.7439076 24.5018134,47.7539098 24.5921787,47.7614978 Z" id="Path" fill="#FFFFFF" fill-rule="nonzero"></path>
                    <path d="M23.6185101,44.6604512 C23.6185101,44.6618308 23.6185101,44.6618308 23.6185101,44.6625206 C23.6119569,44.6714882 23.6064384,44.6811455 23.6002301,44.6897682 C23.3650045,45.0357085 23.1280543,45.3799243 22.8907592,45.7244851 C22.7679728,45.9021115 22.6462211,46.079393 22.5251592,46.2580541 C22.4589374,46.3549726 22.3696068,46.4615484 22.2923479,46.5767469 C22.0974763,46.5308744 21.9029495,46.4863816 21.7101472,46.4318865 C21.5525254,46.386359 21.3969729,46.3373824 21.2441797,46.2763341 C21.2134831,46.2652971 21.1841661,46.2532254 21.1558839,46.2394292 C21.1307058,46.1883831 21.0948356,46.1425107 21.0513775,46.1076752 C21.0524122,46.1066405 21.0524122,46.1035364 21.0534469,46.1021567 C21.1089767,45.9890277 21.1655412,45.8748639 21.221071,45.7617349 C21.3266122,45.5541017 21.4324982,45.3475032 21.5497661,45.147113 C21.7591238,44.7856519 22.0112498,44.4179825 22.365123,44.1837916 C22.3827132,44.1706852 22.4020279,44.1586135 22.4206528,44.1468867 C22.5579253,44.0606603 22.6951977,43.9999569 22.8635117,43.9792625 C22.8831713,43.9771931 23.0018188,43.9778829 23.0573486,43.9827116 C23.067006,43.9827116 23.0749388,43.9837463 23.0804573,43.9837463 L23.081492,43.9837463 C23.0856309,43.9851259 23.0935637,43.9871954 23.1052905,43.9913342 C23.1466792,44.0044407 23.1884128,44.0130633 23.2298015,44.0272044 C23.2439426,44.0341025 23.2567041,44.0403108 23.2711901,44.0478988 C23.3070603,44.0696278 23.3439652,44.0892874 23.377766,44.116535 C23.3232709,44.0751463 23.4529554,44.2089697 23.4529554,44.1993123 C23.5574618,44.3438278 23.5891931,44.4648897 23.6185101,44.6604512 Z" id="Path" fill="#FFFFFF" fill-rule="nonzero"></path>
                    <path d="M21.7560197,43.6795396 C21.3207488,44.0375516 21.0041254,44.5142112 20.7399277,45.0101855 C20.5916182,45.2854202 20.4577949,45.5661734 20.318453,45.8458919 C20.3043119,45.874519 20.2901707,45.9017666 20.2739602,45.9297039 C20.1422062,45.9010768 20.0104523,45.8631371 19.8818025,45.8220934 C19.7448749,45.7786353 19.6086372,45.7286239 19.4782629,45.6679205 C19.4185942,45.6392934 19.3585806,45.6099764 19.2989119,45.57859 C19.4292863,45.3316375 19.5848387,45.0943425 19.7331481,44.8639455 C19.9421609,44.5383546 20.168419,44.2186271 20.4143368,43.9182143 C20.5067715,43.8040505 20.6047247,43.6788497 20.7344092,43.6036603 C20.8668529,43.5253667 21.0272341,43.5439916 21.1793375,43.5526143 C21.3404084,43.5626165 21.513551,43.5667554 21.6656544,43.6278037 C21.6970408,43.641255 21.7311865,43.6622943 21.7560197,43.6795396 Z" id="Path" fill="#FFFFFF" fill-rule="nonzero"></path>
                    <path d="M21.0648288,49.5208614 C21.0430997,49.5391414 21.0248197,49.558801 21.0086092,49.5819097 C20.9934333,49.5860486 20.9779126,49.5894976 20.9682552,49.591912 C20.8637488,49.602604 20.757173,49.610192 20.6516318,49.6170901 C20.4491722,49.6298516 20.2436085,49.6388191 20.0390794,49.6312312 C19.9249157,49.6270923 19.821444,49.6095022 19.7745368,49.5367271 C19.6993474,49.4225633 19.6765836,49.2232078 19.649681,49.0717943 C19.5158576,48.3285226 19.4982674,47.5542095 19.5931164,46.8019703 C19.9814802,46.9413122 20.3812258,47.0492676 20.7909737,47.1165242 C20.7026779,47.7946087 20.8530567,48.7900064 20.9410077,49.0949029 C20.9820514,49.2366592 21.0234401,49.3801399 21.0648288,49.5208614 Z" id="Path" fill="#FFFFFF" fill-rule="nonzero"></path>
                    <path d="M19.8152357,43.4318973 C19.4713647,43.8540618 19.1581904,44.3034738 18.8770923,44.7690965 C18.7636184,44.9584496 18.6353135,45.1543561 18.5408093,45.3568157 C18.4045716,45.318876 18.2817852,45.2643809 18.1514109,45.183673 C18.0513882,45.12159 17.9541249,45.0529538 17.8596207,44.9812134 C17.8358222,44.9615538 17.7706351,44.9105078 17.7299362,44.8777417 C17.7206237,44.8704987 17.7116562,44.8629108 17.7016539,44.8573923 C17.7330403,44.7684066 17.7906396,44.6690738 17.8223709,44.602507 C17.8944562,44.4448852 17.9748192,44.2900225 18.0589762,44.1392988 C18.2186675,43.8564761 18.3973286,43.5798618 18.5997882,43.3253215 C18.6749776,43.2315071 18.7463731,43.1107902 18.8632961,43.0759547 C18.9698719,43.045603 19.1102485,43.0597441 19.19613,43.0745751 C19.4506704,43.1238966 19.6500259,43.23944 19.8152357,43.4318973 Z" id="Path" fill="#FFFFFF" fill-rule="nonzero"></path>
                    <path d="M17.1656706,45.2643809 C17.1704992,45.2464459 17.1939528,45.2440315 17.2046449,45.2592074 C17.2950102,45.3878572 17.4209007,45.4996066 17.5561037,45.6048028 C17.6164622,45.6506753 17.6761309,45.6962028 17.7371792,45.739316 C17.7447671,45.7448345 17.7482162,45.754147 17.7461468,45.7634594 C17.6037007,46.3535929 17.5064373,46.9802865 17.5081619,47.5976676 C17.5081619,47.6249151 17.4671181,47.6304336 17.4609098,47.6038759 C17.2867324,46.8850925 17.0501272,45.6868904 17.1656706,45.2643809 Z" id="Path" fill="#FFFFFF" fill-rule="nonzero"></path>
                    <path d="M18.849155,46.5477748 C18.779484,47.0613393 18.7460282,47.5762834 18.7684471,48.0939868 C18.779484,48.3778441 18.8098357,48.6599769 18.8481203,48.9403852 C18.8481203,48.9424547 18.8481203,48.944869 18.849155,48.9459037 L18.849155,48.9472833 C18.7881067,48.9331422 18.7242991,48.9310728 18.659112,48.9403852 C18.6718735,48.9362463 18.6384176,48.9383158 18.6242765,48.9383158 L18.6201376,48.9383158 C18.6104803,48.9372811 18.5963391,48.9362463 18.5915105,48.9352116 C18.5197701,48.9176214 18.5135618,48.9100335 18.4566524,48.8741633 C18.3824977,48.8262215 18.3042041,48.7389603 18.2521233,48.6499747 C18.1138162,48.4106102 18.0834645,48.1198547 18.0724275,47.8487589 C18.0520781,47.3169144 18.0976056,46.7857597 18.1969384,46.2646073 C18.2817852,46.2990979 18.355595,46.3308292 18.4787263,46.3839446 C18.600478,46.4370601 18.7267135,46.4894858 18.8498448,46.5463952 L18.8498448,46.5477748 L18.849155,46.5477748 Z" id="Path" fill="#FFFFFF" fill-rule="nonzero"></path>
                    <g id="Group" opacity="0.8" stroke-width="1" fill="none" fill-rule="evenodd">
                        <path d="M32.4294695,73.4224771 C30.0858357,73.4224771 27.8629189,73.2745126 25.9976692,73.1293073 L25.4834149,73.0892982 L24.9698504,73.0179028 C24.7453168,72.9861714 24.4400753,72.9534054 24.1455259,72.9213292 C22.3509819,72.7261126 19.013675,72.362582 15.3297379,70.6325354 L14.7575394,70.3628192 L14.2239704,70.0641309 C7.1437475,66.0953017 4.4938375,60.1225708 3.06696289,56.9114994 C2.9762527,56.7076601 2.8658829,56.4593281 2.76241121,56.2306556 C2.04190334,54.756529 1.5866279,53.4276075 1.20033358,52.2111254 L1.11445208,51.9393397 L1.04305661,51.6754869 C0.0152378183,48.0229362 -0.244476126,44.8687742 0.226320067,41.7497925 C0.698150977,38.6180493 1.85841354,35.7687839 3.87369717,32.7863849 L4.91876124,31.0797918 C5.13087821,30.735231 5.28056726,30.3558348 5.36127518,29.9591934 C6.15800719,26.0103687 7.96600254,23.213184 8.85447946,21.8773645 C9.09901755,20.260102 9.50221224,18.6711217 10.0582001,17.1331875 L10.1409775,16.9000313 L10.2296182,16.6727384 C10.2441043,16.6327294 10.2627292,16.5761649 10.2968748,16.4730381 C10.6959306,15.2710419 11.6316596,12.4579916 14.0273742,9.5042197 L14.927233,8.4143179 L15.8439922,7.58619946 C18.1990079,5.44605999 21.0048152,3.86225331 24.053781,2.95170243 C25.7562352,2.44400134 27.5111151,2.13358626 29.284275,2.02666552 L29.4556931,2.01390401 L29.7140274,2.00183231 C30.0206485,1.98734627 30.3262349,1.98044816 30.6242334,1.98044816 C31.7306907,1.97837873 32.8354234,2.07150325 33.9256701,2.2584421 C34.6072037,2.37329568 35.3070172,2.29327757 35.9447477,2.02770023 C37.8351755,1.23890104 39.8225218,0.705332026 41.8536711,0.441134308 C42.0233647,0.416990914 42.1713292,0.39836601 42.2879073,0.383190162 C42.6083246,0.343181108 43.1174053,0.283167527 43.732717,0.224533569 C44.8053735,0.122096595 46.4502285,-2.69738041e-15 48.2333906,-2.69738041e-15 C51.7155579,-2.69738041e-15 54.7131328,0.451136572 57.3964987,1.37893273 L57.6248262,1.45826103 L57.8479801,1.5420731 C63.769665,3.77982086 66.7841403,6.90604555 68.9522171,9.66391101 L69.054999,9.79532006 L69.3533423,10.0605525 C71.3117165,11.5929682 72.9772659,13.4661507 74.2696273,15.5907695 L74.6738567,16.2557475 L75.0149684,16.9531467 C77.9114859,22.8655191 76.9909327,28.3246855 76.6439577,30.3758394 L76.6253328,30.4855194 C76.375966,31.9986204 75.9789796,33.483784 75.440237,34.9196262 C75.2419163,36.3040774 74.9159804,37.6671445 74.4662235,38.9912372 C73.6974288,41.3452182 72.5630342,43.5633064 71.1047732,45.5647938 C70.2652728,46.7523039 69.3171273,47.859451 68.272753,48.871749 C67.9033591,49.2287263 67.6639945,49.6988327 67.5925991,50.2072236 C67.5474164,50.5203979 67.4960255,50.8301232 67.4373915,51.1367443 C66.5882339,55.6912232 64.5964038,58.860906 63.7834612,60.1232607 L61.3253188,63.6537147 C58.3649937,67.3417907 54.8524747,69.7744102 50.6022025,71.0816025 L49.5723143,71.4044342 L48.4599936,71.5979263 C47.1876367,71.8224598 45.8980346,71.9342092 44.6060181,71.93145 C44.4277018,71.93145 44.2483509,71.93145 44.0493404,71.9262764 L43.992086,71.9262764 L43.772726,71.9400726 L43.5375004,71.9486953 L43.5309472,71.9486953 C43.0384219,71.9652508 42.5500356,72.0456138 42.0782047,72.1880598 C39.3327558,73.027905 36.2272254,73.4224771 32.4294695,73.4224771 Z" id="Path" stroke="url(#linearGradient-4)" stroke-width="1.0554"></path>
                        <path d="M32.4294695,70.9950312 C30.1837889,70.9950312 28.0298532,70.8518954 26.2194435,70.7091044 L25.7903809,70.6759935 L25.3613183,70.6166697 C25.0936715,70.5794199 24.7670459,70.5452743 24.4514572,70.5094041 C22.708649,70.3200509 19.7948862,70.0030826 16.5420812,68.477565 L16.0643869,68.2530314 L15.6201484,68.0033197 C9.37218282,64.4990785 7.06062524,59.295832 5.67893327,56.1861628 C5.58029025,55.9643885 5.45922838,55.691913 5.34644423,55.4446157 C4.70285032,54.1243169 4.28068582,52.9047306 3.9243983,51.7827526 L3.85300283,51.5564945 L3.79091982,51.3364447 C2.87691988,48.0877785 2.64065952,45.3157719 3.04833798,42.6110219 C3.45601644,39.905927 4.48314543,37.4063958 6.2745853,34.7716617 L7.61350898,32.5853049 C7.85045915,32.1979758 8.01290971,31.769603 8.09258291,31.3229502 C8.7592855,27.6086614 10.5138205,24.9753069 11.3112423,23.7767598 L11.4119547,23.6250013 L11.4492046,23.5649878 C11.46576,23.5284278 11.4812808,23.4935923 11.4964566,23.4556527 C11.5450883,23.2976859 11.5930302,23.1445478 11.6395925,22.9986527 C11.8492951,21.4748596 12.2193788,19.9779692 12.7443252,18.5321247 L12.8160656,18.3375979 L12.8926346,18.1423814 C12.916778,18.0802983 12.9395418,18.0130417 13.0067984,17.8112719 C13.3865395,16.666875 14.1770632,14.291165 16.2447725,11.7419675 L16.9949423,10.8338309 L17.7564939,10.1450544 C19.7986802,8.28946205 22.2312996,6.91639272 24.8750013,6.12690372 C26.3760307,5.68128564 27.9229324,5.40949999 29.4856999,5.31672038 L29.6288357,5.30533849 L29.843367,5.29533623 C30.1044606,5.28291963 30.3648644,5.27740114 30.6187149,5.27740114 C31.7400031,5.2753317 32.8581872,4.95250003 33.9567116,5.17806831 C34.8041448,5.35328038 35.6853787,5.25946604 36.4769371,4.90973173 C37.9558925,4.25751517 39.9470327,3.99711142 42.2265141,3.71325408 C42.3889646,3.68945559 42.5303759,3.6718654 42.6404008,3.65806918 C42.9401238,3.62012956 43.4195427,3.56356503 43.999329,3.50872503 C45.0078331,3.41215146 46.5599085,3.29419373 48.228562,3.29419373 C51.3875527,3.29419373 54.0788514,3.69393936 56.4569757,4.5161944 L56.6470187,4.58207137 L56.8329229,4.65381175 C62.0820417,6.63701915 64.676077,9.29175783 66.697224,11.8657886 C66.8093184,12.0089244 66.9245169,12.1555093 66.9672852,12.2062105 L67.015227,12.2489788 L67.3987621,12.5904353 L67.450153,12.6432059 C69.1964103,13.98075 70.6781249,15.6318132 71.8201075,17.5115489 L72.1563904,18.0658123 L72.4423172,18.6466334 C74.9339155,23.732267 74.1530492,28.3591761 73.8198703,30.3351405 L73.8019352,30.4403367 C73.56533,31.875834 73.1786908,33.2827041 72.6475361,34.6371485 C72.4802568,35.9553778 72.1801889,37.2532577 71.752161,38.5114735 C71.072352,40.5940137 70.0690215,42.5572166 68.7790745,44.3279621 C67.9057734,45.5696224 66.8958897,46.7088458 65.7687381,47.7252827 C65.2458611,48.1950441 64.9157864,48.8420871 64.8426664,49.5412108 C64.7881713,50.0561549 64.7147064,50.556613 64.6215819,51.0481036 C63.8727918,55.0683237 62.1227406,57.8489529 61.3215248,59.0940622 L59.3303846,61.9885103 C56.6842685,65.3885901 53.5487314,67.6121967 49.7502856,68.7831514 L48.8921604,69.0518329 L47.9622948,69.2129038 C46.8527334,69.4088102 45.7276512,69.5060736 44.6008445,69.5040041 C44.4370143,69.5040041 44.2697351,69.5040041 44.0896943,69.4995204 L44.0386483,69.4995204 L43.9320724,69.4995204 C43.9320724,69.4995204 43.8965472,69.4995204 43.8234272,69.504694 L43.626831,69.5167656 L43.4288551,69.5240087 L43.0332484,69.5388396 C42.5103714,69.5574645 41.9926681,69.6474849 41.4939345,69.8064864 C38.9650864,70.6139105 36.0427009,70.9950312 32.4294695,70.9950312 Z" id="Path" stroke="url(#linearGradient-5)" stroke-width="1.0554"></path>
                        <path d="M32.4298144,68.1357635 C30.2841564,68.1357635 28.1971324,67.9964216 26.440528,67.859839 L26.0980367,67.8332812 L25.7562352,67.7860292 C25.44651,67.7432609 25.0981553,67.7053212 24.7611825,67.6680714 C23.0956332,67.486996 20.5802364,67.2131409 17.7595981,65.8900829 L17.3767528,65.710732 L17.0190857,65.5110316 C11.600963,62.4734477 9.61120242,57.9927785 8.29366289,55.0276248 C8.18156856,54.7737742 8.05429838,54.4875026 7.93634065,54.2222701 C7.3641422,53.0585585 6.98198676,51.9486522 6.65674074,50.9208334 L6.59948641,50.7407926 L6.54947509,50.563856 C5.74894911,47.720454 5.53752196,45.3295681 5.88208269,43.0414641 C6.231817,40.7212839 7.14305769,38.5587256 8.74790362,36.2340616 L8.93898134,35.9581371 L9.14557981,35.6929046 C9.27560924,35.527005 9.40080998,35.3631749 9.5239413,35.2027937 L10.329296,33.7259078 C10.5934937,33.2433848 10.7718099,32.7184384 10.8563118,32.1748672 C11.3684966,28.8613587 12.9647199,26.4673687 13.7014384,25.3633258 L13.7048874,25.3574624 C13.7473108,25.2943446 13.801461,25.2143265 13.8293984,25.1701786 L13.9866753,24.9190873 C14.0484134,24.7845741 14.1298112,24.605913 14.2012066,24.4182843 C14.272947,24.1944406 14.3581387,23.9178262 14.4509183,23.6315546 C14.6254406,22.2202007 14.959999,20.8329902 15.4480405,19.4971707 L15.5035703,19.3412733 L15.5646186,19.1836515 C15.6160095,19.0529322 15.6539492,18.9391134 15.7284488,18.7152696 C16.0809423,17.6560644 16.7345385,15.6901023 18.4732078,13.5451341 L19.0747233,12.8177281 L19.6821021,12.2693282 C21.4104242,10.6986279 23.4695109,9.53595102 25.7076035,8.86786881 C27.0065182,8.48226431 28.3457868,8.24841828 29.6985067,8.17115942 L29.8126704,8.16253678 L29.9865029,8.15460395 C30.2010342,8.14460169 30.4155655,8.13977301 30.6300968,8.13977301 C31.7934635,8.13804848 32.9520015,8.28532319 34.0774286,8.57814807 C35.0521319,8.8247556 36.08271,8.71576542 36.9839484,8.27118206 C38.4266887,7.57102362 40.3564357,6.82809688 42.6169473,6.55044784 C42.7721548,6.52837388 42.9032189,6.5111286 43.0097948,6.49767728 C43.2908929,6.4624969 43.7385804,6.40972634 44.2821517,6.35454144 C45.2282278,6.26383125 46.6830398,6.15587579 48.239254,6.15587579 C51.0750682,6.15587579 53.4600906,6.50388558 55.5343531,7.22059949 L55.6868014,7.27371496 L55.8354558,7.32924476 C60.6565467,9.15172614 62.8149662,11.5384731 64.4594763,13.6317055 C64.8219721,14.0928443 64.8768121,14.1645847 65.125834,14.3856692 L65.4328,14.6588344 L65.5521373,14.780931 C66.3454203,15.3955529 67.9675115,16.6606667 69.3871431,19.0008515 L69.6565144,19.4440552 L69.8841521,19.9082982 C71.9711761,24.167193 71.3217188,28.0135807 71.0099241,29.8626198 L70.9926788,29.9647118 C70.7695249,31.320191 70.3918532,32.6460083 69.8669068,33.9156059 L69.8527657,34.032184 C69.7141136,35.2465968 69.4457771,36.4427295 69.0522397,37.6002328 C68.4621062,39.4127119 67.5894949,41.1206846 66.4668271,42.6610332 C65.527649,44.0071999 64.3987729,45.2102308 63.115379,46.2335658 C62.8101375,46.4756895 62.5600809,46.7802412 62.3821096,47.1268714 C62.2041383,47.4738465 62.1027361,47.8546223 62.0841112,48.2440207 C62.0492757,49.0079867 61.9613248,49.7691935 61.8209482,50.5210877 C61.1728705,54.007049 59.6511468,56.4238028 58.8744193,57.6302827 L57.3309666,59.9111437 C55.0042332,63.0170189 52.2463677,65.0274739 48.9135445,66.0494293 L48.2278721,66.2639606 L47.4859801,66.3929553 C46.5378345,66.5605794 45.5762376,66.6437017 44.6132611,66.6416323 C44.463572,66.6416323 44.3114686,66.6416323 44.1469487,66.6374934 L44.109009,66.6374934 L43.944489,66.6374934 C43.9165517,66.6374934 43.83136,66.6374934 43.6582174,66.6481855 L43.5009404,66.6581877 L43.348837,66.6640511 L42.5534846,66.6933681 C41.996462,66.7123379 41.4449579,66.8120157 40.9162176,66.9886073 C38.5998313,67.7687839 35.8667991,68.1357635 32.4298144,68.1357635 Z" id="Path" stroke="url(#linearGradient-6)" stroke-width="0.989438"></path>
                        <path d="M32.4291246,65.2744263 C30.3786606,65.2744263 28.3626871,65.1392233 26.6619574,65.0071245 L26.4050027,64.9871199 L26.148393,64.9519396 C25.797279,64.9033079 25.4275402,64.862609 25.0691832,64.8239796 C23.5036565,64.6529064 21.3628273,64.42044 18.973321,63.2998416 L18.6873942,63.1646385 L18.4204373,63.0152944 C13.8318127,60.4405738 12.1438445,56.6421281 10.9108069,53.8663275 C10.7828469,53.5804007 10.6497133,53.2792981 10.5183042,52.990957 C9.99404768,51.9369254 9.66017902,50.9246273 9.38252999,50.0585693 L9.33976169,49.9233663 L9.30251188,49.7912674 C7.96082895,45.022947 8.46508099,41.6780521 11.1011948,37.8616713 L11.2443306,37.6540381 L11.3995381,37.4553724 C11.5747502,37.2315287 11.7385804,37.0163076 11.8999962,36.8117785 C12.1431547,36.4927408 12.3894173,36.1678397 12.657409,35.833971 C12.8239984,35.625993 12.9581667,35.3938715 13.055775,35.1458843 L13.3582573,34.3736406 C13.4865621,34.0449455 13.5669252,33.7000399 13.5972769,33.348581 C13.85975,30.289613 15.3473281,28.059798 16.0840465,26.9547204 L16.0881854,26.948857 C16.1419906,26.8674592 16.2233884,26.7460524 16.2506359,26.7022494 L16.4230887,26.4270147 L16.4758593,26.3552744 C16.5676042,26.17006 16.7469551,25.778937 16.9049219,25.3691891 C16.9901136,25.0887809 17.1246268,24.6583386 17.2560358,24.2668707 C17.2560358,24.2520398 17.2560358,24.2354843 17.2618992,24.218239 C17.4029656,22.9365697 17.6982049,21.6766294 18.1417535,20.4656657 L18.183832,20.3483978 L18.2297045,20.2304401 C18.3097226,20.0266008 18.3662871,19.8562175 18.4442358,19.6209918 C18.7587897,18.6756055 19.2851157,17.0928335 20.6957798,15.3534744 L21.1469163,14.8071439 L21.5997774,14.3980858 C24.9308761,11.3753328 28.6586162,11.1145841 29.9044153,11.030772 L29.9902968,11.0242188 L30.1220508,11.0180105 C30.2913994,11.0100777 30.461093,11.0066287 30.6269926,11.0066287 C32.105948,11.0118022 33.5693826,11.3108354 34.9317599,11.8868278 C35.1731938,11.9871954 35.4335976,12.0327229 35.6946911,12.0203063 C35.9557847,12.0078897 36.21067,11.9378739 36.4414118,11.8154324 L36.4486549,11.8154324 C37.7151484,11.0807834 40.0353286,9.74910271 42.9935842,9.39281518 C43.1363751,9.37143104 43.2681291,9.35522047 43.3647027,9.34280387 C43.6251064,9.31003783 44.0403728,9.26140614 44.5511781,9.21208463 C45.4351712,9.12758275 46.7927198,9.0268703 48.235805,9.0268703 C50.7484425,9.0268703 52.8282235,9.32417896 54.5948302,9.93500684 L54.7093389,9.97432609 L54.8207434,10.0167495 C58.952368,11.5777924 60.7341505,13.5368564 62.2044832,15.4093491 C62.60009,15.9098072 62.7766817,16.1422736 63.2195405,16.5327068 L63.4495926,16.7379256 L63.6341171,16.9276237 L63.7772529,17.0407528 C64.4774114,17.5825995 65.7797751,18.5917934 66.9355538,20.4929133 L67.1380134,20.8254023 L67.3087417,21.173757 C68.9894669,24.6066028 68.4638307,27.720066 68.181353,29.3935481 L68.1651424,29.4928809 C67.965787,30.709708 67.6195017,31.897563 67.1335297,33.0302331 L67.0928308,33.1274965 C67.0886919,33.1485358 67.0828285,33.1792324 67.0742059,33.2240701 C67.0521319,33.3392686 67.0393704,33.4310135 67.0241946,33.5475916 L67.0069493,33.6790006 C66.8924406,34.7050949 66.6668723,35.7156684 66.3340384,36.6927861 C65.8335803,38.2345143 65.0920332,39.6872568 64.1376793,40.9968635 C63.1936726,42.3371668 62.1351572,43.4287932 60.9473022,44.2927818 C60.4258049,44.6735576 59.9998464,45.1705666 59.7032276,45.7441447 C59.4066087,46.3177228 59.2472623,46.952694 59.2379499,47.5983574 C59.2279476,48.403712 59.1489642,49.2066524 59.0023793,49.9985557 C58.4546692,52.9516378 57.194384,54.9514006 56.4100685,56.1699523 L55.2884354,57.8513672 C53.2800499,60.6571746 50.9108931,62.4489594 48.0592133,63.3219155 L47.9084895,63.3691676 C47.6663658,63.4453917 47.4194133,63.5050604 47.1697017,63.5481736 L46.9886262,63.57956 C46.2018964,63.7189019 45.4044746,63.7882279 44.6056732,63.7861585 C44.4704701,63.7861585 44.3331977,63.7861585 44.1841985,63.7827094 L44.1600551,63.7827094 C44.0921087,63.7827094 44.0169192,63.7827094 43.9369011,63.7827094 C43.8810264,63.7827094 43.7337517,63.7827094 43.4674846,63.7992649 L43.3495268,63.806163 L43.2343283,63.8106468 C42.851828,63.8247879 42.3762031,63.8413434 41.9519692,63.8599683 C41.3708032,63.8841117 40.7965353,63.9965509 40.2491701,64.193837 C38.1966366,64.9271063 35.6846889,65.2744263 32.4291246,65.2744263 Z" id="Path" stroke="url(#linearGradient-7)" stroke-width="0.923475"></path>
                        <path d="M32.4291246,62.413779 C30.475924,62.413779 28.5299664,62.2830597 26.8837318,62.1550998 L26.7119688,62.1419933 L26.5408956,62.1178499 C26.1470133,62.0633549 25.7541658,62.0205866 25.3758043,61.9798877 C23.936858,61.8233005 22.146108,61.6280839 20.1877337,60.7096002 L19.9963111,60.6195799 L19.8186847,60.520247 C16.0599031,58.4125287 14.6551024,55.2483644 13.5251916,52.70572 C13.3861946,52.3925457 13.2389199,52.0693691 13.0957841,51.7544703 C12.6532701,50.871167 12.3535471,49.9664795 12.1076294,49.1921663 L12.0790022,49.1024909 L12.0538241,49.0145399 C10.946677,45.0808911 11.312277,42.5841193 13.4527614,39.4851421 L13.5479554,39.3471799 L13.6517719,39.215081 C13.8383659,38.9760614 14.0090942,38.7529074 14.1722346,38.5376863 C14.7309817,37.8051068 15.2679998,37.1001196 16.071285,36.2426842 C16.2471869,36.0543658 16.352728,35.8108624 16.3692835,35.5539077 L16.4303318,34.6281809 L16.4065333,34.3250089 L16.4172253,34.010455 C16.5010374,31.4722944 17.7761535,29.5625519 18.4583769,28.5368025 C18.5373603,28.418155 18.6194478,28.2960584 18.6680795,28.2181097 L18.783278,28.0349648 L18.8898538,27.891829 C19.017124,27.6838509 19.3516825,26.97438 19.6048432,26.2935363 C19.6921044,26.0072646 19.8611081,25.4616239 20.0097624,25.0287673 C20.0535655,24.890805 20.0577043,24.8573492 20.0935745,24.5610752 C20.2098077,23.4901432 20.4564152,22.4371463 20.8278786,21.425883 L20.855816,21.3468996 L20.8865126,21.2675713 C20.9923986,20.9971653 21.0662084,20.7764257 21.1514001,20.5201608 C21.4207714,19.7092877 21.8270702,18.4869421 22.9100739,17.1518124 L23.2118664,16.7869022 L23.5105546,16.5164962 C25.8445311,14.397396 28.3868305,13.9962707 30.1027361,13.8810722 L30.1606802,13.8758986 L30.249321,13.8758986 C30.3738319,13.8703802 30.497653,13.8676209 30.6190598,13.8676209 C32.0845639,13.8676209 33.8373743,14.5705386 34.7579274,14.9954623 C34.9779772,15.0961748 35.2159621,15.1527393 35.4580859,15.1617069 C35.7002096,15.1703295 35.9416436,15.1310103 36.1682466,15.0461635 C36.7411348,14.8385303 37.2991922,14.5929575 37.8389695,14.3108246 C39.0099241,13.6313605 40.9524327,12.5093825 43.3647027,12.2282844 C43.4978363,12.2082799 43.6171736,12.193104 43.7158166,12.1803425 C43.9582853,12.1503357 44.3411305,12.1089471 44.8150309,12.0592807 C45.6376308,11.9806422 46.8972262,11.8871727 48.228217,11.8871727 C50.4166433,11.8871727 52.1911828,12.1330905 53.6522031,12.6380323 L53.7280823,12.66459 L53.7994778,12.6925274 C57.2502587,13.9962707 58.6236729,15.4945408 59.9446615,17.1759558 C60.3737241,17.7181474 60.6768962,18.1058214 61.3070388,18.6693972 L61.4601769,18.8059798 L61.6029678,18.9491156 C61.7316176,19.0763858 61.8699248,19.1933088 62.0171995,19.29885 C62.6094024,19.7572295 63.6020409,20.5253344 64.482585,21.9749728 L64.6170982,22.1967471 L64.7312619,22.4292135 C66.0074128,25.0332511 65.59732,27.4620765 65.3520921,28.9130946 L65.3358815,29.0117376 C65.1727411,30.0136884 64.8871593,30.9914959 64.4853442,31.9234309 L64.4853442,31.930674 C64.3742846,32.171763 64.2973706,32.4269932 64.2573616,32.6894664 C64.222871,32.8726113 64.2014869,33.019886 64.1807925,33.1830263 L64.1635472,33.315815 C64.0718023,34.152901 63.8886574,34.9775704 63.6179065,35.7746473 C63.2095383,37.0470042 62.5987104,38.2448614 61.8092214,39.3223467 C60.6434403,40.9851367 59.295894,42.1550566 57.6724232,42.8983283 C57.2778511,43.078369 56.9408783,43.363606 56.6987546,43.7233426 C56.4562859,44.0827342 56.3179787,44.5021395 56.2990089,44.9349961 C56.291421,45.1126225 56.2883169,45.2585176 56.2934904,45.3399153 C56.3735085,46.590888 56.4642187,48.0084502 56.185535,49.4687807 C55.7385373,51.8841548 54.7155472,53.5076256 53.9467525,54.6996195 C53.9467525,54.6996195 50.4194026,59.6090063 47.2097107,60.5888833 L46.8641153,60.6968387 L46.4929968,60.761681 C45.8683727,60.8727406 45.2351259,60.9275806 44.6004996,60.9255112 C44.4804724,60.9255112 44.3573411,60.9255112 44.2252422,60.9220621 L44.2135154,60.9220621 C44.1286687,60.9220621 44.0362339,60.9220621 43.9317275,60.9220621 C43.805837,60.9220621 43.6006181,60.9220621 43.2815804,60.9441361 L43.2036317,60.9493096 L43.1267178,60.9493096 C41.8985088,60.9934576 40.7379014,61.0351912 40.4150697,61.097964 C40.2426169,61.1248666 40.0743029,61.1741881 39.9146116,61.2452387 C38.0979936,62.0412809 35.7157304,62.413779 32.4291246,62.413779 Z" id="Path" stroke="url(#linearGradient-8)" stroke-width="0.857513"></path>
                        <path d="M32.4294695,59.5541664 C30.5742221,59.5541664 28.6969007,59.427586 27.1048163,59.3037649 L27.0196246,59.2972117 L26.9344329,59.28514 C26.4988171,59.2251264 26.0856201,59.1799437 25.6851847,59.1364856 C24.3303953,58.988866 22.9293886,58.8367626 21.4024914,58.1207385 L21.3066076,58.0748661 L21.2179669,58.0255446 C18.2855792,56.3806896 17.1963672,53.9239268 16.1399212,51.5451126 C15.9898873,51.2077949 15.8346797,50.8587504 15.6742986,50.5117753 C15.3166315,49.8050636 15.0634707,49.0469611 14.8361779,48.3288675 L14.8216919,48.2847196 L14.8089304,48.239537 C13.9287312,45.1084836 14.1525749,43.509846 15.8101914,41.1117171 L15.8581333,41.0403216 L15.9095242,40.9737548 C16.104051,40.7257677 16.2809876,40.4939911 16.4510261,40.2701473 C17.2477581,39.2250833 17.9365347,38.3217754 19.4799874,36.8973151 L19.4841263,36.8928314 C19.5976002,36.7848759 19.6769285,36.6462238 19.7131436,36.4937755 C19.7493587,36.3416721 19.7403911,36.1819808 19.6879655,36.0347061 L19.4099715,35.2414232 C19.3540968,34.9913666 19.3147776,34.7378609 19.2927036,34.4826308 L19.2927036,34.4740081 L19.2754583,34.2594768 L19.2809768,34.1021999 C19.3375414,32.3793962 20.2439534,31.0211578 20.8430545,30.1219888 C20.9368688,29.978853 21.0261994,29.8481337 21.0955254,29.7363843 L21.1527797,29.6449843 L21.2172771,29.558413 C21.535625,29.1293504 22.0526385,27.9414954 22.3244242,27.2054668 C22.3958196,26.9788638 22.5789645,26.3701053 22.7314128,25.928971 C22.8397132,25.5968269 22.9100739,25.2539907 22.9407705,24.9059809 C23.0307909,24.0450964 23.2284218,23.1983531 23.5288346,22.3864452 L23.5429758,22.3464362 L23.5588414,22.3071169 C23.6909403,21.9673849 23.7840648,21.6883562 23.8740852,21.4179502 C24.1137946,20.6977872 24.3848904,19.8810507 25.1391991,18.9504953 L25.2909575,18.7673504 L25.4389221,18.6338719 C27.0968834,17.127669 28.9141912,16.824152 30.3158877,16.7313724 L30.3452047,16.7313724 L30.3910772,16.7313724 C30.4697157,16.7313724 30.5483541,16.7261988 30.6263028,16.7261988 C31.9904046,16.7261988 33.0389177,17.2856358 33.732523,17.6560644 L33.8942837,17.7419459 L33.9184271,17.7547074 C34.108815,17.8578342 34.2760943,17.9478546 34.4313018,18.0244236 C34.8624338,18.2406795 35.3577183,18.2913806 35.8236859,18.1675595 C36.773556,17.9119844 38.2556155,17.3501331 39.2523928,16.8020781 L39.2730871,16.7900064 C40.3216002,16.1819377 41.9009232,15.2665582 43.7516868,15.0634087 C43.8682649,15.0447838 43.9800143,15.0313325 44.0852105,15.0175363 C44.2997419,14.9906337 44.6570641,14.9461408 45.0940595,14.9068216 C45.8552663,14.8354261 47.0172534,14.7474752 48.2354601,14.7474752 C50.1007097,14.7474752 51.568973,14.942002 52.7247518,15.3410578 L52.7626914,15.3545091 L52.8013209,15.3689951 C55.5698784,16.4150939 56.5797621,17.5101693 57.7044994,18.9449768 C58.1625341,19.5278673 58.5950457,20.0783367 59.4155763,20.8088468 L59.4918004,20.8802423 L59.5635408,20.9516378 C59.7853151,21.1754815 60.0243347,21.3813902 60.2785302,21.5676392 C60.7707105,21.94876 61.445001,22.4709471 62.0510002,23.4677244 L62.1182568,23.578784 L62.1755112,23.6953621 C63.0457081,25.4726608 62.7559873,27.1902909 62.5445602,28.4440229 L62.5280047,28.5430108 C62.4014243,29.3338794 62.1744764,30.1054333 61.8533693,30.8393925 C61.6660855,31.2619019 61.532952,31.7064853 61.4574176,32.1624506 C61.4074063,32.4269932 61.3780893,32.6339366 61.353601,32.8253592 L61.3363557,32.961252 C61.2677195,33.6096746 61.1273429,34.2480949 60.9179852,34.8651311 C60.600672,35.8667371 60.1209083,36.8090193 59.4976638,37.654383 C58.4463914,39.1636901 57.2806104,40.0942455 55.7319841,40.5867707 C54.990092,40.8216515 54.3516717,41.3052092 53.9246785,41.9557012 L53.8018921,42.1447095 L53.6659993,42.299917 C53.272462,42.7476045 53.3835216,44.4824799 53.451468,45.5182315 C53.5228635,46.6546956 53.5994325,47.8297891 53.3869706,48.9362463 C53.0379261,50.8277089 52.2277428,52.1045495 51.5024063,53.2272174 C51.5024063,53.2272174 48.8090381,57.1129243 46.378833,57.8510223 L46.2018964,57.906897 L46.0159923,57.9389733 C45.5531289,58.0220955 45.0837124,58.0627944 44.613606,58.0607249 C44.50772,58.0607249 44.3990747,58.0607249 44.2838762,58.0607249 C44.1817841,58.0607249 44.0693449,58.0607249 43.944834,58.0607249 C43.7796242,58.0607249 43.5157713,58.0607249 43.1139563,58.0886623 L43.0753268,58.0886623 L43.0366974,58.0886623 C41.4066734,58.1479861 40.4233474,58.1828215 39.8797761,58.2887076 C39.5138312,58.3535498 39.1568539,58.4601257 38.8153973,58.6070555 C37.3598956,59.2523739 35.3273666,59.5541664 32.4294695,59.5541664 Z" id="Path" stroke="url(#linearGradient-9)" stroke-width="0.857513"></path>
                    </g>
                </g>
            </g>
        </g>
    </g>
</svg>