<?xml version="1.0" encoding="UTF-8"?>
<svg width="64px" height="64px" viewBox="0 0 64 64" version="1.1" xmlns="http://www.w3.org/2000/svg" xmlns:xlink="http://www.w3.org/1999/xlink">
    <title>img / logo / projects / ethereum / Celsius - CEL</title>
    <defs>
        <linearGradient x1="7.86700564%" y1="107.777621%" x2="86.8573891%" y2="-13.5156727%" id="linearGradient-1">
            <stop stop-color="#382BC6" offset="0%"></stop>
            <stop stop-color="#FF3CAC" offset="100%"></stop>
        </linearGradient>
    </defs>
    <g id="img-/-logo-/-projects-/-ethereum-/-Celsius---CEL" stroke="none" stroke-width="1" fill="none" fill-rule="evenodd">
        <g id="Celsius-CEL-logo" fill="url(#linearGradient-1)" fill-rule="nonzero">
            <path d="M48.0030084,23.3995958 C47.1180655,23.3995958 46.4006775,24.1169838 46.4006775,25.0019268 C46.4006775,25.8868697 47.1180655,26.6042577 48.0030084,26.6042577 C48.8875361,26.6042577 49.6045874,25.8872063 49.6045874,25.0026787 C49.6045874,24.1181511 48.8875361,23.4010997 48.0030084,23.4010997 L48.0030084,23.3995958 Z M31.997745,0 C20.565246,0.000805659194 10.0016111,6.10071583 4.2860594,16.0019533 C-1.42949226,25.9031908 -1.42863237,38.1015221 4.28831514,48.0019537 C10.0052627,57.9023853 20.5697575,64.0008061 32.0022565,64 C49.6749529,63.9987537 64.0004938,49.6711926 63.999248,31.9984962 C63.9980022,14.3257998 49.6704414,0 31.997745,0.00150383007 L31.997745,0 Z M46.5518124,45.3855914 C42.7825853,49.5495023 37.4352534,51.9352517 31.8187892,51.9588327 L31.7811935,51.9588327 C26.1122088,51.9509478 20.7131557,49.5364882 16.9278639,45.3164152 C13.1072662,41.0972346 11.2896075,35.4365729 11.9396596,29.7818507 C12.995451,20.5710381 20.2340066,13.2883146 29.4382262,12.1765121 C30.2126987,12.0862823 30.9931865,12.0411291 31.7736743,12.0411291 C36.174673,12.0325121 40.4524171,13.4944187 43.9276289,16.194746 C44.2711686,16.456471 44.3921359,16.9186281 44.2208758,17.3150994 C44.1664398,17.4437248 44.0842808,17.5587475 43.980263,17.6519573 L41.8613664,19.5497909 C41.6386806,19.7484075 41.3506974,19.8581409 41.0523058,19.858076 C40.7967051,19.8578894 40.5473386,19.7791421 40.3379866,19.6325015 C36.0205376,16.6112608 30.4297246,16.0911055 25.6290247,18.2640162 C23.6927143,19.1341431 21.9617213,20.4029231 20.5490867,21.9874994 C17.6716252,25.1844132 16.313866,29.4676309 16.8240996,33.7384276 C17.6472097,40.6786466 23.1227622,46.1486017 30.0638195,46.964613 C30.635275,47.02627 31.2112419,47.0593543 31.7872088,47.0593543 C35.8030593,47.0644001 39.6516902,45.4517696 42.4644023,42.5854598 C42.6979223,42.3488232 43.0161979,42.2151258 43.3486544,42.2140138 C43.5876415,42.2137877 43.8214154,42.2838676 44.0208664,42.415527 L46.3728566,43.9584567 C46.6036792,44.111918 46.7571333,44.3574445 46.793929,44.6321726 C46.828309,44.9073789 46.7403724,45.1838297 46.5533162,45.3885991 L46.5518124,45.3855914 Z M48.0030084,29.8329809 C45.3348909,29.8329809 43.1719543,27.6700443 43.1719543,25.0019268 C43.1719543,22.3338093 45.3348909,20.1708727 48.0030084,20.1708727 C50.6711259,20.1708727 52.8340625,22.3338093 52.8340625,25.0019268 C52.8340625,27.6700443 50.6711259,29.8329809 48.0030084,29.8329809 L48.0030084,29.8329809 Z" id="Shape"></path>
        </g>
    </g>
</svg>