<?xml version="1.0" encoding="UTF-8"?>
<svg width="64px" height="64px" viewBox="0 0 64 64" version="1.1" xmlns="http://www.w3.org/2000/svg" xmlns:xlink="http://www.w3.org/1999/xlink">
    <title>img / logo / projects / ethereum / HEX - HEX</title>
    <defs>
        <linearGradient x1="74.9956527%" y1="11.8044572%" x2="25.0657068%" y2="88.3066006%" id="linearGradient-1">
            <stop stop-color="#FE01FA" offset="0%"></stop>
            <stop stop-color="#FF0F6F" offset="31.6318539%"></stop>
            <stop stop-color="#FF3D3D" offset="51.953125%"></stop>
            <stop stop-color="#FF851F" offset="70.8632996%"></stop>
            <stop stop-color="#FFDB01" offset="100%"></stop>
        </linearGradient>
    </defs>
    <g id="img-/-logo-/-projects-/-ethereum-/-HEX---HEX" stroke="none" stroke-width="1" fill="none" fill-rule="evenodd">
        <g id="HEX" transform="translate(0.000000, 4.000000)" fill="url(#linearGradient-1)" fill-rule="nonzero">
            <path d="M15.0466253,54.9676255 L10.7151773,47.4626018 C10.5806685,47.1844379 10.5806685,46.8599692 10.7151773,46.5818053 L15.527644,38.2439039 C15.6986531,37.9819321 15.9837744,37.8167955 16.2959061,37.7989421 L25.9162801,37.7989421 C26.2289109,37.8171637 26.5145734,37.9821243 26.6868219,38.2439039 L31.4970089,46.5818053 C31.6362303,46.8620808 31.6362303,47.1914536 31.4970089,47.4717291 L26.6731436,55.8050666 C26.5008565,56.059746 26.2225284,56.2225365 25.9162801,56.2477466 L17.2739014,56.2477466 C16.3733877,56.1896221 15.5507119,55.7167913 15.0466253,54.9676255 Z M46.2786451,37.8057878 L36.7038653,21.1938771 C36.4672728,20.8385909 36.0786271,20.6141287 35.6529192,20.5869035 L16.4805626,20.5869035 C16.0548547,20.6141287 15.666209,20.8385909 15.4296165,21.1938771 L5.84343818,37.8149151 C5.65441711,38.1974485 5.65441711,38.646329 5.84343818,39.0288625 L8.66343878,43.9029065 L13.5784924,35.3870205 C13.8477317,34.9759981 14.2944346,34.7156693 14.7844587,34.6842089 L27.4140493,34.6842089 C27.9076783,34.7117808 28.3587813,34.9727012 28.6291342,35.3870205 L34.9462092,46.3399286 C35.1696514,46.7817802 35.1696514,47.3037002 34.9462092,47.7455518 L30.0311557,56.2614378 L35.64608,56.2614378 C36.0729466,56.2361528 36.4626938,56.0102083 36.6970261,55.6521823 L46.2786451,39.0334261 C46.4722081,38.647146 46.4722081,38.1920679 46.2786451,37.8057878 Z M63.6728284,26.8140881 L48.9801008,1.31206711 C48.4723444,0.536244199 47.6256983,0.0489643373 46.7003913,0 L17.2921391,0 C16.3668322,0.0489643373 15.5201861,0.536244199 15.0124297,1.31206711 L0.312862995,26.8140881 C-0.104287665,27.6373628 -0.104287665,28.6103839 0.312862995,29.4336585 L3.68455331,35.2774914 L13.4508287,18.330148 C13.785703,17.8188015 14.3432606,17.4969937 14.9531572,17.4630428 L37.1598072,17.4630428 C37.7690987,17.496981 38.325967,17.8188795 38.6598561,18.330148 L49.7597613,37.5730384 C50.0355942,38.1181425 50.0355942,38.762145 49.7597613,39.3072489 L39.9843673,56.2477466 L46.70951,56.2477466 C47.634817,56.1987824 48.4814632,55.7115026 48.9892195,54.9356795 L63.6887864,29.4359406 C64.1037379,28.6121407 64.1037379,27.6401696 63.6887864,26.8163699 L63.6728284,26.8140881 Z" id="Shape"></path>
        </g>
    </g>
</svg>