<?xml version="1.0" encoding="UTF-8"?>
<svg width="64px" height="64px" viewBox="0 0 64 64" version="1.1" xmlns="http://www.w3.org/2000/svg" xmlns:xlink="http://www.w3.org/1999/xlink">
    <title>img / logo / projects / ethereum / LooksRare - LOOKS</title>
    <g id="img-/-logo-/-projects-/-ethereum-/-LooksRare---LOOKS" stroke="none" stroke-width="1" fill="none" fill-rule="evenodd">
        <g id="looks-black">
            <circle id="Oval" fill="#000000" fill-rule="nonzero" cx="32" cy="32" r="32"></circle>
            <path d="M20.2894667,23.2737333 C26.757,16.8428 37.2429333,16.8428 43.7105333,23.2737333 L49.2972667,28.8288667 L43.7105333,34.384 C37.243,40.815 26.757,40.815 20.2894667,34.384 L14.7027333,28.8288667 L20.2894667,23.2737333 Z" id="Path" fill="#000000" fill-rule="nonzero"></path>
            <path d="M10.6666667,28.8379333 L23.3513333,16.1445333 L40.6486,16.1445333 L53.3332667,28.8379333 L31.9999333,50.1624667 L10.6666667,28.8379333 Z M41.8017333,24.2163333 C36.4120667,18.8030667 27.5878,18.8030667 22.1981333,24.2164 L17.5855333,28.8290667 L22.1981333,33.4416667 C27.5878,38.8549333 36.4120667,38.8549333 41.8017333,33.4416667 L46.4143333,28.8290667 L41.8017333,24.2163333 Z" id="Shape" fill="#0CE466"></path>
            <path d="M31.9999333,32.865 C29.7718,32.865 27.9639333,31.0589333 27.9639333,28.829 C27.9639333,26.5990667 29.7718,24.793 31.9999333,24.793 C34.2280667,24.793 36.036,26.5990667 36.036,28.829 C36.036,31.0589333 34.2280667,32.865 31.9999333,32.865 Z" id="Path" fill="#000000" fill-rule="nonzero"></path>
            <path d="M25.3694,28.8285333 C25.3694,32.492 28.3395333,35.4591333 32,35.4591333 C35.6604667,35.4591333 38.6306,32.492 38.6306,28.8285333 C38.6306,25.1650667 35.6604667,22.1979333 32,22.1979333 C28.3395333,22.1979333 25.3694,25.1650667 25.3694,28.8285333 Z M29.1171333,28.8285333 C29.1171333,30.4213333 30.4084667,31.7114 32,31.7114 C33.5914667,31.7114 34.8828667,30.4213333 34.8828667,28.8285333 C34.8828667,27.2357333 33.5914667,25.9456667 32,25.9456667 C30.4084667,25.9456667 29.1171333,27.2357333 29.1171333,28.8285333 Z" id="Shape" fill="#FFFFFF"></path>
        </g>
    </g>
</svg>