<?xml version="1.0" encoding="UTF-8"?>
<svg width="64px" height="64px" viewBox="0 0 64 64" version="1.1" xmlns="http://www.w3.org/2000/svg" xmlns:xlink="http://www.w3.org/1999/xlink">
    <title>img / logo / projects / ethereum / PAX Gold - PAXG</title>
    <g id="img-/-logo-/-projects-/-ethereum-/-PAX-Gold---PAXG" stroke="none" stroke-width="1" fill="none" fill-rule="evenodd">
        <g id="pax-gold-paxg-logo" transform="translate(0.000000, 2.000000)" fill-rule="nonzero">
            <g id="Fill-1-Clipped" transform="translate(0.000000, 4.271984)" fill="#EFE812">
                <path d="M17.8118503,3.57329016 C19.0293536,2.18693601 20.1491012,1.01386712 21.2155274,0.018535945 C3.21069733,-0.559111615 8.45395979,12.4601757 2.5530678,25.6749745 C-4.20096521,40.9070963 3.3528875,46.7102325 14.6036846,48.5231572 C13.0325326,46.6509482 11.7504663,44.5541109 10.8000976,42.3023373 C3.53951209,33.1221846 6.4810712,16.3881791 17.8118503,3.57329016" id="Fill-1"></path>
            </g>
            <path d="M61.1354172,24.0727267 C59.0092095,29.6352171 55.9330712,34.7861701 52.0441333,39.2959616 C48.9264491,43.0848606 45.1919144,46.3206561 40.9977346,48.8671374 C36.1267465,51.9537099 30.4654037,53.5619758 24.6991865,53.4972047 C21.3326427,53.5274711 17.9689383,53.292725 14.6392321,52.7951408 C16.4879249,55.0034827 18.7798633,56.7988849 21.3666045,58.0650639 C37.6473788,65.9388445 38.6693706,51.3199178 55.8921548,43.8993683 C65.5610862,39.731419 65.5966338,31.5910319 61.1265303,24.0727267" id="Fill-4" fill="#EDE70A"></path>
            <path d="M40.9977346,8.87615246 C43.3546752,9.28869415 45.6256953,10.0937648 47.7162201,11.2578378 C53.1927763,14.3370674 57.8072801,18.7437656 61.1354172,24.0727267 C64.0680895,15.8079232 62.6995091,9.32049674 56.2920646,8.14742785 C49.2358775,6.85882944 43.7260085,6.44114582 38.4294247,2.74420144 C31.9064507,-1.78811018 26.1832964,-0.312887181 21.2244143,4.29940641 L22.2997275,4.34384084 C29.1781769,4.75263757 35.7544721,6.12121794 40.9621871,8.85837869" id="Fill-6" fill="#EDE70A"></path>
            <path d="M17.8118503,7.84527374 C6.4810712,20.6601627 3.53951209,37.3941681 10.8356451,46.5743209 C7.41360078,38.4947532 7.99639742,29.2753713 12.4086239,21.6910414 C18.5494618,11.4533493 30.875572,7.0099065 40.9977346,8.87615246 C35.7544721,6.10344417 29.1781769,4.77041134 22.335275,4.36161461 L21.2599618,4.3082933 C20.157988,5.32139825 19.0382405,6.45891959 17.8118503,7.84527374" id="Fill-8" fill="#DEC21C"></path>
            <path d="M47.7162201,11.240064 C45.6245634,10.082181 43.3535963,9.28313703 40.9977346,8.87615246 C47.8939578,12.5020018 52.4707038,18.6517265 52.4707038,28.3739793 C52.3895167,36.7140776 48.0651832,44.4382549 40.9977346,48.8671374 C45.1939301,46.3234229 48.9289006,43.0872497 52.0441333,39.2959616 C55.9330712,34.7861701 59.0092095,29.6352171 61.1354172,24.0727267 C57.8096014,18.7372588 53.1949044,14.3242637 47.7162201,11.240064" id="Fill-10" fill="#E5CB22"></path>
            <path d="M40.9977346,8.87615246 C30.875572,7.0099065 18.5494618,11.4533493 12.4086239,21.646607 C7.97756325,29.2413217 7.3944079,38.4828515 10.8356451,46.5743209 C11.7826433,48.8278222 13.0650061,50.9251444 14.6392321,52.7951408 C17.9689383,53.292725 21.3326427,53.5274711 24.6991865,53.4972047 C30.4654037,53.5619758 36.1267465,51.9537099 40.9977346,48.8671374 C48.0664231,44.439435 52.3911708,36.7145176 52.4707038,28.3739793 C52.4707038,18.6517265 47.8939578,12.5020018 40.9977346,8.87615246 M39.8602133,44.2459569 C32.0665537,49.2519389 21.6927852,47.0199106 16.6476683,39.2515272 C11.617691,31.4932761 14.106019,21.4777561 21.6509848,16.1456248 C30.0935261,10.1469771 40.9177526,12.5108886 44.8635298,21.1400545 C48.7115513,29.5470482 47.6540119,39.2604141 39.8602133,44.2459569" id="Fill-12" fill="#CCA727"></path>
        </g>
    </g>
</svg>