<?xml version="1.0" encoding="UTF-8"?>
<svg width="64px" height="64px" viewBox="0 0 64 64" version="1.1" xmlns="http://www.w3.org/2000/svg" xmlns:xlink="http://www.w3.org/1999/xlink">
    <title>img / logo / projects / ethereum / The Graph - GRT</title>
    <defs>
        <linearGradient x1="100%" y1="0%" x2="14.8261786%" y2="90.0281906%" id="linearGradient-1">
            <stop stop-color="#6748C3" offset="0%"></stop>
            <stop stop-color="#3E4BB4" offset="69.2159176%"></stop>
            <stop stop-color="#4879E5" offset="100%"></stop>
        </linearGradient>
    </defs>
    <g id="img-/-logo-/-projects-/-ethereum-/-The-Graph---GRT" stroke="none" stroke-width="1" fill="none" fill-rule="evenodd">
        <g id="the-graph-grt-logo">
            <circle id="Oval" fill="url(#linearGradient-1)" fill-rule="nonzero" cx="32" cy="32" r="32"></circle>
            <g id="Group" transform="translate(18.733333, 14.800000)" fill="#FFFFFF">
                <path d="M12.8,21.3333333 C8.06666667,21.3333333 4.26666667,17.5333333 4.26666667,12.8 C4.26666667,8.06666667 8.06666667,4.26666667 12.8,4.26666667 C17.5333333,4.26666667 21.3333333,8.06666667 21.3333333,12.8 C21.3333333,17.5333333 17.5333333,21.3333333 12.8,21.3333333 M12.8,0 C19.8666667,0 25.6,5.73333333 25.6,12.8 C25.6,19.8666667 19.8666667,25.6 12.8,25.6 C5.73333333,25.6 0,19.8666667 0,12.8 C0,5.73333333 5.73333333,0 12.8,0 Z M25,26.2666667 C25.8666667,27.1333333 25.8666667,28.4666667 25,29.2666667 L16.4666667,37.8 C15.6,38.6666667 14.2666667,38.6666667 13.4666667,37.8 C12.6,36.9333333 12.6,35.6 13.4666667,34.8 L22,26.2666667 C22.8,25.4 24.2,25.4 25,26.2666667 Z M29.9333333,2.13333333 C29.9333333,3.33333333 29,4.26666667 27.8,4.26666667 C26.6,4.26666667 25.6666667,3.33333333 25.6666667,2.13333333 C25.6666667,0.933333333 26.6,0 27.8,0 C28.9333333,0 29.9333333,0.933333333 29.9333333,2.13333333 Z" id="Fill-19"></path>
            </g>
        </g>
    </g>
</svg>