<?xml version="1.0" encoding="UTF-8"?>
<svg width="64px" height="64px" viewBox="0 0 64 64" version="1.1" xmlns="http://www.w3.org/2000/svg" xmlns:xlink="http://www.w3.org/1999/xlink">
    <title>img / logo / projects / ethereum / 0x - ZRX</title>
    <g id="img-/-logo-/-projects-/-ethereum-/-0x---ZRX" stroke="none" stroke-width="1" fill="none" fill-rule="evenodd">
        <g id="0x-zrx-logo" fill="#231815" fill-rule="nonzero">
            <path d="M49.3863189,43.0711455 C51.6961666,46.1750033 54.078197,49.3510439 56.4602275,52.5270845 C51.6961666,58.1573382 45.7771819,61.7664753 38.6310906,63.2823128 C30.6909892,64.9425158 23.1839842,63.7154092 15.8935274,59.6731758 C22.389974,54.8369322 28.7420552,50.0728713 35.1663191,45.3088105 C36.6099739,46.6802825 37.9814459,48.0517546 39.352918,49.3510439 C40.8687556,50.7946987 40.2912936,50.8668815 42.2402276,49.7841404 C44.910989,48.2683028 47.148654,46.1750033 48.8810397,43.6486074 C48.9532225,43.5042419 49.097588,43.3598765 49.1697707,43.215511 C49.097588,43.215511 49.1697707,43.215511 49.3863189,43.0711455 L49.3863189,43.0711455 Z M21.018502,49.4232267 C19.2139335,50.7946987 17.5537304,52.0218053 15.8935274,53.3210946 C14.6664208,54.2594703 13.4393142,55.1256631 12.2122076,56.0640388 C11.7069285,56.4971352 11.3460148,56.4971352 10.7685528,55.991856 C5.28266457,51.0834297 1.81789304,45.0200795 0.518603709,37.8018055 C-0.780685617,30.5113487 0.374238229,23.5818056 3.83900977,17.0131762 C3.91119251,16.8688108 4.05555799,16.6522625 4.12774073,16.5078971 C4.12774073,16.4357143 4.19992347,16.4357143 4.34428895,16.3635316 C9.10834981,22.64343 13.9445934,28.9233284 18.7086543,35.2032268 C18.5642888,35.419775 18.4921061,35.5641405 18.3477406,35.708506 C16.9040858,37.2243435 15.460431,38.7401811 13.9445934,40.1838359 C13.511497,40.6169323 13.4393142,40.977846 13.7280452,41.4831252 C15.2438827,44.3704348 17.3371822,46.7524653 19.9357609,48.7013993 C20.2966746,48.9179475 20.5854055,49.1344957 21.018502,49.4232267 L21.018502,49.4232267 Z M47.9426641,4.59774491 C45.6328164,6.25794793 43.3229687,7.91815096 41.013121,9.50617125 C37.0430703,12.3212981 33.0730196,15.2086077 29.1751516,18.0237346 C28.6698724,18.3846483 28.3089587,18.4568311 27.8758623,17.9515519 C26.576573,16.5800798 25.2051009,15.3529732 23.9058116,13.9815011 C23.5448979,13.6205874 23.1839842,13.5484047 22.678705,13.7649529 C19.5748472,15.3529732 17.120634,17.5906382 15.0995173,20.405765 C14.9551518,20.5501305 14.8107863,20.7666787 14.6664208,20.983227 C13.511497,19.4673894 12.4287559,18.0959173 11.3460148,16.6522625 C10.1910909,15.136425 9.10834981,13.6205874 8.02560871,12.1769326 C7.664695,11.6716535 7.59251226,11.3107398 8.09779145,10.8054606 C13.6558625,4.66992765 20.5132228,1.06079063 28.7420552,0.194597744 C35.2385018,-0.527229659 41.4462175,0.772059667 47.2208367,3.8759175 C47.4373849,4.02028298 47.6539332,4.09246572 47.8704814,4.2368312 C47.8704814,4.45337942 47.8704814,4.52556216 47.9426641,4.59774491 L47.9426641,4.59774491 Z M59.7084508,47.9073891 C58.1926132,45.9584551 56.8211412,44.1538866 55.4496691,42.3493181 C52.2736285,38.1627192 49.097588,33.9039375 45.8493646,29.7173385 C45.4162682,29.1398766 45.4162682,28.7789629 45.9215474,28.2736837 C47.2930195,26.9022117 48.5923088,25.5307396 49.9637808,24.1592675 C50.3246945,23.7983538 50.46906,23.4374401 50.1803291,22.932161 C48.5923088,19.9004859 46.4268266,17.3740899 43.6116997,15.3529732 C43.3951515,15.2086077 43.1786033,14.9920595 42.8898723,14.847694 C43.1064205,14.6311458 43.3229687,14.4867803 43.4673342,14.3424149 C46.2102783,12.2491154 48.9532225,10.2279987 51.6961666,8.13469918 C52.1292631,7.77378548 52.4901768,7.62942 52.9954559,8.13469918 C59.8528163,14.3424149 63.534136,22.0659681 63.8950497,31.3775416 C64.0394152,36.7912471 62.8123086,41.9162217 60.3580955,46.7524653 C60.1415472,47.0411962 59.924999,47.4021099 59.7084508,47.9073891 L59.7084508,47.9073891 Z" id="Shape"></path>
        </g>
    </g>
</svg>