<?xml version="1.0" encoding="UTF-8"?>
<svg width="64px" height="64px" viewBox="0 0 64 64" version="1.1" xmlns="http://www.w3.org/2000/svg" xmlns:xlink="http://www.w3.org/1999/xlink">
    <title>0x0bc529c00C6401aEF6D220BE8C6Ea1667F6Ad93e</title>
    <g id="0x0bc529c00C6401aEF6D220BE8C6Ea1667F6Ad93e" stroke="none" stroke-width="1" fill="none" fill-rule="evenodd">
        <g id="yearn-finance-yfi-logo">
            <path d="M32,0 C49.6704,0 64,14.3296 64,32 C64,49.6704 49.6704,64 32,64 C14.3296,64 0,49.6704 0,32 C0,14.3296 14.3296,0 32,0 Z" id="SVGID" fill="#006AE3"></path>
            <polygon id="SVGID-2" fill="#FFFFFF" fill-rule="nonzero" points="30.6816 45.4912 30.6816 18.8672 33.5808 18.8672 33.5808 45.4912"></polygon>
            <path d="M45.44,27.7376 L36.4864,30.112 L34.4896,20.8192 L37.152,20.2176 L38.2016,24.6208 C38.2016,24.6208 40.6208,20.6528 37.3952,16.544 C35.4944,14.432 34.592,14.3424 32.4608,14.0096 C30.5856,13.7408 26.2272,14.3744 24.928,19.4624 C24.3776,22.7392 24.9984,25.1648 29.2224,28.3392 L28.9856,31.872 C28.9856,31.872 24.2688,28.5504 23.0528,26.2208 C22.112,24.3776 20.4992,20.736 23.4112,15.6672 C24.9792,13.1328 28.0704,10.7008 33.5168,10.9568 C36.256,11.072 42.944,14.4192 41.9072,22.24 C41.728,23.7056 40.9664,25.6576 40.9664,25.6576 L44.64,24.8384 L45.44,27.7376 Z" id="SVGID-3" fill="#FFFFFF" fill-rule="nonzero"></path>
            <path d="M40.3264,48.5696 C38.688,51.0592 35.5328,53.408 30.0992,53.0112 C27.36,52.8256 20.768,49.2992 22.0096,41.5104 C22.2272,40.0512 23.04,38.1248 23.04,38.1248 L19.3472,38.8416 L18.624,35.9296 L27.6416,33.792 L29.3952,43.136 L26.7136,43.6672 L25.7792,39.232 C25.7792,39.232 23.2576,43.1296 26.368,47.328 C28.2112,49.4912 29.1072,49.6 31.2384,49.9904 C33.1008,50.3104 37.4784,49.7856 38.912,44.736 C39.5456,41.4784 38.9888,39.0336 34.8544,35.744 L35.1872,32.2176 C35.1872,32.2176 39.8144,35.6608 40.9664,38.0224 C41.8496,39.8976 43.3664,43.584 40.3264,48.5696 L40.3264,48.5696 Z" id="SVGID-4" fill="#FFFFFF" fill-rule="nonzero"></path>
        </g>
    </g>
</svg>