<?xml version="1.0" encoding="UTF-8"?>
<svg width="64px" height="64px" viewBox="0 0 64 64" version="1.1" xmlns="http://www.w3.org/2000/svg" xmlns:xlink="http://www.w3.org/1999/xlink">
    <title>0x50b7545627a5162F82A992c33b87aDc75187B218</title>
    <g id="0x50b7545627a5162F82A992c33b87aDc75187B218" stroke="none" stroke-width="1" fill="none" fill-rule="evenodd">
        <g id="wrapped-bitcoin-wbtc-logo" fill-rule="nonzero">
            <path d="M52.1852452,13.4314472 L50.427969,15.1887234 C59.1192618,24.6932708 59.1192618,39.2598669 50.427969,48.7644142 L52.1852452,50.5216904 C61.854849,40.0332044 61.854849,23.8789301 52.1852452,13.3904441 L52.1852452,13.4314472 Z" id="Shape" fill="#5A5564"></path>
            <path d="M15.2297265,13.5837445 C24.7342739,4.89245171 39.30087,4.89245171 48.8054173,13.5837445 L50.5626935,11.8264683 C40.0742075,2.15686455 23.9199332,2.15686455 13.4314472,11.8264683 L15.2297265,13.5837445 Z" id="Shape-2" fill="#5A5564"></path>
            <path d="M13.5837445,48.781987 C4.90315933,39.2800236 4.90315933,24.7258324 13.5837445,15.223869 L11.8264683,13.4665928 C2.15686455,23.9550787 2.15686455,40.1093531 11.8264683,50.597839 L13.5837445,48.781987 Z" id="Shape-3" fill="#5A5564"></path>
            <path d="M48.781987,50.4045387 C39.2774396,59.0958314 24.7108435,59.0958314 15.2062962,50.4045387 L13.44902,52.1618149 C23.937506,61.8314186 40.0917803,61.8314186 50.5802663,52.1618149 L48.781987,50.4045387 Z" id="Shape-4" fill="#5A5564"></path>
            <path d="M43.0942696,26.1365542 C42.7428144,22.4697045 39.5797172,21.2396112 35.578985,20.8647256 L35.578985,15.8154853 L32.4861789,15.8154853 L32.4861789,20.7710042 C31.6719743,20.7710042 30.8401969,20.7710042 30.014277,20.7710042 L30.014277,15.8154853 L26.9449013,15.8154853 L26.9449013,20.8998711 L20.6714252,20.8998711 L20.6714252,24.209408 C20.6714252,24.209408 22.9558843,24.1684049 22.9207388,24.209408 C23.77689,24.1152226 24.5538249,24.7160522 24.678015,25.5683682 L24.678015,39.4859958 C24.6602348,39.7781658 24.5250158,40.0507166 24.3031294,40.2416246 C24.0853736,40.4362033 23.7976584,40.5335187 23.5064975,40.5110736 C23.5475006,40.5462191 21.2571839,40.5110736 21.2571839,40.5110736 L20.6714252,44.2072112 L26.8863254,44.2072112 L26.8863254,49.3736033 L29.9791315,49.3736033 L29.9791315,44.2833599 L32.4510334,44.2833599 L32.4510334,49.3501729 L35.5496971,49.3501729 L35.5496971,44.2423568 C40.774665,43.926047 44.4180844,42.6373778 44.8749762,37.7462924 C45.2440042,33.8099937 43.3930066,32.0527175 40.434925,31.3439494 C42.2332043,30.4594537 43.3461459,28.8193292 43.0942696,26.1365542 Z M38.759655,37.1371033 C38.759655,40.9796806 32.1757268,40.5403615 30.0787105,40.5403615 L30.0787105,33.7221298 C32.1757268,33.7279874 38.759655,33.1246559 38.759655,37.1371033 Z M37.3245461,27.53066 C37.3245461,31.0452124 31.8301291,30.6176085 30.0845681,30.6176085 L30.0845681,24.4202811 C31.8301291,24.4202811 37.3245461,23.8696679 37.3245461,27.53066 Z" id="Shape-5" fill="#F09242"></path>
            <path d="M31.9941416,64 C14.3225552,63.9967639 -0.00107835771,49.6696337 0,31.998047 C0.00107835771,14.3264603 14.3264603,0.00107835771 31.998047,0 C49.6696337,-0.00107835771 63.9967639,14.3225552 64,31.9941416 C64.001553,40.483099 60.630016,48.624817 54.6274165,54.6274165 C48.624817,60.630016 40.483099,64.001553 31.9941416,64 Z M31.9941416,2.4953223 C15.7134503,2.5082695 2.52401436,15.7134356 2.53047942,31.9941307 C2.53694924,48.2748258 15.7368725,61.4695119 32.0175688,61.4695119 C48.2982652,61.4695119 61.4981933,48.2748367 61.504669,31.9941416 C61.5077787,24.1675869 58.399268,16.6608649 52.8639591,11.1277534 C47.3286501,5.59464183 39.8206944,2.48911205 31.9941416,2.4953223 Z" id="Shape-6" fill="#282138"></path>
        </g>
    </g>
</svg>