<?xml version="1.0" encoding="UTF-8"?>
<svg width="48px" height="48px" viewBox="0 0 48 48" version="1.1" xmlns="http://www.w3.org/2000/svg" xmlns:xlink="http://www.w3.org/1999/xlink">
    <title>img / logo / DEXs / Pangolin</title>
    <g id="img-/-logo-/-DEXs-/-Pangolin" stroke="none" stroke-width="1" fill="none" fill-rule="evenodd">
        <rect id="background" fill="#1A1A1A" fill-rule="nonzero" x="0" y="0" width="48" height="48" rx="24"></rect>
        <g id="mark" transform="translate(11.000000, 12.000000)" fill-rule="nonzero">
            <polygon id="Path" fill="#FFC800" points="24.267664 0.00598415214 20.6690586 0.00311885895 21.4667765 2.53968938 21.7358098 3.39549921 21.0298827 3.92306815 14.9572361 8.46681458 20.3231949 12.4944025 26.6950491 7.72751823"></polygon>
            <polygon id="Path" fill="#E1AA00" points="5.66006973 3.91388906 4.95533439 3.38457052 5.22538193 2.53015531 6.02307448 0.00283993661 2.43755309 0 0 7.71871949 6.36406973 12.4955436 11.7372044 8.47508082"></polygon>
            <polygon id="Path" fill="#E1AA00" points="12.731233 4.0903962 7.28613629 0.00491917591 6.36718859 2.91448494 12.731233 7.69130903 12.7346815 7.68844374 12.7346815 4.08968621"></polygon>
            <polygon id="Path" fill="#FFC800" points="19.4095975 0.00905229794 13.9573502 4.0881141 13.9573502 7.68689699 20.3252235 2.92287797"></polygon>
            <polygon id="Path" fill="#E1AA00" points="7.0694897 13.4967987 6.38062758 14.0129572 6.36718859 14.0547956 12.731233 18.8317211 12.7346815 18.8289319 12.7346815 9.25819334"></polygon>
            <polygon id="Path" fill="#FFC800" points="20.3097559 14.016 19.6172678 13.4959113 13.9645769 9.25304596 13.9573502 9.2583962 13.9573502 18.8291854 20.3252235 14.0649382"></polygon>
            <polygon id="Path" fill="#E1AA00" points="12.7302187 20.3614834 12.0255087 19.8322916 7.54997147 16.473813 6.36718859 20.2197401 12.731233 24.996412 12.7346815 24.9936228 12.7346815 20.3579334"></polygon>
            <polygon id="Path" fill="#FFC800" points="19.1458891 16.4760951 14.6586117 19.8333059 13.9573502 20.358187 13.9573502 24.9938764 20.3252235 20.2298827"></polygon>
        </g>
    </g>
</svg>