<?xml version="1.0" encoding="UTF-8"?>
<svg width="64px" height="64px" viewBox="0 0 64 64" version="1.1" xmlns="http://www.w3.org/2000/svg" xmlns:xlink="http://www.w3.org/1999/xlink">
    <title>0x6b175474e89094c44da98b954eedeac495271d0f</title>
    <g id="0x6b175474e89094c44da98b954eedeac495271d0f" stroke="none" stroke-width="1" fill="none" fill-rule="evenodd">
        <g id="dai-logo" fill-rule="nonzero">
            <path d="M32,0 C49.6747367,0 64,14.3281433 64,32 C64,49.6747367 49.6747367,64 32,64 C14.3281433,64 0,49.6732967 0,32 C0,14.3281433 14.3281433,0 32,0 Z" id="Path" fill="#F5AC37"></path>
            <path d="M33.1793718,34.2593826 L45.3388534,34.2593826 C45.598056,34.2593826 45.7204572,34.2593826 45.7391774,33.9195392 C45.8385384,32.6825668 45.8385384,31.4383944 45.7391774,30.199982 C45.7391774,29.9594996 45.6196562,29.8601386 45.3590136,29.8601386 L21.1595716,29.8601386 C20.8600486,29.8601386 20.7794078,29.9594996 20.7794078,30.2403024 L20.7794078,33.800018 C20.7794078,34.2593826 20.7794078,34.2593826 21.2589326,34.2593826 L33.1793718,34.2593826 L33.1793718,34.2593826 Z M44.3812438,25.699937 C44.4158042,25.6092161 44.4158042,25.5098551 44.3812438,25.4205742 C44.1782018,24.9784898 43.9377194,24.5565656 43.6583566,24.1605616 C43.2378724,23.4837548 42.7425074,22.8602286 42.1780218,22.300063 C41.9116191,21.9616596 41.603456,21.6578166 41.2578526,21.400054 C39.5269553,19.9269193 37.4691747,18.8843488 35.2573126,18.3601836 C34.1413014,18.1096211 33.00081,17.9900999 31.8574386,18.00018 L21.1178112,18.00018 C20.8182882,18.00018 20.7779678,18.1197012 20.7779678,18.3803438 L20.7779678,25.4796148 C20.7779678,25.7791378 20.7779678,25.8597786 21.1581316,25.8597786 L44.2372424,25.8597786 C44.2372424,25.8597786 44.4374044,25.8194582 44.4777248,25.699937 L44.3798038,25.699937 L44.3812438,25.699937 Z M44.3812438,38.4195842 C44.0414004,38.3821438 43.698677,38.3821438 43.3588336,38.4195842 L21.1797318,38.4195842 C20.8802088,38.4195842 20.7794078,38.4195842 20.7794078,38.8199082 L20.7794078,45.7607776 C20.7794078,46.0804608 20.7794078,46.1611016 21.1797318,46.1611016 L31.4196742,46.1611016 C31.9092791,46.198542 32.398884,46.1639816 32.8784088,46.0617406 C34.3645036,45.9551796 35.8261183,45.6326163 37.2200522,45.101251 C37.7269373,44.9255693 38.2165422,44.696607 38.6787868,44.4215642 L38.8184682,44.4215642 C41.2189722,43.1730717 43.1687517,41.2117721 44.398524,38.804068 C44.398524,38.804068 44.5382054,38.501665 44.3812438,38.4224642 L44.3812438,38.4195842 Z M16.7603276,49.7596976 L16.7603276,49.6401764 L16.7603276,44.9802898 L16.7603276,43.400594 L16.7603276,38.700387 C16.7603276,38.4397444 16.7603276,38.400864 16.4406444,38.400864 L12.100441,38.400864 C11.8599586,38.400864 11.7605976,38.400864 11.7605976,38.0811808 L11.7605976,34.2809828 L16.400324,34.2809828 C16.6595266,34.2809828 16.7603276,34.2809828 16.7603276,33.9411394 L16.7603276,30.1812618 C16.7603276,29.9407794 16.7603276,29.8817388 16.4406444,29.8817388 L12.100441,29.8817388 C11.8599586,29.8817388 11.7605976,29.8817388 11.7605976,29.5620556 L11.7605976,26.0426604 C11.7605976,25.8223382 11.7605976,25.7632976 12.0802808,25.7632976 L16.3801638,25.7632976 C16.6796868,25.7632976 16.7603276,25.7632976 16.7603276,25.3831338 L16.7603276,14.603186 C16.7603276,14.2835028 16.7603276,14.202862 17.1606516,14.202862 L32.1598416,14.202862 C33.2484925,14.2460625 34.3299433,14.3655837 35.399874,14.5628656 C37.604536,14.9703897 39.7227972,15.7580776 41.6596166,16.8827288 C42.9441094,17.6387364 44.1263613,18.5517055 45.1790118,19.602916 C45.9710197,20.4251643 46.6852669,21.3150932 47.3188732,22.2626226 C47.9481595,23.2231122 48.4708847,24.2498425 48.8812888,25.3226532 C48.9316893,25.602016 49.199532,25.7906579 49.4788948,25.7431374 L53.0587706,25.7431374 C53.5181352,25.7431374 53.5181352,25.7431374 53.5382954,26.1837818 L53.5382954,29.4641346 C53.5382954,29.7838178 53.4187742,29.8644586 53.097651,29.8644586 L50.3371434,29.8644586 C50.0577806,29.8644586 49.9771398,29.8644586 49.9973,30.2244622 C50.1067411,31.4427144 50.1067411,32.6652867 49.9973,33.8835388 C49.9973,34.2233822 49.9973,34.2637026 50.3789038,34.2637026 L53.5368554,34.2637026 C53.6765368,34.4437044 53.5368554,34.6237062 53.5368554,34.8051481 C53.5570156,35.0369904 53.5570156,35.2717127 53.5368554,35.503555 L53.5368554,37.9242192 C53.5368554,38.2640626 53.4374944,38.3648636 53.1365314,38.3648636 L49.3564936,38.3648636 C49.0929709,38.3144631 48.8366484,38.4829448 48.7761678,38.7450275 C47.8761588,41.0850509 46.4361444,43.1831518 44.5756458,44.8650887 C43.895959,45.4770948 43.1817118,46.0531005 42.4357844,46.5844658 C41.6351364,47.0452705 40.8560886,47.5247952 40.0352804,47.904959 C38.5247052,48.5846458 36.9406894,49.0857709 35.3149131,49.404014 C33.7712177,49.6804968 32.2059221,49.8057781 30.6348663,49.7841778 L16.7545675,49.7841778 L16.7545675,49.7640176 L16.7603276,49.7596976 Z" id="Shape" fill="#FEFEFD"></path>
        </g>
    </g>
</svg>