<?xml version="1.0" encoding="UTF-8"?>
<svg width="64px" height="64px" viewBox="0 0 64 64" version="1.1" xmlns="http://www.w3.org/2000/svg" xmlns:xlink="http://www.w3.org/1999/xlink">
    <title>0x6b3595068778dd592e39a122f4f5a5cf09c90fe2</title>
    <defs>
        <linearGradient x1="35.5353448%" y1="8.13463325%" x2="51.4344828%" y2="54.0232517%" id="linearGradient-1">
            <stop stop-color="#03B8FF" offset="0%"></stop>
            <stop stop-color="#FA52A0" offset="100%"></stop>
        </linearGradient>
        <linearGradient x1="36.5085128%" y1="13.4447748%" x2="55.5162467%" y2="64.6614742%" id="linearGradient-2">
            <stop stop-color="#03B8FF" offset="0%"></stop>
            <stop stop-color="#FA52A0" offset="100%"></stop>
        </linearGradient>
        <linearGradient x1="28.7245071%" y1="-7.03539618%" x2="47.7931559%" y2="44.8485902%" id="linearGradient-3">
            <stop stop-color="#03B8FF" offset="0%"></stop>
            <stop stop-color="#FA52A0" offset="100%"></stop>
        </linearGradient>
    </defs>
    <g id="0x6b3595068778dd592e39a122f4f5a5cf09c90fe2" stroke="none" stroke-width="1" fill="none" fill-rule="evenodd">
        <g id="sushiswap-sushi-logo" transform="translate(0.000000, 1.000000)">
            <polygon id="Path" fill="url(#linearGradient-1)" fill-rule="nonzero" points="13.3333333 3.46666667 62.9333333 37.3333333 50.6666667 55.4666667 1.06666667 21.3333333"></polygon>
            <path d="M62.9333333,37.3333333 C58.6666667,43.4666667 44.2666667,41.0666667 30.6666667,31.4666667 C16.8,22.1333333 9.33333333,9.6 13.3333333,3.46666667 C17.6,-2.66666667 32,-0.266666667 45.6,9.33333333 C59.4666667,18.4 66.9333333,31.2 62.9333333,37.3333333 Z" id="Path" fill="url(#linearGradient-2)" fill-rule="nonzero"></path>
            <path d="M50.6666667,55.2 C46.4,61.3333333 32,58.9333333 18.4,49.3333333 C4.8,39.7333333 -2.93333333,27.4666667 1.33333333,21.0666667 C5.6,14.9333333 20,17.3333333 33.6,26.9333333 C47.2,36.5333333 54.6666667,49.0666667 50.6666667,55.2 Z" id="Path" fill="url(#linearGradient-3)" fill-rule="nonzero"></path>
            <path d="M62.9333333,37.3333333 C62.9333333,37.3333333 62.9333333,37.3333333 62.9333333,37.3333333 L50.6666667,55.4666667 L50.6666667,55.4666667 C46.4,61.6 32,58.9333333 18.4,49.6 C15.7333333,47.7333333 13.3333333,45.8666667 10.9333333,43.7333333 C12.8,43.4666667 15.2,42.4 17.6,39.7333333 C21.8666667,35.2 24,34.1333333 25.8666667,34.4 C27.7333333,34.4 29.8666667,36.2666667 33.3333333,40.8 C36.8,45.3333333 41.6,46.6666667 44.5333333,44.2666667 C44.8,44 45.0666667,44 45.3333333,43.7333333 C47.7333333,41.8666667 48.5333333,41.0666667 53.0666667,32.5333333 C54.1333333,30.4 57.8666667,26.9333333 62.9333333,28.5333333 C64.2666667,32 64.2666667,34.9333333 62.9333333,37.3333333 Z" id="Path" fill="#0E0F23" fill-rule="nonzero"></path>
            <path d="M61.0666667,36.2666667 C57.3333333,41.6 44.2666667,38.9333333 31.7333333,30.1333333 C18.9333333,21.3333333 11.4666667,10.1333333 15.2,4.8 C18.9333333,-0.533333333 32,2.13333333 44.5333333,10.9333333 C57.0666667,19.7333333 64.5333333,30.9333333 61.0666667,36.2666667 Z M49.3333333,28.2666667 C47.4666667,30.9333333 41.0666667,29.6 34.6666667,25.3333333 C28.5333333,21.0666667 24.8,15.4666667 26.6666667,12.8 C28.5333333,10.1333333 34.9333333,11.4666667 41.3333333,15.7333333 C47.4666667,20 51.2,25.6 49.3333333,28.2666667 Z" id="Shape" fill="#FFFFFF"></path>
            <path d="M12.2666667,9.6 C12.2666667,9.33333333 12,9.06666667 11.7333333,9.33333333 C11.4666667,9.6 11.2,9.6 11.2,9.86666667 C11.4666667,10.6666667 11.7333333,11.2 11.7333333,11.7333333 C11.7333333,12 12,12.2666667 12.2666667,12 C12.5333333,12 12.8,11.7333333 12.5333333,11.4666667 C12.5333333,10.9333333 12.5333333,10.4 12.2666667,9.6 Z" id="Path" fill="#FFFFFF" fill-rule="nonzero"></path>
            <path d="M13.6,13.8666667 C13.6,13.6 13.3333333,13.3333333 13.0666667,13.6 C12.8,13.8666667 12.8,13.8666667 12.8,14.1333333 C15.7333333,20.8 21.8666667,28 29.8666667,33.3333333 C30.1333333,33.6 30.4,33.3333333 30.6666667,33.3333333 C30.9333333,33.0666667 30.6666667,32.8 30.6666667,32.5333333 C22.4,27.2 16.5333333,20.2666667 13.6,13.8666667 Z" id="Path" fill="#FFFFFF" fill-rule="nonzero"></path>
            <path d="M45.8666667,40 C45.6,40 45.3333333,40 45.3333333,40.2666667 C45.3333333,40.5333333 45.3333333,40.8 45.6,40.8 C46.4,41.0666667 47.4666667,41.3333333 48.2666667,41.6 C48.5333333,41.6 48.8,41.6 48.8,41.3333333 C48.8,41.0666667 48.8,40.8 48.5333333,40.8 C47.7333333,40.5333333 46.6666667,40.2666667 45.8666667,40 Z" id="Path" fill="#FFFFFF" fill-rule="nonzero"></path>
            <path d="M50.6666667,41.0666667 C50.4,41.0666667 50.1333333,41.3333333 50.1333333,41.6 C50.1333333,41.8666667 50.4,42.1333333 50.6666667,42.1333333 C52.8,42.4 55.2,42.6666667 57.0666667,42.4 C57.3333333,42.4 57.6,42.1333333 57.6,41.8666667 C57.6,41.6 57.3333333,41.3333333 57.0666667,41.3333333 C54.9333333,41.6 52.8,41.3333333 50.6666667,41.0666667 Z" id="Path" fill="#FFFFFF" fill-rule="nonzero"></path>
        </g>
    </g>
</svg>