<?xml version="1.0" encoding="UTF-8"?>
<svg width="64px" height="64px" viewBox="0 0 64 64" version="1.1" xmlns="http://www.w3.org/2000/svg" xmlns:xlink="http://www.w3.org/1999/xlink">
    <title>0x95aD61b0a150d79219dCF64E1E6Cc01f0B64C4cE</title>
    <g id="0x95aD61b0a150d79219dCF64E1E6Cc01f0B64C4cE" stroke="none" stroke-width="1" fill="none" fill-rule="evenodd">
        <g id="shiba-inu-shib-logo">
            <g id="Group_931" transform="translate(0.000000, 2.093652)" fill-rule="nonzero">
                <path d="M46.3171676,3.54031257 C44.6704847,5.18699549 43.161847,6.97172369 41.8208358,8.87477641 L41.3968396,8.73673113 C38.9514662,7.93804061 36.4173493,7.44502177 33.8635117,7.27739537 C33.0944023,7.21823311 30.2250327,7.21823311 29.2882969,7.27739537 C26.4583688,7.46474253 24.2890859,7.88873873 21.8239917,8.74659151 C21.7253879,8.78603302 21.6366445,8.81561415 21.5479011,8.84519528 C20.157588,6.95200293 18.6095089,5.17713511 16.9036637,3.55017295 C25.0877764,-0.640487185 34.6622023,-1.1433664 43.2308697,2.15985982 C44.1478847,2.50497301 45.045179,2.90924846 45.9227525,3.34310503 L46.3171676,3.54031257 Z" id="Path_8573" fill="#F00500"></path>
                <path d="M61.5810309,40.9407217 C60.3386234,44.480597 58.4750122,47.7641024 56.0592199,50.6236117 C54.7477898,52.1618305 53.2983144,53.5718643 51.7403748,54.8537133 C48.0920354,57.7921056 43.8323527,59.8923659 39.286719,60.9967281 C34.2579268,62.2095544 29.0122064,62.2095544 23.9834142,60.9967281 C19.4279201,59.8923659 15.1780977,57.7921056 11.5297583,54.8537133 C9.9718188,53.5718643 8.52234341,52.1618305 7.2109133,50.6236117 C0.259347673,42.4099178 -1.85077296,31.1296468 1.68910231,20.9635983 C2.35960793,19.0802664 3.19773995,17.265957 4.20349838,15.5403911 C4.66693609,14.751561 5.23883795,13.8641271 5.5149285,13.4992931 C6.46152467,17.5716287 7.62504913,21.1509455 8.05890571,22.4426549 C8.02932457,22.5116775 7.98988307,22.5905605 7.95044156,22.6595831 C5.65297377,27.313681 4.4105663,31.8001524 4.11475499,36.5725748 C4.11475499,36.631737 4.10489462,36.7007597 4.10489462,36.7599219 C4.0260116,38.1896766 4.06545311,38.8700426 4.30210215,39.7673369 C5.04163041,42.5775442 7.31937745,45.6737025 10.8888338,48.7106986 C16.7360373,53.6803285 24.6637802,57.2695056 30.6687497,57.6836415 C36.9300889,58.1076377 46.169262,54.4494379 52.3221371,49.1051137 C53.288454,48.2472609 54.1956087,47.3401062 55.0436011,46.3737893 C55.6549444,45.6638422 56.5620991,44.4411554 56.4930764,44.4411554 C56.4733557,44.4411554 56.4930764,44.4214347 56.532518,44.4017139 C56.5620991,44.3819932 56.5916802,44.3524121 56.5719595,44.3326913 C56.5620991,44.3228309 56.5818198,44.2932498 56.611401,44.2833894 C56.6409821,44.273529 56.6607029,44.2538083 56.6508425,44.2340875 C56.6409821,44.2143668 56.6508425,44.194646 56.690284,44.1847857 C56.7198651,44.1749253 56.7297255,44.1453441 56.7198651,44.1256234 C56.7100047,44.1059026 56.7198651,44.0861819 56.7395859,44.0861819 C56.7593066,44.0861819 56.7790274,44.0566008 56.7790274,44.03688 C56.7790274,44.0171592 56.7987481,43.9875781 56.8184689,43.9875781 C56.8381896,43.9875781 56.8579104,43.9678574 56.8579104,43.9481366 C56.8874915,43.8692536 56.9367934,43.7903706 56.9860953,43.7213479 C57.1340009,43.4945593 57.7256235,42.439499 57.8045066,42.2620122 C58.366548,40.9900236 58.7215216,39.8560802 58.889148,38.7221369 C58.968031,38.1798162 59.0173329,37.1839181 58.9778914,36.9472691 C58.968031,36.9078276 58.968031,36.838805 58.9581706,36.7303408 C58.9384499,36.5331333 58.9285895,36.237322 58.9088688,35.9415107 C58.889148,35.4977937 58.8497065,34.87659 58.8201254,34.5709183 C58.3961292,30.0943072 57.2523255,26.4361075 55.0830426,22.5609794 C54.9942992,22.4130737 54.9154162,22.2651681 54.8661143,22.1468436 C54.8463935,22.1172624 54.8365331,22.0876813 54.8266728,22.0679605 L54.8266728,22.0679605 C55.1323444,21.1509455 56.3846123,17.3152589 57.3805104,12.9273913 L57.4002311,12.947112 L57.5481368,13.1443196 C57.8045066,13.4894327 58.4848726,14.5149119 58.7905442,15.0079308 C60.1808574,17.2758174 61.2654988,19.7113305 62.0346082,22.2553077 C63.8193364,28.3786017 63.6714307,34.9061711 61.5810309,40.9407217 Z" id="Path_8574" fill="#F00500"></path>
                <path d="M48.7822618,29.1575714 C48.7526807,29.3153375 48.289243,29.7886356 47.8258053,30.1337487 C46.4650733,31.1296468 44.0295602,32.0565222 41.5546056,32.5002392 C40.1445717,32.756609 38.7345379,32.7960505 38.3105417,32.5889826 C38.0344511,32.4509373 37.9950096,32.3424731 38.0936134,31.9874996 C38.3006813,31.2479713 38.9711869,30.4394204 40.0163868,29.6801714 C40.5488472,29.2956167 42.7082697,27.9841866 43.7140281,27.4320055 C45.3705714,26.5248508 46.7115827,25.9825301 47.6187373,25.8543452 C47.9046883,25.8149037 48.2498015,25.8050433 48.3582656,25.8543452 C48.5357524,25.9233679 48.7329599,26.4459678 48.8118429,27.0770319 C48.8512844,27.4122848 48.8315637,28.8913413 48.7822618,29.1575714 Z" id="Path_8575" fill="#000000"></path>
                <path d="M25.5512141,32.4213562 C25.4920519,32.5396807 25.1962405,32.6678656 24.8609877,32.7171675 C24.5257349,32.7664693 23.5002557,32.7368882 22.9184935,32.6678656 C20.8280936,32.391775 18.6095089,31.7508505 16.9924071,30.9620204 C16.0852524,30.5183034 15.4344675,30.0745865 14.9513091,29.591428 L14.6752185,29.3054771 L14.6456374,28.9307828 C14.5963355,28.2799979 14.6061959,27.2545187 14.6850789,26.8896848 C14.7343808,26.5840131 14.8428449,26.2882018 14.9907506,26.0219716 C15.0696336,25.9233679 15.0696336,25.9233679 15.4246072,25.9233679 C15.8584637,25.9233679 16.2232977,25.9923905 16.8149203,26.1797377 C18.0277466,26.554432 19.8321956,27.4615866 22.0310596,28.7828771 C23.8453689,29.8675186 24.5257349,30.3999789 25.0483349,31.1296468 C25.4033085,31.5832241 25.6399575,32.2241486 25.5512141,32.4213562 Z" id="Path_8576" fill="#000000"></path>
                <path d="M39.5135076,46.1470006 C39.5135076,46.1765818 39.3951831,46.6498798 39.2472775,47.2119213 C39.0993718,47.7739628 38.9810473,48.2275401 38.9810473,48.2472609 C38.8725831,48.2571213 38.7739794,48.2669816 38.6655152,48.2571213 L38.3499832,48.2571213 L37.9161266,49.2826004 C37.6794776,49.8446419 37.4625493,50.3672419 37.4329681,50.4461249 L37.3738059,50.5841702 L37.166738,50.2489174 L36.95967,49.9136646 L36.95967,47.1823402 L36.880787,47.2020609 C36.7131606,47.2415025 35.520055,47.3992685 34.9974551,47.4485704 C32.8380326,47.6654987 30.6687497,47.6161968 28.5191875,47.3105251 C28.1740743,47.2612232 27.878263,47.2217817 27.8684027,47.2316421 C27.8585423,47.2415025 27.8684027,47.8725666 27.8881234,48.6515363 L27.9177045,50.0517098 L27.7500781,50.3080796 C27.6613347,50.4461249 27.5725914,50.5644494 27.5725914,50.5743098 C27.5430102,50.6038909 27.4444065,50.4461249 27.2176178,49.9925476 C26.9711084,49.5192495 26.7936216,49.0163703 26.6654367,48.4937703 L26.5964141,48.2078194 L26.2907424,48.2275401 L25.9850707,48.2571213 L25.9061877,47.8922873 C25.8667462,47.6950798 25.8174443,47.3894081 25.7977235,47.2217817 L25.7681424,46.9062496 L25.5117726,46.679461 C25.363867,46.5512761 25.2159613,46.4230912 25.1863802,46.4033704 C25.1370783,46.3639289 25.1173575,46.2949063 25.1173575,46.235744 L25.1173575,46.1174195 L26.3499046,46.1272799 L27.5824517,46.1371403 L27.6218932,46.2653252 L27.6613347,46.3935101 L28.0853309,46.4132308 C28.32198,46.4230912 29.0713686,46.4428119 29.7418742,46.4625327 L30.9744213,46.4921138 L31.2899534,45.999095 L31.6153458,45.5060761 L32.0294817,45.5060761 L32.0196213,44.480597 L32.0097609,43.4551178 L31.4674402,43.2184687 C29.7221535,42.4493593 28.6966743,41.5717858 28.3121196,40.5068651 C28.2332366,40.2899368 28.2332366,40.2110538 28.2135158,39.2250161 C28.2036555,38.2488388 28.2036555,38.1600954 28.2726781,37.9431672 C28.4107234,37.4501483 28.7952781,37.0655936 29.2882969,36.9374087 C29.4559233,36.8881068 29.8996403,36.8881068 32.2266892,36.8881068 L34.9678739,36.8979672 L35.2735456,37.0458729 C35.6383796,37.2233596 35.806006,37.3515445 36.0130739,37.6276351 C36.2497229,37.9431672 36.3187456,38.1896766 36.3187456,38.7911596 C36.3187456,39.6490123 36.2595833,40.3885406 36.1708399,40.6843519 C36.042655,41.0886273 35.8454475,41.473182 35.598938,41.8182952 C35.1059192,42.4493593 34.2086249,43.0804235 33.3902137,43.3663744 L33.1535646,43.4551178 L33.163425,44.4904573 L33.1732854,45.5257969 L33.3902137,45.5455176 L33.6071419,45.5652384 L33.9029532,46.0089554 L34.1889042,46.4526723 L35.5101947,46.4526723 C36.2398625,46.4526723 36.880787,46.4625327 36.9399493,46.4723931 C37.0385531,46.4921138 37.0582738,46.4822534 37.1568776,46.314627 L37.2752021,46.1371403 L38.4091454,46.1371403 C39.2571378,46.0976987 39.5135076,46.1174195 39.5135076,46.1470006 Z" id="Path_8577" fill="#000000"></path>
                <path d="M34.3072287,48.9769288 C34.1198815,49.0853929 33.9916966,49.1346948 33.9621155,49.114974 C33.9325344,49.1051137 33.7944891,48.9867891 33.6465834,48.878325 L33.3803533,48.6613967 L33.1042627,48.957208 C32.5027797,49.6079929 32.483059,49.637574 32.3055722,49.6474344 C32.0294817,49.6770155 31.9703194,49.6277136 31.6350666,49.1248344 C31.4575798,48.8684646 31.3195345,48.6515363 31.3195345,48.6515363 C31.3195345,48.6515363 31.1913496,48.6318156 31.043444,48.6219552 L30.7673534,48.5923741 L30.6391685,48.8586042 L30.5109836,49.1248344 L30.284195,49.0558118 C30.1067082,48.9966495 29.9292214,48.9276269 29.761595,48.8487439 L29.4657837,48.7008382 L29.4657837,48.1387967 L32.0886439,48.1486571 L34.7115041,48.1585175 L34.7213645,48.4247477 C34.7312249,48.7402797 34.7410853,48.7304193 34.3072287,48.9769288 Z" id="Path_8578" fill="#000000"></path>
            </g>
            <path d="M58.9581706,39.0409213 C58.9483103,39.0014798 58.9483103,38.9324571 58.9384499,38.823993 C56.5719595,38.5676232 49.8176014,38.4098572 43.5464017,43.586555 C43.5464017,43.586555 41.5250245,34.3178008 32.0590628,34.3178008 C22.5931011,34.3178008 19.0828069,43.586555 19.0828069,43.586555 C13.7779242,37.8773968 6.67845296,38.2915326 4.11475499,38.666227 C4.11475499,38.7253892 4.10489462,38.7944119 4.10489462,38.8535741 C4.0260116,40.2833288 4.06545311,40.9636947 4.30210215,41.860989 C5.04163041,44.6711964 7.31937745,47.7673547 10.8888338,50.8043508 C16.7360373,55.7739807 24.6637802,59.3631578 30.6687497,59.7772936 C36.9300889,60.2012898 46.169262,56.5430901 52.3221371,51.1987658 C53.288454,50.3409131 54.1956087,49.4337584 55.0436011,48.4674415 C55.6549444,47.7574944 56.5620991,46.5348076 56.4930764,46.5348076 C56.4733557,46.5348076 56.4930764,46.5150869 56.532518,46.4953661 C56.5620991,46.4756454 56.5916802,46.4460642 56.5719595,46.4263435 C56.5620991,46.4164831 56.5818198,46.386902 56.611401,46.3770416 C56.6409821,46.3671812 56.6607029,46.3474605 56.6508425,46.3277397 C56.6409821,46.308019 56.6508425,46.2882982 56.690284,46.2784378 C56.7198651,46.2685775 56.7297255,46.2389963 56.7198651,46.2192756 C56.7100047,46.1995548 56.7198651,46.1798341 56.7395859,46.1798341 C56.7593066,46.1798341 56.7790274,46.1502529 56.7790274,46.1305322 C56.7790274,46.1108114 56.7987481,46.0812303 56.8184689,46.0812303 C56.8381896,46.0812303 56.8579104,46.0615095 56.8579104,46.0417888 C56.8874915,45.9629058 56.9367934,45.8840228 56.9860953,45.8150001 C57.1340009,45.5882115 57.7256235,44.5331511 57.8045066,44.3556644 C58.366548,43.0836758 58.7215216,41.9497324 58.889148,40.8157891 C58.9483103,40.2734684 58.9976121,39.2775703 58.9581706,39.0409213 Z M34.3072287,51.0705809 C34.1198815,51.1790451 33.9916966,51.228347 33.9621155,51.2086262 C33.9325344,51.1987658 33.7944891,51.0804413 33.6465834,50.9719772 L33.3803533,50.7550489 L33.1042627,51.0508602 C32.5027797,51.7016451 32.483059,51.7312262 32.3055722,51.7410866 C32.0294817,51.7706677 31.9703194,51.7213658 31.6350666,51.2184866 C31.4575798,50.9621168 31.3195345,50.7451885 31.3195345,50.7451885 C31.3195345,50.7451885 31.1913496,50.7254678 31.043444,50.7156074 L30.7673534,50.6860263 L30.6391685,50.9522564 L30.5109836,51.2184866 L30.284195,51.149464 C30.1067082,51.0903017 29.9292214,51.0212791 29.761595,50.9423961 L29.4657837,50.7944904 L29.4657837,50.2324489 L32.0886439,50.2423093 L34.7115041,50.2521697 L34.7213645,50.5183998 C34.7312249,50.8339319 34.7410853,50.8240715 34.3072287,51.0705809 Z M39.2374171,49.2957131 C39.0895114,49.8577546 38.9711869,50.3113319 38.9711869,50.3310527 C38.8627228,50.3409131 38.764119,50.3507734 38.6556549,50.3409131 L38.3401228,50.3409131 L37.9161266,51.3762526 C37.6794776,51.9382941 37.4625493,52.4608941 37.4329681,52.5397771 L37.3738059,52.6778224 L37.166738,52.3425696 L36.95967,52.0073167 L36.95967,49.2759924 L36.880787,49.2957131 C36.7131606,49.3351546 35.520055,49.4929207 34.9974551,49.5422225 C32.8380326,49.7591508 30.6687497,49.709849 28.5191875,49.4041773 C28.1740743,49.3548754 27.878263,49.3154339 27.8684027,49.3252943 C27.8585423,49.3351546 27.8684027,49.9662187 27.8881234,50.7451885 L27.9177045,52.145362 L27.7500781,52.4017318 C27.6613347,52.5397771 27.5725914,52.6581016 27.5725914,52.667962 C27.5430102,52.6975431 27.4444065,52.5397771 27.2176178,52.0861998 C26.9711084,51.6129017 26.7936216,51.1100225 26.6654367,50.5874225 L26.5964141,50.3014716 L26.2907424,50.3211923 L25.9850707,50.3507734 L25.9061877,49.9859395 C25.8667462,49.788732 25.8174443,49.4830603 25.7977235,49.3154339 L25.7681424,48.9999018 L25.5117726,48.7731132 C25.363867,48.6449283 25.2159613,48.5167434 25.1863802,48.4970226 C25.1370783,48.4575811 25.1173575,48.3885585 25.1173575,48.3293962 L25.1173575,48.2110717 L26.3499046,48.2209321 L27.5824517,48.2307924 L27.6218932,48.3589773 L27.6613347,48.4871622 L28.0853309,48.506883 C28.32198,48.5167434 29.0713686,48.5364641 29.7418742,48.5561849 L30.9744213,48.585766 L31.2899534,48.0927472 L31.6153458,47.5997283 L32.0294817,47.5997283 L32.0196213,46.5742491 L32.0097609,45.54877 L31.4674402,45.3121209 C29.7221535,44.5430115 28.6966743,43.665438 28.3121196,42.6005173 C28.2332366,42.383589 28.2332366,42.304706 28.2135158,41.3186683 C28.2036555,40.342491 28.2036555,40.2537476 28.2726781,40.0368193 C28.4107234,39.5438005 28.7952781,39.1592458 29.2882969,39.0310609 C29.4559233,38.981759 29.8996403,38.981759 32.2266892,38.981759 L34.9678739,38.9916194 L35.2735456,39.139525 C35.6383796,39.3170118 35.806006,39.4451967 36.0130739,39.7212873 C36.2497229,40.0368193 36.3187456,40.2833288 36.3187456,40.8848117 C36.3187456,41.7426645 36.2595833,42.4821928 36.1708399,42.7780041 C36.042655,43.1822795 35.8454475,43.5668342 35.598938,43.9119474 C35.1059192,44.5430115 34.2086249,45.1740756 33.3902137,45.4600266 L33.1535646,45.54877 L33.163425,46.5841095 L33.1732854,47.6194491 L33.3902137,47.6391698 L33.6071419,47.6588906 L33.9029532,48.1026075 L34.1889042,48.5463245 L35.5101947,48.5463245 C36.2398625,48.5463245 36.880787,48.5561849 36.9399493,48.5660452 C37.0385531,48.585766 37.0582738,48.5759056 37.1568776,48.4082792 L37.2752021,48.2307924 L38.4091454,48.2307924 C39.286719,48.2307924 39.5430888,48.2406528 39.5430888,48.2702339 C39.5135076,48.2603736 39.3853227,48.743532 39.2374171,49.2957131 Z" id="Path_8579" fill="#FFFFFF" fill-rule="nonzero"></path>
            <path d="M4.09503424,38.666227 C3.4738305,38.7549704 3.10899656,38.8535741 3.10899656,38.8535741" id="Path_8580"></path>
            <path d="M59.8160234,38.9521779 C59.8160234,38.9521779 59.5004914,38.8831552 58.9384499,38.823993" id="Path_8581"></path>
            <path d="M58.8792876,38.0351628 C58.8595669,37.5914459 58.8201254,36.9702422 58.7905442,36.6645705 C58.366548,32.1879594 57.2227443,28.5297596 55.0534614,24.6546316 C54.964718,24.5067259 54.885835,24.3588203 54.8365331,24.2404957 C54.8168124,24.2109146 54.806952,24.1813335 54.7970916,24.1616127 L54.7970916,24.1616127 C55.1027633,23.2445977 56.3550312,19.4089111 57.3509292,15.0210434 C58.7018008,9.06537587 59.5596536,2.10394986 56.9367934,0.0135499854 C56.9367934,0.0135499854 52.4010201,-0.321702825 46.327028,5.63396475 C44.6803451,7.28064767 43.1717074,9.06537587 41.8306962,10.9684286 L41.4067,10.8303833 C38.9613265,10.0316928 36.4272097,9.53867395 33.8733721,9.37104755 C33.1042627,9.31188529 30.2348931,9.31188529 29.2981573,9.37104755 C26.4682292,9.55839471 24.2989463,9.98239091 21.8338521,10.8402437 C21.7352483,10.8796852 21.6465049,10.9092663 21.5577615,10.9388475 C20.1674484,9.04565512 18.6193692,7.27078729 16.9135241,5.64382513 C10.5930225,-0.341423579 5.88962281,0.00368960859 5.88962281,0.00368960859 C3.10899656,2.16311212 4.05559273,9.44007019 5.49520774,15.5929453 C6.44180391,19.6652809 7.60532837,23.2445977 8.03918495,24.536307 C8.00960382,24.6053297 7.97016231,24.6842127 7.93072081,24.7532353 C5.63325302,29.4073332 4.39084554,33.8938046 4.09503424,38.666227 C6.66859258,38.2915326 13.7582035,37.8675364 19.0729466,43.586555 C19.0729466,43.586555 22.5832407,34.3178008 32.0492024,34.3178008 C41.5151641,34.3178008 43.5365414,43.586555 43.5365414,43.586555 C49.807741,38.4098572 56.5620991,38.5774836 58.9285895,38.823993 C58.9187291,38.6267855 58.8990084,38.3309741 58.8792876,38.0351628 Z M9.90279616,20.818945 C9.90279616,20.818945 6.21501525,11.5994927 7.16161142,6.3340515 C7.16161142,6.3340515 7.16161142,6.3340515 7.16161142,6.3340515 C7.31937745,5.44661759 7.61518875,4.66764783 8.07862646,4.07602522 C8.07862646,4.07602522 12.2594262,4.49016104 19.0039239,11.9840474 C19.0039239,11.9840474 17.7220749,12.6052511 16.0063694,13.9265416 C16.0063694,13.9265416 15.996509,13.936402 15.9866486,13.936402 C14.1230374,15.3661566 11.7368262,17.6340433 9.90279616,20.818945 L9.90279616,20.818945 Z M25.5512141,34.5150083 C25.4920519,34.6333329 25.1962405,34.7615178 24.8609877,34.8108196 C24.5257349,34.8601215 23.5002557,34.8305404 22.9184935,34.7615178 C20.8280936,34.4854272 18.6095089,33.8445027 16.9924071,33.0556726 C16.0852524,32.6119556 15.4344675,32.1682387 14.9513091,31.6850802 L14.6752185,31.3991293 L14.6456374,31.024435 C14.5963355,30.3736501 14.6061959,29.3481709 14.6850789,28.983337 C14.7343808,28.6776653 14.8428449,28.381854 14.9907506,28.1156238 C15.0696336,28.01702 15.0696336,28.01702 15.4246072,28.01702 C15.8584637,28.01702 16.2232977,28.0860427 16.8149203,28.2733898 C18.0277466,28.6480842 19.8321956,29.5552388 22.0310596,30.8765293 C23.8453689,31.9611708 24.5257349,32.4936311 25.0483349,33.223299 C25.4033085,33.6768763 25.6399575,34.3178008 25.5512141,34.5150083 Z M48.7822618,31.2512236 C48.7526807,31.4089897 48.289243,31.8822877 47.8258053,32.2274009 C46.4650733,33.223299 44.0295602,34.1501744 41.5546056,34.5938914 C40.1445717,34.8502611 38.7345379,34.8897027 38.3105417,34.6826347 C38.0344511,34.5445895 37.9950096,34.4361253 38.0936134,34.0811518 C38.3006813,33.3416235 38.9711869,32.5330726 40.0163868,31.7738236 C40.5488472,31.3892689 42.7082697,30.0778388 43.7140281,29.5256577 C45.3705714,28.618503 46.7115827,28.0761823 47.6187373,27.9479974 C47.9046883,27.9085559 48.2498015,27.8986955 48.3582656,27.9479974 C48.5357524,28.01702 48.7329599,28.53962 48.8118429,29.1706841 C48.8512844,29.5059369 48.8315637,30.9849934 48.7822618,31.2512236 Z M47.1454393,13.9265416 L47.1257185,13.9166812 C45.4691752,12.5953908 44.2267677,11.974187 44.2267677,11.974187 C50.7444768,4.48030067 54.7773709,4.06616484 54.7773709,4.06616484 C55.2210878,4.66764783 55.5070388,5.43675721 55.6648048,6.32419112 C55.6648048,6.32419112 55.6648048,6.32419112 55.6648048,6.32419112 C56.5818198,11.5896323 53.0222238,20.818945 53.0222238,20.818945 C51.5333069,18.1665036 49.5316504,15.819734 47.1454393,13.9265416 L47.1454393,13.9265416 Z" id="Path_8582" fill="#FFA409" fill-rule="nonzero"></path>
            <path d="M41.821883,10.968638 C41.801883,10.988638 41.791883,11.018638 41.771883,11.038638" id="Path_8583"></path>
            <path d="M54.7884181,24.1517523 C54.7384181,24.2897976 54.7184181,24.3588203 54.7184181,24.3588203" id="Path_8584"></path>
            <g id="Group_934" transform="translate(44.226768, 4.066165)" fill-rule="nonzero">
                <g id="Group_933">
                    <g id="Group_932" fill="#FF9300">
                        <path d="M11.4478974,2.25802628 C10.6787881,2.15942251 7.04030902,2.13970176 2.91867153,9.86037678 L2.89895077,9.8505164 C1.24240747,8.52922591 2.24199011e-14,7.90802218 2.24199011e-14,7.90802218 C6.51770905,0.414135825 10.5506032,0 10.5506032,0 C11.0041805,0.601482984 11.2901314,1.37059237 11.4478974,2.25802628 Z" id="Path_8585"></path>
                    </g>
                    <path d="M8.80531646,16.7527801 C7.30653919,14.0904784 5.31474308,11.7535691 2.91867153,9.86037678 C7.04030902,2.13970176 10.6689277,2.15942251 11.4478974,2.25802628 C11.4478974,2.25802628 11.4478974,2.25802628 11.4478974,2.25802628 C12.3649125,7.53332786 8.80531646,16.7527801 8.80531646,16.7527801 Z" id="Path_8586" fill="#FF8300"></path>
                    <path d="M11.5958031,2.28851496 C11.5465012,2.27851496 11.4971993,2.26851496 11.4478974,2.25851496 L11.5958031,2.28851496 Z" id="Path_8587" fill="#FF8300"></path>
                </g>
            </g>
            <path d="M21.8535728,11.3529833 C21.7549691,11.214938 21.6465049,11.0768927 21.5479011,10.9388475" id="Path_8588"></path>
            <path d="M8.03918495,24.536307 C8.1476491,24.8715598 8.21667173,25.0490466 8.21667173,25.0490466" id="Path_8589"></path>
            <g id="Group_937" transform="translate(7.003845, 4.066165)" fill-rule="nonzero">
                <g id="Group_936">
                    <g id="Group_935" transform="translate(0.147906, 0.000000)" fill="#FF9300">
                        <path d="M11.8521729,7.90802218 C11.8521729,7.90802218 10.5703239,8.52922591 8.85461835,9.8505164 C8.85461835,9.8505164 8.84475797,9.86037678 8.83489759,9.86037678 C4.56535445,2.12984138 0.808550896,2.15942251 0,2.25802628 C0.157766028,1.37059237 0.453577332,0.591622607 0.91701504,0 C0.926875417,0 5.10767517,0.414135825 11.8521729,7.90802218 Z" id="Path_8590"></path>
                    </g>
                    <path d="M8.99266362,9.86037678 C7.11919203,11.2999918 4.73298085,13.5580181 2.89895077,16.7527801 C2.89895077,16.7527801 -0.788830142,7.53332786 0.157766028,2.25802628 C0.157766028,2.25802628 0.157766028,2.25802628 0.157766028,2.25802628 C0.956456548,2.15942251 4.72312048,2.13970176 8.99266362,9.86037678 Z" id="Path_8591" fill="#FF8300"></path>
                    <path d="M0.157766028,2.25851496 C0.108464145,2.26851496 0.0493018839,2.27851496 0,2.28851496 L0.157766028,2.25851496 Z" id="Path_8592" fill="#FF8300"></path>
                </g>
            </g>
            <path d="M43.0533829,25.9364805 C43.0533829,25.9364805 39.8980623,26.1336881 40.2924774,23.6685939 C40.6868925,21.2034997 43.1519867,20.9076884 43.842213,21.0062921 C44.5324394,21.1048959 47.2933449,22.0909336 46.8003261,24.1616127 C46.3073072,26.2322918 45.6170809,25.8378768 45.2226658,25.9364805 C44.8282507,26.0350843 43.0533829,25.9364805 43.0533829,25.9364805 Z" id="Path_8593" fill="#FFFFFF" fill-rule="nonzero"></path>
            <path d="M19.7828937,25.9364805 C19.7828937,25.9364805 16.6275731,26.1336881 17.0219882,23.6685939 C17.4164033,21.2034997 19.8814975,20.9076884 20.5717238,21.0062921 C21.2619502,21.1048959 24.0228557,22.0909336 23.5298369,24.1616127 C23.036818,26.2322918 22.3465917,25.8378768 21.9521766,25.9364805 C21.5577615,26.0350843 19.7828937,25.9364805 19.7828937,25.9364805 Z" id="Path_8594" fill="#FFFFFF" fill-rule="nonzero"></path>
        </g>
    </g>
</svg>