<?xml version="1.0" encoding="UTF-8"?>
<svg width="64px" height="64px" viewBox="0 0 64 64" version="1.1" xmlns="http://www.w3.org/2000/svg" xmlns:xlink="http://www.w3.org/1999/xlink">
    <title>0xa0b86991c6218b36c1d19d4a2e9eb0ce3606eb48</title>
    <g id="0xa0b86991c6218b36c1d19d4a2e9eb0ce3606eb48" stroke="none" stroke-width="1" fill="none" fill-rule="evenodd">
        <g id="usd-coin-usdc-logo" fill-rule="nonzero">
            <path d="M32,64 C49.73344,64 64,49.73344 64,32 C64,14.26656 49.73344,0 32,0 C14.26656,0 0,14.26656 0,32 C0,49.73344 14.26656,64 32,64 Z" id="Path" fill="#2775CA"></path>
            <path d="M40.8,37.06656 C40.8,32.4 38,30.8 32.4,30.13344 C28.4,29.6 27.6,28.53344 27.6,26.66656 C27.6,24.79968 28.93344,23.6 31.6,23.6 C34,23.6 35.33344,24.4 36,26.4 C36.13344,26.8 36.53344,27.06656 36.93344,27.06656 L39.06656,27.06656 C39.6,27.06656 40,26.66656 40,26.13344 L40,26 C39.46656,23.06656 37.06656,20.8 34,20.53344 L34,17.33344 C34,16.8 33.6,16.4 32.93344,16.26656 L30.93344,16.26656 C30.4,16.26656 30,16.66656 29.86656,17.33344 L29.86656,20.4 C25.86656,20.93344 23.33344,23.6 23.33344,26.93344 C23.33344,31.33344 26,33.06656 31.6,33.73344 C35.33344,34.4 36.53344,35.2 36.53344,37.33344 C36.53344,39.46688 34.66656,40.93344 32.13344,40.93344 C28.66656,40.93344 27.46656,39.46656 27.06656,37.46656 C26.93344,36.93344 26.53344,36.66656 26.13344,36.66656 L23.86656,36.66656 C23.33344,36.66656 22.93344,37.06656 22.93344,37.6 L22.93344,37.73344 C23.46656,41.06656 25.6,43.46656 30,44.13344 L30,47.33344 C30,47.86656 30.4,48.26656 31.06656,48.4 L33.06656,48.4 C33.6,48.4 34,48 34.13344,47.33344 L34.13344,44.13344 C38.13344,43.46656 40.8,40.66656 40.8,37.06656 L40.8,37.06656 Z" id="Path" fill="#FFFFFF"></path>
            <path d="M25.2,51.06656 C14.8,47.33344 9.46656,35.73344 13.33344,25.46656 C15.33344,19.86656 19.73344,15.6 25.2,13.6 C25.73344,13.33344 26,12.93344 26,12.26656 L26,10.4 C26,9.86656 25.73344,9.46656 25.2,9.33344 C25.06656,9.33344 24.8,9.33344 24.66656,9.46656 C12,13.46656 5.06656,26.93344 9.06656,39.6 C11.46656,47.06656 17.2,52.8 24.66656,55.2 C25.2,55.46656 25.73344,55.2 25.86656,54.66656 C26,54.53344 26,54.4 26,54.13344 L26,52.26656 C26,51.86656 25.6,51.33344 25.2,51.06656 Z M39.33344,9.46656 C38.8,9.2 38.26656,9.46656 38.13344,10 C38,10.13344 38,10.26656 38,10.53344 L38,12.4 C38,12.93344 38.4,13.46656 38.8,13.73344 C49.2,17.46656 54.53344,29.06656 50.66656,39.33344 C48.66656,44.93344 44.26656,49.2 38.8,51.2 C38.26656,51.46656 38,51.86656 38,52.53344 L38,54.4 C38,54.93344 38.26656,55.33344 38.8,55.46656 C38.93344,55.46656 39.2,55.46656 39.33344,55.33344 C52,51.33344 58.93344,37.86656 54.93344,25.2 C52.53344,17.6 46.66656,11.86656 39.33344,9.46656 Z" id="Shape" fill="#FFFFFF"></path>
        </g>
    </g>
</svg>