<?xml version="1.0" encoding="UTF-8"?>
<svg width="64px" height="64px" viewBox="0 0 64 64" version="1.1" xmlns="http://www.w3.org/2000/svg" xmlns:xlink="http://www.w3.org/1999/xlink">
    <title>0xB31f66AA3C1e785363F0875A1B74E27b85FD66c7</title>
    <g id="0xB31f66AA3C1e785363F0875A1B74E27b85FD66c7" stroke="none" stroke-width="1" fill="none" fill-rule="evenodd">
        <g id="wavax" fill-rule="nonzero">
            <circle id="Oval" fill="#FFFFFF" cx="32" cy="32" r="32"></circle>
            <path d="M43.3,32.8 C44.4,30.9 46.2,30.9 47.3,32.8 L54.3,45 C55.3,46.9 54.4,48.4 52.2,48.4 L38.2,48.4 C36.1,48.4 35.2,46.9 36.2,45 L43.3,32.8 Z M29.9,9.5 C31,7.5 32.9,7.5 33.9,9.5 L35.5,12.3 L39.1,18.7 C40,20.3 40,22.9 39.1,24.4 L26.9,45.5 C25.8121374,47.2452548 23.951866,48.3614176 21.9,48.5 L12,48.5 C9.7,48.5 8.8,46.9 9.9,45 L29.9,9.5 Z" id="Shape" fill="#000000"></path>
        </g>
    </g>
</svg>