<?xml version="1.0" encoding="UTF-8"?>
<svg width="64px" height="64px" viewBox="0 0 64 64" version="1.1" xmlns="http://www.w3.org/2000/svg" xmlns:xlink="http://www.w3.org/1999/xlink">
    <title>0xc00e94cb662c3520282e6f5717214004a7f26888</title>
    <g id="0xc00e94cb662c3520282e6f5717214004a7f26888" stroke="none" stroke-width="1" fill="none" fill-rule="evenodd">
        <path d="M32,64 C49.6736,64 64,49.6736 64,32 C64,14.3264 49.6736,0 32,0 C14.3264,0 0,14.3264 0,32 C0,49.6736 14.3264,64 32,64 Z" id="Path" fill="#070A0E" fill-rule="nonzero"></path>
        <path d="M18.4864,42.7296 C17.5296,42.144 16.944,41.104 16.944,39.984 L16.944,33.7312 C16.944,32.9888 17.5488,32.3872 18.2912,32.3903873 C18.528,32.3903873 18.7616,32.4544 18.9664,32.5728 L33.0752,40.8 C33.9008,41.28 34.4096106,42.1632 34.4096106,43.12 L34.4096106,49.5968 C34.4128,50.4864 33.6928,51.2096 32.8032,51.2096 C32.5056,51.2096 32.2112,51.1264 31.9584,50.9728 L18.4864,42.7296 Z M39.5168,30.8608 C40.3424,31.3408 40.848,32.2272 40.8512,33.1808 L40.8512,46.3264 C40.8512,46.7136 40.6432,47.072 40.304,47.2608 L37.216,48.9984 C37.1776,49.0208 37.136,49.0368 37.0912,49.0496 L37.0912,41.7504 C37.0912,40.8064 36.5952,39.9296 35.7824,39.4432 L23.392,32.032 L23.392,23.792 C23.392,23.0496 23.9968,22.448 24.7392,22.4511873 C24.976,22.4511873 25.2096,22.5152 25.4144,22.6336 L39.5168,30.8608 Z M45.6928,21.152 C46.5216,21.632 47.0304,22.5184 47.0304,23.4752 L47.0304,42.6752 C47.0272,43.0688 46.8096,43.4304 46.464,43.6192 L43.536,45.2 L43.536,31.8336 C43.536,30.8896 43.04,30.016 42.2336,29.5296 L29.568,21.9328 L29.568,14.1184 C29.568,13.8816 29.632,13.648 29.7472,13.4432 C30.1216,12.8032 30.944,12.5856 31.584,12.9568 L45.6928,21.152 Z" id="Shape" fill="#00D395"></path>
    </g>
</svg>