<?xml version="1.0" encoding="UTF-8"?>
<svg width="64px" height="64px" viewBox="0 0 64 64" version="1.1" xmlns="http://www.w3.org/2000/svg" xmlns:xlink="http://www.w3.org/1999/xlink">
    <title>0xc011a73ee8576fb46f5e1c5751ca3b9fe0af2a6f</title>
    <defs>
        <linearGradient x1="50.0068771%" y1="-0.000289415656%" x2="50.0068771%" y2="26.4605706%" id="linearGradient-1">
            <stop stop-color="#090220" offset="0%"></stop>
            <stop stop-color="#170659" offset="100%"></stop>
        </linearGradient>
    </defs>
    <g id="0xc011a73ee8576fb46f5e1c5751ca3b9fe0af2a6f" stroke="none" stroke-width="1" fill="none" fill-rule="evenodd">
        <g id="synthetix-network-token-snx-logo" transform="translate(-0.000000, 0.000000)" fill-rule="nonzero">
            <circle id="Oval" fill="url(#linearGradient-1)" cx="32" cy="32" r="32"></circle>
            <g id="Group" transform="translate(11.598677, 17.330154)" fill="#00D1FF">
                <path d="M9.86108049,6.71394765 C9.60529217,6.39641733 9.21719956,6.2200116 8.80264609,6.2200116 L0.255788313,6.2200116 C0.18522602,6.2200116 0.123484013,6.19355074 0.0705622933,6.1494493 C0.02646086,6.10534787 -7.30519406e-16,6.05242615 -7.30519406e-16,5.99068414 L-7.30519406e-16,0.231036955 C-7.30519406e-16,0.169294949 0.02646086,0.116373229 0.0705622933,0.0722717953 C0.123484013,0.0193500754 0.18522602,-0.0071107846 0.255788313,0.00170950206 L9.28776185,0.00170950206 C11.5633958,0.00170950206 13.5303197,0.936659888 15.1885336,2.79774037 L17.384785,5.47910752 L13.106946,10.6918969 L9.86108049,6.71394765 Z M25.6493936,2.77127951 C27.2987872,0.927839601 29.2745314,0.00170950206 31.5766262,0.00170950206 L40.5821389,0.00170950206 C40.6438809,-0.0071107846 40.7056229,0.0193500754 40.7497244,0.054631222 C40.7938258,0.0987326553 40.8114664,0.160474662 40.8026461,0.231036955 L40.8026461,5.99068414 C40.8026461,6.05242615 40.7850055,6.10534787 40.7497244,6.1494493 C40.7056229,6.20237102 40.6438809,6.22883188 40.5821389,6.2200116 L32.0352811,6.2200116 C31.629548,6.21119131 31.2414553,6.39641733 30.9768467,6.71394765 L24.6791621,14.3787768 L31.0033076,22.0965276 C31.2590959,22.387597 31.6383682,22.5640028 32.0264609,22.5551825 L40.5733186,22.5551825 C40.6350606,22.5463622 40.7056229,22.5816433 40.7409041,22.6257448 C40.7761852,22.6786665 40.8026461,22.7492288 40.7938258,22.8109708 L40.7938258,28.570618 C40.7938258,28.63236 40.7761852,28.6852817 40.7409041,28.7293832 C40.6968026,28.7823049 40.6350606,28.8087657 40.5733186,28.7999454 L31.5766262,28.7999454 C29.2745314,28.7999454 27.3164278,27.8649951 25.6758545,26.0039146 L20.4366042,19.6092067 L15.1973539,26.0039146 C13.5479603,27.8649951 11.5722161,28.7999454 9.27012128,28.7999454 L0.255788313,28.7999454 C0.194046307,28.8087657 0.123484013,28.7734846 0.0882028666,28.7293832 C0.0441014333,28.6764614 0.02646086,28.6058991 0.0352811466,28.5441571 L0.0352811466,22.7845099 C0.0352811466,22.7227679 0.05292172,22.6698462 0.0882028666,22.6257448 C0.1323043,22.5728231 0.194046307,22.5463622 0.255788313,22.5551825 L8.80264609,22.5551825 C9.20837927,22.5551825 9.59647189,22.3699565 9.86108049,22.0612464 L16.0441014,14.5110811 L25.6493936,2.77127951 Z" id="Shape"></path>
            </g>
        </g>
    </g>
</svg>