<?xml version="1.0" encoding="UTF-8"?>
<svg width="64px" height="64px" viewBox="0 0 64 64" version="1.1" xmlns="http://www.w3.org/2000/svg" xmlns:xlink="http://www.w3.org/1999/xlink">
    <title>0xdac17f958d2ee523a2206206994597c13d831ec7</title>
    <g id="0xdac17f958d2ee523a2206206994597c13d831ec7" stroke="none" stroke-width="1" fill="none" fill-rule="evenodd">
        <g id="tether-usdt-logo" transform="translate(0.000000, 4.000000)">
            <path d="M11.7178158,0.27344503 L0.0479940173,24.7859161 C-0.0431555077,24.9730574 -0.0018874242,25.1977392 0.149815051,25.340275 L31.6671961,55.5415249 C31.8532089,55.7199115 32.1467911,55.7199115 32.3328039,55.5415249 L63.8501849,25.3421606 C64.0018874,25.1996247 64.0431555,24.974943 63.952006,24.7878016 L52.2821842,0.275330605 C52.2052698,0.107196055 52.0371645,0 51.8522732,0 L12.151498,0 C11.9656835,-0.00227502725 11.7958495,0.104794235 11.7178158,0.27344503 L11.7178158,0.27344503 Z" id="Path" fill="#50AF95"></path>
            <path d="M36.0492717,27.3031583 L36.0492717,27.3031583 C35.8230027,27.3201284 34.6539464,27.3898947 32.0461966,27.3898947 C29.9720644,27.3898947 28.4994306,27.3276707 27.9827831,27.3031583 L27.9827831,27.3031583 C19.9672051,26.9505558 13.9842766,25.5552305 13.9842766,23.8846114 C13.9842766,22.2139922 19.9672051,20.8205525 27.9827831,20.4622933 L27.9827831,25.9134897 C28.5069729,25.9512012 30.0078903,26.0398232 32.0820225,26.0398232 C34.5709811,26.0398232 35.817346,25.9361166 36.0417294,25.9153753 L36.0417294,20.4660644 C44.0403372,20.822438 50.0100667,22.2177633 50.0100667,23.8846114 C50.0100667,25.5514594 44.0422228,26.9467847 36.0417294,27.3012727 L36.0417294,27.3012727 L36.0492717,27.3031583 Z M36.0492717,19.9022776 L36.0492717,15.0242959 L47.2118738,15.0242959 L47.2118738,7.58570369 L16.8201809,7.58570369 L16.8201809,15.0242959 L27.9808975,15.0242959 L27.9808975,19.900392 C18.9093977,20.317104 12.0873884,22.1140567 12.0873884,24.267383 C12.0873884,26.4207093 18.9093977,28.2157764 27.9808975,28.634374 L27.9808975,44.2657882 L36.0473861,44.2657882 L36.0473861,28.6287173 C45.0981446,28.2120053 51.9088404,26.4169382 51.9088404,24.2654974 C51.9088404,22.1140567 45.1038013,20.3189896 36.0473861,19.900392 L36.0473861,19.900392 L36.0492717,19.9022776 Z" id="Shape" fill="#FFFFFF"></path>
        </g>
    </g>
</svg>