<?xml version="1.0" encoding="UTF-8"?>
<svg width="64px" height="64px" viewBox="0 0 64 64" version="1.1" xmlns="http://www.w3.org/2000/svg" xmlns:xlink="http://www.w3.org/1999/xlink">
    <title>img / logo / projects / bnb chain / 1INCH</title>
    <g id="img-/-logo-/-projects-/-bnb-chain-/-1INCH" stroke="none" stroke-width="1" fill="none" fill-rule="evenodd">
        <g id="logo_without_text" transform="translate(0.000000, 2.000000)" fill-rule="nonzero">
            <polygon id="Path" fill="#FFFFFF" points="15.2295359 33.1908357 16.9198358 20.4607647 2.23538858 10.2661435 15.6521109 14.8088244 18.8214232 9.94921227 30.389413 2.76541136 55.9024429 16.8160555 57.2229897 38.2617353 45.8662873 54.0554748 36.8865692 55.4288435 41.5348278 46.9245222 41.5348278 38.7371321 38.1542281 32.3456857 34.7208064 30.0743452 29.4386193 35.514998 29.4386193 41.272582 25.3185133 45.1285786 20.0891481 45.762441 17.7649857 47.0829878 13.961811 45.8680848 12.3771549 40.1633227 15.2295359 36.1488605"></polygon>
            <path d="M38.6825788,10.1604337 C35.8830197,9.57939314 32.8193511,9.73785876 32.8193511,9.73785876 C32.8193511,9.73785876 31.8157356,14.3861834 25.5827548,15.6010865 C25.6355766,15.6010865 33.8229667,18.4006457 38.6825788,10.1604337 Z" id="Path" fill="#94A6C3"></path>
            <path d="M41.2179626,52.3123531 C44.5985624,49.6712595 47.1340122,46.0265504 48.2960934,41.9064444 C48.3489153,41.7479788 48.8243121,41.4838695 49.1412433,41.272582 C49.6694621,40.9556507 50.1976808,40.6915414 50.3033245,40.2689664 C50.514612,39.0540634 50.6202557,37.7863385 50.6202557,36.5186136 C50.6202557,36.0432167 50.1448589,35.5678199 49.6694621,35.092423 C49.299709,34.7754918 48.9299559,34.4057387 48.9299559,34.1416293 C48.4017371,29.334839 46.1832185,24.84498 42.6441532,21.570024 L42.2744001,21.9397771 C45.7078217,25.1619112 47.9263403,29.5461265 48.4017371,34.1944512 C48.454559,34.6170262 48.877134,35.0396012 49.299709,35.4621761 C49.6694621,35.7791074 50.092037,36.2545042 50.092037,36.4657917 C50.092037,37.6806947 49.9863933,38.8955978 49.7751058,40.1105008 C49.7222839,40.3217883 49.2468871,40.5330758 48.877134,40.7443633 C48.3489153,41.0084726 47.8735184,41.272582 47.7678747,41.6951569 C46.5001498,46.185016 43.5949469,50.0938345 39.7389502,52.6292843 C40.4256346,51.1502719 42.5913313,46.3434816 43.7534125,43.9136755 L43.542125,36.0960386 L36.8337473,29.5989484 L33.0305726,30.1271671 L28.8576447,36.8883667 C28.8576447,36.8883667 30.812054,39.3709946 28.0653167,42.2761975 C25.3714012,45.1285786 23.2585264,45.762441 23.2585264,45.762441 L21.3041171,44.7060036 C21.8851577,43.9664974 23.0472389,42.8572381 23.9452107,42.1177319 C25.477045,40.850007 27.0088793,40.7443633 27.0088793,39.3709946 C27.0617011,36.5186136 23.9980326,37.3109416 23.9980326,37.3109416 L22.8887733,38.367379 L22.4133764,42.2761975 L20.0892141,45.1814005 L19.8251048,45.1285786 L16.02193,44.2834286 C16.02193,44.2834286 18.3460924,43.0685256 18.7158455,41.6951569 C19.0855986,40.3746102 17.9763393,35.9903948 17.9235174,35.7262855 C17.9763393,35.7791074 19.0327767,36.6770792 19.5081735,38.1560916 C20.3533235,35.8319292 21.4625828,33.6134106 21.779514,33.4021231 C22.0964452,33.1908357 26.3750168,30.9194952 26.3750168,30.9194952 L24.9488263,34.6698481 L26.0052637,34.0888075 L28.5407135,27.8558267 C28.5407135,27.8558267 31.0233415,26.6409236 32.872107,26.6409236 C36.1998849,26.5881017 41.1123189,22.5208176 38.8938003,15.2313994 C39.5276628,15.4955088 50.514612,20.9889834 52.4161994,31.7646451 C53.8423899,40.0576789 49.1412433,47.822494 41.2179626,52.3123531 Z" id="Path" fill="#94A6C3"></path>
            <path d="M28.6464233,11.3225809 C29.8613263,9.8963904 29.3859295,7.78351554 29.3859295,7.78351554 L25.8468641,13.0128808 C25.7940422,13.0128808 27.114589,13.0657027 28.6464233,11.3225809 Z" id="Path" fill="#1B314F"></path>
            <path d="M16.7614362,39.8993454 L17.1840112,37.7864705 C17.1840112,37.7864705 15.4408894,40.8501391 15.2824238,41.272714 C15.1239582,41.7481109 15.3880676,42.5932608 16.0747519,42.5404389 C16.7614362,42.4876171 17.6065862,41.4840015 17.6065862,40.7444953 C17.6065862,39.7937016 16.7614362,39.8993454 16.7614362,39.8993454 Z" id="Path" fill="#1B314F"></path>
            <path d="M48.1376278,6.30456917 C48.1376278,6.30456917 50.7787214,6.41021292 53.5254587,6.72714414 C47.3452997,1.86751878 41.482072,0.44132825 36.7281036,0.44132825 C30.1781915,0.44132825 25.7411543,3.13525689 25.477045,3.29372251 L27.537098,0.018753279 C27.537098,0.018753279 19.296886,-0.773574791 16.3916831,7.94204719 C15.6521769,6.09328169 14.9654926,3.39936625 14.9654926,3.39936625 C14.9654926,3.39936625 10.686921,7.14971912 12.6941521,13.3826999 C7.78171809,11.5867563 0.756409198,9.10412835 0.492299841,9.05130648 C0.122546742,8.99848461 0.0169029988,9.15695023 0.0169029988,9.15695023 C0.0169029988,9.15695023 -0.0887407438,9.31541584 0.228190484,9.5795252 C0.809231069,10.054922 11.901824,18.2423121 14.3316301,19.8269682 C13.8034114,21.7285556 13.8034114,22.6265274 14.3316301,23.5244992 C15.0711363,24.7394023 15.1239582,25.3732647 15.0183145,26.2712365 C14.9126707,27.1692084 13.961877,34.9340234 13.7505895,35.8848171 C13.5393021,36.8356108 11.3207835,40.2162106 11.4264272,41.2198261 C11.532071,42.2234417 12.9054396,46.5020133 14.1203426,46.9774101 C15.0183145,47.2943413 17.2368331,47.9810257 18.7158455,47.9810257 C19.2440642,47.9810257 19.719461,47.8753819 19.9307485,47.6640944 C20.8287203,46.8717664 21.0928297,46.7133007 21.7266921,46.7133007 C21.779514,46.7133007 21.8323359,46.7133007 21.8851577,46.7133007 C22.1492671,46.7133007 22.4661983,46.7661226 22.8359514,46.7661226 C23.6811014,46.7661226 24.7903607,46.607657 25.5826887,45.8681508 C26.7447699,44.7060696 28.752001,43.1214135 29.3858635,42.3819073 C30.1781915,41.3782917 30.6007665,40.0049231 30.389479,38.6315544 C30.2310134,37.3638295 30.9176977,36.2545702 31.7100258,35.1453109 C32.7136414,33.8247641 34.5624069,31.4477799 34.5624069,31.4477799 C38.207116,34.1945172 40.4784564,38.3674451 40.4784564,43.0157698 C40.4784564,51.2559817 33.2946819,57.9115375 24.4206076,57.9115375 C23.0472389,57.9115375 21.7266921,57.7530719 20.4061453,57.4361406 C24.4734294,58.8623312 27.9068511,59.337728 30.7064102,59.337728 C36.6752817,59.337728 39.844594,57.1720313 39.844594,57.1720313 C39.844594,57.1720313 38.7353347,58.5982218 36.9393911,60.2356998 C36.9922129,60.2356998 36.9922129,60.2356998 36.9922129,60.2356998 C46.8699029,58.8623312 51.6766932,50.727763 51.6766932,50.727763 C51.6766932,50.727763 51.3069401,53.3688565 50.8315432,55.1648002 C63.9841892,45.2871102 61.7656706,32.9267923 61.7128487,32.5042174 C61.8184925,32.662683 63.1390392,34.2473391 63.8257236,35.0924891 C65.9388625,13.3298781 48.1376278,6.30456917 48.1376278,6.30456917 Z M27.9068511,41.0613605 C27.6955636,41.3254699 26.7975918,42.1177979 26.1637293,42.6988385 C25.5298669,43.2798791 24.8431825,43.8609197 24.3149638,44.3891384 C24.1036763,44.6004259 23.6811014,44.7060696 23.0472389,44.7060696 C22.8359514,44.7060696 22.6246639,44.7060696 22.4661983,44.7060696 C22.3605546,44.7060696 22.2549108,44.7060696 22.1492671,44.7060696 C22.0436233,44.7060696 21.9908015,44.7060696 21.9379796,44.7060696 C21.779514,44.7060696 21.6210484,44.7060696 21.4625828,44.7060696 C22.2549108,43.6496322 24.5790732,41.2198261 25.3714012,40.6916074 C26.3221949,40.057745 26.7975918,39.4238825 26.2165512,38.3146232 C25.6355106,37.2053639 24.1036763,37.4694733 24.1036763,37.4694733 C24.1036763,37.4694733 25.0016481,37.0997202 25.7939762,37.0997202 C24.7903607,36.8356108 23.5226357,37.0997202 22.9415952,37.6807607 C22.3077327,38.2618013 22.4133764,40.3218543 22.1492671,41.6424011 C21.8851577,43.0157698 20.9871859,43.7024541 19.6138173,44.970179 C18.8743111,45.6568633 18.3460924,45.8681508 17.9235174,45.8681508 C17.0255456,45.7096852 15.9691081,45.4455758 15.2296019,45.1814665 C14.7013832,44.4947822 13.9090552,42.2234417 13.6977677,41.272648 C13.8562333,40.7444293 14.4900957,39.63517 14.807027,39.0013075 C15.4408894,37.7864045 15.8106425,37.0997202 15.9162863,36.4658577 C16.1275738,35.5678859 16.8142581,30.0215894 17.0783674,27.6974271 C17.7650518,28.5953989 18.7158455,30.0744113 18.504558,31.025205 C20.0363922,28.8595082 18.9271329,26.7466334 18.3989142,25.9014834 C17.9235174,25.0563335 17.2896549,23.3660336 17.8178736,21.57009 C18.3460924,19.7741464 20.2476797,14.8088905 20.2476797,14.8088905 C20.2476797,14.8088905 20.8815422,15.9181498 21.779514,15.7068623 C22.6774858,15.4955748 29.9140822,4.61426929 29.9140822,4.61426929 C29.9140822,4.61426929 31.8684914,8.89284087 29.8084384,12.0093313 C27.6955636,15.1258217 25.6355106,15.7068623 25.6355106,15.7068623 C25.6355106,15.7068623 28.5407135,16.235081 31.234629,14.2806717 C32.3438883,16.8689434 33.4003257,19.5628589 33.4531476,19.932612 C33.2946819,20.3023651 31.1818071,25.3732647 30.9705196,25.690196 C30.8648759,25.7958397 30.1253697,26.0071272 29.5971509,26.1127709 C28.6991791,26.3768803 28.1709604,26.5353459 27.9596729,26.6938115 C27.5899198,27.0107427 25.89962,31.6590674 25.1072919,33.9304079 C24.1564982,34.1945172 23.2057045,34.722736 22.5190202,35.7791734 C22.8887733,35.515064 24.0508545,35.3565984 24.8960044,35.2509547 C25.6355106,35.1981328 27.9068511,36.4130358 28.4878917,38.6843763 C28.4878917,38.7371982 28.4878917,38.7371982 28.4878917,38.79002 C28.5935354,39.63517 28.329426,40.4274981 27.9068511,41.0613605 Z M22.9415952,41.695223 C23.416992,41.0085386 23.3641701,39.8464575 23.416992,39.4767044 C23.4698139,39.1069513 23.5754576,38.4202669 23.9980326,38.3146232 C24.4206076,38.2089795 25.4242231,38.3674451 25.4242231,39.1069513 C25.4242231,39.7936356 24.6847169,39.9521012 24.1564982,40.4274981 C23.7867451,40.7972512 23.0472389,41.5895792 22.9415952,41.695223 Z M44.0175218,31.6062455 C44.5457405,28.9123301 44.5985624,26.5881678 44.4400968,24.6865804 C46.5001498,27.4333177 47.7678747,30.7610956 48.1376278,34.1945172 C48.1904497,34.6170922 48.6130246,35.0396672 49.0355996,35.4622422 C49.4053527,35.7791734 49.8279277,36.2017484 49.8279277,36.4658577 C49.8279277,37.6807607 49.7222839,38.8956638 49.5109964,40.1105668 C49.4581746,40.2690324 48.9827777,40.5331418 48.6130246,40.7444293 C48.0848059,41.0085386 47.6094091,41.272648 47.5037653,41.695223 C46.3416842,45.7625071 43.8590562,49.3543943 40.5312783,51.8898441 C45.4437123,46.7661226 47.8206966,38.3146232 44.0175218,31.6062455 Z M40.6897439,52.365241 C44.1231656,49.7241474 46.7642591,46.0266164 47.9263403,41.8536886 C47.9791622,41.695223 48.454559,41.4311136 48.7714902,41.2198261 C49.299709,40.9557168 49.8279277,40.6387855 49.9335714,40.2162106 C50.1448589,39.0013075 50.2505026,37.7335826 50.2505026,36.4658577 C50.2505026,35.9904609 49.7751058,35.515064 49.299709,35.0396672 C49.0355996,34.722736 48.6130246,34.3529829 48.6130246,34.0888735 C48.1904497,30.2328769 46.6586154,26.5881678 44.2816312,23.5773211 C43.2251938,17.2386965 38.999444,15.2842873 38.8938003,15.2314654 C38.999444,15.389931 41.7461814,19.3515714 39.844594,23.9998961 C37.8901847,28.7010426 32.872107,27.9615364 32.449532,28.0143583 C32.026957,28.0143583 30.389479,30.1272331 28.329426,34.0360516 C28.0653167,33.9304079 26.9560574,33.6662985 25.6883325,33.877586 C26.6391262,31.2364924 28.0653167,27.4861396 28.329426,27.1692084 C28.4350698,27.0635646 29.2273978,26.8522771 29.7556166,26.6938115 C30.7592321,26.4297022 31.234629,26.2712365 31.3930946,26.0599491 C31.4987383,25.9014834 32.026957,24.6865804 32.5551757,23.4188555 C33.0305726,23.4188555 34.2454756,23.3132117 34.3511194,23.2603899 C34.4567631,23.1547461 35.4603787,20.5664744 35.4603787,20.2495432 C35.4603787,19.9854339 33.4003257,14.8617123 32.6079976,12.9073031 C32.9777507,12.4847281 33.3475038,11.9565094 33.7172569,11.3754688 C44.5457405,12.53755 52.99724,21.7285556 52.99724,32.8739705 C52.99724,41.4311136 47.9791622,48.8789975 40.6897439,52.365241 Z" id="Shape" fill="#1B314F"></path>
            <path d="M26.6391262,23.8413644 C27.6427417,22.6792833 27.114523,20.5135865 25.2657575,20.1438334 C25.7411543,19.0345741 26.4278387,16.8160555 26.4278387,16.8160555 C26.4278387,16.8160555 21.0400078,25.267555 20.5646109,25.4260206 C20.0892141,25.5844862 19.6138173,23.7357867 19.6138173,23.7357867 C18.6102017,27.5917173 21.3041171,28.119936 21.6210484,26.905099 C23.1000608,26.5352799 25.6355106,24.9506237 26.6391262,23.8413644 Z" id="Path" fill="#1B314F"></path>
            <path d="M22.0435573,25.9015495 L24.7902946,21.2004029 C24.7902946,21.2004029 26.3749508,21.992731 25.5826227,23.2604559 C24.5790071,24.7394683 22.0435573,25.9015495 22.0435573,25.9015495 Z" id="Path" fill="#FFD923"></path>
            <path d="M56.0080866,47.6640944 C55.2157585,48.7205319 54.3177867,49.8297912 53.2613493,50.8862286 C60.0753707,37.7864045 53.5782805,25.7958397 53.3141712,25.3204429 C53.789568,25.7958397 54.2649649,26.3240584 54.6875398,26.7994553 C59.9169051,32.6098611 60.5507676,41.3254699 56.0080866,47.6640944 Z" id="Path" fill="#D82122"></path>
            <path d="M62.3467112,30.8138514 C59.969727,24.422405 56.5891272,18.9817523 49.1412433,14.0693182 C41.9574688,9.31534981 34.2454756,9.68510291 33.8229007,9.73792478 C33.7700788,9.73792478 33.7172569,9.73792478 33.7172569,9.73792478 C33.9813663,9.63228104 34.2454756,9.57945917 34.509585,9.5266373 C36.147063,8.99841858 38.2599378,8.57584361 40.3728127,8.31173426 C45.9719311,7.51940619 51.6238713,9.42099356 55.4798679,13.4882776 C55.5326898,13.5410995 55.5326898,13.5410995 55.5855116,13.5939214 C59.969727,18.2422461 62.2410674,24.0526519 62.3467112,30.8138514 Z" id="Path" fill="#D82122"></path>
            <path d="M47.4509435,4.66715719 C39.5804846,3.18814479 34.509585,3.92765099 30.8648759,5.30101965 C30.7592321,4.87844467 30.389479,4.03329473 30.0725478,3.34661041 C28.9632885,4.66715719 27.8012073,6.25181333 27.0617011,7.25542889 C25.05447,8.62879754 24.2093201,9.94934432 24.2093201,9.94934432 C25.3714012,5.98770397 28.752001,3.02967918 32.872107,2.29019279 C34.0341881,2.0789053 35.3019131,1.97326156 36.6752817,1.97326156 C40.3199908,2.02608343 43.9647,2.92403544 47.4509435,4.66715719 Z" id="Path" fill="#D82122"></path>
            <path d="M18.3461584,14.8089565 C12.1659994,14.597669 14.2260524,7.4138945 14.3316962,6.99131953 C14.3316962,7.0441414 14.7542711,12.6432598 18.3461584,14.8089565 Z" id="Path" fill="#D82122"></path>
            <path d="M24.4206076,1.86754519 C19.6666391,4.71991303 20.6174328,11.5339344 20.6174328,11.5339344 C16.0747519,4.61426929 24.0508545,2.0260108 24.4206076,1.86754519 Z" id="Path" fill="#D82122"></path>
            <path d="M16.6030366,16.7104778 C16.9199679,16.9745872 17.2368991,17.449984 16.867146,18.1366684 C16.6558585,18.5064215 16.3389273,18.4535996 15.8635304,18.2423121 C15.229668,17.9253809 11.4264932,15.7068623 7.9930716,13.4355218 C11.9018901,14.8088905 15.8635304,16.2879029 16.4973929,16.6048341 C16.4973929,16.6048341 16.5502148,16.657656 16.6030366,16.7104778 Z" id="Path" fill="#FFFFFF"></path>
        </g>
    </g>
</svg>