<?xml version="1.0" encoding="UTF-8"?>
<svg width="64px" height="64px" viewBox="0 0 64 64" version="1.1" xmlns="http://www.w3.org/2000/svg" xmlns:xlink="http://www.w3.org/1999/xlink">
    <title>img / logo / projects / 0x7Fc66500c84A76Ad7e9c93437bFc5Ac33E2DDaE9</title>
    <defs>
        <linearGradient x1="90.7%" y1="22.7%" x2="16.3%" y2="85.3%" id="linearGradient-1">
            <stop stop-color="#B6509E" offset="0%"></stop>
            <stop stop-color="#2EBAC6" offset="100%"></stop>
        </linearGradient>
    </defs>
    <g id="img-/-logo-/-projects-/-0x7Fc66500c84A76Ad7e9c93437bFc5Ac33E2DDaE9" stroke="none" stroke-width="1" fill="none" fill-rule="evenodd">
        <circle id="Oval" fill="url(#linearGradient-1)" fill-rule="nonzero" cx="32" cy="32" r="32"></circle>
        <path d="M46.5337305,45.266994 L35.8338236,19.3305049 C35.2291699,17.9902525 34.3353164,17.3333333 33.152263,17.3333333 L32.2059018,17.3333333 C31.0228484,17.3333333 30.1289949,17.9902525 29.5243412,19.3305049 L24.8713783,30.6303645 L21.3482272,30.6303645 C20.2925519,30.634459 19.4367642,31.4898894 19.4290879,32.5487025 L19.4290879,32.5749531 C19.4367642,33.6337663 20.2925519,34.4891967 21.3482272,34.4932911 L23.240705,34.4932911 L18.7980989,45.266994 C18.7140788,45.5033669 18.6696672,45.7520641 18.6666667,46.002992 C18.6666667,46.6074099 18.8506881,47.0804113 19.1924772,47.4483286 C19.5342664,47.8162458 20.0074062,48 20.6121414,48 C21.0091671,47.9945576 21.3947942,47.8660021 21.7160256,47.6319192 C22.0578147,47.3954185 22.2944254,47.0538336 22.4784468,46.6596658 L27.3683466,34.4928822 L30.7597393,34.4928822 C31.8154146,34.4887878 32.6712023,33.6333574 32.6788786,32.5745442 L32.6788786,32.5219613 C32.6712023,31.4631481 31.8154146,30.6077177 30.7597393,30.6036233 L28.9459414,30.6036233 L32.6790416,21.2750117 L42.8532195,46.6597476 C43.037241,47.0539154 43.2738517,47.3957456 43.6156408,47.632001 C43.9369627,47.866148 44.3227136,47.9947068 44.7198512,48 C45.3245048,48 45.7977261,47.816055 46.1395153,47.448165 C46.4813044,47.080166 46.6653258,46.6072464 46.6653258,46.0028284 C46.6752147,45.7508787 46.6303103,45.499789 46.5337305,45.266994 L46.5337305,45.266994 Z" id="Path" fill="#FFFFFF" fill-rule="nonzero"></path>
    </g>
</svg>