<?xml version="1.0" encoding="UTF-8"?>
<svg width="64px" height="64px" viewBox="0 0 64 64" version="1.1" xmlns="http://www.w3.org/2000/svg" xmlns:xlink="http://www.w3.org/1999/xlink">
    <title>img / logo / projects / bnb chain / ADA</title>
    <g id="img-/-logo-/-projects-/-bnb-chain-/-ADA" stroke="none" stroke-width="1" fill="none" fill-rule="evenodd">
        <circle id="Oval" fill="#FFFFFF" cx="32" cy="32" r="32"></circle>
        <g id="cardano-ada-logo" transform="translate(8.000000, 10.000000)" fill="#0033AD" fill-rule="nonzero">
            <path d="M13.158885,22.0169078 C13.0564896,23.7960282 14.4260283,25.3191601 16.2051487,25.4215555 C16.2691458,25.4215555 16.333143,25.4215555 16.3971401,25.4215555 C18.1890599,25.4215555 19.6353952,23.9752202 19.6225958,22.1833004 C19.6225958,20.3913805 18.1762605,18.9450452 16.3843407,18.9578446 C14.6692174,18.9578446 13.248481,20.3017845 13.158885,22.0169078 Z" id="Path"></path>
            <path d="M1.10182434,21.184945 C0.525850103,21.1465467 0.0266724334,21.5945267 0.00107357854,22.1705009 C-0.0245252763,22.7464752 0.410655256,23.2456528 0.98662949,23.2712517 C1.56260372,23.30965 2.04898197,22.86167 2.08738025,22.2856958 C2.12577853,21.7097215 1.67779857,21.2233433 1.10182434,21.184945 C1.10182434,21.184945 1.10182434,21.184945 1.10182434,21.184945 Z" id="Path"></path>
            <path d="M12.9540941,3.25294719 C13.4660712,2.99695864 13.6708621,2.35698727 13.4148735,1.84501017 C13.158885,1.33303308 12.5189136,1.12824224 12.0069365,1.38423079 C11.4949594,1.64021934 11.2901686,2.26739128 11.5461571,2.77936838 C11.8021457,3.3041449 12.4293176,3.52173517 12.9540941,3.25294719 C12.9412947,3.25294719 12.9540941,3.25294719 12.9540941,3.25294719 Z" id="Path"></path>
            <path d="M16.2307476,8.97429125 C17.0243121,8.577509 17.3442977,7.60475252 16.9475155,6.81118802 C16.5507332,6.01762352 15.5779768,5.69763783 14.7844123,6.09442008 C13.9908478,6.49120233 13.6708621,7.46395881 14.0676443,8.25752331 C14.4644266,9.05108782 15.4371831,9.3710735 16.2307476,8.97429125 Z" id="Path"></path>
            <path d="M5.19764111,12.9037155 C5.81201363,13.3004977 6.63117698,13.1341052 7.04075866,12.5197326 C7.43754091,11.9053601 7.27114836,11.0861968 6.65677584,10.6766151 C6.04240332,10.2798328 5.22323997,10.4462254 4.81365829,11.0605979 C4.81365829,11.0605979 4.81365829,11.0605979 4.81365829,11.0605979 C4.40407661,11.6749704 4.5832686,12.5069332 5.19764111,12.9037155 Z" id="Path"></path>
            <path d="M7.15595351,20.6089708 C6.25999359,20.5577731 5.50482737,21.2361427 5.45362966,22.1321026 C5.40243195,23.0280626 6.08080161,23.7832288 6.97676153,23.8344265 C7.87272144,23.8856242 8.62788766,23.2072545 8.67908537,22.3112946 C8.67908537,22.3112946 8.67908537,22.3112946 8.67908537,22.3112946 C8.73028308,21.4281341 8.05191343,20.6601685 7.15595351,20.6089708 Z" id="Path"></path>
            <path d="M5.3768331,31.4500858 C4.7240623,31.7828709 4.45527432,32.5764354 4.78805944,33.2420056 C5.12084455,33.8947764 5.91440905,34.1635644 6.57997927,33.8307793 C7.23275007,33.4979942 7.50153805,32.7044297 7.16875294,32.0388595 C7.16875294,32.0388595 7.16875294,32.0388595 7.16875294,32.0388595 C6.83596782,31.3860887 6.0296039,31.1173007 5.3768331,31.4500858 C5.3768331,31.4500858 5.3768331,31.4500858 5.3768331,31.4500858 Z" id="Path"></path>
            <path d="M11.6485525,17.2683202 C12.531713,17.8442945 13.7092604,17.6011053 14.2724352,16.7179448 C14.8484094,15.8347844 14.6052203,14.657237 13.7220598,14.0940622 C12.8388993,13.518088 11.661352,13.7612771 11.0981772,14.6444376 C10.5222029,15.5147987 10.765392,16.692346 11.6485525,17.2683202 C11.6485525,17.2683202 11.6485525,17.2683202 11.6485525,17.2683202 Z" id="Path"></path>
            <path d="M31.5516622,8.84629698 C32.294029,9.33267522 33.3051837,9.12788438 33.791562,8.38551759 C34.2779402,7.6431508 34.0731494,6.63199603 33.3307826,6.14561779 C32.5884158,5.65923955 31.577261,5.86403039 31.0908828,6.60639718 C31.0908828,6.60639718 31.0908828,6.60639718 31.0908828,6.60639718 C30.5917051,7.3615634 30.796496,8.35991873 31.5516622,8.84629698 C31.5516622,8.84629698 31.5516622,8.84629698 31.5516622,8.84629698 Z" id="Path"></path>
            <path d="M34.8539145,3.15055177 C35.3402927,3.47053746 35.9802641,3.32974376 36.3002498,2.84336551 C36.6202354,2.35698727 36.4794417,1.7170159 35.9930635,1.39703022 C35.5066853,1.07704453 34.8667139,1.21783823 34.5467282,1.69141705 C34.2395419,2.17779529 34.3803356,2.83056609 34.8539145,3.15055177 C34.8539145,3.15055177 34.8539145,3.15055177 34.8539145,3.15055177 Z" id="Path"></path>
            <path d="M31.7948513,18.9322458 C30.0157309,18.8298504 28.4797996,20.1993891 28.3902036,21.9785095 C28.2878082,23.7576299 29.6573469,25.2935612 31.4364673,25.3831572 C31.5004645,25.3831572 31.5644616,25.3831572 31.6156593,25.3831572 C33.3947797,25.3831572 34.841115,23.9368219 34.841115,22.1449021 C34.8539145,20.4425782 33.5099746,19.0218418 31.7948513,18.9322458 L31.7948513,18.9322458 Z" id="Path"></path>
            <path d="M17.2931,17.0379305 C17.8434754,18.1258819 18.9570256,18.8170509 20.1857706,18.8170509 C21.964891,18.8170509 23.4112263,17.3707156 23.4112263,15.5787958 C23.4112263,15.0796181 23.2960315,14.5804405 23.0656418,14.1196611 C22.2592779,12.5197326 20.3137649,11.8797613 18.7266359,12.6861252 C17.1267075,13.5052886 16.4867361,15.4508015 17.2931,17.0379305 L17.2931,17.0379305 Z" id="Path"></path>
            <path d="M42.6231669,12.9037155 C43.2759377,12.5709304 43.5319263,11.7645664 43.1991411,11.1117956 C42.866356,10.4590248 42.0599921,10.2030363 41.4072213,10.5358214 C40.7544505,10.8686065 40.498462,11.662171 40.8184476,12.3149418 C41.1640322,12.9677126 41.9575967,13.2365006 42.6231669,12.9037155 C42.6231669,12.9037155 42.6231669,12.9037155 42.6231669,12.9037155 Z" id="Path"></path>
            <path d="M34.4315334,13.9276697 C33.4971751,14.4012485 33.1131923,15.5403975 33.5867711,16.4747557 C34.06035,17.4091139 35.199499,17.7930967 36.1338572,17.3195179 C37.0682154,16.8459391 37.4521982,15.7067901 36.9786194,14.7724319 C36.5050406,13.8380737 35.3658916,13.4668903 34.4315334,13.9276697 Z" id="Path"></path>
            <path d="M23.8720057,2.66417353 C24.6015731,2.70257181 25.228745,2.13939701 25.2799427,1.40982964 C25.3311405,0.680262279 24.7551662,0.0530903355 24.0255989,0.00189262581 C23.2960315,-0.0365056565 22.6688595,0.513869723 22.6176618,1.24343709 C22.5792636,1.98580388 23.1424384,2.61297582 23.8720057,2.66417353 C23.8720057,2.66417353 23.8720057,2.66417353 23.8720057,2.66417353 Z" id="Path"></path>
            <path d="M23.8592063,11.0221996 C24.9087593,11.0861968 25.8047193,10.2798328 25.855917,9.2302798 C25.9199141,8.18072675 25.1135502,7.28476683 24.0639971,7.23356912 C23.0144441,7.16957198 22.1184842,7.97593591 22.0672865,9.02548896 C22.0160887,10.075042 22.8096532,10.9710019 23.8592063,11.0221996 C23.8592063,11.0221996 23.8592063,11.0221996 23.8592063,11.0221996 Z" id="Path"></path>
            <path d="M13.5684666,30.4261316 C14.5028249,29.9525528 14.8868077,28.8134038 14.4132289,27.8790456 C13.93965,26.9446874 12.800501,26.5607045 11.8661428,27.0342833 C10.9317846,27.5078622 10.5478018,28.6470112 11.0213806,29.5813694 C11.4949594,30.5157276 12.6341084,30.8997104 13.5684666,30.4261316 Z" id="Path"></path>
            <path d="M25.0879513,13.7996754 C24.1151948,15.2972084 24.5247765,17.2939191 26.0223095,18.2666756 C27.5198425,19.239432 29.5165532,18.8298504 30.4893097,17.3323174 C31.4620662,15.8347844 31.0524845,13.8380737 29.5549515,12.8653172 C29.030175,12.5197326 28.4158025,12.3405407 27.7886305,12.3405407 C26.7006792,12.3405407 25.6895244,12.890916 25.0879513,13.7996754 Z" id="Path"></path>
            <path d="M30.7069,27.3158708 C29.900536,25.7159423 27.9550231,25.075971 26.3678941,25.8823349 C24.7679656,26.6886988 24.1279943,28.6342118 24.9343582,30.2213408 C25.7407221,31.8212692 27.6862351,32.4612406 29.2733641,31.6548766 C29.2733641,31.6548766 29.2733641,31.6548766 29.2733641,31.6548766 C30.8604931,30.8613121 31.5132639,28.941398 30.7196994,27.3414696 C30.7196994,27.3286702 30.7196994,27.3286702 30.7069,27.3158708 Z" id="Path"></path>
            <path d="M36.3514475,27.0854811 C35.468287,26.5095068 34.2907396,26.7526959 33.7275648,27.6358564 C33.1515906,28.5190169 33.3947797,29.6965643 34.2779402,30.2597391 C35.1611007,30.8357133 36.338648,30.5925242 36.9018228,29.7093637 C37.4777971,28.8390026 37.234608,27.6614553 36.3514475,27.0854811 C36.3514475,27.0854811 36.3514475,27.0854811 36.3514475,27.0854811 Z" id="Path"></path>
            <path d="M42.5463703,22.2344981 C42.597568,21.3385381 41.9191984,20.5833719 41.0232385,20.5321742 C40.1272786,20.4809765 39.3721123,21.1593462 39.3209146,22.0553061 C39.2697169,22.951266 39.9480866,23.7064322 40.8440465,23.7576299 C40.8440465,23.7576299 40.8440465,23.7576299 40.8440465,23.7576299 C41.727207,23.8088276 42.4951726,23.1176586 42.5463703,22.2344981 Z" id="Path"></path>
            <path d="M47.0133705,21.0825496 C46.4373963,21.0441513 45.9382186,21.4921313 45.9126198,22.0681055 C45.8870209,22.6440797 46.3222014,23.1432574 46.8981757,23.1688563 C47.4741499,23.2072545 47.9605281,22.7592746 47.9989264,22.1833004 C48.0245253,21.6073261 47.5893447,21.1209479 47.0133705,21.0825496 Z" id="Path"></path>
            <path d="M42.8023589,31.4500858 C42.1879864,31.0533036 41.368823,31.2196961 40.9592413,31.8340686 C40.5624591,32.4484411 40.7288516,33.2676045 41.3432242,33.6771862 C41.9575967,34.0739684 42.77676,33.9075759 43.1863417,33.2932034 C43.5959234,32.6788308 43.4167314,31.8468681 42.8023589,31.4500858 C42.8023589,31.4500858 42.8023589,31.4500858 42.8023589,31.4500858 Z" id="Path"></path>
            <path d="M13.1332861,41.2032495 C12.6469079,40.8832638 12.0069365,41.0240575 11.6869508,41.4976363 C11.3669651,41.9840146 11.5077588,42.623986 11.9813376,42.9439716 C12.4677159,43.2639573 13.1076873,43.1231636 13.4276729,42.6495848 C13.4276729,42.6495848 13.4276729,42.6495848 13.4276729,42.6495848 C13.7604581,42.176006 13.6196644,41.5232352 13.1332861,41.2032495 Z" id="Path"></path>
            <path d="M35.0459059,41.1008541 C34.5339288,41.3568426 34.3291379,41.996814 34.5851265,42.5087911 C34.841115,43.0207682 35.4810864,43.225559 35.9930635,42.9695705 C36.5050406,42.7135819 36.7098314,42.08641 36.4538429,41.5744329 C36.1978543,41.0496564 35.5706824,40.8320661 35.0459059,41.1008541 C35.0587053,41.1008541 35.0459059,41.1008541 35.0459059,41.1008541 Z" id="Path"></path>
            <path d="M22.9120487,30.5541259 C23.8848052,29.0565929 23.4752235,27.0598822 21.9776905,26.0743263 C20.4801575,25.1015698 18.4834468,25.5111515 17.4978909,27.0086845 C16.512335,28.5062175 16.9347161,30.5029282 18.4322491,31.4884841 C18.9570256,31.8340686 19.5713981,32.0132606 20.1985701,32.0132606 C21.2993208,32.02606 22.3104756,31.4756847 22.9120487,30.5541259 Z" id="Path"></path>
            <path d="M16.4483378,35.5075043 C15.705971,35.0211261 14.6948163,35.2259169 14.208438,35.9682837 C13.7220598,36.7106505 13.9268506,37.7218052 14.6692174,38.2081835 C15.4115842,38.6945617 16.422739,38.4897709 16.9091172,37.7474041 C16.9091172,37.7474041 16.9091172,37.7474041 16.9091172,37.7474041 C17.4082949,37.0050373 17.203504,35.9938825 16.4483378,35.5075043 Z" id="Path"></path>
            <path d="M23.9872006,41.6896277 C23.2576332,41.6512295 22.6304613,42.2144043 22.5792636,42.9439716 C22.5280658,43.673539 23.1040401,44.3007109 23.8336074,44.3519087 C24.5631748,44.3903069 25.1903468,43.8399316 25.2415445,43.1103642 C25.2799427,42.3679974 24.7167679,41.7408255 23.9872006,41.6896277 C23.9872006,41.6896277 23.9872006,41.6896277 23.9872006,41.6896277 Z" id="Path"></path>
            <path d="M24,33.3316016 C22.950447,33.2676045 22.054487,34.0739684 22.0032893,35.1235215 C21.9392922,36.1730745 22.7456561,37.0690344 23.7952092,37.1202322 C24.8447622,37.1714299 25.7407221,36.3778654 25.7919198,35.3283123 C25.855917,34.2915587 25.049553,33.3827993 24,33.3316016 C24,33.3316016 24,33.3316016 24,33.3316016 Z" id="Path"></path>
            <path d="M31.7692524,35.37951 C30.9756879,35.7890917 30.6557023,36.7618482 31.0652839,37.5554127 C31.4748656,38.3489772 32.4476221,38.6689629 33.2411866,38.2593812 C34.0347511,37.8625989 34.3547368,36.8898425 33.9579545,36.096278 C33.5483729,35.3027135 32.5756164,34.9699284 31.7692524,35.37951 C31.7692524,35.37951 31.7692524,35.37951 31.7692524,35.37951 Z" id="Path"></path>
        </g>
    </g>
</svg>