<?xml version="1.0" encoding="UTF-8"?>
<svg width="64px" height="64px" viewBox="0 0 64 64" version="1.1" xmlns="http://www.w3.org/2000/svg" xmlns:xlink="http://www.w3.org/1999/xlink">
    <title>img / logo / projects / bnb chain / ANKR</title>
    <g id="img-/-logo-/-projects-/-bnb-chain-/-ANKR" stroke="none" stroke-width="1" fill="none" fill-rule="evenodd">
        <circle id="Oval" fill="#FFFFFF" cx="32" cy="32" r="32"></circle>
        <g id="Ankr_Blue-Symbol" transform="translate(9.000000, 8.000000)" fill="#356DF3">
            <path d="M25.6751165,0.75120997 L41.4004131,8.80916987 C43.6900327,9.98299099 45.1125645,12.3085766 45.1125645,14.8784894 L45.1125645,18.5526302 L39.3141673,18.5526302 L39.3141673,14.8784894 C39.3141673,14.4904684 39.0985571,14.1385529 38.7523726,13.9609687 L23.0280053,5.9034348 C22.7333999,5.75277095 22.3808648,5.7522753 22.0851752,5.90394594 L6.35989405,13.9609687 C6.01401931,14.1385529 5.79899767,14.4904684 5.79899767,14.8784894 L5.79899767,18.5526302 L8.1901745e-16,18.5526302 L8.1901745e-16,14.8784894 C8.1901745e-16,12.3085766 1.42254836,9.98299099 3.71177603,8.80916987 L19.438064,0.75120997 C21.3904828,-0.250403323 23.7213037,-0.250403323 25.6751165,0.75120997 Z M27.5180263,23.7553112 C27.5180263,21.0216152 25.2912931,18.7987542 22.5544992,18.7987542 C19.8177053,18.7987542 17.5911269,21.0216152 17.5911269,23.7553112 C17.5911269,26.4877682 19.8177053,28.7117133 22.5544992,28.7117133 C25.2912931,28.7117133 27.5180263,26.4877682 27.5180263,23.7553112 Z M38.7534568,34.0395474 C39.098712,33.8621956 39.3143222,33.5108997 39.3143222,33.1224295 L39.3143222,29.4479169 L45.1127194,29.4479169 L45.1127194,33.1224295 C45.1127194,35.6924043 43.6901876,38.0179589 41.4016523,39.1912689 L25.6752714,47.2492365 C24.7174168,47.7397808 23.638746,48 22.5565128,48 C21.4747442,48 20.3956088,47.7397808 19.4375993,47.2492365 L3.71241109,39.1912689 C1.42269086,38.0179589 0.000140155509,35.6924043 0.000140155509,33.1224295 L0.000140155509,29.4479169 L5.79862593,29.4479169 L5.79862593,33.1224295 C5.79862593,33.5108997 6.01415871,33.8621956 6.36052911,34.0395474 L19.6573916,40.8531095 L19.6573916,34.1025886 C15.1274393,32.8351041 11.7941083,28.6774821 11.7941083,23.7551563 C11.7941083,17.8289729 16.6222749,13.0075905 22.5565128,13.0075905 C28.4907507,13.0075905 33.3189019,17.8289729 33.3189019,23.7551563 C33.3189019,28.6774821 29.9854624,32.8351041 25.4557889,34.1025886 L25.4557889,40.8535742 L38.7534568,34.0395474 Z" id="Shape"></path>
        </g>
    </g>
</svg>