<?xml version="1.0" encoding="UTF-8"?>
<svg width="64px" height="64px" viewBox="0 0 64 64" version="1.1" xmlns="http://www.w3.org/2000/svg" xmlns:xlink="http://www.w3.org/1999/xlink">
    <title>img / logo / projects / bnb chain / ATOM</title>
    <g id="img-/-logo-/-projects-/-bnb-chain-/-ATOM" stroke="none" stroke-width="1" fill="none" fill-rule="evenodd">
        <g id="cosmos-brandmark-dark" transform="translate(-0.000000, -0.000000)">
            <path d="M31.9999048,-3.55953742e-15 C49.6729721,-3.55953742e-15 64,14.3268375 64,31.9999048 C64,49.6729721 49.6729721,64 31.9999048,64 C14.3268375,64 -3.55953742e-15,49.6729721 -3.55953742e-15,31.9999048 C-3.55953742e-15,14.3268375 14.3268375,-3.55953742e-15 31.9999048,-3.55953742e-15 Z" id="Path" fill="#171717"></path>
            <path d="M31.9383493,13.5383885 C42.1343328,13.5383885 50.3998656,21.8039213 50.3998656,31.9999048 C50.3998656,42.1958883 42.1343328,50.4614211 31.9383493,50.4614211 C21.7423658,50.4614211 13.476833,42.1958883 13.476833,31.9999048 C13.476833,21.8039213 21.7423658,13.5383885 31.9383493,13.5383885 Z" id="Path" fill="#000000"></path>
            <path d="M32.5025559,5.47339642 C32.2483185,5.23946046 32.1171295,5.23503322 32.0950873,5.23503322 C32.073045,5.23503322 31.941856,5.23946046 31.6876813,5.47339642 C31.4267435,5.71353177 31.1148331,6.12785729 30.7787513,6.76715785 C30.1079028,8.0431665 29.4659221,9.97186387 28.9124861,12.4605097 C28.2902308,15.2591247 27.7985382,18.6798073 27.4883185,22.5089604 C28.9866283,23.2339753 30.5273945,24.0221111 32.0947116,24.868421 C33.6622791,24.0219859 35.2032958,23.2337248 36.7018561,22.5085847 C36.3916364,18.6796194 35.8999438,15.2590621 35.2776884,12.4605097 C34.7243151,9.97186387 34.0822718,8.0431665 33.4114859,6.76715785 C33.0754041,6.12785729 32.7634936,5.71353177 32.5025559,5.47339642 Z M30.7833852,25.5867356 C29.6323662,24.9751256 28.4983798,24.396579 27.3880638,23.853037 C27.3039024,25.0857752 27.2383392,26.3564612 27.1928145,27.6584571 C27.7800653,27.306783 28.375895,26.9564864 28.9797401,26.6080685 C29.5835852,26.2596506 30.1850507,25.9191228 30.7833852,25.5867356 Z M26.2795011,21.9334196 C27.178725,11.4332279 29.4434415,3.98263233 32.0950873,3.98263233 C34.7467331,3.98263233 37.0114496,11.43304 37.9106734,21.9331065 C47.4591031,17.4614717 55.0475879,15.6964631 56.3734422,17.9914251 C57.6992337,20.2863871 52.3753402,25.971661 43.7260717,31.9999048 C52.3753402,38.0281486 57.6992337,43.7134225 56.3734422,46.0083845 C55.0475879,48.3033465 47.4591031,46.5383379 37.9106734,42.0667032 C37.0114496,52.5667696 34.7467331,60.0171773 32.0950873,60.0171773 C29.4434415,60.0171773 27.178725,52.5665818 26.2795011,42.0663901 C16.7307584,46.5382127 9.14183518,48.3034091 7.81598098,46.0083845 C6.49012678,43.7134225 11.8140203,38.0281486 20.4633514,31.9999048 C11.8140203,25.971661 6.49012678,20.2864498 7.81598098,17.9914251 C9.14183518,15.6964005 16.7307584,17.4615969 26.2795011,21.9334196 Z M21.566967,31.2412004 C18.4035903,29.0579525 15.684941,26.9218575 13.5707631,24.9838298 C11.6907841,23.2605262 10.3404455,21.7404246 9.57003105,20.5218385 C9.18410371,19.9112931 8.98108953,19.434191 8.90350329,19.0884657 C8.8279209,18.7517577 8.88966426,18.6364742 8.90043491,18.6179387 L8.90043491,18.6179387 C8.91120556,18.5992153 8.98052595,18.4878768 9.31047096,18.3848042 C9.64918278,18.2789764 10.1643579,18.2161685 10.8865549,18.2449111 C12.3279431,18.3023336 14.3205129,18.7110547 16.7538652,19.4764595 C19.4902985,20.3372346 22.7004525,21.6220101 26.1737985,23.2681032 C26.0529418,24.927096 25.9655868,26.65447 25.9153029,28.4338185 C24.3980193,29.3672955 22.9445454,30.3067841 21.566967,31.2412004 Z M21.566967,32.7586093 C18.4035903,34.9418571 15.684941,37.0779521 13.5707631,39.0159799 C11.6907841,40.7392835 10.3404455,42.2593851 9.57003105,43.4779711 C9.18410371,44.0885166 8.98108953,44.5656187 8.90350329,44.9113439 C8.8279209,45.2480519 8.88966426,45.3633354 8.90043491,45.381871 C8.91114294,45.4005317 8.98040071,45.5118702 9.31047096,45.6150054 C9.64918278,45.7208333 10.1643579,45.7836412 10.8865549,45.7548986 C12.3279431,45.6974134 14.3205129,45.288755 16.7538652,44.5232875 C19.4902985,43.662575 22.7004525,42.3777996 26.1737985,40.7317065 C26.0529418,39.072651 25.9655868,37.3453397 25.9153029,35.5659285 C24.3980193,34.6325141 22.9445454,33.6930256 21.566967,32.7586093 Z M25.8821143,34.0719395 C24.7763696,33.3814282 23.7078838,32.6892263 22.6814786,31.9999048 C23.7078838,31.3105834 24.7763696,30.6183814 25.8821143,29.9278702 C25.870968,30.6120568 25.8653322,31.3030063 25.8653322,31.9999048 C25.8653322,32.6968033 25.870968,33.3877529 25.8821143,34.0719395 Z M27.1499197,34.852874 C27.1286289,33.9155146 27.117733,32.9637525 27.117733,31.9999048 C27.117733,31.0360571 27.1286289,30.084295 27.1499197,29.1469356 C27.9514563,28.6598769 28.7705891,28.1746342 29.6056274,27.6928355 C30.441104,27.2107864 31.2715711,26.7442671 32.0947116,26.2939037 C32.9178521,26.7442671 33.7483191,27.2107864 34.5837331,27.6928355 C35.4190845,28.174822 36.2385304,28.6602526 37.0402548,29.1474365 C37.0615456,30.0846081 37.0725041,31.036245 37.0725041,31.9999048 C37.0725041,32.9635647 37.0615456,33.9152015 37.0402548,34.8523731 C36.2385304,35.339557 35.4190845,35.8249876 34.5837331,36.3069741 C33.7483191,36.7890232 32.9178521,37.2555425 32.0947116,37.7059059 C31.2715711,37.2555425 30.441104,36.7890232 29.60569,36.3069741 C28.7705891,35.8251755 27.9514563,35.3399328 27.1499197,34.852874 Z M27.1928145,36.3413525 C27.2383392,37.6433485 27.3039024,38.9140344 27.3880638,40.1467726 C28.4983798,39.6032306 29.6323662,39.0246214 30.7833852,38.4130741 C30.1850507,38.0806869 29.5835852,37.7401591 28.9797401,37.3917411 C28.375895,37.0433232 27.7800653,36.6930267 27.1928145,36.3413525 Z M32.0947116,39.1313886 C30.5273945,39.9776985 28.9866283,40.7658344 27.4883185,41.4907866 C27.7985382,45.3200024 28.2902308,48.7406849 28.9124861,51.5392373 C29.4659221,54.0279458 30.1079028,55.9566431 30.7787513,57.2326518 C31.1148331,57.8719398 31.4267435,58.2862967 31.6876813,58.5263819 C31.941856,58.7603304 32.073045,58.7647764 32.0950873,58.7647764 C32.1171295,58.7647764 32.2483185,58.7603304 32.5025559,58.5263819 C32.7634936,58.2862967 33.0754041,57.8719398 33.4114859,57.2326518 C34.0822718,55.9566431 34.7243151,54.0279458 35.2776884,51.5392373 C35.8999438,48.7407475 36.3916364,45.3201902 36.7018561,41.4911624 C35.2032958,40.7660849 33.6622791,39.9778237 32.0947116,39.1313886 Z M38.0163761,40.7320822 C41.489409,42.3779874 44.6993125,43.6626376 47.4354953,44.5232875 C49.8689103,45.288755 51.8614801,45.6974134 53.3028683,45.7548986 C54.0250026,45.7836412 54.5401777,45.7208333 54.8789522,45.6150054 C55.2090224,45.5118702 55.2782176,45.4005317 55.2889882,45.381871 C55.2996962,45.3633981 55.3615022,45.2481772 55.2859198,44.9113439 C55.2083336,44.5656187 55.0053194,44.0885166 54.6193295,43.4779711 C53.8489777,42.2593851 52.498639,40.7392835 50.6186601,39.0159799 C48.5044821,37.0779521 45.7858329,34.9418571 42.6224561,32.7586093 C41.2451282,33.6928377 39.7918422,34.632201 38.2749342,35.5654275 C38.2246503,37.3451518 38.1372954,39.0727762 38.0163761,40.7320822 Z M42.6224561,31.2412004 C45.7858329,29.0579525 48.5044821,26.9218575 50.6186601,24.9838298 C52.498639,23.2605262 53.8489777,21.7404246 54.6193295,20.5218385 C55.0053194,19.9112931 55.2083336,19.434191 55.2859198,19.0884657 C55.3615022,18.7516325 55.2996962,18.6364116 55.2889882,18.6179387 C55.2782176,18.5992779 55.2090224,18.4879395 54.8789522,18.3848042 C54.5401777,18.2789764 54.0250026,18.2161685 53.3028683,18.2449111 C51.8614801,18.3023336 49.8689103,18.7110547 47.4354953,19.4764595 C44.6993125,20.337172 41.489409,21.6218222 38.0163761,23.2677275 C38.1372954,24.9270334 38.2246503,26.6546578 38.2749342,28.4343195 C39.7918422,29.3676086 41.2451282,30.3069719 42.6224561,31.2412004 Z M38.3081229,29.9283711 C39.4135545,30.6186945 40.4817899,31.3107712 41.5078819,31.9999048 C40.4817899,32.6890384 39.4135545,33.3811151 38.3081229,34.0714385 C38.3192066,33.3874398 38.324905,32.6966154 38.324905,31.9999048 C38.324905,31.3031942 38.3192066,30.6123699 38.3081229,29.9283711 Z M36.9974227,27.6589581 C36.9518979,26.356649 36.8862721,25.0857126 36.8021108,23.8526613 C35.6915443,24.3963285 34.5573074,24.9750004 33.4060379,25.5867356 C34.0043724,25.9191228 34.605838,26.2596506 35.2096204,26.6080685 C35.8137786,26.9566117 36.4099215,27.3070961 36.9974227,27.6589581 Z M36.8021108,40.1471483 C35.6915443,39.6034811 34.5573074,39.0248093 33.4060379,38.4130741 C34.0043724,38.0806869 34.605838,37.7401591 35.2096204,37.3917411 C35.8137786,37.043198 36.4099215,36.6927136 36.9974227,36.3408515 C36.9518979,37.6431606 36.8862721,38.914097 36.8021108,40.1471483 Z" id="Shape" fill="#FFFFFF" opacity="0.67"></path>
            <path d="M14.1874453,24.1538011 C15.2755938,24.1538011 16.1576597,25.0363054 16.1576597,26.1248922 C16.1576597,27.2135417 15.2755938,28.096046 14.1874453,28.096046 C13.0993594,28.096046 12.2172934,27.2135417 12.2172934,26.1248922 C12.2172934,25.0363054 13.0993594,24.1538011 14.1874453,24.1538011 Z" id="Path" fill="#FFFFFF"></path>
            <path d="M45.4999097,17.4037986 C46.5884966,17.4037986 47.4710635,18.2863029 47.4710635,19.3749524 C47.4710635,20.4636019 46.5884966,21.3461062 45.4999097,21.3461062 C44.4112603,21.3461062 43.528756,20.4636019 43.528756,19.3749524 C43.528756,18.2863029 44.4112603,17.4037986 45.4999097,17.4037986 Z" id="Path" fill="#FFFFFF"></path>
            <path d="M28.1249138,48.342171 C29.2135633,48.342171 30.0960676,49.2242369 30.0960676,50.3123854 C30.0960676,51.4004713 29.2135633,52.2825373 28.1249138,52.2825373 C27.0362644,52.2825373 26.1537601,51.4004713 26.1537601,50.3123854 C26.1537601,49.2242369 27.0362644,48.342171 28.1249138,48.342171 Z" id="Path" fill="#FFFFFF"></path>
            <path d="M31.9853143,28.6480417 C33.8284101,28.6480417 35.3225244,30.1422186 35.3225244,31.9853143 C35.3225244,33.8284101 33.8284101,35.3225244 31.9853143,35.3225244 C30.1422186,35.3225244 28.6480417,33.8284101 28.6480417,31.9853143 C28.6480417,30.1422186 30.1422186,28.6480417 31.9853143,28.6480417 Z" id="Path" fill="#FFFFFF"></path>
        </g>
    </g>
</svg>