<?xml version="1.0" encoding="UTF-8"?>
<svg width="64px" height="64px" viewBox="0 0 64 64" version="1.1" xmlns="http://www.w3.org/2000/svg" xmlns:xlink="http://www.w3.org/1999/xlink">
    <title>img / logo / projects / bnb chain / AVAX</title>
    <g id="img-/-logo-/-projects-/-bnb-chain-/-AVAX" stroke="none" stroke-width="1" fill="none" fill-rule="evenodd">
        <g id="avalanche-avax-logo">
            <rect id="Rectangle" fill="#FFFFFF" fill-rule="nonzero" x="12.207723" y="10.9507324" width="39.5419441" height="35.9627164"></rect>
            <path d="M64,32 C64,49.6732889 49.6732889,64 32,64 C14.3268815,64 0,49.6732889 0,32 C0,14.3268815 14.3268815,0 32,0 C49.6732889,0 64,14.3268815 64,32 Z M22.9321119,44.7343808 L16.7218109,44.7343808 C15.4168415,44.7343808 14.7722397,44.7343808 14.3792064,44.4829827 C13.9546844,44.207723 13.6952756,43.7517976 13.6638296,43.2485752 C13.6402237,42.78498 13.9625672,42.2187803 14.6071691,41.0867643 L29.9411771,14.058482 C30.5936618,12.910743 30.9238029,12.3368735 31.3404421,12.1246338 C31.7885273,11.8966711 32.3231105,11.8966711 32.7711957,12.1246338 C33.1878349,12.3368735 33.5180186,12.910743 34.1704607,14.058482 L37.3228229,19.5612889 L37.3388868,19.5893688 C38.0436112,20.8206658 38.40098,21.4450706 38.5570173,22.1004101 C38.7299281,22.815787 38.7299281,23.5704501 38.5570173,24.2858269 C38.399787,24.9461518 38.0460399,25.5750732 37.3306631,26.8249907 L29.2760799,41.0632011 L29.2552437,41.0996751 C28.5458748,42.3411132 28.1863755,42.9703329 27.6881385,43.4450067 C27.145715,43.9639947 26.4932304,44.3410919 25.7778535,44.553715 C25.1253688,44.7343808 24.3943116,44.7343808 22.9321119,44.7343808 Z M38.6151798,44.7343808 L47.5138216,44.7343808 C48.8266312,44.7343808 49.4870839,44.7343808 49.8803728,44.4753129 C50.304767,44.2000533 50.5719308,43.736032 50.5957923,43.2332357 C50.6183755,42.7845539 50.3030626,42.2404261 49.6852197,41.1741997 C49.6639148,41.1378961 49.6426099,41.1009534 49.6208788,41.0633715 L45.1634621,33.4380826 L45.1127563,33.3522237 C44.4863915,32.293028 44.1702264,31.7581465 43.7641545,31.5514035 C43.3163249,31.3233981 42.789241,31.3233981 42.3413688,31.5514035 C41.9325699,31.7636431 41.6024288,32.3217896 40.9499441,33.4459228 L36.5083782,41.0712543 L36.4931664,41.097502 C35.8429827,42.2198455 35.5180399,42.780719 35.5414754,43.2409055 C35.5729214,43.7441278 35.8323302,44.207723 36.2568096,44.4829827 C36.6420453,44.7343808 37.3023702,44.7343808 38.6151798,44.7343808 Z" id="Shape" fill="#E84142"></path>
        </g>
    </g>
</svg>