<?xml version="1.0" encoding="UTF-8"?>
<svg width="64px" height="64px" viewBox="0 0 64 64" version="1.1" xmlns="http://www.w3.org/2000/svg" xmlns:xlink="http://www.w3.org/1999/xlink">
    <title>img / logo / projects / BSC / BakeryToken - BAKE</title>
    <defs>
        <radialGradient cx="49.8739941%" cy="50.0834232%" fx="49.8739941%" fy="50.0834232%" r="52.3216901%" gradientTransform="translate(0.498740,0.500834),scale(1.000000,0.991572),rotate(90.000000),translate(-0.498740,-0.500834)" id="radialGradient-1">
            <stop stop-color="#F7B450" offset="33.35%"></stop>
            <stop stop-color="#FFC977" offset="64.77%"></stop>
            <stop stop-color="#FF9900" offset="100%"></stop>
        </radialGradient>
    </defs>
    <g id="img-/-logo-/-projects-/-BSC-/-BakeryToken---BAKE" stroke="none" stroke-width="1" fill="none" fill-rule="evenodd">
        <g id="bakerytoken-bake-logo">
            <path d="M48.655917,30.9452804 C49.1177868,30.7143455 49.8105916,31.1762154 49.8105916,31.6380852 L50.7343313,35.1021091 C50.9652663,35.563979 50.5033964,36.2567838 50.0415265,36.2567838 C49.5796567,36.4877187 48.8868519,36.0258489 48.8868519,35.563979 L47.9631122,32.0999551 C47.7321773,31.6380852 47.9631122,30.9452804 48.655917,30.9452804 Z M22.0984002,5.08056843 C21.8674652,4.61869857 21.8674652,3.92589379 22.3293351,3.69495886 L25.3314892,1.6165445 C25.793359,1.38560957 26.4861638,1.38560957 26.7170987,1.84747943 C26.9480337,2.54028421 26.9480337,3.00215407 26.4861638,3.46402393 L23.4840097,5.54243829 C23.0221399,5.54243829 22.3293351,5.54243829 22.0984002,5.08056843 Z" id="Shape" fill="#FFFFFF" fill-rule="nonzero"></path>
            <path d="M37.5710404,17.3201196 C34.1070165,16.6273149 30.4120576,17.0891847 27.1789686,19.1675991 C31.7976672,17.5510546 37.1091705,18.7057292 40.8041294,22.4006881 C45.8846978,27.7121914 45.8846978,36.2567838 40.8041294,41.3373522 C40.1113246,42.030157 39.4185198,42.4920269 38.725715,42.9538967 C40.5731945,42.2610919 42.4206739,41.3373522 43.8062835,39.7208077 C47.5012423,36.0258489 48.424982,30.7143455 47.0393725,26.0956469 C43.1134787,24.7100374 39.6494547,21.4769484 37.5710404,17.3201196 Z" id="Path" fill="#FFAE54"></path>
            <path d="M59.5098586,47.3416604 L59.5098586,47.3416604 C51.1962012,62.8143006 31.7976672,68.5876738 16.5559619,60.0430814 C1.08332167,51.729424 -4.45911661,32.0999551 3.85454082,16.6273149 C9.3969791,6.466178 19.558116,0.461869857 30.4120576,0 C31.7976672,0 32.9523418,0.692804786 33.6451466,2.07841436 C34.3379514,3.46402393 34.7998212,5.31150336 34.5688863,7.15898279 C34.5688863,7.85178757 34.5688863,8.54459236 34.5688863,9.23739714 C34.5688863,12.4704861 35.492626,15.7035751 36.8782356,18.4747943 C30.1811227,15.9345101 22.56027,18.7057292 19.0962461,25.1719072 C15.1703523,32.33089 17.9415715,41.1064173 24.8696193,45.0323111 C31.7976672,48.9582049 40.8041294,46.1869857 44.4990883,39.2589379 L44.4990883,39.2589379 C46.5775026,35.3330441 46.8084375,30.7143455 45.191893,26.7884517 C47.9631122,28.1740613 50.9652663,28.8668661 54.1983553,28.8668661 C56.0458347,28.8668661 57.6623792,28.6359311 59.5098586,28.1740613 C60.4335983,27.9431264 61.588273,27.9431264 62.2810778,28.4049962 C62.9738825,28.8668661 63.4357524,29.3287359 63.4357524,30.0215407 C63.6666873,35.7949139 62.2810778,41.7992221 59.5098586,47.3416604 Z" id="Path" stroke="#AC562A" stroke-width="1.0716" fill="url(#radialGradient-1)" fill-rule="nonzero"></path>
            <path d="M51.1962012,41.1064173 L52.3508758,40.6445474 C52.3508758,40.6445474 52.3508758,40.6445474 52.3508758,40.6445474 C53.2746155,42.9538967 52.1199409,45.0323111 51.4271361,46.6488556 C51.4271361,46.6488556 51.4271361,46.6488556 51.4271361,46.8797905 C50.9652663,47.8035302 50.5033964,48.496335 50.5033964,49.1891398 C50.2724615,50.3438144 50.2724615,51.4984891 50.5033964,52.1912939 C50.7343313,52.8840986 51.4271361,53.5769034 52.3508758,53.8078384 C53.0436806,54.0387733 54.1983553,53.8078384 55.5839648,52.8840986 C61.1264031,46.4179206 63.6666873,38.1042632 63.2048175,30.2524756 C63.2048175,29.5596709 62.7429476,28.8668661 62.0501428,28.4049962 C61.357338,27.9431264 60.2026634,27.9431264 59.2789237,28.1740613 C57.6623792,28.6359311 55.8148998,28.8668661 54.1983553,28.8668661 C50.9652663,28.8668661 47.9631122,28.1740613 45.191893,26.5575168 C46.8084375,30.4834106 46.5775026,34.8711742 44.7300232,38.797068 C44.4990883,39.4898728 44.0372184,39.9517426 43.5753485,40.6445474 C44.4990883,40.4136125 45.422828,39.9517426 46.8084375,39.0280029 C48.424982,37.8733283 50.5033964,39.0280029 51.1962012,41.1064173 Z M51.1962012,41.1064173 C51.889006,42.9538967 50.9652663,44.5704412 50.2724615,46.1869857 C49.8105916,47.1107254 49.3487218,48.0344651 49.1177868,48.9582049 L51.1962012,41.1064173 Z M29.026448,17.5510546 L29.026448,17.5510546 L29.026448,17.5510546 C25.793359,18.4747943 23.2530748,18.0129244 21.4055954,17.0891847 C19.558116,15.9345101 17.9415715,14.3179656 17.2487667,12.4704861 C16.325027,10.3920718 16.094092,8.31365743 16.5559619,6.466178 C17.0178317,4.61869857 17.9415715,3.233089 19.327181,2.54028421 C23.2530748,0.923739714 27.4099035,0 31.3357973,0 C32.490472,0 33.4142117,0.692804786 34.1070165,1.84747943 C34.7998212,3.00215407 35.0307562,4.61869857 34.7998212,6.00430814 C34.5688863,6.92804786 34.5688863,8.0827225 34.5688863,9.23739714 C34.5688863,12.4704861 35.492626,15.7035751 36.8782356,18.4747943 C34.3379514,17.3201196 31.5667322,17.0891847 29.026448,17.5510546 Z" id="Shape" stroke="#AC562A" stroke-width="1.0716" fill="#AC562A" fill-rule="nonzero"></path>
            <circle id="Oval" fill="#AC562A" fill-rule="nonzero" cx="7.54949967" cy="24.7100374" r="1.6165445"></circle>
            <circle id="Oval" fill="#AC562A" fill-rule="nonzero" cx="31.5667322" cy="53.5769034" r="1.6165445"></circle>
            <circle id="Oval" fill="#AC562A" fill-rule="nonzero" cx="21.4055954" cy="54.962513" r="2.77121914"></circle>
        </g>
    </g>
</svg>