<?xml version="1.0" encoding="UTF-8"?>
<svg width="64px" height="64px" viewBox="0 0 64 64" version="1.1" xmlns="http://www.w3.org/2000/svg" xmlns:xlink="http://www.w3.org/1999/xlink">
    <title>img / logo / projects / BSC / Biswap - BSW</title>
    <defs>
        <linearGradient x1="59.4177344%" y1="13.4425044%" x2="45.1808802%" y2="93.4262787%" id="linearGradient-1">
            <stop stop-color="#EA4B6C" offset="0%"></stop>
            <stop stop-color="#E42848" offset="100%"></stop>
        </linearGradient>
        <linearGradient x1="32.2166399%" y1="84.926273%" x2="61.478537%" y2="4.68149988%" id="linearGradient-2">
            <stop stop-color="#335AA6" offset="0.181229%"></stop>
            <stop stop-color="#3895D2" offset="100%"></stop>
        </linearGradient>
    </defs>
    <g id="img-/-logo-/-projects-/-BSC-/-Biswap---BSW" stroke="none" stroke-width="1" fill="none" fill-rule="evenodd">
        <g id="Biswap-Token-(BSW)" fill-rule="nonzero">
            <path d="M31.9770938,64 C49.614889,64 63.9541875,49.706514 63.9541875,32.0229062 C63.9541875,14.385111 49.6607015,0.0458124553 31.9770938,0.0458124553 C14.3392985,0.0458124553 0,14.3392985 0,32.0229062 C0,49.6607015 14.293486,64 31.9770938,64 Z" id="Path" fill="#FFFFFF"></path>
            <path d="M56.7158196,12.0486757 C54.5168218,12.5068003 52.3636364,13.1023622 50.6227631,13.5146743 C46.6370795,14.385111 42.9262706,17.4545455 42.1474588,22.9978525 C41.4144596,27.9914102 43.1095204,30.0987831 42.3765211,35.9169649 C41.0937724,46.0415175 31.3815319,49.5232641 26.8460988,51.6306371 C24.2347888,52.8217609 17.8668576,55.6163207 12.9649248,57.7695061 C18.2791696,61.7093772 24.8303508,64 31.9312813,64 C49.614889,64 63.9083751,49.706514 63.9083751,32.0229062 C63.9083751,24.5096636 61.2970651,17.5919828 56.9448819,12.1403006 C56.8990694,12.0944882 56.8074445,12.0944882 56.7158196,12.0486757 Z" id="Path" fill="url(#linearGradient-1)"></path>
            <path d="M28.3579098,27.3042233 C30.8317824,21.9899785 29.9155333,21.9899785 31.793844,16.9506084 C34.1302792,10.6284896 41.5060845,12.4151754 43.5218325,12.6900501 C46.8661417,13.1481747 47.7365784,11.9570508 54.7916965,10.8117394 C55.1581961,10.765927 55.4788833,10.7201145 55.7995705,10.6743021 C49.9355762,4.12312097 41.460272,0 31.9770938,0 C19.2412312,0 8.2920544,7.42161775 3.11524696,18.1875447 C13.6521117,20.8446671 25.059413,26.5254116 28.3579098,27.3042233 Z M21.3944166,5.58911954 C22.3106657,5.72655691 26.8460988,11.3614889 27.670723,25.7465999 C27.670723,25.7465999 21.8525412,24.3722262 20.6156049,21.3486042 C19.6077309,18.920544 20.9362921,15.6678597 21.3944166,5.58911954 Z M56.9448819,12.0486757 C56.9448819,12.0944882 56.9906943,12.0944882 56.9906943,12.0944882 C56.8990694,12.0944882 56.8074445,12.0944882 56.7616321,12.0486757 C56.8074445,12.0486757 56.853257,12.0486757 56.9448819,12.0486757 Z M0,32.0229062 C0,29.4574087 0.274874732,26.9835361 0.87043665,24.6012885 C2.01574803,25.56335 3.25268432,26.6170365 4.58124553,27.8539728 C12.9191124,35.5962777 26.4795991,41.6893343 31.3815319,36.0085898 C31.3815319,36.0085898 31.4273443,36.0085898 31.4273443,36.0544023 C30.5110952,37.2455261 27.0751611,41.0021475 20.52398,39.8110236 L10.1245526,55.341446 C3.8940587,49.4774517 0,41.2312097 0,32.0229062 Z" id="Shape" fill="url(#linearGradient-2)"></path>
        </g>
    </g>
</svg>