<?xml version="1.0" encoding="UTF-8"?>
<svg width="64px" height="64px" viewBox="0 0 64 64" version="1.1" xmlns="http://www.w3.org/2000/svg" xmlns:xlink="http://www.w3.org/1999/xlink">
    <title>img / logo / projects / bnb chain / CAKE</title>
    <defs>
        <linearGradient x1="50%" y1="0%" x2="50%" y2="100%" id="linearGradient-1">
            <stop stop-color="#53DEE9" offset="0%"></stop>
            <stop stop-color="#1FC7D4" offset="100%"></stop>
        </linearGradient>
    </defs>
    <g id="img-/-logo-/-projects-/-bnb-chain-/-CAKE" stroke="none" stroke-width="1" fill="none" fill-rule="evenodd">
        <g id="cake-token">
            <circle id="Oval" fill="url(#linearGradient-1)" fill-rule="nonzero" cx="32" cy="32" r="32"></circle>
            <path d="M31.9054,53.2499333 C25.6776,53.2452 20.661,51.7508 17.1558667,49.0666 C13.6086667,46.3501333 11.7268667,42.4952667 11.7268667,38.1334 C11.7268667,33.9304667 13.6045333,30.8998 15.7290667,28.8512667 C17.3940667,27.2458667 19.2314,26.2176667 20.5107333,25.6262667 C20.2214667,24.7384 19.8604667,23.576 19.5375333,22.3754667 C19.1054667,20.7689333 18.6815333,18.8840667 18.6815333,17.5028667 C18.6815333,15.868 19.038,14.2261333 19.9990667,12.9503333 C21.0144667,11.6024667 22.5430667,10.8804 24.3820667,10.8804 C25.8192667,10.8804 27.0395333,11.4134667 27.9948,12.3332 C28.9079333,13.2122667 29.5156667,14.3798 29.9352667,15.5968 C30.6726,17.7352667 30.9597333,20.422 31.0402667,23.1032 L32.8017333,23.1032 C32.8822667,20.422 33.1693333,17.7352667 33.9067333,15.5968 C34.3263333,14.3798 34.9340667,13.2122667 35.8472,12.3332 C36.8024667,11.4134667 38.0226667,10.8804 39.4599333,10.8804 C41.2989333,10.8804 42.8275333,11.6024667 43.8429333,12.9503333 C44.804,14.2261333 45.1604667,15.868 45.1604667,17.5028667 C45.1604667,18.8840667 44.7365333,20.7689333 44.3044,22.3754667 C43.9814667,23.576 43.6205333,24.7384 43.3312,25.6262667 C44.6106,26.2176667 46.4479333,27.2458667 48.1128667,28.8512667 C50.2374667,30.8998 52.1150667,33.9304667 52.1150667,38.1334 C52.1150667,42.4952667 50.2333333,46.3501333 46.6861333,49.0666 C43.181,51.7508 38.1644,53.2452 31.9366,53.2499333 L31.9054,53.2499333 Z" id="Path" fill="#633001"></path>
            <path d="M24.382,12.4352 C21.6884667,12.4352 20.4486,14.4651333 20.4486,17.2725333 C20.4486,19.5039333 21.8892667,23.9729333 22.4803333,25.7126667 C22.6132667,26.1039333 22.4043333,26.5326667 22.0234,26.6844 C19.8646667,27.5442667 13.494,30.6926667 13.494,37.9030667 C13.494,45.4984667 19.968,51.2253333 31.9066667,51.2344 C31.9114,51.2344 31.9161333,51.2344 31.9209333,51.2344 C31.9256667,51.2344 31.9304,51.2344 31.9352,51.2344 C43.8738,51.2253333 50.3478667,45.4984667 50.3478667,37.9030667 C50.3478667,30.6926667 43.9772,27.5442667 41.8184667,26.6844 C41.4374667,26.5326667 41.2286,26.1039333 41.3615333,25.7126667 C41.9526,23.9729333 43.3932,19.5039333 43.3932,17.2725333 C43.3932,14.4651333 42.1533333,12.4352 39.4598667,12.4352 C35.5826667,12.4352 34.6162,17.9834 34.5472667,23.938 C34.5426667,24.3355333 34.2245333,24.6580667 33.831,24.6580667 L30.0108667,24.6580667 C29.6172667,24.6580667 29.2992,24.3355333 29.2946,23.938 C29.2256667,17.9834 28.2591333,12.4352 24.382,12.4352 Z" id="Path" fill="#D1884F" fill-rule="nonzero"></path>
            <path d="M31.9352,48.8013333 C23.1632667,48.8013333 13.5091333,44.0578667 13.494,37.9174667 C13.494,37.9270667 13.494,37.9366667 13.494,37.9462 C13.494,45.5477333 19.9783333,51.2776 31.9352,51.2776 C43.892,51.2776 50.3763333,45.5477333 50.3763333,37.9462 C50.3763333,37.9366667 50.3763333,37.9270667 50.3763333,37.9174667 C50.3612,44.0578667 40.7071333,48.8013333 31.9352,48.8013333 Z" id="Path" fill="#FEDC90" fill-rule="nonzero"></path>
            <path d="M27.0612667,36.0314667 C27.0612667,38.1046 26.0914,39.1843333 24.8950667,39.1843333 C23.6986667,39.1843333 22.7288667,38.1046 22.7288667,36.0314667 C22.7288667,33.9583333 23.6986667,32.8786 24.8950667,32.8786 C26.0914,32.8786 27.0612667,33.9583333 27.0612667,36.0314667 Z" id="Path" fill="#633001" fill-rule="nonzero"></path>
            <path d="M41.1414667,36.0314667 C41.1414667,38.1046 40.1716667,39.1843333 38.9752667,39.1843333 C37.7789333,39.1843333 36.8090667,38.1046 36.8090667,36.0314667 C36.8090667,33.9583333 37.7789333,32.8786 38.9752667,32.8786 C40.1716667,32.8786 41.1414667,33.9583333 41.1414667,36.0314667 Z" id="Path" fill="#633001" fill-rule="nonzero"></path>
        </g>
    </g>
</svg>