<?xml version="1.0" encoding="UTF-8"?>
<svg width="64px" height="64px" viewBox="0 0 64 64" version="1.1" xmlns="http://www.w3.org/2000/svg" xmlns:xlink="http://www.w3.org/1999/xlink">
    <title>img / logo / projects / ethereum / Chiliz - CHZ</title>
    <g id="img-/-logo-/-projects-/-ethereum-/-Chiliz---CHZ" stroke="none" stroke-width="1" fill="none" fill-rule="evenodd">
        <g id="chiliz-chz-coin" fill="#CD0124" fill-rule="nonzero">
            <path d="M37.9733333,33.4933333 C37.9733333,33.0666667 37.9733333,32.8533333 37.5466667,32.64 C36.0533333,31.5733333 34.3466667,30.5066667 32.8533333,29.44 C32.5304936,29.2242937 32.1095064,29.2242937 31.7866667,29.44 L27.0933333,32.8533333 C26.6935702,33.0572421 26.445129,33.4713108 26.4533333,33.92 C26.4433379,34.379912 26.2946176,34.8260731 26.0266667,35.2 C25.8109603,35.5228397 25.8109603,35.943827 26.0266667,36.2666667 C27.7333333,39.68 29.2266667,43.0933333 30.9333333,46.5066667 C31.5733333,47.5733333 32,48.8533333 32.64,50.1333333 C32.8533333,49.92 32.8533333,49.7066667 33.0666667,49.4933333 C34.9866667,45.2266667 36.6933333,40.96 38.6133333,36.6933333 C38.8266667,36.2666667 38.8266667,36.0533333 38.4,35.84 C37.9143604,35.160792 37.7578559,34.3000171 37.9733333,33.4933333 Z" id="Path"></path>
            <path d="M30.72,27.9466667 C26.4533333,24.96 22.1866667,21.9733333 18.1333333,19.2 L17.92,19.4133333 C18.1333333,19.84 18.1333333,20.0533333 18.3466667,20.48 L22.8266667,30.08 C23.2533333,30.9333333 23.4666667,31.7866667 24.7466667,32 C25.1153532,32.0332032 25.4857777,31.9591183 25.8133333,31.7866667 C27.0933333,30.72 28.5866667,29.8666667 29.8666667,28.8 L30.72,27.9466667 Z" id="Path"></path>
            <path d="M32,0 C14.326888,0 0,14.326888 0,32 C0,49.673112 14.326888,64 32,64 C49.673112,64 64,49.673112 64,32 C64,23.5130723 60.6285811,15.3737471 54.627417,9.372583 C48.6262529,3.37141889 40.4869277,0 32,0 Z M49.28,18.56 C48.8533333,18.56 48.64,18.7733333 48.4266667,19.2 C46.72,23.4666667 44.8,27.7333333 43.0933333,32 L43.0933333,32.8533333 C43.4381601,33.5831175 43.4479429,34.4269189 43.1201284,35.1645015 C42.7923139,35.9020842 42.1594317,36.4602566 41.3866667,36.6933333 C41.1733333,36.6933333 40.96,36.9066667 40.7466667,37.3333333 C38.8266667,41.6 36.9066667,46.08 35.2,50.3466667 C34.9842937,50.6695064 34.9842937,51.0904936 35.2,51.4133333 C36.0267683,52.5481276 35.840893,54.1280678 34.7733333,55.04 C33.8484996,55.9535751 32.3913891,56.0446445 31.36,55.2533333 C30.8219912,54.8859682 30.4521885,54.319702 30.3321304,53.6793922 C30.2120723,53.0390824 30.3516185,52.3773133 30.72,51.84 C30.9323897,51.4397646 30.9323897,50.9602354 30.72,50.56 C28.5866667,46.2933333 26.6666667,42.0266667 24.5333333,37.76 C24.3363346,37.3200761 23.9391043,37.0022919 23.4666667,36.9066667 C22.5843458,36.7598952 21.8298408,36.1903192 21.446941,35.3819753 C21.0640413,34.5736314 21.1012956,33.6290115 21.5466667,32.8533333 C21.762373,32.5304936 21.762373,32.1095064 21.5466667,31.7866667 C19.6266667,27.52 17.7066667,23.4666667 15.5733333,19.2 C15.5733333,18.9866667 15.36,18.7733333 14.72,18.7733333 C13.4260125,18.5913964 12.4422753,17.5182286 12.3733333,16.2133333 C12.4536943,15.0058222 13.1913899,13.9402618 14.2933333,13.44 C15.4777532,12.9811914 16.8210826,13.4289679 17.4933333,14.5066667 C17.7066667,14.9333333 17.92,14.9333333 18.56,14.9333333 L45.6533333,14.9333333 C46.08,14.9333333 46.5066667,14.9333333 46.72,14.2933333 C47.3210475,13.2556017 48.5842162,12.80447 49.7066667,13.2266667 C50.788383,13.6362276 51.5363688,14.6335419 51.6268657,15.7866667 C51.6430749,17.1660912 50.6431139,18.3478634 49.28,18.56 Z" id="Shape"></path>
            <path d="M32,26.4533333 C32.3228397,26.6690397 32.743827,26.6690397 33.0666667,26.4533333 C37.12,23.4666667 41.1733333,20.6933333 45.0133333,17.7066667 C45.2266667,17.4933333 45.44,17.4933333 45.44,17.28 L45.44,17.0666667 L18.56,17.0666667 C18.8040942,17.1562337 19.0234404,17.3024645 19.2,17.4933333 L32,26.4533333 Z" id="Path"></path>
            <path d="M34.1333333,27.9466667 C35.84,29.2266667 37.5466667,30.2933333 39.2533333,31.36 C39.68,31.5733333 40.32,31.36 40.96,31.36 C41.1733333,31.36 41.3866667,30.9333333 41.3866667,30.72 C42.88,27.3066667 44.3733333,23.68 45.8666667,20.2666667 C45.8666667,20.0533333 46.08,19.84 46.08,19.6266667 L45.8666667,19.6266667 C42.24,22.1866667 38.1866667,24.96 34.1333333,27.9466667 Z" id="Path"></path>
        </g>
    </g>
</svg>