<?xml version="1.0" encoding="UTF-8"?>
<svg width="64px" height="64px" viewBox="0 0 64 64" version="1.1" xmlns="http://www.w3.org/2000/svg" xmlns:xlink="http://www.w3.org/1999/xlink">
    <title>img / logo / projects / ethereum / Compound USDC - cUSDC</title>
    <defs>
        <linearGradient x1="45.9572879%" y1="5.53940196%" x2="58.7785804%" y2="92.464467%" id="linearGradient-1">
            <stop stop-color="#27D3A2" offset="0%"></stop>
            <stop stop-color="#9388FD" offset="100%"></stop>
        </linearGradient>
    </defs>
    <g id="img-/-logo-/-projects-/-ethereum-/-Compound-USDC---cUSDC" stroke="none" stroke-width="1" fill="none" fill-rule="evenodd">
        <g id="compound-usd-coin-cusdc-logo" fill-rule="nonzero">
            <g id="Group">
                <circle id="Oval" fill="#EDF0F2" cx="31.9919011" cy="32.0150525" r="31.9849475"></circle>
                <path d="M52.2982165,56.697729 C47.4216999,60.7239811 41.444841,63.1997511 35.1428811,63.7999378 C26.7152601,64.6251944 18.287639,62.0744011 11.7105935,56.697729 C5.15855582,51.3210568 1.00726475,43.5686458 0.157000311,35.1160169 C-0.468194128,28.814057 0.782194749,22.4870893 3.75812028,16.9103549 C6.7340458,11.3336205 11.3104691,6.75719721 16.8872035,3.78127169 C22.4639379,0.805346159 28.7909056,-0.470050495 35.0928655,0.155143943 C41.3948255,0.780338382 47.3466765,3.23110058 52.2482009,7.25735276 L45.7961943,15.1348027 C42.4701599,12.4089549 38.3938922,10.7084261 34.0925544,10.3083016 C29.7912167,9.88316941 25.489879,10.7584416 21.6886968,12.7840716 C17.8875146,14.8097016 14.7865502,17.9356738 12.7359124,21.736856 C10.7102824,25.5380381 9.860018,29.8643837 10.2851502,34.1407136 C10.8603291,39.8925025 13.686208,45.1941513 18.1626001,48.8452868 C22.6389923,52.5214301 28.3907812,54.2469668 34.14257,53.6717879 C38.4439077,53.2466557 42.4951677,51.5461268 45.8212021,48.820279 L52.2982165,56.697729 Z" id="Path" fill="url(#linearGradient-1)"></path>
                <path d="M32.0919322,58.1981956 C46.5214199,58.1981956 58.200052,46.4945557 58.200052,32.0900759 C58.200052,17.6605882 46.5214199,5.95694833 32.0919322,5.95694833 C17.6624446,5.95694833 5.9588047,17.6605882 5.9588047,32.0900759 C5.9588047,46.5195635 17.6624446,58.1981956 32.0919322,58.1981956 Z" id="Path" fill="#FFFFFF"></path>
            </g>
            <g id="Group" transform="translate(19.287950, 19.851462)">
                <path d="M17.1553354,14.3142594 C17.1553354,11.8634972 15.6548687,11.0382406 12.7289588,10.6631239 C10.5782899,10.3630306 10.1531577,9.86287502 10.1531577,8.86256392 C10.1531577,7.86225282 10.8783832,7.26206616 12.2788188,7.26206616 C13.5542154,7.26206616 14.279441,7.68719838 14.5795343,8.71251726 C14.6045421,8.81254837 14.6795654,8.91257948 14.7795965,8.98760281 C14.8796276,9.06262614 14.9796587,9.08763392 15.1046976,9.08763392 L16.2300476,9.08763392 C16.305071,9.08763392 16.3800943,9.06262614 16.4301098,9.03761836 C16.5051332,9.01261059 16.5551487,8.96259503 16.6051643,8.91257948 C16.6551798,8.86256392 16.6801876,8.78754059 16.7051954,8.73752503 C16.7302032,8.6625017 16.7302032,8.58747837 16.7051954,8.51245504 C16.3550865,6.91195727 15.2547443,5.96166173 13.5542154,5.6615684 L13.5542154,3.9860473 C13.5542154,3.83600064 13.5041999,3.71096175 13.4041688,3.61093064 C13.3041377,3.51089953 13.1790988,3.46088397 13.0290521,3.46088397 L11.9537177,3.46088397 C11.803671,3.46088397 11.6786321,3.51089953 11.578601,3.61093064 C11.4785699,3.71096175 11.4285543,3.83600064 11.4285543,3.9860473 L11.4285543,5.61155284 C9.30289324,5.91164617 7.95247326,7.28707394 7.95247326,9.06262614 C7.95247326,11.3633417 9.37791658,12.2386139 12.3288343,12.6387383 C14.3544643,12.9638394 14.9296432,13.3889717 14.9296432,14.5143216 C14.9296432,15.6396716 13.9543399,16.389905 12.5789121,16.389905 C10.7283366,16.389905 10.1031421,15.5896561 9.87807213,14.5643372 C9.85306435,14.4392983 9.77804102,14.3392672 9.70301769,14.2642439 C9.60298657,14.1892205 9.47794769,14.139205 9.37791658,14.139205 L8.15253548,14.139205 C8.07751215,14.139205 8.00248881,14.1642128 7.95247326,14.1892205 C7.87744992,14.2142283 7.82743437,14.2642439 7.77741881,14.3142594 C7.72740326,14.364275 7.70239548,14.4392983 7.6773877,14.4893139 C7.65237993,14.5643372 7.65237993,14.6393605 7.6773877,14.6893761 C7.97748103,16.4399205 9.1278388,17.7153172 11.4535621,18.0154105 L11.4535621,19.6659238 C11.4535621,19.8159705 11.5035777,19.9410094 11.6036088,20.0410405 C11.7036399,20.1410716 11.8286788,20.1910871 11.9787254,20.1910871 L13.0540599,20.1910871 C13.2041065,20.1910871 13.3291454,20.1410716 13.4291765,20.0410405 C13.5292076,19.9410094 13.5792232,19.8159705 13.5792232,19.6659238 L13.5792232,18.0154105 C15.7548998,17.6653016 17.1553354,16.1898427 17.1553354,14.3142594 Z" id="Path" fill="#283947"></path>
                <path d="M9.07782325,21.8165927 C7.05219327,21.0913671 5.30164884,19.7409472 4.05125996,17.9904027 C2.80087108,16.2398583 2.15066887,14.139205 2.15066887,12.0135439 C2.15066887,9.8878828 2.82587886,7.78722949 4.05125996,6.03668506 C5.30164884,4.28614063 7.05219327,2.93572064 9.07782325,2.2104951 C9.20286213,2.16047954 9.32790102,2.06044843 9.40292435,1.93540954 C9.47794769,1.81037066 9.52796324,1.68533177 9.52796324,1.5352851 L9.52796324,0.559981778 C9.52796324,0.484958446 9.52796324,0.384927335 9.47794769,0.309904003 C9.45293991,0.23488067 9.37791658,0.159857338 9.30289324,0.109841782 C9.22786991,0.0598262274 9.15284658,0.0348184498 9.05281547,0.0098106723 C8.95278436,-0.0151971052 8.87776103,0.0098106723 8.80273769,0.0598262274 C6.25194438,0.860075109 4.02625218,2.46057287 2.42575442,4.61124174 C0.850264436,6.76191061 0,9.33771169 0,12.0135439 C0,14.6643683 0.850264436,17.2651772 2.42575442,19.415846 C4.00124441,21.5665149 6.22693661,23.1420049 8.80273769,23.9672616 C8.87776103,23.9922693 8.97779214,24.0172771 9.05281547,24.0172771 C9.1278388,24.0172771 9.22786991,23.9672616 9.30289324,23.917246 C9.37791658,23.8672304 9.42793213,23.7922071 9.47794769,23.7171838 C9.50295546,23.6421604 9.52796324,23.5421293 9.52796324,23.467106 L9.52796324,22.4918027 C9.52796324,22.341756 9.47794769,22.2167171 9.40292435,22.0916782 C9.32790102,21.9666394 9.22786991,21.8666082 9.07782325,21.8165927 L9.07782325,21.8165927 Z" id="Path" fill="#657786"></path>
                <path d="M16.3300787,0.0848340049 C16.2550554,0.0598262274 16.1550243,0.0348184498 16.080001,0.0348184498 C16.0049776,0.0348184498 15.9049465,0.0848340049 15.8299232,0.13484956 C15.7548998,0.184865115 15.7048843,0.259888448 15.6548687,0.33491178 C15.629861,0.409935113 15.6048532,0.509966223 15.6048532,0.584989556 L15.6048532,1.56029288 C15.6048532,1.71033954 15.6548687,1.83537843 15.7298921,1.96041732 C15.8049154,2.08545621 15.9299543,2.16047954 16.0549932,2.23550287 C18.0806232,2.96072842 19.8311676,4.31114841 21.0815565,6.06169284 C22.3319453,7.81223726 22.9821476,9.91289058 22.9821476,12.0385517 C22.9821476,14.1642128 22.3069376,16.2648661 21.0815565,18.0154105 C19.8311676,19.7659549 18.0806232,21.1163749 16.0549932,21.8416005 C15.9299543,21.891616 15.8049154,21.9916471 15.7298921,22.0916782 C15.6548687,22.2167171 15.6048532,22.341756 15.6048532,22.4918027 L15.6048532,23.467106 C15.6048532,23.5421293 15.6048532,23.6421604 15.6548687,23.7171838 C15.6798765,23.7922071 15.7548998,23.8672304 15.8299232,23.917246 C15.9049465,23.9672616 15.9799698,23.9922693 16.080001,24.0172771 C16.1550243,24.0172771 16.2550554,24.0172771 16.3300787,23.9672616 C18.880872,23.1670127 21.1065642,21.5665149 22.707062,19.415846 C24.282552,17.2651772 25.1328164,14.6893761 25.1328164,12.0135439 C25.1328164,9.36271947 24.282552,6.76191061 22.707062,4.61124174 C21.1065642,2.48558065 18.880872,0.885082886 16.3300787,0.0848340049 L16.3300787,0.0848340049 Z" id="Path" fill="#657786"></path>
            </g>
        </g>
    </g>
</svg>