<?xml version="1.0" encoding="UTF-8"?>
<svg width="64px" height="64px" viewBox="0 0 64 64" version="1.1" xmlns="http://www.w3.org/2000/svg" xmlns:xlink="http://www.w3.org/1999/xlink">
    <title>img / logo / projects / ethereum / Compound Ether - cETH</title>
    <defs>
        <linearGradient x1="45.9572879%" y1="5.53940196%" x2="58.7785804%" y2="92.464467%" id="linearGradient-1">
            <stop stop-color="#27D3A2" offset="0%"></stop>
            <stop stop-color="#9388FD" offset="100%"></stop>
        </linearGradient>
    </defs>
    <g id="img-/-logo-/-projects-/-ethereum-/-Compound-Ether---cETH" stroke="none" stroke-width="1" fill="none" fill-rule="evenodd">
        <g id="compound-ether-ceth-seeklogo.com" fill-rule="nonzero">
            <g id="Group">
                <circle id="Oval" fill="#EDF0F2" cx="31.9919011" cy="32.0150525" r="31.9849475"></circle>
                <path d="M52.2982165,56.697729 C47.4216999,60.7239811 41.444841,63.1997511 35.1428811,63.7999378 C26.7152601,64.6251944 18.287639,62.0744011 11.7105935,56.697729 C5.15855582,51.3210568 1.00726475,43.5686458 0.157000311,35.1160169 C-0.468194128,28.814057 0.782194749,22.4870893 3.75812028,16.9103549 C6.7340458,11.3336205 11.3104691,6.75719721 16.8872035,3.78127169 C22.4639379,0.805346159 28.7909056,-0.470050495 35.0928655,0.155143943 C41.3948255,0.780338382 47.3466765,3.23110058 52.2482009,7.25735276 L45.7961943,15.1348027 C42.4701599,12.4089549 38.3938922,10.7084261 34.0925544,10.3083016 C29.7912167,9.88316941 25.489879,10.7584416 21.6886968,12.7840716 C17.8875146,14.8097016 14.7865502,17.9356738 12.7359124,21.736856 C10.7102824,25.5380381 9.860018,29.8643837 10.2851502,34.1407136 C10.8603291,39.8925025 13.686208,45.1941513 18.1626001,48.8452868 C22.6389923,52.5214301 28.3907812,54.2469668 34.14257,53.6717879 C38.4439077,53.2466557 42.4951677,51.5461268 45.8212021,48.820279 L52.2982165,56.697729 Z" id="Path" fill="url(#linearGradient-1)"></path>
                <path d="M32.0919322,58.1981956 C46.5214199,58.1981956 58.200052,46.4945557 58.200052,32.0900759 C58.200052,17.6605882 46.5214199,5.95694833 32.0919322,5.95694833 C17.6624446,5.95694833 5.9588047,17.6605882 5.9588047,32.0900759 C5.9588047,46.5195635 17.6624446,58.1981956 32.0919322,58.1981956 Z" id="Path" fill="#FFFFFF"></path>
            </g>
            <g id="Group" transform="translate(23.989412, 18.685907)">
                <polygon id="Path" fill="#AAB8C1" points="8.27757437 18.2556776 16.5551487 13.4541843 6.72709216 8.40261325"></polygon>
                <polygon id="Path" fill="#AAB8C1" points="0.0250077775 13.4791921 8.30258214 18.2806854 8.30258214 9.42793213"></polygon>
                <polygon id="Path" fill="#283947" points="8.27757437 0 0 13.4791921 10.8283677 8.65269103"></polygon>
                <polygon id="Path" fill="#657786" points="8.27757437 0 8.27757437 9.77804102 16.5551487 13.4791921"></polygon>
                <polygon id="Path" fill="#283947" points="8.27757437 26.4582286 9.3529088 20.4063465 0.0250077775 15.0046665"></polygon>
                <polygon id="Path" fill="#657786" points="8.27757437 19.8061598 8.27757437 26.4582286 16.5551487 15.0046665"></polygon>
            </g>
        </g>
    </g>
</svg>