<?xml version="1.0" encoding="UTF-8"?>
<svg width="64px" height="64px" viewBox="0 0 64 64" version="1.1" xmlns="http://www.w3.org/2000/svg" xmlns:xlink="http://www.w3.org/1999/xlink">
    <title>img / logo / projects / bnb chain / CREAM</title>
    <g id="img-/-logo-/-projects-/-bnb-chain-/-CREAM" stroke="none" stroke-width="1" fill="none" fill-rule="evenodd">
        <g id="cream-finance-cream-logo" fill="#69E2DC" fill-rule="nonzero">
            <path d="M34.5770667,33.5104 L45.7984,44.7317333 C46.2324053,45.1681171 46.4577177,45.7701106 46.4168863,46.384215 C46.3760549,46.9983194 46.0730259,47.5651837 45.5850667,47.9402667 C37.2615547,54.4777879 25.3097756,53.5130868 18.1425538,45.7252137 C10.9753319,37.9373407 11.0042637,25.9467263 18.2089841,18.1935309 C25.4137045,10.4403354 37.3699998,9.53332136 45.6618667,16.1109333 C46.1266912,16.4925826 46.407174,17.0539815 46.4332278,17.6548469 C46.4592816,18.2557122 46.2284451,18.8392821 45.7984,19.2597333 L34.5685333,30.4896 C34.3711251,30.6875793 34.2145572,30.9224311 34.1077333,31.1808 C33.9990545,31.452095 33.9439945,31.7418843 33.9456,32.0341333 C33.9422582,32.3273763 34.0003962,32.6180661 34.1162667,32.8874667 C34.2210352,33.1469265 34.3778609,33.382165 34.5770667,33.5786667 L34.5770667,33.5104 Z M32,0 C14.326888,0 0,14.326888 0,32 C0,49.673112 14.326888,64 32,64 C49.673112,64 64,49.673112 64,32 C64,23.5130723 60.6285811,15.3737471 54.627417,9.372583 C48.6262529,3.37141889 40.4869277,0 32,0 Z" id="Shape"></path>
        </g>
    </g>
</svg>