<?xml version="1.0" encoding="UTF-8"?>
<svg width="64px" height="64px" viewBox="0 0 64 64" version="1.1" xmlns="http://www.w3.org/2000/svg" xmlns:xlink="http://www.w3.org/1999/xlink">
    <title>img / logo / projects / ELK</title>
    <g id="img-/-logo-/-projects-/-ELK" stroke="none" stroke-width="1" fill="none" fill-rule="evenodd">
        <g id="elk-finance-logo" transform="translate(0.000000, 0.000000)">
            <path d="M32,63.4605191 C49.3751685,63.4605191 63.4605344,49.3751532 63.4605344,31.9999847 C63.4605344,14.6248163 49.3751685,0.539442851 32,0.539442851 C14.6248315,0.539442851 0.539458112,14.6248163 0.539458112,31.9999847 C0.539458112,49.3751532 14.6248315,63.4605191 32,63.4605191 Z" id="Path" fill="#FFFFFF" fill-rule="nonzero"></path>
            <path d="M32,1.07889346 C14.9227566,1.07889346 1.07889372,14.9227413 1.07889372,31.9999847 C1.07889372,49.0772282 14.9227566,62.9210535 32,62.9210535 C49.0772434,62.9210535 62.9210688,49.0772282 62.9210688,31.9999847 C62.9210688,14.9227413 49.0772434,1.07889346 32,1.07889346 Z M0,31.9999847 C0,14.3268912 14.3269065,0 32,0 C49.6730935,0 64,14.3268912 64,31.9999847 C64,49.6730783 49.6730935,63.9999847 32,63.9999847 C14.3269065,63.9999847 0,49.6730783 0,31.9999847 Z" id="Shape" fill="#231F20"></path>
            <path d="M32,59.2204319 C47.0334001,59.2204319 59.2204472,47.0333849 59.2204472,31.9999847 C59.2204472,16.9664596 47.0334001,4.77947504 32,4.77947504 C16.9664748,4.77947504 4.77949031,16.9664596 4.77949031,31.9999847 C4.77949031,47.0333849 16.9664748,59.2204319 32,59.2204319 Z" id="Path" fill="#009F55" fill-rule="nonzero"></path>
            <path d="M32,5.85836876 C17.5623249,5.85836876 5.85839653,17.5623097 5.85839653,31.9999847 C5.85839653,46.4375348 17.5623249,58.1415007 32,58.1415007 C46.4375501,58.1415007 58.141516,46.4375348 58.141516,31.9999847 C58.141516,17.5623097 46.4375501,5.85836876 32,5.85836876 Z M3.70060909,31.9999847 C3.70060909,16.3706095 16.3706248,3.70058132 32,3.70058132 C47.6292502,3.70058132 60.2993784,16.3706095 60.2993784,31.9999847 C60.2993784,47.629235 47.6292502,60.2993631 32,60.2993631 C16.3706248,60.2993631 3.70060909,47.629235 3.70060909,31.9999847 Z" id="Shape" fill="#231F20"></path>
            <path d="M43.7829792,44.2520427 C43.4905551,44.4567021 43.0884875,44.5956004 42.5766515,44.6687377 C42.0940705,44.741875 41.7432616,44.7272475 41.5238497,44.6248553 C41.4653399,44.5956004 41.4068301,44.4933332 41.3484452,44.3178037 C41.3045629,44.1277718 41.246053,43.9961247 41.1729158,43.9229874 C41.1436608,43.8937325 41.1071547,43.8718538 41.0632723,43.8572264 C40.4784241,43.5355474 39.8496935,43.2577507 39.1770805,43.0238364 C37.5978153,42.4388631 35.9674164,42.080678 34.285884,41.9490309 C33.4232391,39.8873096 32.9552855,38.7613704 32.8821482,38.5713385 C32.3704372,37.2699949 32.2095352,36.5242447 32.3996921,36.3342128 L48.8934626,19.8404423 C48.9957298,19.7380501 49.3101576,19.7600538 49.836496,19.9062034 C50.3775869,20.0671054 50.7211446,20.2352586 50.8674191,20.4106631 C51.0281961,20.60082 51.2622355,21.0686486 51.569287,21.8143989 C51.8909661,22.5455217 52.2198963,23.0792363 52.5562028,23.4155428 C52.9949015,23.8542415 53.7625304,24.2270541 54.8592146,24.5341057 C55.8827616,24.7972749 56.4457311,25.0385654 56.5481233,25.2578523 C56.7820376,25.7258059 56.9136847,26.6323331 56.9429396,27.9775591 C57.0013244,29.3229101 56.9209359,30.1636763 56.7016491,30.4999828 C56.5992569,30.6607598 56.2336955,30.7485245 55.6049649,30.763152 C54.9908617,30.7924069 54.5886692,30.7118934 54.3986373,30.5218615 C54.2377352,30.3610845 54.1427193,30.2220611 54.1134644,30.1051665 C54.0842095,29.9881468 54.0477033,29.9223858 54.003821,29.9077583 C53.3604629,29.4983145 52.7317323,29.1473806 52.1176291,28.8549565 C50.670011,28.1384611 49.4490559,27.7656485 48.4547639,27.7363936 L44.8796634,31.3114941 C45.6546686,31.5600358 46.5904507,31.9548522 47.6871349,32.495818 C47.9503042,32.7006024 48.1110812,33.5193649 48.169591,34.9523556 C48.2573557,36.3853463 48.169591,37.2333638 47.9064218,37.496658 C47.7455198,37.657435 47.4530956,37.7451998 47.0291494,37.7598272 C46.6050782,37.7744547 46.2687717,37.7159448 46.02023,37.5842977 C45.8739554,37.4381482 45.6034099,37.1968577 45.2085936,36.8605512 C44.5506081,36.407225 43.103115,35.8955141 40.8658642,35.3252933 L38.5628524,37.6281801 C39.2647202,37.8037096 40.1639963,38.0887575 41.2606805,38.4835738 C42.3866196,38.8783901 43.0372289,39.163563 43.2127584,39.3389675 C43.4174178,39.5437519 43.6075747,40.3771418 43.7829792,41.8393875 C43.9876385,43.3016331 43.9876385,44.1057681 43.7829792,44.2520427 Z" id="Path" fill="#FFFFFF" fill-rule="nonzero"></path>
            <path d="M49.1777603,20.3188977 L32.8623949,36.6343882 C32.8647703,36.6938982 32.8760221,36.7872889 32.905027,36.9223115 C32.976289,37.252242 33.1318151,37.7319475 33.3842325,38.3739304 L33.3849826,38.3758057 L33.3857328,38.377681 C33.4516188,38.5492098 33.8731896,39.5642553 34.6576964,41.4399454 C36.2707173,41.5944713 37.8383557,41.9531566 39.3593611,42.5160011 C40.0441012,42.7545412 40.6879593,43.0377137 41.2900604,43.3663939 C41.3840762,43.4051505 41.4749665,43.46216 41.5543548,43.5415484 C41.7292592,43.7164527 41.8157737,43.9567431 41.8665323,44.164653 C41.9829268,44.1805307 42.1819603,44.1829061 42.495888,44.1353981 L42.4981384,44.135023 L42.5003887,44.134773 C42.8943299,44.0785136 43.1786277,43.9837476 43.377286,43.8708537 C43.3884129,43.8018421 43.3970393,43.694449 43.3970393,43.539173 C43.3970393,43.1747367 43.3500315,42.6372715 43.2487644,41.91415 L43.2480143,41.9088991 L43.2473892,41.9036482 C43.1604996,41.1800267 43.0718597,40.6274339 42.9828448,40.2376184 C42.9383373,40.0420856 42.8963302,39.8996866 42.859324,39.8021703 C42.841446,39.7551624 42.8279438,39.7276577 42.8206925,39.7137804 C42.8060651,39.7035287 42.7774353,39.6849006 42.7293022,39.658021 C42.6465383,39.6118883 42.5305188,39.5551288 42.3766179,39.4876174 C42.0693163,39.3529698 41.6396192,39.1881921 41.0821505,38.9926593 L41.0800252,38.9919092 L41.0780248,38.991159 C39.989467,38.5993432 39.1090691,38.3207964 38.4320804,38.151518 L37.5078001,37.9204792 L40.7015866,34.7266927 L40.9991366,34.8024555 C42.1264509,35.0898787 43.0646085,35.3649249 43.8092336,35.6282192 C44.5447321,35.8881378 45.1255797,36.1483065 45.514645,36.4163516 L45.5373989,36.4319792 L45.5585274,36.4498572 C45.9020851,36.7426564 46.163129,36.9730701 46.3326574,37.1354723 C46.4714307,37.1919818 46.687467,37.2318635 47.0105213,37.2207367 C47.1928019,37.2143606 47.3229488,37.192857 47.4114636,37.1663525 C47.4765996,37.1468493 47.5076048,37.1280961 47.5192317,37.1197197 C47.5247327,37.1099681 47.5389851,37.0825885 47.556488,37.0270791 C47.5856179,36.9349387 47.6133726,36.7984157 47.6330009,36.6076337 C47.6725075,36.2260696 47.6742578,35.6893544 47.6312506,34.9853612 L47.6308755,34.9798603 L47.6306255,34.9743593 C47.6018706,34.2688658 47.5484867,33.7374016 47.4758495,33.3674644 C47.4393433,33.1821833 47.4012119,33.0537867 47.3669562,32.9710228 C47.36008,32.954395 47.353954,32.9410178 47.3488281,32.9306411 C46.3091535,32.4216806 45.4325062,32.055369 44.7148857,31.8250804 L43.8731193,31.55516 L48.2379775,27.1903019 L48.4706416,27.197178 C49.5753271,27.2296835 50.8757955,27.6388772 52.3531687,28.369625 C52.9788988,28.6678 53.6158808,29.0229847 54.2642397,29.4340537 C54.4155151,29.513192 54.4976539,29.6375879 54.5357853,29.7060994 C54.5841684,29.7932391 54.6140485,29.8853796 54.6340518,29.9633927 C54.6364272,29.9678934 54.6418031,29.97752 54.6519298,29.9923975 C54.6751837,30.0264032 54.7149404,30.0750364 54.778326,30.1386721 C54.7785761,30.1384221 54.8178327,30.1696773 54.9486046,30.1958067 C55.0906285,30.2241865 55.2967881,30.2378137 55.5793356,30.2243115 L55.5858367,30.2239364 L55.5924628,30.2238114 C55.8903878,30.2169352 56.0956723,30.1928062 56.224819,30.161801 C56.2463226,30.1566751 56.2638256,30.1516743 56.2778279,30.1474236 C56.3128338,30.0581586 56.3594666,29.8793785 56.3894717,29.5657009 C56.4263529,29.1803861 56.4327289,28.661549 56.4039741,28.001063 L56.4037241,27.9951871 L56.403599,27.9893111 C56.3892216,27.3295753 56.349965,26.7902347 56.2884547,26.3662885 C56.2303199,25.9663463 56.1565575,25.6993014 56.0834203,25.5366491 C56.08167,25.5353989 56.0799197,25.5341487 56.0779193,25.5327734 C56.0354122,25.5033935 55.9592744,25.4608864 55.8366288,25.4082525 C55.5922128,25.30361 55.2261513,25.1854651 54.7249421,25.0565685 L54.7193161,25.0551932 L54.7138152,25.053568 C53.5911266,24.7392652 52.7134792,24.3356974 52.1747637,23.7969819 C51.7696957,23.3919139 51.408385,22.7880624 51.0754541,22.0316854 L51.0729537,22.0258094 L51.0704532,22.0198084 C50.9195529,21.6533718 50.7899061,21.3631981 50.6810128,21.1454115 C50.5669937,20.9174982 50.4918561,20.8019788 50.4556,20.7590966 L50.4543498,20.7575964 L50.4532246,20.7562211 C50.4530995,20.7562211 50.4422227,20.7439691 50.4109675,20.7220904 C50.3780869,20.6990865 50.3300789,20.6703317 50.2629426,20.6374512 C50.12817,20.5715651 49.9391382,20.499678 49.6874709,20.4246654 C49.4476807,20.3582793 49.2819028,20.3272741 49.1777603,20.3188977 Z M49.2435214,19.2419668 C49.4538067,19.2565942 49.7042238,19.3096032 49.9808952,19.3864911 L49.985646,19.3877413 L49.9902718,19.3891165 C50.27732,19.4745058 50.5291123,19.5666463 50.7371473,19.6684134 C50.9365557,19.7659298 51.1365893,19.8918259 51.2803635,20.0636048 C51.4045094,20.2107545 51.5264048,20.4237903 51.6460499,20.6629555 C51.7704458,20.9117473 51.9104693,21.2263001 52.0656204,21.6029884 C52.3751724,22.3054814 52.6708471,22.7673089 52.9377669,23.0341038 C53.2758237,23.3721605 53.9318089,23.7137179 54.9992382,24.0131432 C55.5189504,24.1469157 55.9442719,24.2805631 56.2615752,24.416586 C56.4204769,24.4847224 56.5682517,24.5599851 56.6920225,24.6457495 C56.8052915,24.7241376 56.9479405,24.8446579 57.0332048,25.0218126 C57.1868556,25.3313646 57.2876225,25.7396832 57.356134,26.2112624 C57.4260208,26.6924682 57.4670277,27.2770664 57.4821552,27.9600562 C57.5115351,28.6422958 57.5069094,29.2143918 57.4634021,29.6684681 C57.4222701,30.0989154 57.3402564,30.5068589 57.1548502,30.7925319 C56.9825713,31.0605769 56.6796454,31.162219 56.4766113,31.2109772 C56.2416968,31.2672367 55.9521482,31.2943662 55.6240931,31.3022425 C55.2950378,31.3176201 54.9953625,31.3053681 54.7370691,31.2537344 C54.4826514,31.2028508 54.2174818,31.1035842 54.0171982,30.9033005 C53.8522955,30.7383978 53.6837672,30.5334884 53.6071293,30.2950734 C53.0177803,29.9252612 52.4439339,29.6078329 51.8857152,29.3420383 L51.8819645,29.340288 L51.8783389,29.3384127 C50.5802459,28.6959298 49.5141918,28.3601234 48.6654243,28.2886113 L45.8637037,31.0903319 C46.4813074,31.3308723 47.1691729,31.6387991 47.9258,32.0121118 L47.9749333,32.0363658 L48.0183156,32.0699965 C48.1915947,32.2048942 48.2958622,32.394426 48.3636236,32.5580785 C48.4353856,32.7311075 48.4903949,32.9355169 48.5345273,33.1595545 C48.622417,33.6073797 48.6786765,34.1999793 48.7084315,34.924976 C48.7526889,35.6514731 48.7543142,36.2533242 48.7061811,36.7186523 C48.6820521,36.9519415 48.6439207,37.1663525 48.5852858,37.3520087 C48.5286513,37.5314138 48.4400114,37.7259465 48.2878609,37.8780971 C47.9755584,38.1903995 47.5032291,38.2832901 47.0476525,38.2989178 C46.5736979,38.3152955 46.1316237,38.2537852 45.7678126,38.0611278 L45.6960505,38.0231214 L45.6387909,37.9657368 C45.5120196,37.8389655 45.2637279,37.6165531 44.8810386,37.2901233 C44.6088679,37.1078427 44.1431647,36.8905562 43.4496732,36.64539 C42.8104408,36.4193521 42.0048055,36.1789367 41.0295167,35.9245189 L39.596901,37.3570096 C40.1387421,37.5214122 40.7538454,37.7278218 41.4413358,37.9753634 C42.0088062,38.1742718 42.4667581,38.3491762 42.8096907,38.4994514 C42.9810945,38.5745891 43.1309947,38.6467262 43.2547654,38.7157378 C43.3697848,38.7797485 43.496306,38.8596369 43.5941975,38.9575284 C43.7287201,39.092051 43.811609,39.2712061 43.8677434,39.4187309 C43.9293788,39.5807581 43.984263,39.7764159 44.0347715,39.9977031 C44.1356634,40.4401524 44.2295542,41.0337521 44.317944,41.7698758 C44.4209613,42.5064995 44.4759706,43.1004743 44.4759706,43.539173 C44.4759706,43.7570846 44.4625933,43.9601187 44.4254621,44.1325226 C44.3945819,44.2760467 44.3215696,44.5303394 44.0965318,44.6909914 L44.0944065,44.6924917 L44.0924061,44.6939919 C43.7069664,44.9636622 43.2150088,45.1223139 42.6551647,45.2024523 C42.1563309,45.27784 41.668249,45.2875916 41.2958114,45.1136874 L41.2891853,45.1106869 L41.2826842,45.1074364 C41.1084049,45.0202967 41.0130139,44.873022 40.9677563,44.7938837 C40.9138723,44.6996179 40.8716152,44.5931 40.8366093,44.4884574 L40.8286079,44.4640783 L40.8227319,44.4390741 C40.8108549,44.3871904 40.799103,44.349059 40.7893513,44.3221795 C40.2366335,44.0192536 39.6404083,43.7560844 38.9998007,43.533297 L38.9946749,43.5315467 L38.989674,43.5296714 C37.4572917,42.962076 35.875776,42.6145176 34.2438769,42.4868712 L33.9154467,42.4611169 L33.7883004,42.1573159 C32.9312814,40.1090968 32.458702,38.9724059 32.3795638,38.7669964 C32.1205202,38.1083858 31.9399899,37.5651695 31.8504749,37.1497247 C31.8059674,36.9436901 31.7780877,36.7435315 31.7837137,36.5640014 C31.7887145,36.4033494 31.8232203,36.1476814 32.0182531,35.9527737 L48.5120235,19.4590032 C48.6416703,19.3293565 48.7965713,19.278723 48.907715,19.2572194 C49.0222342,19.2352157 49.1385037,19.2345906 49.2435214,19.2419668 Z" id="Shape" fill="#231F20"></path>
            <path d="M20.6848494,44.2831729 C20.9785237,44.4887075 21.3823416,44.6281059 21.8961779,44.7016182 C22.3806342,44.7750055 22.7330684,44.7602531 22.9532304,44.6574858 C23.0119903,44.6281059 23.0707502,44.5253386 23.129385,44.349184 C23.1735174,44.158277 23.2322773,44.0261298 23.3056646,43.9527424 C23.3350446,43.9233625 23.3716757,43.9013588 23.4156831,43.8867313 C24.0030318,43.5636771 24.6343878,43.2847552 25.3097512,43.0498408 C26.8953926,42.4626171 28.5324176,42.1028067 30.2208262,41.9706595 C31.0870967,39.9005618 31.5569256,38.7699969 31.6303129,38.5792148 C32.1441492,37.2724954 32.3056763,36.5237446 32.1147693,36.3328375 L15.5536125,19.7716808 C15.4508453,19.6687885 15.1351672,19.6909172 14.6065784,19.8376919 C14.0633622,19.999219 13.7183042,20.1679973 13.5715296,20.3442769 C13.4100025,20.535059 13.175088,21.0048879 12.8667862,21.7536387 C12.543732,22.487762 12.2134265,23.023727 11.8757323,23.3614087 C11.4352833,23.8018577 10.6644788,24.1761706 9.56333134,24.4844724 C8.53559621,24.7487668 7.97033877,24.9910575 7.867559,25.2113445 C7.63265705,25.6810484 7.50052235,26.5913263 7.47115492,27.9421782 C7.41242005,29.292905 7.49317112,30.1370468 7.71340811,30.4747285 C7.81617537,30.6362557 8.18322453,30.7243955 8.81455557,30.7390229 C9.43119665,30.7684029 9.83495196,30.6876393 10.025809,30.4967322 C10.1873111,30.3353301 10.2827397,30.1958067 10.3121071,30.078287 C10.3414745,29.9608922 10.3781807,29.8948811 10.4222256,29.8801287 C11.0682341,29.4690596 11.6995527,29.1166254 12.3161937,28.8230761 C13.7696879,28.1035803 14.9956438,27.7292674 15.9940615,27.6998875 L19.5837895,31.2896154 C18.8056588,31.5391573 17.8660009,31.9355989 16.764816,32.4788152 C16.5005216,32.6843497 16.3389944,33.5066128 16.2803596,34.9453545 C16.1922198,36.3842212 16.2803596,37.2357392 16.544654,37.5000336 C16.7060561,37.6615607 16.9997304,37.7497005 17.4255519,37.764328 C17.8512485,37.7790804 18.1889302,37.7203206 18.4385971,37.5881734 C18.5853718,37.4413987 18.8570424,37.199108 19.253359,36.8614263 C19.9140949,36.4062248 21.3675891,35.8923885 23.6139664,35.3197924 L25.9263548,37.6321808 C25.2216114,37.8083354 24.3187098,38.0946334 23.2175248,38.491075 C22.0870849,38.8875166 21.4337252,39.1738147 21.2574456,39.3499693 C21.0519111,39.5555038 20.861129,40.3923944 20.6848494,41.860641 C20.4793149,43.3287626 20.4793149,44.1362733 20.6848494,44.2831729 Z" id="Path" fill="#FFFFFF" fill-rule="nonzero"></path>
            <path d="M15.5392351,19.1860824 C15.6507538,19.207586 15.806405,19.2584696 15.9365518,19.3886164 L32.4978336,35.9498982 C32.6936165,36.1455561 32.7282473,36.4023492 32.7332482,36.5637513 C32.7388741,36.7439066 32.7108694,36.9448153 32.6662369,37.1517251 C32.5763468,37.5689201 32.3950664,38.1143868 32.1350227,38.7757479 C32.0553843,38.9821575 31.5809296,40.1234742 30.7205351,42.1798196 L30.5927636,42.4848709 L30.2630833,42.5107502 C28.624433,42.6390218 27.0365413,42.9879554 25.4977828,43.5578011 L25.492782,43.5596764 L25.4876561,43.5614267 C24.8445481,43.7850893 24.2458225,44.0493837 23.6908543,44.3535598 C23.6809777,44.3805643 23.6692257,44.4188207 23.6572237,44.4709545 L23.6514727,44.4960837 L23.6433463,44.5204628 C23.6082154,44.6256054 23.5657083,44.7324984 23.5116992,44.8271393 C23.4661916,44.9066527 23.3704255,45.0545525 23.1955211,45.1419422 L23.188895,45.1453177 L23.1822689,45.1483182 C22.8083311,45.3228476 22.3182488,45.3130959 21.8171646,45.2374582 C21.2551952,45.1569447 20.7612372,44.9976679 20.3742972,44.7268725 L20.3721719,44.7253722 L20.3700465,44.723872 C20.1441336,44.5625949 20.0707463,44.307177 20.0397411,44.1631528 C20.0024848,43.9901237 19.9891075,43.7862145 19.9891075,43.5674277 C19.9891075,43.1268537 20.0443668,42.5305035 20.1477592,41.7907543 C20.2365241,41.0516301 20.3307899,40.455655 20.4320569,40.0113304 C20.4828155,39.7891681 20.5379497,39.5927601 20.5998351,39.4299827 C20.6560946,39.2819579 20.7394836,39.1020527 20.8745063,38.96703 C20.9727728,38.8686385 21.0999191,38.7885 21.2153135,38.7241142 C21.3395844,38.6548525 21.4901097,38.5824654 21.6622636,38.5070777 C22.0065714,38.3561774 22.4663987,38.1805229 23.0361193,37.9807393 C23.7263603,37.7321976 24.344089,37.5250378 24.8880554,37.359885 L23.4496888,35.9215184 C22.4703993,36.1770614 21.6613884,36.4184769 21.0196556,36.645265 C20.3232887,36.8915564 19.8557101,37.109718 19.5822892,37.2927488 C19.1980997,37.6204288 18.9488078,37.8438413 18.8215364,37.9711127 L18.7640268,38.0287474 L18.6920147,38.0668788 C18.3267033,38.2602863 17.8827537,38.3220466 17.4067988,38.3056689 C16.949472,38.2899163 16.4752673,38.1966506 16.1615896,37.8830979 C16.008814,37.7303223 15.919799,37.5349144 15.8629145,37.3548842 C15.8040296,37.1684779 15.7657732,36.9531917 15.7415191,36.7189024 C15.693261,36.2515739 15.6948863,35.6472224 15.7393937,34.9178498 C15.7692737,34.1898526 15.8256582,33.5948776 15.9140481,33.1453021 C15.9581805,32.9202643 16.0134398,32.7151049 16.0854519,32.5413257 C16.1535883,32.3770481 16.2582309,32.1866411 16.4322601,32.0512433 L16.4757674,32.0174877 L16.5251507,31.9931086 C17.2849033,31.6182956 17.9755193,31.3091187 18.5957485,31.0675781 L15.782526,28.2543556 C14.9302578,28.3262427 13.859828,28.6634243 12.5564841,29.3085327 L12.5527335,29.310283 L12.5491079,29.3120332 C11.9885137,29.5789531 11.4123669,29.8977566 10.8206175,30.269069 C10.7436671,30.5084842 10.5744012,30.7141438 10.4088234,30.8797966 C10.2077146,31.0808303 9.94145735,31.1805971 9.68607696,31.2316057 C9.42670839,31.2834894 9.12570783,31.2957414 8.79538985,31.2803639 C8.46599702,31.2724875 8.17518568,31.245233 7.93935856,31.1885985 C7.73544931,31.1397152 7.43137324,31.0376981 7.25833167,30.7685279 C7.07223791,30.4817297 6.98982407,30.0721609 6.94847963,29.6399633 C6.9048723,29.1840117 6.90014651,28.6094152 6.92975148,27.9244252 C6.94482901,27.238685 6.98609845,26.6517114 7.05624773,26.1685052 C7.12499678,25.6949257 7.22627629,25.2849818 7.38057721,24.9740546 C7.46614158,24.7962747 7.60932813,24.6753794 7.72304723,24.5966162 C7.84738061,24.5106018 7.99570553,24.4349641 8.15521982,24.3665776 C8.47391085,24.2299296 8.90089507,24.0957821 9.42273272,23.9613845 C10.4945628,23.660709 11.1532734,23.3177764 11.4927304,22.9783444 C11.7606254,22.7104244 12.0575503,22.2467215 12.3684275,21.541353 C12.5242287,21.1631645 12.6647523,20.8473614 12.7897733,20.5974445 C12.9097934,20.3574041 13.032189,20.1434932 13.1568349,19.9957184 C13.3012342,19.8231894 13.5021429,19.6969182 13.7023016,19.5989017 C13.9112116,19.4967596 14.1640041,19.404119 14.4521775,19.3184796 L14.4569283,19.3171044 L14.4615541,19.3158542 C14.7394758,19.2385912 14.990893,19.1854573 15.2020535,19.1707048 C15.3075712,19.1633286 15.4242158,19.1639537 15.5392351,19.1860824 Z M14.7562286,20.3582793 C14.5035611,20.4335419 14.3137793,20.5058041 14.1785065,20.5719402 C14.1109952,20.6049457 14.0628621,20.6337006 14.0298566,20.6568294 C13.9984763,20.6789582 13.9874745,20.6912102 13.9874745,20.6912102 L13.9863493,20.6925854 L13.984974,20.6940857 C13.9485929,20.7372179 13.8730802,20.8531124 13.758686,21.0820259 C13.6492927,21.3005626 13.5191458,21.5919865 13.3676203,21.9599233 L13.3651199,21.9659243 L13.3624945,21.9718003 C13.0283133,22.7314279 12.6655024,23.3376547 12.2587466,23.744348 C11.7178557,24.2853139 10.8366202,24.690507 9.70938087,25.00606 L9.70381744,25.0076853 L9.698229,25.0090605 C9.19491946,25.1385822 8.82735772,25.2571021 8.581954,25.3622448 C8.45884582,25.4150037 8.38234547,25.4577608 8.3396758,25.4872658 C8.33772548,25.488641 8.33590017,25.4900163 8.33418738,25.4911415 C8.26072504,25.6545439 8.18660009,25.9225889 8.1283153,26.3241564 C8.06651742,26.7498529 8.0270858,27.2914439 8.01268338,27.9539301 L8.01254586,27.9598061 L8.01229582,27.9656821 C7.98346597,28.6287935 7.98984204,29.149756 8.02686076,29.536696 C8.05699082,29.8517489 8.10383619,30.031154 8.1390046,30.1207941 C8.15298195,30.1251698 8.1705474,30.1300456 8.19217603,30.1352965 C8.32184781,30.1664268 8.52791992,30.1905558 8.82714518,30.197557 L8.83373379,30.197682 L8.8403099,30.1979321 C9.12405756,30.2115593 9.33095481,30.1979321 9.47361627,30.1693022 C9.60423821,30.1431729 9.64393238,30.1120426 9.64458249,30.1120426 C9.70826819,30.0481569 9.74814988,29.9992737 9.7714788,29.9651429 C9.78171802,29.9502654 9.78705642,29.9406388 9.78939431,29.9360131 C9.8095602,29.8576249 9.83954024,29.7652344 9.8881734,29.6775946 C9.92637982,29.6088331 10.0088562,29.4839371 10.1607192,29.4045488 C10.811791,28.9917294 11.451436,28.6350445 12.0796415,28.3357443 C13.5630282,27.601871 14.8689975,27.191052 15.9780588,27.1584215 L16.2117231,27.1515454 L20.5944592,31.5342815 L19.7491922,31.805327 C19.0285712,32.0364909 18.1484234,32.4044277 17.104498,32.9153885 C17.0993722,32.9258903 17.0932461,32.9392675 17.086245,32.9558953 C17.0518642,33.0390343 17.0134827,33.1679309 16.9769766,33.3540872 C16.9040894,33.7255246 16.8504553,34.2591142 16.8215755,34.9674832 L16.8213255,34.9729841 L16.8209504,34.978485 C16.7776931,35.6853538 16.7794434,36.2243193 16.8190751,36.6075087 C16.8389534,36.7990408 16.8667081,36.9360638 16.895963,37.0285794 C16.9134659,37.0843388 16.9278433,37.1118434 16.9333443,37.121595 C16.9450962,37.1299714 16.9762265,37.1488496 17.0416125,37.1684779 C17.1303774,37.1951074 17.2611493,37.216736 17.4441801,37.222987 C17.7686096,37.2342389 17.985521,37.1942322 18.1247944,37.1374727 C18.294948,36.9743203 18.557117,36.7430314 18.902175,36.4491071 L18.9233035,36.431104 L18.9461824,36.4153514 C19.336748,36.1461812 19.920096,35.8850123 20.65847,35.6239685 C21.4062206,35.3596741 22.3482538,35.0835027 23.4801939,34.7949542 L23.7789941,34.7188164 L26.9857828,37.9256051 L26.0577519,38.157644 C25.3778877,38.3276726 24.4939892,38.6072195 23.4010556,39.0007857 L23.3989303,39.0015358 L23.3968049,39.0022859 C22.8370859,39.1985689 22.4056384,39.3639717 22.0970866,39.4992444 C21.9425607,39.5670058 21.8260411,39.6238903 21.7429021,39.6702731 C21.694519,39.6972776 21.6658892,39.7160308 21.6511367,39.7262825 C21.6437605,39.7401598 21.6302582,39.7679145 21.6123802,39.8150474 C21.5751239,39.9129389 21.5329919,40.0559629 21.4882344,40.2522459 C21.3989694,40.6436866 21.3099544,41.1985298 21.2226897,41.9251519 L21.2220646,41.9304027 L21.2213145,41.9356536 C21.1196724,42.6617756 21.0724145,43.2013662 21.0724145,43.5674277 C21.0724145,43.7233289 21.081166,43.831097 21.0922928,43.9003586 C21.2917013,44.0137527 21.5771243,44.1088937 21.9728157,44.1654031 L21.9750661,44.1656532 L21.9773165,44.1660283 C22.2924944,44.2137863 22.492403,44.2114109 22.6092977,44.1952832 C22.6601812,43.9866231 22.7470708,43.7453326 22.9226003,43.5698031 C23.0023637,43.4900397 23.093629,43.4327801 23.1880199,43.3937735 C23.7926214,43.0638431 24.439105,42.7794203 25.1265955,42.5400051 C26.653852,41.9749102 28.2278664,41.6145997 29.8475134,41.4595737 C30.6352708,39.5761323 31.0584669,38.5569611 31.124728,38.3848072 L31.1254781,38.3828069 L31.1262282,38.3809315 C31.3796458,37.7364483 31.535922,37.2547424 31.607309,36.9234367 C31.636564,36.787914 31.6478158,36.6941482 31.6501912,36.6342632 L15.2680646,20.2521365 C15.163422,20.2605129 14.997019,20.2916431 14.7562286,20.3582793 Z" id="Shape" fill="#231F20"></path>
        </g>
    </g>
</svg>