<?xml version="1.0" encoding="UTF-8"?>
<svg width="64px" height="64px" viewBox="0 0 64 64" version="1.1" xmlns="http://www.w3.org/2000/svg" xmlns:xlink="http://www.w3.org/1999/xlink">
    <title>img / logo / projects / ethereum / Enjin - ENJ</title>
    <defs>
        <radialGradient cx="19.7412786%" cy="16.039267%" fx="19.7412786%" fy="16.039267%" r="55.5490769%" id="radialGradient-1">
            <stop stop-color="#77FFFF" offset="0%"></stop>
            <stop stop-color="#87E4FF" offset="39.39%"></stop>
            <stop stop-color="#6273FF" offset="86.06%"></stop>
            <stop stop-color="#9468FF" offset="100%"></stop>
        </radialGradient>
        <circle id="path-2" cx="32" cy="32" r="29.8779982"></circle>
        <radialGradient cx="50.2179863%" cy="47.8261725%" fx="50.2179863%" fy="47.8261725%" r="55.4016359%" gradientTransform="translate(0.502180,0.478262),scale(0.823967,1.000000),rotate(-6.061789),translate(-0.502180,-0.478262)" id="radialGradient-4">
            <stop stop-color="#00FFFF" offset="49.7%"></stop>
            <stop stop-color="#00F4FF" stop-opacity="0" offset="100%"></stop>
        </radialGradient>
        <linearGradient x1="63.6359486%" y1="50.5423513%" x2="99.692646%" y2="72.1325705%" id="linearGradient-5">
            <stop stop-color="#5A27ED" offset="0%"></stop>
            <stop stop-color="#AB37F4" offset="100%"></stop>
        </linearGradient>
        <linearGradient x1="3.95741064%" y1="47.7499843%" x2="87.7197908%" y2="54.0449926%" id="linearGradient-6">
            <stop stop-color="#7618F4" offset="2.054068e-05%"></stop>
            <stop stop-color="#575FF8" offset="50.36%"></stop>
            <stop stop-color="#09FFFF" offset="100%"></stop>
        </linearGradient>
        <linearGradient x1="16.9659525%" y1="49.9741991%" x2="91.7092222%" y2="52.3022209%" id="linearGradient-7">
            <stop stop-color="#7F4CFF" offset="2.054068e-05%"></stop>
            <stop stop-color="#3095FF" offset="100%"></stop>
        </linearGradient>
        <linearGradient x1="13.9711494%" y1="45.8124551%" x2="79.0666356%" y2="56.9875352%" id="linearGradient-8">
            <stop stop-color="#7F52FF" offset="2.054068e-05%"></stop>
            <stop stop-color="#3096FF" offset="100%"></stop>
        </linearGradient>
        <linearGradient x1="81.042151%" y1="69.2111375%" x2="57.4931094%" y2="50.6857508%" id="linearGradient-9">
            <stop stop-color="#FFFFFF" offset="0%"></stop>
            <stop stop-color="#FBFFFF" offset="15.73%"></stop>
            <stop stop-color="#EFFFFF" offset="31.91%"></stop>
            <stop stop-color="#DAFFFF" offset="48.29%"></stop>
            <stop stop-color="#BDFFFE" offset="64.81%"></stop>
            <stop stop-color="#98FFFE" offset="81.44%"></stop>
            <stop stop-color="#6BFFFD" offset="97.95%"></stop>
            <stop stop-color="#65FFFD" offset="100%"></stop>
        </linearGradient>
        <linearGradient x1="12.5920634%" y1="92.6457917%" x2="69.1635944%" y2="1.39012627%" id="linearGradient-10">
            <stop stop-color="#FFFFFF" stop-opacity="0" offset="0%"></stop>
            <stop stop-color="#E6FFFF" offset="51.54%"></stop>
            <stop stop-color="#CEFFFF" stop-opacity="0.5" offset="100%"></stop>
        </linearGradient>
        <linearGradient x1="0.00381533766%" y1="50.0057328%" x2="99.9854175%" y2="50.0057328%" id="linearGradient-11">
            <stop stop-color="#FFFFFF" offset="0%"></stop>
            <stop stop-color="#FFFFFF" stop-opacity="0.3062" offset="86.72%"></stop>
            <stop stop-color="#FFFFFF" stop-opacity="0.2" offset="100%"></stop>
        </linearGradient>
    </defs>
    <g id="img-/-logo-/-projects-/-ethereum-/-Enjin---ENJ" stroke="none" stroke-width="1" fill="none" fill-rule="evenodd">
        <g id="enjin-coin-enj-logo-sphere">
            <g id="Group">
                <g>
                    <path d="M61.8605729,31.9995214 C61.8605729,48.4937734 48.4939735,61.8768342 31.9832601,61.8768342 C15.5054694,61.8768342 2.12240858,48.5102347 2.12240858,31.9995214 C2.12240858,15.5052693 15.5054694,2.13866987 31.9997214,2.13866987 C48.4939735,2.13866987 61.8605729,15.5052693 61.8605729,31.9995214 Z" id="Path" fill="url(#radialGradient-1)" fill-rule="nonzero"></path>
                    <g id="Clipped">
                        <mask id="mask-3" fill="white">
                            <use xlink:href="#path-2" transform="translate(32.000000, 32.000000) rotate(-4.229122) translate(-32.000000, -32.000000) "></use>
                        </mask>
                        <g id="SVGID_2_" transform="translate(32.000000, 32.000000) rotate(-4.229122) translate(-32.000000, -32.000000) "></g>
                        <path d="M51.5887034,22.6330249 C55.7040357,26.633128 58.8316883,31.6209108 59.4736802,37.5963734 C60.8728931,50.7489755 50.6339463,62.6340553 36.6088936,64.115575 C22.583841,65.5970946 10.089692,56.1482916 8.69047901,42.9956894 C7.29126601,29.8430872 15.2256268,30.731999 29.2506794,29.234018 C36.9051976,28.4274129 49.1030426,20.2132095 51.5887034,22.6330249 Z" id="Path" fill="url(#radialGradient-4)" fill-rule="nonzero" mask="url(#mask-3)"></path>
                    </g>
                    <path d="M53.020839,25.2009923 L52.9879164,24.8223818 L48.0989015,24.8223818 L53.020839,20.6082814 L53.0043777,20.4107455 C52.8068418,15.5546533 50.568101,12.4105394 50.4857943,12.2788488 L50.370565,12.0483902 L23.9665927,12.0483902 C21.4644706,12.0483902 16.6248398,12.8220726 13.0691926,16.8057143 C11.5218277,18.5341539 8.19663912,23.7523953 8.2293191,29.5961673 C8.24602311,32.8884332 8.5752497,35.4399392 9.8098494,38.3042105 C10.4353799,39.7528075 11.1432171,41.0861752 11.9168996,42.2549296 C14.4190216,46.7488725 17.1516023,49.8765251 20.0323349,51.5555807 C22.4686117,52.971255 24.6415072,53.168791 26.4357921,53.168791 L41.4156018,53.168791 L41.4979085,53.119407 C41.5472925,53.1029456 46.4527686,50.5349783 50.8644049,47.8517816 L50.9960955,47.7694749 L51.0454795,47.6377843 C51.0619408,47.5884003 51.0784022,47.5554776 51.0948635,47.5060936 C51.1277862,47.423787 51.1607088,47.3414804 51.1936315,47.2427124 C51.7368553,45.6788861 52.1977726,42.3207749 52.4117698,40.477106 C52.4940765,39.8021915 52.5599218,39.3577356 52.5599218,39.3577356 L52.6093058,38.8968184 L52.5928445,38.8968184 L52.6257671,38.5182078 L47.3910644,38.5182078 L52.9879164,34.2711848 L53.0043777,34.0901102 C53.3665269,29.9583165 53.020839,25.2503763 53.020839,25.2009923 Z" id="Path" fill="url(#linearGradient-5)" fill-rule="nonzero"></path>
                    <g transform="translate(8.759177, 12.476385)" fill-rule="nonzero" id="Path">
                        <path d="M22.2693263,31.0954512 C22.2693263,31.0954512 17.3638502,31.5728298 2.89434166,27.786724 C8.80395891,39.2931932 14.3185043,39.9187238 18.4338366,39.9187238 C21.8248705,39.9187238 32.4753506,39.9187238 32.4753506,39.9187238 C32.4753506,39.9187238 37.1339068,37.383679 41.5620044,34.7004823 L22.2693263,31.0954512 Z" fill="#FFFFFF"></path>
                        <path d="M18.4338366,39.5236584 C16.656013,39.5236584 14.1703523,39.5401132 11.7011529,37.9269029 C7.40474591,35.1284769 5.98907159,32.9226588 3.53633351,28.2970252 C14.5654242,31.1283739 19.8495109,31.4411391 21.6437958,31.4411391 C21.9730224,31.4411391 22.1705584,31.4246778 22.252865,31.4246778 L41.2986231,34.5194077 C37.3972881,36.8569165 32.7881158,39.2438092 32.2613533,39.5236584 L18.4338366,39.5236584 Z" fill="url(#linearGradient-6)"></path>
                        <path d="M12.9851366,26.6015083 C12.9851366,26.6015083 10.6147051,23.8524663 9.79163868,21.7618774 L36.6236056,26.6015083 L43.5044413,21.3997282 C43.4879799,17.1197826 43.4715186,13.0373729 43.4715186,13.0373729 L9.79163868,13.0373729 C9.79163868,13.0373729 10.9768544,9.62987769 13.1332885,8.26358735 L37.7100533,12.8562982 L43.5044413,7.9014381 C43.2739826,3.24288189 41.0352418,0.395071905 41.0352418,0.395071905 L27.6027971,0.395071905 C18.153994,0.395071905 15.0921867,0.395071905 15.0921867,0.395071905 C12.8205233,0.395071905 8.19488973,0.888911787 4.72154923,4.79024685 C1.2317474,8.69158191 -1.86298253,17.3667025 1.47866734,25.4656766 C4.86970119,33.6798799 9.28133746,34.733405 11.7669982,34.733405 C16.3597091,34.733405 41.5784657,34.733405 41.5784657,34.733405 C41.6278497,34.6181757 41.6772337,34.5029464 41.7101563,34.3547944 C42.4344548,31.934979 43.043524,26.6179696 43.043524,26.6179696 L36.6236056,26.6179696 L12.9851366,26.6179696 L12.9851366,26.6015083 Z" fill="#FFFFFF"></path>
                        <path d="M20.1622762,3.12765258 C20.1622762,3.12765258 10.4830145,5.02070546 10.005636,5.25116407 C9.52825741,5.48162268 7.65166586,13.99213 7.65166586,13.99213 L35.7840778,13.99213 L42.99414,7.88497677 L20.1622762,3.12765258 Z" fill="url(#linearGradient-7)"></path>
                        <path d="M20.3433508,16.6259427 C20.3433508,16.6259427 10.6640891,18.5189956 10.1867106,18.7494542 C9.70933203,18.9799128 7.81627915,27.4904201 7.81627915,27.4904201 L34.9116273,27.4904201 L43.191676,21.2351149 L20.3433508,16.6259427 Z" fill="url(#linearGradient-8)"></path>
                        <path d="M43.5044413,21.3832669 L9.8081,21.3832669 C10.6311665,23.4738557 13.0015979,26.2228977 13.0015979,26.2228977 L43.0599854,26.2228977 C43.0599854,26.2228977 42.4673775,32.1489763 41.693695,34.3383331 C41.693695,34.3383331 13.4789765,34.3383331 12.65591,34.3383331 C8.95211088,34.3383331 4.96846917,33.1037334 1.49512867,25.0706046 C-1.99467316,17.0374759 1.26467005,8.29651001 4.73801055,4.39517495 C8.22781238,0.493839881 12.8534459,2.3392956e-15 15.1086481,2.3392956e-15 C15.1086481,2.3392956e-15 18.1869167,2.3392956e-15 27.6192584,2.3392956e-15 L41.0352418,2.3392956e-15 C41.0352418,2.3392956e-15 43.2739826,3.09472992 43.4715186,7.88497677 L13.1497499,7.88497677 C11.009777,9.23480578 9.8081,12.6587623 9.8081,12.6587623 L43.4879799,12.6587623 C43.5044413,12.6587623 43.8336678,17.2843959 43.5044413,21.3832669 Z" fill="url(#linearGradient-9)"></path>
                    </g>
                </g>
                <path d="M47.0453765,10.5339479 C47.0453765,10.5339479 35.3249099,5.89185297 24.7567365,11.8673155 C15.4725467,17.1020183 4.97021856,25.4808349 12.7728887,42.6829241 C5.71097839,32.6250519 5.64513307,24.4437712 11.1761397,15.8674186 C16.4273038,7.76844452 31.8351081,0.393768953 47.0453765,10.5339479 Z" id="Path" fill="url(#linearGradient-10)" fill-rule="nonzero"></path>
            </g>
            <path d="M31.9667988,2.12220854 C15.8676186,2.12220854 2.20471523,15.0278908 2.12240858,31.9665987 C2.10594725,34.8637927 2.51748049,37.6951413 3.25824031,40.3124927 C3.25824031,40.3124927 3.24177898,40.0161888 3.22531765,39.5058876 C3.12654967,36.378235 3.53808291,24.8882271 9.39831617,25.8923682 C15.2585494,26.8965093 23.8513634,28.6249488 34.0080036,25.8265228 C44.1646438,23.0280969 52.2636179,13.5299098 47.0453765,6.20461823 C47.0453765,6.20461823 40.9382233,2.12220854 31.9667988,2.12220854 Z" id="Path" fill="url(#linearGradient-11)" fill-rule="nonzero" opacity="0.4"></path>
            <path d="M27.0942453,12.640998 C27.8185437,14.5011282 25.332883,16.7069464 22.2216918,17.3818609 C19.1105005,18.0567754 15.9663866,17.036173 15.4231627,15.1266588 C14.5507123,12.0977741 17.5795969,11.0113264 20.6907881,10.3364119 C23.8019794,9.67795872 25.6291869,8.92073757 27.0942453,12.640998 Z" id="Path" fill="#FFFFFF" fill-rule="nonzero"></path>
        </g>
    </g>
</svg>