<?xml version="1.0" encoding="UTF-8"?>
<svg width="48px" height="48px" viewBox="0 0 48 48" version="1.1" xmlns="http://www.w3.org/2000/svg" xmlns:xlink="http://www.w3.org/1999/xlink">
    <title>img / logo / projects / fantom</title>
    <g id="img-/-logo-/-projects-/-fantom" stroke="none" stroke-width="1" fill="none" fill-rule="evenodd">
        <g id="Fantom_round" fill-rule="nonzero">
            <circle id="Oval" fill="#1969FF" cx="24" cy="24" r="24"></circle>
            <path d="M22.5446546,7.63220644 C23.3532288,7.20593119 24.5835472,7.20593119 25.3921214,7.63220644 L33.6429047,11.9819737 C34.1298859,12.2386845 34.3973314,12.6212433 34.4452411,13.0161664 L34.453125,13.0161664 L34.453125,34.8801635 C34.4423821,35.310969 34.1724242,35.7388781 33.6429047,36.0180262 L25.3921214,40.3678004 C24.5835472,40.7940666 23.3532288,40.7940666 22.5446546,40.3678004 L14.2938929,36.0180262 C13.7666,35.7400453 13.5135447,35.3091533 13.5010128,34.8801635 C13.4997263,34.8361535 13.4996137,34.7998819 13.5009738,34.7700087 L13.5010128,13.1633708 C13.4997826,13.1329789 13.4997696,13.1027166 13.5009825,13.072584 L13.5010128,13.0161664 L13.5046992,13.0161664 C13.5413462,12.6168769 13.796654,12.2440885 14.2938929,11.9819737 L22.5446546,7.63220644 Z M33.140625,25.171875 L25.3896008,29.271561 C24.5821998,29.6986459 23.3536664,29.6986459 22.5462653,29.271561 L14.8125,25.1810135 L14.8125,34.8126206 L22.5462653,38.8814695 C23.0032995,39.1260006 23.4785008,39.3642517 23.9412447,39.3746462 L23.9679331,39.3750072 C24.4297686,39.3765086 24.8781517,39.141679 25.3328068,38.9193662 L33.140625,34.7775391 L33.140625,25.171875 Z M12.2073675,34.40625 C12.2073675,35.2444034 12.303916,35.7952998 12.4956152,36.1833842 C12.6545041,36.5050722 12.8929061,36.7508907 13.3282126,37.0500427 L13.3530605,37.0669987 C13.4485928,37.132011 13.5538284,37.2000945 13.6819309,37.2800731 L13.8329945,37.3734175 L14.296875,37.6558731 L13.6315448,38.765625 L13.1123431,38.4492575 L13.0250734,38.3951887 C12.8749531,38.3016712 12.7505252,38.2213898 12.6344672,38.142406 C11.3938337,37.298543 10.9311429,36.3785078 10.9220131,34.4645578 L10.921875,34.40625 L12.2073675,34.40625 Z M23.34375,19.359375 C23.2837163,19.3800195 23.2274456,19.4039603 23.1761489,19.4311104 L14.9379623,23.7948698 C14.9293162,23.7994237 14.9210724,23.8039776 14.9132265,23.8084448 L14.90625,23.8124783 L14.9191867,23.8199381 L14.9379623,23.8301303 L23.1761489,28.1938896 C23.2274456,28.2210398 23.2837163,28.2449805 23.34375,28.265625 L23.34375,19.359375 Z M24.65625,19.359375 L24.65625,28.265625 C24.7163266,28.2449805 24.7725971,28.2210398 24.8238936,28.1938896 L33.0620032,23.8301303 C33.0706536,23.8255763 33.0789147,23.8210224 33.0867432,23.8165552 L33.09375,23.8124783 L33.0808178,23.8050619 L33.0620032,23.7948698 L24.8238936,19.4311104 C24.7725971,19.4039603 24.7163266,19.3800195 24.65625,19.359375 Z M33.140625,14.578125 L25.734375,18.46875 L33.140625,22.359375 L33.140625,14.578125 Z M14.8125,14.578125 L14.8125,22.359375 L22.21875,18.46875 L14.8125,14.578125 Z M24.8166791,8.79502097 C24.3878972,8.56832634 23.6121071,8.56832634 23.1833252,8.79502097 L14.9379898,13.1542365 C14.9293363,13.158829 14.9210853,13.1633349 14.9132326,13.1678408 L14.90625,13.1718701 L14.9191979,13.1792789 L14.9379898,13.1895038 L23.1833252,17.5487063 C23.6121071,17.7754313 24.3878972,17.7754313 24.8166791,17.5487063 L33.0619755,13.1895038 C33.0706335,13.1849113 33.0789017,13.1804054 33.0867371,13.1759428 L33.09375,13.1718701 L33.0808065,13.1644614 L33.0619755,13.1542365 L24.8166791,8.79502097 Z M34.3684604,9.234375 L34.887668,9.55074717 L34.9749244,9.60480309 C35.1250397,9.69829467 35.2494712,9.77861939 35.3655415,9.8575643 C36.6061687,10.7014455 37.0688634,11.6214902 37.0779964,13.5354421 L37.078125,13.59375 L35.7926475,13.59375 C35.7926475,12.7555526 35.6960867,12.2046988 35.5043799,11.8165707 C35.3455175,11.4949128 35.1071168,11.2490854 34.671821,10.9499633 L34.6469519,10.9329727 C34.55142,10.8679949 34.4461979,10.7999114 34.3180789,10.7199154 L34.1670203,10.6265665 L33.703125,10.344128 L34.3684604,9.234375 Z" id="Shape" fill="#FFFFFF"></path>
        </g>
    </g>
</svg>