<?xml version="1.0" encoding="UTF-8"?>
<svg width="64px" height="64px" viewBox="0 0 64 64" version="1.1" xmlns="http://www.w3.org/2000/svg" xmlns:xlink="http://www.w3.org/1999/xlink">
    <title>img / logo / projects / ethereum / GALA</title>
    <g id="img-/-logo-/-projects-/-ethereum-/-GALA" stroke="none" stroke-width="1" fill="none" fill-rule="evenodd">
        <g id="gala-gala-logo" transform="translate(4.000000, 0.000000)" fill="#060606">
            <path d="M0,47.3502846 C0.777229602,47.7631879 1.79734345,48.3946869 2.5259962,48.8804554 C2.79316888,49.0626186 3.09677419,49.2204934 3.38823529,49.4026565 C3.54611006,49.4998102 3.64326376,49.5483871 3.78899431,49.6455408 C3.86185958,49.6941176 3.92258065,49.7426945 3.99544592,49.7791271 C4.08045541,49.827704 4.12903226,49.8519924 4.21404175,49.9005693 L13.5650854,55.656926 C13.6986717,55.7297913 13.8201139,55.8148008 13.9658444,55.8998102 L22.454649,61.1339658 C22.5518027,61.1946869 22.5882353,61.2068311 22.6732448,61.2675522 L26.7294118,63.7571157 C26.911575,63.8542694 26.9844402,63.9757116 27.1908918,63.9878558 L27.1908918,32.2914611 L25.9036053,31.5506641 C25.7821632,31.4899431 25.7092979,31.4413662 25.5878558,31.3685009 L24.5798861,30.7855787 C23.1468691,30.0326376 21.8110057,29.1096774 20.3658444,28.3567362 C20.2201139,28.283871 20.171537,28.2352941 20.0136622,28.1624288 L18.7263757,27.4216319 C18.4106262,27.2273245 16.9776091,26.3650854 16.7225806,26.3043643 L16.7225806,31.3077799 L21.9931689,34.3559772 C22.1388994,34.4409867 22.2360531,34.5017078 22.3696395,34.5745731 C22.51537,34.6474383 22.5882353,34.7324478 22.7703985,34.7688805 L22.7703985,56.227704 C21.8474383,55.6083491 20.8637571,55.0497154 19.9165085,54.4789374 L17.6212524,53.0580645 C16.686148,52.4265655 15.6781784,51.9043643 14.743074,51.2850095 C14.6337761,51.2121442 14.573055,51.1878558 14.4637571,51.1149905 L12.4356736,49.8641366 C12.2170778,49.7426945 12.059203,49.6455408 11.8527514,49.4998102 C11.1119545,49.0018975 10.3104364,48.5647059 9.55749526,48.0789374 C9.35104364,47.945351 9.18102467,47.8603416 8.97457306,47.7267552 C7.8573055,46.973814 6.65502846,46.2937381 5.51347249,45.601518 C5.41631879,45.540797 5.3313093,45.4800759 5.24629981,45.4193548 L4.3597723,44.8728653 L4.3597723,19.1149905 C4.18975332,19.0056926 4.01973435,18.9085389 3.82542694,18.799241 C3.63111954,18.6899431 3.48538899,18.6049336 3.29108159,18.4834915 L0.558633776,16.9290323 C0.352182163,16.8197343 0.1943074,16.6982922 0,16.6011385 L0,47.3502846 L0,47.3502846 Z" id="Path"></path>
            <path d="M29.8140417,32.2428843 L29.8140417,44.4235294 L31.429222,43.5127135 C32.170019,43.1240987 32.8500949,42.6504744 33.5908918,42.2618596 C33.7244782,42.1889943 33.773055,42.1647059 33.8702087,42.0918406 C33.9673624,42.0311195 34.0645161,41.9946869 34.1616698,41.9461101 L34.1616698,34.7688805 C34.3074004,34.7324478 34.3559772,34.7081594 34.4652751,34.6352941 C34.5745731,34.5624288 34.6474383,34.5381404 34.7567362,34.4774194 C35.3275142,34.1495256 35.886148,33.7609108 36.4690702,33.4694497 C37.258444,33.0808349 38.0113852,32.5950664 38.7643264,32.1457306 C38.9586338,32.0364326 39.1165085,31.9392789 39.3229602,31.8178368 L40.4645161,31.1741935 C40.5859583,31.1013283 40.6223909,31.0770398 40.743833,31.0041746 C41.2417457,30.7491461 41.7032258,30.4091082 42.2132827,30.1419355 L42.7719165,29.8140417 C42.8690702,29.7533207 42.9662239,29.716888 43.0633776,29.6683112 L46.7916509,27.5066414 C47.5810247,27.0937381 48.3096774,26.5958254 49.086907,26.1829222 L50.2406072,25.5028463 C50.629222,25.2721063 51.0056926,25.0656546 51.3943074,24.8227704 C51.600759,24.7013283 51.770778,24.6163188 51.9529412,24.4948767 L52.5601518,24.1548387 L52.5601518,44.9335863 C52.3901328,44.970019 52.341556,45.03074 52.1958254,45.1157495 L51.1271347,45.771537 C51.0178368,45.8444023 50.9328273,45.9051233 50.799241,45.9901328 C50.6535104,46.0751423 50.5563567,46.1480076 50.4349146,46.2208729 C50.3013283,46.2937381 50.228463,46.3544592 50.0948767,46.4273245 L49.0140417,47.0709677 C48.0425047,47.6296015 47.1316888,48.2611006 46.1601518,48.8197343 L43.3184061,50.5806452 C43.1848197,50.6656546 43.1119545,50.7020873 42.9783681,50.7870968 C41.7032258,51.6493359 40.343074,52.3658444 39.0557875,53.2037951 C38.8250474,53.3616698 38.5821632,53.4952562 38.3514231,53.6409867 L34.7931689,55.826945 C34.683871,55.887666 34.5624288,55.9605313 34.4531309,56.0333966 C33.3965844,56.7256167 32.2914611,57.3206831 31.2349146,58.0129032 L29.7897533,58.8994307 L29.7897533,64 C30.0326376,63.9392789 30.4212524,63.6478178 30.6398482,63.5142315 C30.9313093,63.3320683 31.2106262,63.1863378 31.5020873,62.9920304 C32.3157495,62.4455408 33.202277,61.9962049 34.0159393,61.4497154 C34.173814,61.3525617 34.2952562,61.2675522 34.4409867,61.1825427 L36.5905123,59.8588235 C36.7362429,59.773814 36.8455408,59.7009488 36.9912713,59.6159393 L48.4311195,52.572296 C48.5889943,52.4751423 48.7225806,52.3901328 48.856167,52.3051233 L56.4948767,47.6053131 C56.6406072,47.5081594 56.7863378,47.4231499 56.9320683,47.3502846 L56.9320683,16.6497154 C56.7134725,16.6982922 56.6770398,16.7711575 56.5070209,16.8683112 C56.3491461,16.9533207 56.2398482,17.0140417 56.0941176,17.0990512 L53.5559772,18.5685009 C52.6937381,19.029981 51.8922201,19.600759 51.0178368,20.0379507 L44.229222,23.9483871 C43.9256167,24.1184061 43.6827324,24.2762808 43.3912713,24.4462998 L42.1404175,25.1749526 C41.2538899,25.6242884 39.9666034,26.3893738 39.1529412,26.8994307 C39.0072106,26.9965844 38.8857685,27.0330171 38.740038,27.1301708 L35.9833017,28.7332068 C35.8618596,28.7939279 35.886148,28.7939279 35.7647059,28.8667932 L34.9024668,29.3404175 C34.3924099,29.6075901 33.943074,29.9354839 33.4330171,30.2026565 C33.311575,30.2633776 33.311575,30.287666 33.2144213,30.3362429 L32.3521822,30.8098672 C31.7814042,31.0891841 30.2755218,32.1457306 29.8140417,32.2428843 L29.8140417,32.2428843 Z" id="Path"></path>
            <path d="M1.68804554,14.5609108 C1.85806452,14.5973435 1.95521822,14.6944972 2.11309298,14.7795066 C2.68387097,15.083112 3.19392789,15.4474383 3.77685009,15.7388994 L8.39165085,18.4106262 C10.5897533,19.7464896 12.8728653,20.9366224 15.083112,22.2724858 L15.4960152,22.5032258 C15.6538899,22.5882353 15.7631879,22.6611006 15.9089184,22.7339658 L18.4227704,24.1912713 C18.5320683,24.2519924 18.5199241,24.2519924 18.6049336,24.3005693 C19.7829222,25.0170778 21.0216319,25.6242884 22.1874763,26.3650854 L25.9278937,28.514611 C26.0736243,28.5996205 26.1829222,28.6724858 26.3286528,28.7574953 C26.7658444,29.0246679 28.3324478,29.9719165 28.4903226,29.9719165 C28.7210626,29.9719165 30.056926,29.1218216 30.3969639,28.91537 L31.0527514,28.5267552 C31.2713472,28.3931689 31.4656546,28.3081594 31.6842505,28.1745731 C31.9149905,28.0409867 32.0850095,27.943833 32.3157495,27.8102467 L33.5908918,27.0573055 C33.8094877,26.9237192 34.0037951,26.8265655 34.2102467,26.6929791 L36.1411765,25.6 C36.2626186,25.5392789 36.3476281,25.4785579 36.456926,25.4178368 C36.5662239,25.3449715 36.6390892,25.3085389 36.7726755,25.2356736 L38.059962,24.4948767 C38.2664137,24.3734345 38.4971537,24.1912713 38.740038,24.1305503 C38.7036053,23.9848197 38.6793169,23.9969639 38.5578748,23.9240987 L34.4409867,21.5559772 C32.801518,22.4182163 31.2470588,23.426186 29.6197343,24.3127135 C29.486148,24.3855787 29.3768501,24.458444 29.255408,24.5434535 C29.0003795,24.7013283 28.7696395,24.8349146 28.5024668,24.9806452 L26.0250474,23.5476281 C25.1628083,23.1104364 24.3734345,22.5396584 23.5111954,22.0903226 C23.316888,21.9810247 23.1225806,21.8595825 22.9525617,21.7624288 L17.9248577,18.8721063 C17.827704,18.8113852 17.7426945,18.7628083 17.6455408,18.7020873 C17.5362429,18.629222 17.4633776,18.6049336 17.3540797,18.5442125 L10.9176471,14.8280835 C10.7962049,14.7552182 10.7840607,14.7187856 10.6140417,14.6823529 C10.7476281,14.4880455 10.9055028,14.4759013 11.1240987,14.342315 C11.3062619,14.2208729 11.4762808,14.1601518 11.6705882,14.0508539 L17.2690702,11.026945 C17.3905123,10.9540797 17.3905123,10.9419355 17.5119545,10.8812144 C17.6333966,10.8204934 17.6941176,10.7962049 17.8034156,10.7233397 C17.997723,10.6018975 18.1920304,10.516888 18.3863378,10.4197343 L25.36926,6.65502846 C25.4907021,6.5943074 25.5271347,6.55787476 25.6485769,6.48500949 L28.4903226,4.96698292 C28.6481973,4.96698292 30.797723,6.21783681 31.2956357,6.47286528 C31.4170778,6.53358634 31.5020873,6.57001898 31.6235294,6.64288425 C31.76926,6.72789374 31.8056926,6.76432638 31.9757116,6.83719165 L39.6994307,11.0026565 C40.3795066,11.427704 42.4440228,12.5085389 43.1726755,12.8728653 C43.998482,13.2857685 44.7878558,13.7836812 45.6136622,14.1965844 L50.2041746,16.686148 C50.3620493,16.7711575 50.4106262,16.7954459 50.5563567,16.8804554 C51.1028463,17.2083491 51.1149905,16.9290323 52.001518,16.4432638 L53.6409867,15.5081594 C53.9324478,15.3502846 55.0375712,14.6459203 55.2925996,14.5851992 C55.2440228,14.4273245 55.0982922,14.3666034 54.9525617,14.2815939 L53.2888046,13.370778 C52.4508539,12.9457306 51.6129032,12.4235294 50.7749526,12.0227704 L49.1111954,11.1119545 C48.5404175,10.8204934 47.9696395,10.5533207 47.4352941,10.2132827 L39.0436433,5.68349146 C38.8736243,5.59848197 38.7764706,5.54990512 38.63074,5.45275142 L35.254649,3.63111954 C35.0967742,3.54611006 34.9996205,3.48538899 34.8417457,3.40037951 C34.7567362,3.35180266 34.7203036,3.33965844 34.6474383,3.30322581 L30.2148008,0.898671727 C29.9354839,0.728652751 28.6360531,0 28.4781784,0 C28.344592,0 27.4094877,0.558633776 27.2030361,0.655787476 L17.5969639,5.85351044 C17.4390892,5.92637571 17.3176471,5.98709677 17.1719165,6.07210626 L10.4440228,9.70322581 C10.286148,9.78823529 10.2132827,9.84895636 10.0311195,9.93396584 L9.42390892,10.2618596 C9.30246679,10.3225806 9.30246679,10.3468691 9.20531309,10.3954459 C9.07172676,10.4804554 8.9259962,10.516888 8.78026565,10.6140417 L7.49297913,11.3062619 C7.32296015,11.3912713 7.23795066,11.4641366 7.0800759,11.5370019 L5.12485769,12.6056926 C5.05199241,12.6421252 5.05199241,12.629981 4.99127135,12.6664137 C4.71195446,12.8242884 4.42049336,12.9335863 4.15332068,13.1157495 C3.99544592,13.2129032 3.89829222,13.2493359 3.72827324,13.3343454 L1.8459203,14.3787476 C1.70018975,14.4637571 1.73662239,14.3908918 1.68804554,14.5609108 L1.68804554,14.5609108 Z" id="Path"></path>
        </g>
    </g>
</svg>