<?xml version="1.0" encoding="UTF-8"?>
<svg width="64px" height="64px" viewBox="0 0 64 64" version="1.1" xmlns="http://www.w3.org/2000/svg" xmlns:xlink="http://www.w3.org/1999/xlink">
    <title>img / logo / projects / polygon / GHST</title>
    <g id="img-/-logo-/-projects-/-polygon-/-GHST" stroke="none" stroke-width="1" fill="none" fill-rule="evenodd">
        <path d="M62.3616,19.69664 L60.71808,19.69664 C60.71808,17.6384 60.71808,15.18592 60.71808,13.12768 C59.899904,13.12768 58.253824,13.12768 57.43616,13.12768 C57.43616,12.309504 57.43616,10.663424 57.43616,9.84576 C56.617984,9.84576 54.971904,9.84576 54.15424,9.84576 C54.15424,9.027584 54.15424,7.381504 54.15424,6.56384 C53.336064,6.56384 51.689984,6.56384 50.87232,6.56384 C50.87232,5.745664 50.87232,4.099584 50.87232,3.28192 C48.815616,3.28192 46.365184,3.28192 44.30848,3.28192 C44.30848,2.463744 44.30848,0.817664 44.30848,0 C36.138496,0 27.866624,0 19.69664,0 C19.69664,0.818176 19.69664,2.464256 19.69664,3.28192 C17.639936,3.28192 15.189504,3.28192 13.1328,3.28192 C13.1328,4.100096 13.1328,5.746176 13.1328,6.56384 C12.314624,6.56384 10.668544,6.56384 9.85088,6.56384 C9.85088,7.382016 9.85088,9.028096 9.85088,9.84576 C9.032704,9.84576 7.386624,9.84576 6.56896,9.84576 C6.56896,10.663936 6.56896,12.310016 6.56896,13.12768 C5.74976,13.12768 4.10112,13.12768 3.28192,13.12768 C3.28192,15.18592 3.28192,17.6384 3.28192,19.69664 C2.463744,19.69664 0.817664,19.69664 0,19.69664 C0,21.490176 0,23.686656 0,25.47712 C21.31712,25.47712 42.68288,25.47712 64,25.47712 C64,23.68768 64,21.489152 64,19.69664 L62.3616,19.69664 L62.3616,19.69664 Z" id="Path" fill="#FA34F3" fill-rule="nonzero"></path>
        <path d="M62.3616,24.61696 C41.587712,24.61696 20.773888,24.61696 0,24.61696 C0,28.999168 0,33.775616 0,38.1696 C21.31712,38.1696 42.68288,38.1696 64,38.1696 C64,33.77152 64,29.002752 64,24.61696 L62.3616,24.61696 L62.3616,24.61696 Z" id="Path" fill="#CF15F9" fill-rule="nonzero"></path>
        <path d="M62.3616,34.46272 C41.587712,34.46272 20.773888,34.46272 0,34.46272 C0,37.658624 0,41.112576 0,44.30848 C0.818176,44.30848 2.464256,44.30848 3.28192,44.30848 L3.28192,45.82912 C22.408704,45.82912 41.591296,45.82912 60.71808,45.82912 L60.71808,44.30848 C61.536256,44.30848 63.182336,44.30848 64,44.30848 C64,41.112576 64,37.658624 64,34.46272 L62.3616,34.46272 Z" id="Path" fill="#AC15F9" fill-rule="nonzero"></path>
        <path d="M59.07968,44.30848 C40.495616,44.30848 21.865984,44.30848 3.28192,44.30848 C3.28192,46.365184 3.28192,48.815616 3.28192,50.87232 C4.10112,50.87232 5.74976,50.87232 6.56896,50.87232 C6.56896,51.690496 6.56896,53.336576 6.56896,54.15424 C7.387136,54.15424 9.033216,54.15424 9.85088,54.15424 L9.9072,56.27904 C24.630784,56.27904 39.430656,56.27904 54.15424,56.27904 L54.15424,54.15424 C54.972416,54.15424 56.618496,54.15424 57.43616,54.15424 C57.43616,53.336064 57.43616,51.689984 57.43616,50.87232 C58.254336,50.87232 59.900416,50.87232 60.71808,50.87232 C60.71808,48.815616 60.71808,46.365184 60.71808,44.30848 L59.07968,44.30848 Z" id="Path" fill="#8F17F9" fill-rule="nonzero"></path>
        <path d="M31.1808,64 C27.426304,64 23.451136,64 19.69664,64 C19.69664,63.181824 19.69664,61.535744 19.69664,60.71808 C17.639936,60.71808 15.189504,60.71808 13.1328,60.71808 C13.1328,59.899904 13.1328,58.253824 13.1328,57.43616 C12.314624,57.43616 10.668544,57.43616 9.85088,57.43616 C9.85088,56.617984 9.85088,54.971904 9.85088,54.15424 C24.599552,54.15424 39.405568,54.15424 54.15424,54.15424 C54.15424,54.972416 54.15424,56.618496 54.15424,57.43616 C53.336064,57.43616 51.689984,57.43616 50.87232,57.43616 C50.87232,58.254336 50.87232,59.900416 50.87232,60.71808 C48.815616,60.71808 46.365184,60.71808 44.30848,60.71808 C44.30848,61.536256 44.30848,63.182336 44.30848,64 C42.251776,64 39.801344,64 37.74464,64 C35.687936,64 33.236992,64 31.1808,64 Z" id="Path" fill="#7E18F8" fill-rule="nonzero"></path>
        <path d="M41.53344,37.0432 L41.53344,38.1696 C42.096128,38.1696 43.228672,38.1696 43.79136,38.1696 C43.79136,37.164544 43.79136,35.790336 43.79136,34.78528 C43.228672,34.78528 42.096128,34.78528 41.53344,34.78528 C41.53344,35.347968 41.53344,36.480512 41.53344,37.0432 Z" id="Path" fill="#FFFFFF" fill-rule="nonzero"></path>
        <path d="M39.27552,38.1696 C37.464576,38.1696 35.439104,38.1696 33.62816,38.1696 C33.62816,38.733824 33.62816,39.868928 33.62816,40.43264 C35.042816,40.43264 36.729344,40.43264 38.144,40.43264 C38.144,40.995328 38.144,42.127872 38.144,42.69056 C38.706688,42.69056 39.839232,42.69056 40.40192,42.69056 C40.40192,42.127872 40.40192,40.995328 40.40192,40.43264 L41.53344,40.43264 C41.53344,39.868416 41.53344,38.733312 41.53344,38.1696 C40.970752,38.1696 39.838208,38.1696 39.27552,38.1696 Z" id="Path" fill="#FFFFFF" fill-rule="nonzero"></path>
        <path d="M35.88608,34.78528 C37.697024,34.78528 39.722496,34.78528 41.53344,34.78528 C41.53344,34.221056 41.53344,33.085952 41.53344,32.52224 C39.722496,32.52224 37.697024,32.52224 35.88608,32.52224 C35.88608,33.086464 35.88608,34.221568 35.88608,34.78528 Z" id="Path" fill="#FFFFFF" fill-rule="nonzero"></path>
        <path d="M33.62816,29.1328 C33.62816,30.139392 33.62816,31.515648 33.62816,32.52224 C34.190848,32.52224 35.323392,32.52224 35.88608,32.52224 C35.88608,31.515648 35.88608,30.139392 35.88608,29.1328 C35.323392,29.1328 34.190848,29.1328 33.62816,29.1328 Z" id="Path" fill="#FFFFFF" fill-rule="nonzero"></path>
        <path d="M41.53344,26.87488 L40.40192,26.87488 C40.40192,26.312192 40.40192,25.179648 40.40192,24.61696 C39.839232,24.61696 38.706688,24.61696 38.144,24.61696 C38.144,25.179648 38.144,26.312192 38.144,26.87488 C37.581312,26.87488 36.448768,26.87488 35.88608,26.87488 C35.88608,27.437568 35.88608,28.570112 35.88608,29.1328 C38.470656,29.1328 41.206784,29.1328 43.79136,29.1328 C43.79136,28.570112 43.79136,27.437568 43.79136,26.87488 C43.228672,26.87488 42.096128,26.87488 41.53344,26.87488 Z" id="Path" fill="#FFFFFF" fill-rule="nonzero"></path>
        <path d="M56.2176,26.87488 C52.86912,26.87488 49.40288,26.87488 46.0544,26.87488 C46.0544,27.437568 46.0544,28.570112 46.0544,29.1328 C47.469056,29.1328 49.155584,29.1328 50.57024,29.1328 C50.57024,32.864256 50.57024,36.701184 50.57024,40.43264 C51.132928,40.43264 52.265472,40.43264 52.82816,40.43264 C52.82816,36.701184 52.82816,32.864256 52.82816,29.1328 C54.244864,29.1328 55.932928,29.1328 57.34912,29.1328 C57.34912,28.570112 57.34912,27.437568 57.34912,26.87488 L56.2176,26.87488 L56.2176,26.87488 Z" id="Path" fill="#FFFFFF" fill-rule="nonzero"></path>
        <path d="M29.1072,26.87488 C29.1072,28.685824 29.1072,30.711296 29.1072,32.52224 C27.296256,32.52224 25.270784,32.52224 23.45984,32.52224 C23.45984,30.711296 23.45984,28.685824 23.45984,26.87488 C22.897152,26.87488 21.764608,26.87488 21.20192,26.87488 C21.20192,31.364608 21.20192,35.942912 21.20192,40.43264 C21.764608,40.43264 22.897152,40.43264 23.45984,40.43264 C23.45984,38.621696 23.45984,36.596224 23.45984,34.78528 C25.270784,34.78528 27.296256,34.78528 29.1072,34.78528 C29.1072,36.596224 29.1072,38.621696 29.1072,40.43264 C29.669888,40.43264 30.802432,40.43264 31.36512,40.43264 C31.36512,35.942912 31.36512,31.364608 31.36512,26.87488 C30.802432,26.87488 29.669888,26.87488 29.1072,26.87488 Z" id="Path" fill="#FFFFFF" fill-rule="nonzero"></path>
        <path d="M16.68096,26.87488 C14.482432,26.87488 12.105728,26.87488 9.9072,26.87488 C9.9072,27.437568 9.9072,28.570112 9.9072,29.1328 C12.875264,29.1328 15.975936,29.1328 18.944,29.1328 C18.944,28.570112 18.944,27.437568 18.944,26.87488 C18.379776,26.87488 17.244672,26.87488 16.68096,26.87488 Z" id="Path" fill="#FFFFFF" fill-rule="nonzero"></path>
        <path d="M18.944,38.1696 C18.944,36.358656 18.944,34.333184 18.944,32.52224 C16.743424,32.52224 14.365696,32.52224 12.16512,32.52224 C12.16512,33.086464 12.16512,34.221568 12.16512,34.78528 C13.579776,34.78528 15.266304,34.78528 16.68096,34.78528 C16.68096,35.790336 16.68096,37.164544 16.68096,38.1696 C17.245184,38.1696 18.380288,38.1696 18.944,38.1696 Z" id="Path" fill="#FFFFFF" fill-rule="nonzero"></path>
        <path d="M9.9072,40.43264 C12.105728,40.43264 14.482432,40.43264 16.68096,40.43264 C16.68096,39.868416 16.68096,38.733312 16.68096,38.1696 C14.482432,38.1696 12.105728,38.1696 9.9072,38.1696 C9.9072,38.733824 9.9072,39.868928 9.9072,40.43264 Z" id="Path" fill="#FFFFFF" fill-rule="nonzero"></path>
        <path d="M7.64416,29.1328 C7.64416,32.100864 7.64416,35.201536 7.64416,38.1696 C8.208384,38.1696 9.343488,38.1696 9.9072,38.1696 C9.9072,35.201536 9.9072,32.100864 9.9072,29.1328 C9.342976,29.1328 8.207872,29.1328 7.64416,29.1328 Z" id="Path" fill="#FFFFFF" fill-rule="nonzero"></path>
    </g>
</svg>