<?xml version="1.0" encoding="UTF-8"?>
<svg width="64px" height="64px" viewBox="0 0 64 64" version="1.1" xmlns="http://www.w3.org/2000/svg" xmlns:xlink="http://www.w3.org/1999/xlink">
    <title>img / logo / projects / ethereum / HoloToken - HOT</title>
    <g id="img-/-logo-/-projects-/-ethereum-/-HoloToken---HOT" stroke="none" stroke-width="1" fill="none" fill-rule="evenodd">
        <g id="holo-hot-logo" transform="translate(0.000000, 9.000000)" fill="#007F88" fill-rule="nonzero">
            <path d="M1.67481237,0.0508318328 C0.705671931,0.127056361 -0.0402395279,0.279505419 0.00168396285,0.393842212 C0.388251215,1.31398116 2.77843465,6.7313673 2.8111023,6.76403496 C2.84376996,6.79670261 3.3991201,6.83481488 4.0524732,6.86203793 C6.94900528,6.97093011 9.24118575,7.53716946 11.7184829,8.76220653 C13.4988701,9.63878861 14.8164656,10.580706 16.1885071,11.9473029 C18.2084571,13.9618083 19.5260525,16.1995427 20.299187,18.9381811 C20.3863008,19.2539684 20.4570807,19.5370881 20.4570807,19.580645 C20.4570807,19.6405357 20.0160673,19.6514249 18.0668972,19.6514249 C16.7493018,19.6514249 15.6168231,19.6732033 15.5460432,19.7004264 C15.4425956,19.7385387 15.1703652,20.3265564 14.0378864,22.923635 C13.2756412,24.6713546 12.6440665,26.1413991 12.6331773,26.1904005 C12.595065,26.3319604 13.0524122,26.4571864 14.1957801,26.6259693 C14.4298983,26.6640815 15.8346075,26.7021938 17.4952133,26.7239722 L20.3863008,26.7566399 L20.2120733,27.3555469 C18.2629032,33.9653025 12.2139424,38.5877757 4.80382927,39.1431258 C4.38459436,39.1703488 3.83468883,39.1975719 3.5787922,39.1975719 L3.11600042,39.1975719 L1.68951281,42.4806712 C0.464475744,45.284645 0.273914422,45.7637706 0.35558356,45.7909936 C0.725816985,45.9271088 1.55339758,45.9761103 3.46990001,45.9761103 C5.91997415,45.9761103 7.11234356,45.8672181 9.13229357,45.4534278 C17.3808765,43.7601544 24.2356395,38.5115511 27.3390667,31.4988945 C27.9379737,30.1486314 28.6403283,27.9272309 28.7655543,26.9962027 L28.8036666,26.7294168 L34.9941872,26.7294168 L35.0159656,26.8491982 C35.4624236,29.0379311 35.9469938,30.5134202 36.7854636,32.2556952 C39.3063177,37.5042984 44.0322385,41.7892059 49.8851933,44.141277 C53.4393719,45.5646876 57.246505,46.2483042 61.0738652,46.1503378 C62.6745803,46.1013363 63.9486189,45.9216642 63.8832835,45.7528813 C63.8288375,45.6113215 61.1174221,39.3881332 61.1010883,39.3717994 C61.0847544,39.3554656 60.5239597,39.3336871 59.8433835,39.3064641 C57.9323257,39.2302395 56.4949489,39.0070106 54.8724553,38.5442188 C52.3733797,37.8255304 49.9015272,36.5242688 48.0068032,34.9344429 C45.6220643,32.9253821 43.8961232,30.4263065 42.9814289,27.6550004 C42.8779813,27.3392131 42.7745337,27.0070919 42.7581999,26.9090889 L42.7200876,26.7348615 L45.0503804,26.7185276 C46.3298635,26.7076384 47.4187854,26.6804154 47.4623422,26.6586369 C47.5331222,26.6205247 50.3207621,20.2993334 50.3207621,20.1741074 C50.3207621,20.0924382 49.6184075,19.8855431 48.9813882,19.7820955 C48.5131518,19.705871 47.9196894,19.6840926 45.5512844,19.6677587 L42.6819754,19.6405357 L42.7908676,19.2539684 C44.3806934,13.6242425 49.2590633,9.15421839 55.5475869,7.56983712 C56.9359622,7.22138213 58.2862253,7.04171003 60.0393895,6.97093011 C61.0847544,6.92737324 61.215425,6.91103941 61.2807604,6.82392566 C61.3243172,6.76403496 61.9667811,5.32121353 62.707248,3.61705085 C63.6164977,1.53176553 64.0357326,0.502734395 63.9976203,0.475511349 C63.8778389,0.410176039 63.1155937,0.274060809 62.5166866,0.214170108 C61.6455492,0.121611752 59.1029167,0.13794558 57.9813272,0.235948545 C51.5675776,0.80763251 45.7854026,3.39382187 41.4514937,7.6188386 C38.8054136,10.1995834 36.9488019,13.0961154 35.805434,16.4391055 C35.5114251,17.2830199 35.1575255,18.6115045 35.0486333,19.2539684 L34.983298,19.6514249 L28.8978583,19.6514249 L28.8760799,19.5261989 C28.859746,19.4608636 28.7998553,19.1505209 28.73452,18.8347335 C27.8361595,14.370154 25.2989716,10.0308005 21.7164188,6.83481488 C17.6384065,3.19237133 12.5531415,0.911080084 6.95608328,0.217981335 C5.27369904,0.0127195684 3.1051112,-0.058060351 1.67481237,0.0508318328 Z" id="Path"></path>
        </g>
    </g>
</svg>