<?xml version="1.0" encoding="UTF-8"?>
<svg width="64px" height="64px" viewBox="0 0 64 64" version="1.1" xmlns="http://www.w3.org/2000/svg" xmlns:xlink="http://www.w3.org/1999/xlink">
    <title>img / logo / projects / IME</title>
    <g id="img-/-logo-/-projects-/-IME" stroke="none" stroke-width="1" fill="none" fill-rule="evenodd">
        <g id="imperium-empires" fill-rule="nonzero">
            <polygon id="Path" fill="#1E1E1E" points="0 0 64 0 64 64 0 64"></polygon>
            <g id="Group" transform="translate(22.922667, 4.503467)" fill="#FFFFFF">
                <path d="M17.1072,24.1216 C17.6853333,24.1216 18.1525333,23.6544 18.1525333,23.0762667 L18.1525333,5.50826667 C18.1525333,5.2224 17.7834667,5.11146667 17.6256,5.3504 L9.2096,18.0394667 L0.7936,5.3504 C0.635733333,5.1136 0.266666667,5.22453333 0.266666667,5.50826667 L0.266666667,23.0762667 C0.266666667,23.6544 0.733866667,24.1216 1.312,24.1216 L7.81866667,24.1216 L7.81866667,26.4277333 L1.0688,26.4277333 C0.477866667,26.4277333 0,26.9056 0,27.4965333 C0,28.0874667 0.477866667,28.5653333 1.0688,28.5653333 L7.81866667,28.5653333 L7.81866667,31.0144 L1.312,31.0144 C0.733866667,31.0144 0.266666667,31.4816 0.266666667,32.0597333 L0.266666667,49.6277333 C0.266666667,49.9136 0.635733333,50.0245333 0.7936,49.7856 L9.2096,37.0965333 L17.6256,49.7856 C17.7834667,50.0224 18.1525333,49.9114667 18.1525333,49.6277333 L18.1525333,32.0618667 C18.1525333,31.4837333 17.6853333,31.0165333 17.1072,31.0165333 L10.3338667,31.0165333 L10.3338667,28.5674667 L17.0837333,28.5674667 C17.6746667,28.5674667 18.1525333,28.0896 18.1525333,27.4986667 C18.1525333,26.9077333 17.6746667,26.4298667 17.0837333,26.4298667 L10.3338667,26.4298667 L10.3338667,24.1237333 L17.1072,24.1237333 L17.1072,24.1216 Z M15.2768,13.152 C15.4901333,12.7872 16.0490667,12.9386667 16.0490667,13.3610667 L16.0490667,21.1562667 L10.6005333,21.1562667 L15.2768,13.152 Z M3.14453333,41.9861333 C2.9312,42.3509333 2.37226667,42.1994667 2.37226667,41.7770667 L2.37226667,33.9818667 L7.8208,33.9818667 L3.14453333,41.9861333 Z M16.0490667,33.9818667 L16.0490667,41.7770667 C16.0490667,42.1994667 15.4901333,42.3509333 15.2768,41.9861333 L10.6005333,33.9818667 L16.0490667,33.9818667 Z M2.37013333,21.1562667 L2.37013333,13.3610667 C2.37013333,12.9386667 2.92906667,12.7872 3.1424,13.152 L7.81866667,21.1562667 L2.37013333,21.1562667 Z" id="Shape"></path>
                <circle id="Oval" cx="9.2096" cy="51.2298667" r="3.7632"></circle>
                <circle id="Oval" cx="9.2096" cy="3.7632" r="3.7632"></circle>
            </g>
        </g>
    </g>
</svg>