<?xml version="1.0" encoding="UTF-8"?>
<svg width="64px" height="64px" viewBox="0 0 64 64" version="1.1" xmlns="http://www.w3.org/2000/svg" xmlns:xlink="http://www.w3.org/1999/xlink">
    <title>img / logo / projects / polygon / KNC</title>
    <g id="img-/-logo-/-projects-/-polygon-/-KNC" stroke="none" stroke-width="1" fill="none" fill-rule="evenodd">
        <g id="kyber-network-knc-logo" transform="translate(10.000000, 0.000000)" fill="#31CB9E" fill-rule="nonzero">
            <path d="M19.093811,32.0017815 L42.9605978,45.672677 C43.3511353,45.9074193 43.8379749,45.9130525 44.2338396,45.6874096 C44.6297043,45.4617667 44.8729253,45.039999 44.8700405,44.5843515 L44.8700405,19.4001181 C44.875696,18.943544 44.6321625,18.5201235 44.2346175,18.2955106 C43.8370724,18.0708976 43.3487125,18.0807984 42.9605978,18.3213394 L19.093811,32.0017815 Z" id="Path"></path>
            <path d="M42.4546219,12.2687222 L26.1392865,0.268501864 C25.7962267,0.00513256605 25.3445469,-0.0701214858 24.9346291,0.0677947561 C24.5247114,0.205710998 24.2103805,0.538688286 24.0962895,0.955865322 L18.1391396,27.6866665 L42.3114212,14.3212659 C42.6854948,14.1288375 42.9318673,13.7549741 42.9611449,13.3353283 C42.9904226,12.9156824 42.7983512,12.5112299 42.4546219,12.2687222" id="Path"></path>
            <path d="M26.120193,63.7255144 L42.4546219,51.7252941 C42.8029282,51.4804982 42.9987246,51.0720708 42.9714406,50.6472203 C42.9441566,50.2223699 42.6977255,49.8423424 42.3209679,49.6441103 L18.1391396,36.2787097 L24.0962895,63.0095108 C24.1966726,63.4313971 24.5024999,63.7745139 24.9101109,63.9225613 C25.3177219,64.0706087 25.7724607,64.0037353 26.120193,63.7446079" id="Path"></path>
            <path d="M12.8884465,31.5053523 L19.093811,2.48333967 C19.1907573,1.9913821 18.9797574,1.48976643 18.5603069,1.21502635 C18.1408564,0.940286273 17.5967146,0.947284099 17.1844681,1.23272005 L1.28918813,13.4238747 C0.473299713,14.0498093 -0.00341538216,15.0208956 0.000381644685,16.0492213 L0.000381644685,46.9805769 C-0.0154575176,48.0222881 0.462502602,49.0100723 1.28918813,49.6441103 L17.1080944,61.7970781 C17.5203408,62.082514 18.0644826,62.0895118 18.4839331,61.8147718 C18.9033836,61.5400317 19.1143836,61.038416 19.0174373,60.5464584 L12.8884465,31.5053523 Z" id="Path"></path>
        </g>
    </g>
</svg>