<?xml version="1.0" encoding="UTF-8"?>
<svg width="64px" height="64px" viewBox="0 0 64 64" version="1.1" xmlns="http://www.w3.org/2000/svg" xmlns:xlink="http://www.w3.org/1999/xlink">
    <title>img / logo / projects / BSC / Litecoin - LTC</title>
    <g id="img-/-logo-/-projects-/-BSC-/-Litecoin---LTC" stroke="none" stroke-width="1" fill="none" fill-rule="evenodd">
        <g id="litecoin-ltc-logo" fill-rule="nonzero">
            <circle id="Oval" fill="#FFFFFF" cx="32" cy="32" r="28.5365617"></circle>
            <path d="M32,0 C14.326888,0 0,14.326888 0,32 C0,49.673112 14.326888,64 32,64 C49.673112,64 64.0001361,49.673112 64.0001361,32 L64.0001361,32 C64.0246953,23.5377208 60.6867333,15.4122282 54.720435,9.41105627 C48.7541367,3.40988435 40.6482359,0.0246234569 32.1859564,0 L32,0 Z M32.5423729,33.0847458 L29.2106538,44.3196126 L47.031477,44.3196126 C47.2698893,44.3112496 47.501846,44.3980117 47.6762457,44.5607848 C47.8506455,44.7235579 47.9531795,44.9489871 47.9612591,45.1874092 L47.9612591,45.4818402 L46.4116223,50.8280872 C46.270896,51.3488151 45.7883419,51.7026881 45.2493947,51.6803874 L17.9757869,51.6803874 L22.5472155,36.1065375 L17.433414,37.6561743 L18.5956416,34.0920097 L23.7094431,32.5423729 L30.1404358,10.6924939 C30.2861072,10.1751756 30.7654817,9.82363433 31.3026634,9.8401937 L38.1985472,9.8401937 C38.4369595,9.83183068 38.6689162,9.9185928 38.843316,10.0813659 C39.0177157,10.244139 39.1202498,10.4695682 39.1283293,10.7079903 L39.1283293,11.0024213 L33.7046005,29.4430993 L38.8184019,27.8934625 L37.7336562,31.6125908 L32.5423729,33.0847458 Z" id="Shape" fill="#345D9D"></path>
        </g>
    </g>
</svg>