<?xml version="1.0" encoding="UTF-8"?>
<svg width="64px" height="64px" viewBox="0 0 64 64" version="1.1" xmlns="http://www.w3.org/2000/svg" xmlns:xlink="http://www.w3.org/1999/xlink">
    <title>img / logo / projects / polygon / MATIC</title>
    <g id="img-/-logo-/-projects-/-polygon-/-MATIC" stroke="none" stroke-width="1" fill="none" fill-rule="evenodd">
        <circle id="Oval" fill="#8247E5" fill-rule="nonzero" cx="32" cy="32" r="32"></circle>
        <path d="M42.591872,25.153472 C41.824384,24.707008 40.82656,24.707008 39.982272,25.153472 L33.995584,28.576768 L29.92768,30.80928 L23.940928,34.232576 C23.17344,34.67904 22.175616,34.67904 21.331392,34.232576 L16.572672,31.553472 C15.805184,31.106944 15.267904,30.288384 15.267904,29.395328 L15.267904,24.111616 C15.267904,23.218624 15.728384,22.4 16.572672,21.953472 L21.254592,19.348864 C22.022144,18.902336 23.019904,18.902336 23.864192,19.348864 L28.546112,21.953472 C29.313664,22.4 29.850944,23.218624 29.850944,24.111616 L29.850944,27.534912 L33.918848,25.227904 L33.918848,21.804672 C33.918848,20.911616 33.458304,20.092992 32.614016,19.646528 L23.940928,14.734912 C23.17344,14.288384 22.175616,14.288384 21.331392,14.734912 L12.504768,19.646528 C11.660544,20.092992 11.2,20.911616 11.2,21.804672 L11.2,31.702336 C11.2,32.595328 11.660544,33.413952 12.504768,33.86048 L21.331392,38.772096 C22.09888,39.218624 23.096704,39.218624 23.940928,38.772096 L29.92768,35.423232 L33.995584,33.116288 L39.982272,29.767424 C40.749824,29.32096 41.747584,29.32096 42.591872,29.767424 L47.273792,32.372096 C48.041344,32.818624 48.578624,33.637184 48.578624,34.53024 L48.578624,39.813952 C48.578624,40.706944 48.11808,41.525568 47.273792,41.972096 L42.591872,44.651136 C41.824384,45.097664 40.82656,45.097664 39.982272,44.651136 L35.300352,42.046528 C34.532864,41.6 33.995584,40.781376 33.995584,39.888384 L33.995584,36.465088 L29.92768,38.772096 L29.92768,42.195328 C29.92768,43.088384 30.38816,43.907008 31.232448,44.353472 L40.059072,49.265088 C40.82656,49.711616 41.824384,49.711616 42.668608,49.265088 L51.495232,44.353472 C52.26272,43.907008 52.8,43.088384 52.8,42.195328 L52.8,32.297664 C52.8,31.404672 52.339456,30.586048 51.495232,30.13952 L42.591872,25.153472 Z" id="Path" fill="#FFFFFF" fill-rule="nonzero"></path>
    </g>
</svg>