<?xml version="1.0" encoding="UTF-8"?>
<svg width="64px" height="64px" viewBox="0 0 64 64" version="1.1" xmlns="http://www.w3.org/2000/svg" xmlns:xlink="http://www.w3.org/1999/xlink">
    <title>img / logo / projects / QI</title>
    <g id="img-/-logo-/-projects-/-QI" stroke="none" stroke-width="1" fill="none" fill-rule="evenodd">
        <circle id="Oval" fill="#FFFFFF" cx="32" cy="32" r="32"></circle>
        <g id="benqi-qi-token-log" transform="translate(11.000000, 11.000000)" fill-rule="nonzero">
            <path d="M21.0174778,33.510737 L20.9756529,33.510737 C14.0568061,33.5803469 8.39154257,28.0279433 8.3219327,21.1090965 C8.25232283,14.1902496 13.8047264,8.52498615 20.7235732,8.45537627 L20.9609577,8.45537627 C24.9897908,8.4521671 28.7740665,10.3877074 31.1294907,13.6562673 C33.4849148,16.9248272 34.1237249,21.1270861 32.8460045,24.9479417 L38.4765369,32.5080704 C44.8486131,22.8340899 42.1763427,9.83446673 32.5080143,3.46239056 C22.8396858,-2.90968561 9.8344106,-0.23741524 3.46233443,9.43091321 C-2.90974174,19.0992417 -0.237471374,32.1033865 9.43198748,38.476593 C14.5475466,41.8487256 20.8823808,42.8139432 26.7700936,41.1183426 C26.5530564,40.8922622 21.0186082,33.505085 21.0186082,33.505085" id="Path" fill="#000000"></path>
            <path d="M30.9152778,27.0007518 L30.9152778,27.0007518 L30.6586766,26.6559792 C30.595374,26.5757206 30.5128547,26.4818972 30.4246833,26.3812915 C30.2224907,26.1564912 30.0085457,25.9425462 29.7837454,25.7403535 C29.68427,25.6510518 29.5768818,25.5583588 29.464972,25.4667962 C29.4073215,25.4193193 29.3519318,25.3718425 29.2874989,25.3243656 L29.1043738,25.1841957 C28.9777688,25.0907492 28.8436277,24.9969258 28.7019507,24.9027256 C27.0413901,23.8175397 25.2587461,23.2862507 23.1098519,23.2862507 L17.6341845,23.2862507 C17.6341845,23.2862507 26.6536622,35.3578139 28.882815,38.3963345 C29.1360715,38.7455649 29.4193736,39.0719865 29.7294861,39.3718714 C29.7690502,39.4103051 29.810875,39.4498692 29.8538303,39.4849116 C29.9533057,39.5742134 30.0595635,39.6669064 30.1726037,39.7607297 L30.3489464,39.9031604 L30.5320715,40.0421998 C30.659807,40.1360232 30.7931944,40.2298466 30.9344947,40.3236699 C32.5961856,41.4099863 34.4613489,41.9424056 36.5277238,41.9424056 L42,41.9424056 L30.9152778,27.0007518 Z" id="Path" fill="#00B2EC"></path>
        </g>
    </g>
</svg>