<?xml version="1.0" encoding="UTF-8"?>
<svg width="64px" height="64px" viewBox="0 0 64 64" version="1.1" xmlns="http://www.w3.org/2000/svg" xmlns:xlink="http://www.w3.org/1999/xlink">
    <title>img / logo / projects / ethereum / Quant - QNT</title>
    <g id="img-/-logo-/-projects-/-ethereum-/-Quant---QNT" stroke="none" stroke-width="1" fill="none" fill-rule="evenodd">
        <g id="quant-qnt-logo" transform="translate(2.000000, 0.000000)" fill="#000000" fill-rule="nonzero">
            <path d="M13.4064242,3.79644915 L29.6633152,22.8436042 L40.5754749,16.4246868 C40.5754749,16.4246868 27.4101441,-1.18148684 23.8993893,0.062997161 C20.5982317,1.32058099 13.4064242,3.79644915 13.4064242,3.79644915 Z" id="Path"></path>
            <path d="M40.9815696,16.4246868 C40.9815696,16.4246868 43.4574378,12.0755427 44.688822,6.27231732 C44.688822,6.27231732 57.0419631,11.2371535 52.2998241,23.6688936 L40.9815696,16.4246868 Z" id="Path"></path>
            <path d="M52.2998241,23.6819934 L53.3347108,36.7294257 L58.06375,36.1137336 C58.06375,36.1137336 59.2951341,35.694539 59.0986367,33.4282681 C58.8890394,30.9393001 58.4829446,25.7648667 58.4829446,25.7648667 C58.4829446,25.7648667 58.6925419,24.5203827 55.810579,24.1142879 C52.2998241,23.4723961 52.2998241,23.6819934 52.2998241,23.6819934 Z" id="Path"></path>
            <path d="M53.321611,36.7294257 L43.8504327,44.3928271 L48.1733772,52.881518 C48.1733772,52.881518 49.2082638,56.1957754 52.2867243,52.4623234 C55.1686872,48.7288714 56.4000714,48.1131793 56.1904741,45.8338086 C56.0070764,43.5544379 55.3782845,38.1704071 53.321611,36.7294257 Z" id="Path"></path>
            <path d="M43.6539353,44.3797273 L30.685102,38.5765019 L19.3668476,61.5667063 C19.3668476,61.5667063 18.5415582,63.2172851 21.4235211,63.4268824 C24.3054841,63.846077 29.0345233,64.8809637 31.5103914,62.3919957 C33.9862596,60.1257248 43.6539353,44.3797273 43.6539353,44.3797273 Z" id="Path"></path>
            <path d="M30.685102,38.3800044 L29.4537179,23.0532015 L1.45937785,24.9264774 C1.45937785,24.9264774 -0.191200927,25.1360747 0.0183963774,28.2407348 C0.227993682,32.3802816 0.63408846,36.939023 0.63408846,36.939023 C0.63408846,36.939023 0.424491155,38.7991991 4.13174348,39.0087964 C7.83899581,39.2052938 30.2790073,39.2052938 30.685102,38.3800044 Z" id="Path"></path>
        </g>
    </g>
</svg>