<?xml version="1.0" encoding="UTF-8"?>
<svg width="64px" height="64px" viewBox="0 0 64 64" version="1.1" xmlns="http://www.w3.org/2000/svg" xmlns:xlink="http://www.w3.org/1999/xlink">
    <title>img / logo / projects / polygon / UNI</title>
    <g id="img-/-logo-/-projects-/-polygon-/-UNI" stroke="none" stroke-width="1" fill="none" fill-rule="evenodd">
        <g id="uniswap-uni-logo" transform="translate(4.000000, 0.000000)" fill="#FF007A">
            <path d="M21.7858931,14.5559567 C21.0927523,14.4569366 21.0597456,14.4239299 21.3898127,14.3909232 C22.01694,14.291903 23.469235,14.4239299 24.4924429,14.6549768 C26.8689256,15.2160908 29.0143614,16.6683858 31.291824,19.209902 L31.8859447,19.9030428 L32.744119,19.771016 C36.4078632,19.1768953 40.1706275,19.6389892 43.3062644,21.0912842 C44.1644388,21.4873646 45.5177136,22.2795255 45.6827472,22.4775658 C45.7487606,22.5435792 45.8477807,22.9726663 45.9137941,23.4017535 C46.144841,24.9530686 46.0458209,26.1083032 45.5507203,26.9994843 C45.2866667,27.4945848 45.2866667,27.6266117 45.4517002,28.0556988 C45.5837271,28.3857659 45.9798075,28.6168128 46.3428813,28.6168128 C47.1350422,28.6168128 47.9602098,27.362558 48.3562902,25.6132027 L48.5213237,24.9200619 L48.8183841,25.2501289 C50.501726,27.1315111 51.8219942,29.7390407 52.0200344,31.5874162 L52.0860478,32.0825168 L51.7889875,31.6534296 C51.2938869,30.8942754 50.8317931,30.3991748 50.2046657,29.9700877 C49.0824377,29.2109335 47.8941964,28.9798865 44.7585594,28.814853 C41.9199829,28.6498195 40.3026543,28.4187726 38.7183325,27.8906653 C36.0117827,26.9994843 34.6255012,25.8442496 31.4238508,21.5863847 C30.0045625,19.7050026 29.1133815,18.6817947 28.2222005,17.8236204 C26.2748049,15.9422383 24.3274094,14.9520371 21.7858931,14.5559567 Z" id="Path" fill-rule="nonzero"></path>
            <path d="M46.375888,18.7478081 C46.4419014,17.4935534 46.6069349,16.6683858 46.9700086,15.9092316 C47.1020355,15.6121712 47.2340623,15.3481176 47.267069,15.3481176 C47.3000757,15.3481176 47.2340623,15.5791645 47.1350422,15.8432182 C46.8709885,16.5693657 46.8379818,17.5925735 47.0030153,18.7478081 C47.2340623,20.2331099 47.3330824,20.4311501 48.9174042,22.0484786 C49.6435517,22.8076328 50.501726,23.7648272 50.8317931,24.1609077 L51.392907,24.8870552 L50.8317931,24.3589479 C50.1386523,23.6988138 48.5543305,22.4445591 48.1912567,22.2795255 C47.9602098,22.1474987 47.9272031,22.1474987 47.7621695,22.3125322 C47.6301427,22.4445591 47.597136,22.6425993 47.597136,23.5997937 C47.5641293,25.0850954 47.3660891,26.0092831 46.8709885,26.9664776 C46.6069349,27.4615781 46.5739282,27.362558 46.8049751,26.801444 C46.9700086,26.3723569 47.0030153,26.1743167 47.0030153,24.7550284 C47.0030153,21.8834451 46.6729483,21.1903043 44.6595393,20.0350696 C44.1644388,19.7380093 43.3062644,19.3089221 42.8111639,19.0778752 C42.2830566,18.8468283 41.8869761,18.648788 41.9199829,18.648788 C41.9859963,18.5827746 43.9333918,19.1438886 44.692546,19.4739556 C45.8477807,19.9360495 46.0458209,19.9690562 46.1778477,19.9360495 C46.2768678,19.8370294 46.3428813,19.5729758 46.375888,18.7478081 Z" id="Path" fill-rule="nonzero"></path>
            <path d="M23.139168,23.6658071 C21.7528864,21.7514183 20.8617054,18.7808149 21.0597456,16.5693657 L21.125759,15.8762249 L21.4558261,15.9422383 C22.0499468,16.0412584 23.0731546,16.4373388 23.5682552,16.7343992 C24.8885233,17.5265601 25.482644,18.6157813 26.043758,21.3223311 C26.2087915,22.114492 26.4398384,23.0386797 26.5388586,23.3357401 C26.7038921,23.8308406 27.3310195,24.9860753 27.8591267,25.7122228 C28.2222005,26.2403301 27.9911536,26.5043837 27.1659859,26.4383703 C25.9117312,26.3063435 24.2283892,25.1511088 23.139168,23.6658071 Z" id="Path" fill-rule="nonzero"></path>
            <path d="M44.692546,38.0237236 C38.1572185,35.3831872 35.8467492,33.1057246 35.8467492,29.2439402 C35.8467492,28.6828262 35.8797559,28.2207323 35.8797559,28.2207323 C35.9127626,28.2207323 36.1438096,28.4187726 36.4408699,28.6498195 C37.7611381,29.706034 39.2464398,30.1681279 43.3722778,30.7622486 C45.7817673,31.1253223 47.1680489,31.389376 48.4223036,31.8184631 C52.4161149,33.1387313 54.8916177,35.8452811 55.4857384,39.5090253 C55.6507719,40.5652398 55.5517518,42.5786488 55.2876982,43.6348633 C55.0566512,44.4600309 54.3965171,45.9783394 54.2314836,46.0113461 C54.1984769,46.0113461 54.1324635,45.8463125 54.1324635,45.5822589 C54.0664501,44.1959773 53.3733093,42.8757091 52.2180747,41.8525013 C50.8317931,40.6642599 49.049431,39.7730789 44.692546,38.0237236 Z" id="Path" fill-rule="nonzero"></path>
            <path d="M40.0716074,39.1129448 C40.005594,38.6178442 39.8405605,37.9907169 39.7415404,37.7266632 L39.5765068,37.2315627 L39.8735672,37.5946364 C40.3026543,38.089737 40.6327214,38.6838577 40.9297817,39.5090253 C41.1608286,40.1361527 41.1608286,40.3341929 41.1608286,41.3574007 C41.1608286,42.3476019 41.1278219,42.5786488 40.9297817,43.1397628 C40.5997147,44.0309438 40.2036342,44.6580712 39.5435001,45.351212 C38.3552588,46.57246 36.8039437,47.2325941 34.5924945,47.5296545 C34.196414,47.5626612 33.074186,47.6616813 32.0839849,47.7276947 C29.6084821,47.8597215 27.9581469,48.1237751 26.4728452,48.6518824 C26.2748049,48.7178958 26.0767647,48.7839092 26.043758,48.7509025 C25.9777446,48.6848891 27.0009524,48.0907684 27.82612,47.694688 C28.9813547,47.133574 30.1695961,46.8365137 32.7771257,46.3744198 C34.0643872,46.1763796 35.3846554,45.9123259 35.7147224,45.7802991 C38.9823862,44.7570913 40.5997147,42.215575 40.0716074,39.1129448 Z" id="Path" fill-rule="nonzero"></path>
            <path d="M43.0752175,44.4270242 C42.2170432,42.5456421 42.019003,40.76328 42.4810968,39.0799381 C42.5471102,38.9149046 42.6131236,38.7498711 42.6791371,38.7498711 C42.7451505,38.7498711 42.9431907,38.8488912 43.1412309,38.980918 C43.5373114,39.2449716 44.362479,39.7070655 46.4749081,40.8623002 C49.1484511,42.3145952 50.6667595,43.4368231 51.7229741,44.7240846 C52.6471618,45.8463125 53.2082758,47.133574 53.4723294,48.7178958 C53.6373629,49.6090768 53.5383428,51.7545126 53.3072959,52.6456937 C52.5811484,55.4512635 50.9308132,57.6957194 48.5213237,58.9829809 C48.15825,59.1810211 47.8611897,59.313048 47.828183,59.313048 C47.7951763,59.313048 47.9272031,58.9829809 48.1252433,58.5869005 C48.9174042,56.9035585 49.0164243,55.28623 48.4223036,53.4708613 C48.0592299,52.3486333 47.3000757,50.9953584 45.7817673,48.7178958 C43.9663985,46.0773595 43.5373114,45.3842187 43.0752175,44.4270242 Z" id="Path" fill-rule="nonzero"></path>
            <path d="M18.4852227,54.5270758 C20.9277188,52.4806601 23.9313289,51.0283651 26.7038921,50.5662713 C27.8921334,50.368231 29.8725357,50.4342445 30.961757,50.7313048 C32.7111123,51.1933987 34.2954341,52.1835998 35.1206017,53.4048479 C35.9127626,54.5930892 36.2758364,55.6162971 36.6389101,57.8937597 C36.770937,58.7849407 36.9359705,59.7091284 36.9689772,59.9071686 C37.2330308,61.09541 37.7611381,62.0195977 38.4212722,62.5146983 C39.44448,63.2738525 41.2268421,63.3068592 42.9761974,62.6467251 C43.2732577,62.547705 43.5373114,62.4486849 43.5373114,62.4816916 C43.6033248,62.547705 42.7121438,63.1418257 42.1180231,63.438886 C41.2928555,63.8679732 40.6327214,64 39.7415404,64 C38.1572185,64 36.8039437,63.1748324 35.7147224,61.5244972 C35.4836755,61.1944301 35.0215816,60.2372357 34.6255012,59.3460547 C33.4702665,56.6725116 32.8761458,55.8803507 31.5228709,54.9891697 C30.3346296,54.2300155 28.8163212,54.0649819 27.6610865,54.6260959 C26.1427781,55.3522434 25.7466977,57.299639 26.8029122,58.4878804 C27.2319994,58.9829809 28.0241603,59.3790614 28.6842944,59.4780815 C29.9055424,59.643115 30.961757,58.6859206 30.961757,57.4646725 C30.961757,56.6725116 30.6646966,56.2104177 29.8725357,55.847344 C28.8163212,55.3852501 27.6610865,55.9133574 27.6940932,56.9365652 C27.6940932,57.3656524 27.8921334,57.629706 28.3212206,57.8277463 C28.5852742,57.9597731 28.5852742,57.9597731 28.387234,57.9267664 C27.4300396,57.7287261 27.1989927,56.5404848 27.9581469,55.7813306 C28.8823346,54.8571429 30.8297301,55.2532233 31.4898642,56.5404848 C31.7539179,57.0685921 31.7869246,58.1248066 31.5558776,58.7849407 C30.9947637,60.2372357 29.4104419,60.9963899 27.7931133,60.5673027 C26.7038921,60.2702424 26.2417982,59.9731821 24.92153,58.6199072 C22.6110607,56.2434244 21.7198797,55.7813306 18.4192093,55.28623 L17.7920819,55.1872099 L18.4852227,54.5270758 Z" id="Path" fill-rule="nonzero"></path>
            <path d="M1.12369611,1.41928829 C8.81425825,10.7601857 20.6636652,25.2831356 21.2577858,26.0752965 C21.7528864,26.7354306 21.5548462,27.362558 20.7296786,27.8246519 C20.2675847,28.0887055 19.3103903,28.3527592 18.8482964,28.3527592 C18.3201891,28.3527592 17.6930618,28.0887055 17.2639746,27.6596184 C16.9669143,27.362558 15.6796528,25.4811759 12.7750628,20.9592573 C10.5636136,17.4935534 8.68223143,14.6219701 8.64922473,14.5889634 C8.51719791,14.52295 8.51719791,14.52295 12.5440159,21.7184116 C15.0855321,26.2403301 15.9106997,27.8576586 15.9106997,28.0556988 C15.9106997,28.484786 15.7786729,28.7158329 15.2505656,29.3099536 C14.3593846,30.3001547 13.9633042,31.4223827 13.6662438,33.7658587 C13.3361768,36.3733883 12.4449957,38.2217638 9.9034795,41.3574007 C8.4181778,43.2057762 8.18713087,43.5358432 7.82405712,44.2949974 C7.36196325,45.2191851 7.22993644,45.7472924 7.16392303,46.9355338 C7.09790962,48.1897886 7.22993644,48.9819495 7.59301019,50.1701908 C7.92307723,51.2264054 8.28615098,51.9195462 9.177332,53.272821 C9.9364862,54.4610624 10.3985801,55.3522434 10.3985801,55.6823105 C10.3985801,55.9463641 10.4645935,55.9463641 11.6528348,55.6823105 C14.4914114,55.0221764 16.8348874,53.8999484 18.1221489,52.5136668 C18.9143098,51.6554925 19.1123501,51.1933987 19.1123501,50.0051573 C19.1123501,49.2460031 19.0793433,49.0809696 18.8813031,48.6188757 C18.5512361,47.8927282 17.9241087,47.2986075 16.5708338,46.3744198 C14.7884718,45.1531717 14.0293176,44.1629706 13.8312773,42.8427024 C13.6662438,41.7204745 13.864284,40.9613203 14.8544852,38.8818979 C15.877693,36.7364621 16.1417466,35.8452811 16.3067802,33.6668386 C16.4058003,32.280557 16.5708338,31.719443 16.9669143,31.2903559 C17.3960014,30.828262 17.7590752,30.6632285 18.782283,30.5312017 C20.4656249,30.3001547 21.5548462,29.8710676 22.4130205,29.0458999 C23.1721747,28.3527592 23.5022417,27.6596184 23.5352485,26.6364105 L23.5682552,25.8772563 L23.139168,25.4151625 C21.5878529,23.6328004 0.100488267,0 0.00146815396,0 C-0.0315385505,0 0.496568721,0.627127385 1.12369611,1.41928829 Z M11.2567544,48.3548221 C11.6198281,47.7276947 11.4217879,46.9355338 10.8276672,46.5394533 C10.2665532,46.1763796 9.40837893,46.3414131 9.40837893,46.8365137 C9.40837893,46.9685405 9.47439234,47.1005673 9.67243257,47.1665807 C9.96949291,47.3316142 10.0024996,47.4966478 9.77145268,47.8597215 C9.54040575,48.2227953 9.54040575,48.5528623 9.83746609,48.7839092 C10.29956,49.146983 10.9266873,48.9489428 11.2567544,48.3548221 Z" id="Shape"></path>
            <path d="M24.6244697,30.9932955 C23.8323088,31.2243424 23.0731546,32.0825168 22.8421077,32.9406911 C22.7100808,33.4687983 22.7760942,34.4259928 23.0071412,34.7230531 C23.3702149,35.185147 23.700282,35.3171738 24.6244697,35.3171738 C26.4398384,35.3171738 27.9911536,34.5250129 28.1561871,33.5678185 C28.3212206,32.7756576 27.6280798,31.6864363 26.6708854,31.1913357 C26.1757848,30.9272821 25.152577,30.828262 24.6244697,30.9932955 Z M26.7368988,32.6436307 C27.0009524,32.2475503 26.9019323,31.8184631 26.4068317,31.5214028 C25.5156507,30.9602888 24.1623758,31.4223827 24.1623758,32.280557 C24.1623758,32.7096441 24.8555166,33.171738 25.5156507,33.171738 C25.9447379,33.171738 26.5388586,32.9076844 26.7368988,32.6436307 Z" id="Shape"></path>
        </g>
    </g>
</svg>