<?xml version="1.0" encoding="UTF-8"?>
<svg width="64px" height="64px" viewBox="0 0 64 64" version="1.1" xmlns="http://www.w3.org/2000/svg" xmlns:xlink="http://www.w3.org/1999/xlink">
    <title>img / logo / projects / bnb chain / WBNB</title>
    <g id="img-/-logo-/-projects-/-bnb-chain-/-WBNB" stroke="none" stroke-width="1" fill="none" fill-rule="evenodd">
        <g id="binance-icon" fill="#F0B90B" fill-rule="nonzero">
            <path d="M14.5,32 L7.25,39.25 L0,32 L7.25,24.75 L14.5,32 Z M32,14.45 L44.4,26.85 L51.65,19.6 L39.25,7.25 L32,0 L24.8,7.25 L12.4,19.6 L19.65,26.85 L32,14.45 Z M56.75,24.8 L49.55,32 L56.8,39.25 L64,32 L56.75,24.8 Z M32,49.55 L19.6,37.15 L12.4,44.4 L24.8,56.8 L32,64 L39.25,56.75 L51.65,44.35 L44.4,37.15 L32,49.55 Z M32,39.2 L39.25,32 L32,24.75 L24.8,32 L32,39.2 Z" id="Shape"></path>
        </g>
    </g>
</svg>